<svg xmlns="http://www.w3.org/2000/svg" width="366" height="372.077" viewBox="0 0 366 372.077">
  <g id="Grupo_18044" data-name="Grupo 18044" transform="translate(-422 -2586)">
    <rect id="Rectángulo_3934" data-name="Rectángulo 3934" width="366" height="372" rx="17" transform="translate(422 2586)" fill="#a7e0e8"/>
    <g id="Grupo_16396" data-name="Grupo 16396" transform="translate(311.419 2608.308)">
      <g id="Grupo_16395" data-name="Grupo 16395" transform="translate(140.341 52.676)">
        <rect id="Rectángulo_3935" data-name="Rectángulo 3935" width="209.258" height="228.821" transform="translate(51.923 1.921)" fill="#eee6dc"/>
        <g id="Grupo_16382" data-name="Grupo 16382" transform="translate(82.611 19.709)">
          <g id="Grupo_16358" data-name="Grupo 16358" transform="translate(37.849 150.641)">
            <path id="Trazado_32747" data-name="Trazado 32747" d="M333.938,284.943l-.065,4.292c-4.821,7.317-14.843,29.453-16.048,60.2,0,0-.774,11.649,1.836,41.058l-.482,21.2h28.564l7.634-79.636,13.9,79.436,32.043.2s-4.061-14.583-4.494-24.368c-.56-12.655-1.9-70.855-21.03-98.07l-.4-4.305Z" transform="translate(-317.718 -284.943)" fill="#6a6abb"/>
            <line id="Línea_2" data-name="Línea 2" x2="41.921" transform="translate(16.156 4.292)" fill="none" stroke="#5252a3" stroke-miterlimit="10" stroke-width="1.731"/>
            <line id="Línea_3" data-name="Línea 3" y1="42.815" transform="translate(37.659 4.292)" fill="none" stroke="#5252a3" stroke-miterlimit="10" stroke-width="1.731"/>
            <line id="Línea_4" data-name="Línea 4" y1="3.884" x2="23.563" transform="translate(29.17 44.604)" fill="none" stroke="#5252a3" stroke-miterlimit="10" stroke-width="1.731"/>
            <line id="Línea_5" data-name="Línea 5" x2="10.187" y2="1.382" transform="translate(37.659 47.107)" fill="none" stroke="#5252a3" stroke-miterlimit="10" stroke-width="1.731"/>
            <path id="Trazado_32748" data-name="Trazado 32748" d="M375.161,290.795,375.1,319.2a8.833,8.833,0,0,1-2.215,5.441l-3.453,3.893" transform="translate(-331.503 -286.503)" fill="none" stroke="#5252a3" stroke-miterlimit="10" stroke-width="1.731"/>
          </g>
          <g id="Grupo_16367" data-name="Grupo 16367" transform="translate(0 86.642)">
            <g id="Grupo_16359" data-name="Grupo 16359" transform="translate(42.747)">
              <path id="Trazado_32749" data-name="Trazado 32749" d="M348.708,197.991,328.9,201.617a6.006,6.006,0,0,0-4.461,6.538l11.279,53.527h41.453l12.52-52.488a6.007,6.007,0,0,0-4.5-6.544l-19.732-4.967Z" transform="translate(-324.395 -197.683)" fill="#fff"/>
              <path id="Trazado_32750" data-name="Trazado 32750" d="M350.168,199.453s12.221,12.638,28.587.318" transform="translate(-331.265 -198.155)" fill="none" stroke="#ebebeb" stroke-miterlimit="10" stroke-width="1.84"/>
            </g>
            <g id="Grupo_16361" data-name="Grupo 16361" transform="translate(0 0.879)">
              <path id="Trazado_32751" data-name="Trazado 32751" d="M336.326,198.881s5.082,49.334,2.541,96.87l-25.173,2.761s.994-26.188.662-34.48c-1.044-26.086-13.293-52.369-13.293-52.369s3.816-9.7,14.616-10.862Z" transform="translate(-275.429 -198.881)" fill="#dd8285"/>
              <path id="Trazado_32752" data-name="Trazado 32752" d="M293.143,212.809a366.6,366.6,0,0,0-25.948,51.007c-2.959,7.3.307,14.78,7.806,17.181a164.859,164.859,0,0,0,36,7.906q1.149.112,2.326.213c34.576,2.985-.785-.067-.785-.067l7.178-22.787-21.493-8.738,5.944-9.876Z" transform="translate(-266.111 -202.594)" fill="#dd8285"/>
              <g id="Grupo_16360" data-name="Grupo 16360" transform="translate(24.207 21.827)">
                <line id="Línea_6" data-name="Línea 6" y1="32.84" x2="10.765" transform="translate(20.685 36.491)" fill="none" stroke="#c15f68" stroke-miterlimit="10" stroke-width="1.84"/>
                <path id="Trazado_32753" data-name="Trazado 32753" d="M314.867,254.194s-1.994-18.967-3.4-25.553" transform="translate(-302.41 -228.641)" fill="none" stroke="#c15f68" stroke-miterlimit="10" stroke-width="1.84"/>
                <line id="Línea_7" data-name="Línea 7" x1="8.206" y1="3.919" transform="translate(0 28.696)" fill="none" stroke="#c15f68" stroke-miterlimit="10" stroke-width="1.84"/>
                <line id="Línea_8" data-name="Línea 8" x2="15.704" y2="6.266" transform="translate(14.158 35.027)" fill="none" stroke="#c15f68" stroke-miterlimit="10" stroke-width="1.84"/>
                <line id="Línea_9" data-name="Línea 9" x2="7.362" y2="1.006" transform="translate(14.502 64.121)" fill="none" stroke="#c15f68" stroke-miterlimit="10" stroke-width="1.84"/>
              </g>
            </g>
            <g id="Grupo_16366" data-name="Grupo 16366" transform="translate(54.586 0.885)">
              <g id="Grupo_16362" data-name="Grupo 16362" transform="translate(31.341)">
                <path id="Trazado_32754" data-name="Trazado 32754" d="M403.057,201.5s24.253-1.509,28.218,18.985c2.523,13.043,13.169,37.826,11.617,54.479-.979,10.514-14.2,17.243-25.518,12.688-2.964-1.193-5.35-3.026-6.12-5.83C408.688,272.476,403.057,201.5,403.057,201.5Z" transform="translate(-388.545 -199.579)" fill="#dd8285"/>
                <path id="Trazado_32755" data-name="Trazado 32755" d="M388.774,198.889s-5.759,73.8-5.495,97.8l27.526,1.119s-1.748-58.35.866-88.264c.3-3.424-1.982-7.212-5.34-7.943C402.178,200.7,396.082,200.137,388.774,198.889Z" transform="translate(-383.27 -198.889)" fill="#dd8285"/>
                <line id="Línea_10" data-name="Línea 10" x2="0.015" y2="63.972" transform="translate(27.578 21.638)" fill="none" stroke="#c15f68" stroke-miterlimit="10" stroke-width="1.84"/>
              </g>
              <g id="Grupo_16365" data-name="Grupo 16365" transform="translate(0 9.126)">
                <g id="Grupo_16363" data-name="Grupo 16363">
                  <rect id="Rectángulo_3936" data-name="Rectángulo 3936" width="19.083" height="34.647" rx="5.234" transform="translate(3.727 0) rotate(6.176)"/>
                  <path id="Trazado_32756" data-name="Trazado 32756" d="M375.823,240.691s-1.983-5.357-13.563-13.345l-.459,4.241s-10.783.331-18.237-3.559a1.717,1.717,0,0,0-2.488,1.174,14.624,14.624,0,0,0,.873,8.467,17.44,17.44,0,0,0,6.269,7.01c4.069,2.363,12.919,6.692,19.727,6.386C377.507,250.637,375.823,240.691,375.823,240.691Z" transform="translate(-340.609 -215.601)" fill="#ebaea3"/>
                </g>
                <g id="Grupo_16364" data-name="Grupo 16364" transform="translate(14.375 19.136)">
                  <path id="Trazado_32757" data-name="Trazado 32757" d="M380.464,237.423l41.167,31.632L404.7,296.13l-44.559-41.154Z" transform="translate(-360.138 -237.423)" fill="#dd8285"/>
                  <line id="Línea_11" data-name="Línea 11" x2="29.92" y2="22.99" transform="translate(20.326)" fill="none" stroke="#c15f68" stroke-miterlimit="10" stroke-width="1.84"/>
                  <line id="Línea_12" data-name="Línea 12" x2="26.433" y2="24.413" transform="translate(18.126 34.294)" fill="none" stroke="#c15f68" stroke-miterlimit="10" stroke-width="1.84"/>
                </g>
              </g>
            </g>
          </g>
          <g id="Grupo_16381" data-name="Grupo 16381" transform="translate(53.135)">
            <path id="Trazado_32758" data-name="Trazado 32758" d="M372.723,168.98a40.79,40.79,0,0,0-5.46.67c-3.18.591-5.776-1.08-6.416,1.073-.012.043-2.6-2.153-2.6-2.153l-1.961,21.874s9.711,5.151,18.9-.266Z" transform="translate(-343.286 -103.28)" fill="#ebaea3"/>
            <g id="Grupo_16368" data-name="Grupo 16368" transform="translate(8.152)">
              <path id="Trazado_32759" data-name="Trazado 32759" d="M368.343,101.851S380.905,91.2,372.2,83s-18.374.125-19.1,5.06c-1.268,8.669,6.8,13.433,6.8,13.433Z" transform="translate(-350.554 -79.549)" fill="#673345"/>
              <path id="Trazado_32760" data-name="Trazado 32760" d="M357.963,103.621s-5.071.138-8.288-6.929c0,0,1.8,9.536,10.17,8.376Z" transform="translate(-349.675 -84.119)" fill="#673345"/>
              <path id="Trazado_32761" data-name="Trazado 32761" d="M374.24,102.747s4.113.631,8.621-6.839c0,0-2.019,9.13-10.431,8.375Z" transform="translate(-355.741 -83.91)" fill="#673345"/>
            </g>
            <path id="Trazado_32762" data-name="Trazado 32762" d="M357.081,164.568s2.751,11.191,16.71,10.354L372.4,162.355Z" transform="translate(-343.497 -101.623)" fill="#1c2238"/>
            <g id="Grupo_16369" data-name="Grupo 16369" transform="translate(1.825 18.584)">
              <path id="Trazado_32763" data-name="Trazado 32763" d="M383.2,125.263c0,12.126-9.436,21.956-21.076,21.956s-21.076-9.83-21.076-21.956,9.436-20.375,21.076-20.375S383.2,113.138,383.2,125.263Z" transform="translate(-341.048 -104.888)" fill="#773e50"/>
            </g>
            <path id="Trazado_32764" data-name="Trazado 32764" d="M380.043,127.036a75.085,75.085,0,0,1-1.995,17.075c-.976,4.136-3.722,7.026-7.6,9.353l-.707.424a13.622,13.622,0,0,1-13.58.147h0c-4.2-2.392-7.149-5.547-8.054-9.985a109.656,109.656,0,0,1-1.828-17.013s-1.568-17.413,16.643-17.074S380.043,127.036,380.043,127.036Z" transform="translate(-340.608 -87.655)" fill="#ebaea3"/>
            <g id="Grupo_16372" data-name="Grupo 16372" transform="translate(0 44.968)">
              <path id="Trazado_32765" data-name="Trazado 32765" d="M346.215,152.981c-3.209,2.77-9.965-8.2-6.858-11.158s5.3,1.856,5.3,1.856l.63,3.466.938,4.666.242,1.047Z" transform="translate(-338.56 -140.862)" fill="#ebaea3"/>
              <g id="Grupo_16371" data-name="Grupo 16371" transform="translate(2.193 3.852)">
                <g id="Grupo_16370" data-name="Grupo 16370">
                  <path id="Trazado_32766" data-name="Trazado 32766" d="M341.55,146.92s1.313-2.842,4.368,2.147" transform="translate(-341.55 -146.114)" fill="none" stroke="#1c2238" stroke-linecap="round" stroke-linejoin="round" stroke-width="1.177"/>
                </g>
              </g>
            </g>
            <g id="Grupo_16375" data-name="Grupo 16375" transform="translate(37.172 44.951)">
              <path id="Trazado_32767" data-name="Trazado 32767" d="M389.5,153.039c3.256,2.715,9.822-8.37,6.665-11.274s-5.272,1.946-5.272,1.946l-.571,3.477-.858,4.681-.224,1.05Z" transform="translate(-389.243 -140.838)" fill="#ebaea3"/>
              <g id="Grupo_16374" data-name="Grupo 16374" transform="translate(1.262 3.861)">
                <g id="Grupo_16373" data-name="Grupo 16373">
                  <path id="Trazado_32768" data-name="Trazado 32768" d="M395.294,146.888s-1.361-2.819-4.33,2.222" transform="translate(-390.964 -146.103)" fill="none" stroke="#1c2238" stroke-linecap="round" stroke-linejoin="round" stroke-width="1.177"/>
                </g>
              </g>
            </g>
            <g id="Grupo_16376" data-name="Grupo 16376" transform="translate(4.367 21.091)">
              <path id="Trazado_32769" data-name="Trazado 32769" d="M371.759,125.117h11.3s-1.121-18-21.9-16.748c0,0-17.1.2-16.637,16.748h18.418l.389-1.809.436,1.809h6.5l.642-4.286Z" transform="translate(-344.514 -108.305)" fill="#773e50"/>
              <line id="Línea_13" data-name="Línea 13" x1="0.642" y2="4.286" transform="translate(25.755 12.525)" fill="#e2a473"/>
            </g>
            <path id="Trazado_32770" data-name="Trazado 32770" d="M343.684,138.276l2.658,4.561-.781-11.61Z" transform="translate(-339.926 -93.325)" fill="#773e50"/>
            <path id="Trazado_32771" data-name="Trazado 32771" d="M394.171,138.276l-2.73,4.561.635-11.61Z" transform="translate(-352.657 -93.325)" fill="#773e50"/>
            <g id="Grupo_16380" data-name="Grupo 16380" transform="translate(9.898 39.75)">
              <g id="Grupo_16377" data-name="Grupo 16377" transform="translate(3.176 5.641)">
                <path id="Trazado_32772" data-name="Trazado 32772" d="M359.647,143.069a1.631,1.631,0,1,1-1.63-1.63A1.631,1.631,0,0,1,359.647,143.069Z" transform="translate(-356.385 -141.439)" fill="#1c2238"/>
                <path id="Trazado_32773" data-name="Trazado 32773" d="M380.236,143.069a1.631,1.631,0,1,1-1.631-1.63A1.631,1.631,0,0,1,380.236,143.069Z" transform="translate(-361.874 -141.439)" fill="#1c2238"/>
              </g>
              <path id="Trazado_32774" data-name="Trazado 32774" d="M356.27,133.848s4.08-.59,4.225,1.077c0,0,.067,1.13-3.5,1.575s-4.511.241-4.9-.8S354.347,133.977,356.27,133.848Z" transform="translate(-352.055 -133.747)" fill="#1c2238"/>
              <path id="Trazado_32775" data-name="Trazado 32775" d="M378.343,133.886s4.12.156,3.961,1.822c0,0-.139,1.124-3.724.918s-4.48-.577-4.678-1.672S376.429,133.666,378.343,133.886Z" transform="translate(-357.876 -133.763)" fill="#1c2238"/>
              <path id="Trazado_32776" data-name="Trazado 32776" d="M369.14,146.625l.977,2.719-1.4.878" transform="translate(-356.496 -137.18)" fill="none" stroke="#1c2238" stroke-linecap="round" stroke-linejoin="round" stroke-width="1.158"/>
              <g id="Grupo_16379" data-name="Grupo 16379" transform="translate(6.437 14.721)">
                <g id="Grupo_16378" data-name="Grupo 16378">
                  <path id="Trazado_32777" data-name="Trazado 32777" d="M360.832,155.189l3.01-1.119a2.553,2.553,0,0,1,1.549.035l1.313.425,1.124-.523a2.192,2.192,0,0,1,1.694-.034l2.832,1.145Z" transform="translate(-360.832 -153.819)" fill="#d5717a"/>
                </g>
                <path id="Trazado_32778" data-name="Trazado 32778" d="M360.832,155.661s1.48,5.061,5.85,5.061,5.672-5.132,5.672-5.132Z" transform="translate(-360.832 -154.291)" fill="#d5717a"/>
                <path id="Trazado_32779" data-name="Trazado 32779" d="M362.076,156.088s.65,2.592,4.937,2.6c3.9,0,4.964-2.659,4.964-2.659Z" transform="translate(-361.164 -154.407)" fill="#fff"/>
                <circle id="Elipse_948" data-name="Elipse 948" cx="0.492" cy="0.492" r="0.492" transform="translate(3.251 4.456)" fill="#e0939c"/>
              </g>
            </g>
            <path id="Trazado_32780" data-name="Trazado 32780" d="M345.548,169.527a6.958,6.958,0,0,1-1.263-13.533.448.448,0,0,0,.316-.424h0a.451.451,0,0,0-.593-.425,7.848,7.848,0,0,0,1.327,15.247c3.87.523,6.943-1.331,8.145-4.687-.248-.14-.692-.436-.692-.436C351.823,168.368,349.051,169.957,345.548,169.527Z" transform="translate(-338.56 -99.695)" fill="#773e50"/>
            <path id="Trazado_32781" data-name="Trazado 32781" d="M387,169.527a6.958,6.958,0,0,0,1.264-13.533.447.447,0,0,1-.316-.424h0a.451.451,0,0,1,.593-.425,7.848,7.848,0,0,1-1.327,15.247c-3.87.523-6.943-1.331-8.145-4.687.248-.14.692-.436.692-.436C380.728,168.368,383.5,169.957,387,169.527Z" transform="translate(-349.359 -99.695)" fill="#773e50"/>
          </g>
        </g>
        <g id="Grupo_16394" data-name="Grupo 16394">
          <g id="Grupo_16383" data-name="Grupo 16383" transform="translate(42.267)">
            <path id="Trazado_32782" data-name="Trazado 32782" d="M211.1,59.815v219.5a7.138,7.138,0,0,0,7.138,7.139H432.9a7.139,7.139,0,0,0,7.139-7.139V59.815a7.139,7.139,0,0,0-7.139-7.139H218.241A7.138,7.138,0,0,0,211.1,59.815ZM425.441,270.883H225.7V66.559H425.441Z" transform="translate(-211.103 -52.676)" fill="#fff"/>
            <path id="Trazado_32783" data-name="Trazado 32783" d="M471.606,369.8a5.279,5.279,0,0,0-7.471.079l-1.346,1.374-1.385-1.363a5.283,5.283,0,1,0-7.413,7.528l5.139,5.062c.011.01.018.023.029.034a5.28,5.28,0,0,0,7.47-.078l5.055-5.163A5.284,5.284,0,0,0,471.606,369.8Z" transform="translate(-275.431 -136.812)" fill="#dd8285"/>
          </g>
          <g id="Grupo_16385" data-name="Grupo 16385" transform="translate(0 51.044)">
            <g id="Grupo_16384" data-name="Grupo 16384">
              <rect id="Rectángulo_3937" data-name="Rectángulo 3937" width="73.608" height="44.646" rx="9.4" fill="#6a6abb"/>
              <path id="Trazado_32784" data-name="Trazado 32784" d="M187.172,176.581l9.058,12.963a3.219,3.219,0,0,0,5.292-.021l8.89-12.941Z" transform="translate(-162.457 -136.75)" fill="#6a6abb"/>
            </g>
            <path id="Trazado_32785" data-name="Trazado 32785" d="M191.025,142.665a5.755,5.755,0,0,0-8.145.086l-1.467,1.5-1.51-1.487a5.759,5.759,0,1,0-8.081,8.207l5.6,5.518c.012.012.019.026.031.037a5.759,5.759,0,0,0,8.144-.085l5.512-5.628A5.761,5.761,0,0,0,191.025,142.665Z" transform="translate(-157.906 -127.27)" fill="#fff"/>
            <text id="_25" data-name="25" transform="translate(39.677 30.157)" fill="#fff" font-size="18" font-family="SegoeUI, Segoe UI"><tspan x="0" y="0">25</tspan></text>
          </g>
          <g id="Grupo_16387" data-name="Grupo 16387" transform="translate(241.625 10.767)">
            <g id="Grupo_16386" data-name="Grupo 16386">
              <circle id="Elipse_949" data-name="Elipse 949" cx="23.914" cy="23.914" r="23.914" fill="#dd8285"/>
            </g>
            <path id="Trazado_32786" data-name="Trazado 32786" d="M520.064,91.058a4.957,4.957,0,0,0-7.014.074l-1.264,1.29-1.3-1.281a4.96,4.96,0,1,0-6.959,7.069l4.825,4.752c.01.01.016.022.027.032a4.959,4.959,0,0,0,7.014-.073l4.747-4.847A4.963,4.963,0,0,0,520.064,91.058Z" transform="translate(-488.019 -73.297)" fill="#fff"/>
          </g>
          <g id="Grupo_16391" data-name="Grupo 16391" transform="translate(17.395 222.521)">
            <g id="Grupo_16388" data-name="Grupo 16388" transform="translate(0 0)">
              <circle id="Elipse_950" data-name="Elipse 950" cx="23.637" cy="23.637" r="23.637" transform="translate(0 47.201) rotate(-86.818)" fill="#6a6abb"/>
            </g>
            <g id="Grupo_16390" data-name="Grupo 16390" transform="translate(13.26 11.655)">
              <g id="Grupo_16389" data-name="Grupo 16389">
                <path id="Trazado_32787" data-name="Trazado 32787" d="M210.906,393.571c-4.092.07-8.236.125-12-.135-1.191-.082-2.221-1.975-.774-2.572a2.677,2.677,0,0,1-1.492-1.3,1.278,1.278,0,0,1,.724-1.69c-1.419.351-1.979-1.9-.872-2.629a3.318,3.318,0,0,1-1.2-1.919,1.924,1.924,0,0,1,.864-1.985,3.1,3.1,0,0,1,1.475-.255l5.105-.038c-.461-2.663-.6-5.565.754-7.9.408-.7,1.5-1.549,2.373-1.008.815.509.589,1.772.548,2.568a8.994,8.994,0,0,0,4.642,8.206S210.863,389.971,210.906,393.571Z" transform="translate(-195.27 -371.968)" fill="#fbfbfb"/>
              </g>
              <rect id="Rectángulo_3938" data-name="Rectángulo 3938" width="6.185" height="10.646" transform="translate(23.305 21.593) rotate(180)" fill="#fbfbfb"/>
            </g>
          </g>
          <g id="Grupo_16393" data-name="Grupo 16393" transform="translate(241.772 121.34)">
            <g id="Grupo_16392" data-name="Grupo 16392">
              <rect id="Rectángulo_3939" data-name="Rectángulo 3939" width="72.078" height="45.114" rx="9.498" fill="#dd8285"/>
              <path id="Trazado_32788" data-name="Trazado 32788" d="M516.113,273l9.153,13.1a3.254,3.254,0,0,0,5.348-.022L539.6,273Z" transform="translate(-491.916 -232.748)" fill="#dd8285"/>
            </g>
            <path id="Trazado_32789" data-name="Trazado 32789" d="M520.005,238.725a5.814,5.814,0,0,0-8.229.087l-1.483,1.513-1.525-1.5a5.819,5.819,0,1,0-8.166,8.293l5.661,5.575c.012.012.02.026.032.038a5.819,5.819,0,0,0,8.229-.087l5.569-5.687A5.822,5.822,0,0,0,520.005,238.725Z" transform="translate(-487.319 -223.169)" fill="#fff"/>
            <text id="_99" data-name="99" transform="translate(39.314 30.477)" fill="#fff" font-size="18" font-family="SegoeUI, Segoe UI"><tspan x="0" y="0">99</tspan></text>
          </g>
        </g>
      </g>
    </g>
  </g>
</svg>
