<svg xmlns="http://www.w3.org/2000/svg" width="200.195" height="190.501" viewBox="0 0 200.195 190.501">
  <g id="Grupo_17655" data-name="Grupo 17655" transform="translate(-66.379 -133.163)">
    <g id="Grupo_17598" data-name="Grupo 17598" transform="translate(76.073 133.162)">
      <g id="Grupo_17577" data-name="Grupo 17577" transform="translate(135.667 135.846)">
        <path id="Trazado_33257" data-name="Trazado 33257" d="M522.735,547.763a80.245,80.245,0,0,1-13.322,13.282l-8.633-8.633A67.5,67.5,0,0,0,514.1,539.13Z" transform="translate(-500.781 -539.13)" fill="#e6e9ee"/>
      </g>
      <g id="Grupo_17578" data-name="Grupo 17578" transform="translate(14.784 14.784)">
        <path id="Trazado_33258" data-name="Trazado 33258" d="M220,338.277a80.466,80.466,0,1,1,80.466-80.466A80.557,80.557,0,0,1,220,338.277Zm0-158.946a78.48,78.48,0,1,0,78.48,78.48A78.569,78.569,0,0,0,220,179.331Z" transform="translate(-139.531 -177.344)" fill="#221f1f"/>
      </g>
      <g id="Grupo_17579" data-name="Grupo 17579" transform="translate(0)">
        <circle id="Elipse_963" data-name="Elipse 963" cx="67.352" cy="67.352" r="67.352" transform="translate(0 95.251) rotate(-45)" fill="#e8505b"/>
      </g>
      <g id="Grupo_17580" data-name="Grupo 17580" transform="translate(21.122 21.122)">
        <circle id="Elipse_964" data-name="Elipse 964" cx="52.417" cy="52.417" r="52.417" transform="translate(0 74.129) rotate(-45)" fill="#fff"/>
      </g>
      <g id="Grupo_17581" data-name="Grupo 17581" transform="translate(53.319 53.319)">
        <circle id="Elipse_965" data-name="Elipse 965" cx="34.856" cy="34.856" r="34.856" transform="translate(0 67.847) rotate(-76.717)" fill="#ff7058"/>
      </g>
      <g id="Grupo_17582" data-name="Grupo 17582" transform="translate(71.565 71.565)">
        <circle id="Elipse_966" data-name="Elipse 966" cx="19.689" cy="19.689" r="19.689" transform="translate(0 38.324) rotate(-76.717)" fill="#fff"/>
      </g>
      <g id="Grupo_17583" data-name="Grupo 17583" transform="translate(87.525 87.525)">
        <circle id="Elipse_967" data-name="Elipse 967" cx="6.597" cy="6.597" r="6.597" transform="translate(0 2.495) rotate(-10.901)" fill="#ff7058"/>
      </g>
      <g id="Grupo_17584" data-name="Grupo 17584" transform="translate(124.968 125.157)">
        <path id="Trazado_33259" data-name="Trazado 33259" d="M492.828,517.875a67.776,67.776,0,0,1-13.322,13.282l-10.7-10.7a52.416,52.416,0,0,0,13.332-13.272Z" transform="translate(-468.807 -507.186)" fill="#e8505b"/>
      </g>
      <g id="Grupo_17585" data-name="Grupo 17585" transform="translate(112.232 112.432)">
        <path id="Trazado_33260" data-name="Trazado 33260" d="M456.805,481.873a52.728,52.728,0,0,1-13.322,13.282l-12.735-12.736a34.845,34.845,0,0,0,13.341-13.262Z" transform="translate(-430.748 -469.157)" fill="#e6e9ee"/>
      </g>
      <g id="Grupo_17586" data-name="Grupo 17586" transform="translate(101.046 101.255)">
        <path id="Trazado_33261" data-name="Trazado 33261" d="M421.847,446.934A35.122,35.122,0,0,1,408.506,460.2l-10.689-10.689a.9.9,0,0,1-.288-.4c-.01-.01-.02-.02-.02-.03l-.189-.507a19.752,19.752,0,0,0,12.964-12.815l.407.149a.967.967,0,0,1,.407.278Z" transform="translate(-397.32 -435.758)" fill="#f1543f"/>
      </g>
      <g id="Grupo_17587" data-name="Grupo 17587" transform="translate(96.516 96.716)">
        <path id="Trazado_33262" data-name="Trazado 33262" d="M401.266,426.731a19.738,19.738,0,0,1-12.954,12.815l-4.53-12.348a6.57,6.57,0,0,0,5.166-5.007Z" transform="translate(-383.782 -422.191)" fill="#e6e9ee"/>
      </g>
      <g id="Grupo_17588" data-name="Grupo 17588" transform="translate(94.256 94.42)">
        <path id="Trazado_33263" data-name="Trazado 33263" d="M378.364,415.391a.99.99,0,0,0-1.043.229.975.975,0,0,0-.229,1.043l2.193,5.972a6.6,6.6,0,0,0,5.164-5Z" transform="translate(-377.028 -415.331)" fill="#f1543f"/>
      </g>
      <g id="Grupo_17597" data-name="Grupo 17597" transform="translate(94.257 19.013)">
        <g id="Grupo_17589" data-name="Grupo 17589" transform="translate(7.914 0.66)">
          <path id="Trazado_33264" data-name="Trazado 33264" d="M460.1,192.609l8.749,8.749a2.23,2.23,0,0,1,0,3.153l-56.263,56.262-11.9-11.9,56.263-56.263A2.229,2.229,0,0,1,460.1,192.609Z" transform="translate(-400.682 -191.956)" fill="#ffd05b"/>
        </g>
        <g id="Grupo_17590" data-name="Grupo 17590" transform="translate(7.914 3.223)">
          <path id="Trazado_33265" data-name="Trazado 33265" d="M404.478,257.762,456.644,205.6l8.092,8.092a8.41,8.41,0,0,0-12.166-11.609l-51.888,51.888Z" transform="translate(-400.682 -199.613)" fill="#f9b54c"/>
        </g>
        <g id="Grupo_17591" data-name="Grupo 17591" transform="translate(6.921)">
          <path id="Trazado_33266" data-name="Trazado 33266" d="M410.608,260.453a.99.99,0,0,1-.7-.291L398,248.26a.993.993,0,0,1,0-1.405L453.7,191.162a4.026,4.026,0,0,1,5.695,0L467,198.773a4.032,4.032,0,0,1,0,5.695L411.31,260.162A.989.989,0,0,1,410.608,260.453Zm-10.5-12.9,10.5,10.5L465.6,203.063a2.043,2.043,0,0,0,0-2.885l-7.612-7.612a2.09,2.09,0,0,0-2.885,0Z" transform="translate(-397.713 -189.982)" fill="#221f1f"/>
        </g>
        <g id="Grupo_17592" data-name="Grupo 17592" transform="translate(50.055)">
          <path id="Trazado_33267" data-name="Trazado 33267" d="M541.486,218.3l12.561-12.56a3.034,3.034,0,0,0,0-4.29l-7.612-7.612a3.033,3.033,0,0,0-4.29,0L529.584,206.4Z" transform="translate(-528.591 -191.957)" fill="#fff"/>
          <path id="Trazado_33268" data-name="Trazado 33268" d="M539.51,217.32a.993.993,0,0,1-.7-.291l-11.9-11.9a.994.994,0,0,1,0-1.405l12.561-12.56a4.026,4.026,0,0,1,5.695,0l7.612,7.612a4.032,4.032,0,0,1,0,5.695l-12.561,12.56A.993.993,0,0,1,539.51,217.32Zm-10.5-12.9,10.5,10.5,11.858-11.858a2.043,2.043,0,0,0,0-2.885l-7.612-7.612a2.089,2.089,0,0,0-2.885,0Z" transform="translate(-526.616 -189.982)" fill="#221f1f"/>
        </g>
        <g id="Grupo_17593" data-name="Grupo 17593" transform="translate(56.064)">
          <path id="Trazado_33269" data-name="Trazado 33269" d="M559.446,212.292,566,205.741a3.034,3.034,0,0,0,0-4.29l-7.612-7.612a3.033,3.033,0,0,0-4.29,0l-6.551,6.551Z" transform="translate(-546.551 -191.957)" fill="#ff7058"/>
          <path id="Trazado_33270" data-name="Trazado 33270" d="M557.47,211.31a.993.993,0,0,1-.7-.291l-11.9-11.9a.993.993,0,0,1,0-1.405l6.551-6.551a4.026,4.026,0,0,1,5.695,0l7.612,7.612a4.032,4.032,0,0,1,0,5.695l-6.551,6.551A.994.994,0,0,1,557.47,211.31Zm-10.5-12.9,10.5,10.5,5.848-5.848a2.043,2.043,0,0,0,0-2.885l-7.612-7.612a2.09,2.09,0,0,0-2.885,0Z" transform="translate(-544.575 -189.982)" fill="#221f1f"/>
        </g>
        <g id="Grupo_17594" data-name="Grupo 17594" transform="translate(0.993 57.576)">
          <path id="Trazado_33271" data-name="Trazado 33271" d="M386.92,362.044,380,380.866l18.822-6.921Z" transform="translate(-380 -362.044)" fill="#fff"/>
        </g>
        <g id="Grupo_17595" data-name="Grupo 17595" transform="translate(0.994 67.316)">
          <path id="Trazado_33272" data-name="Trazado 33272" d="M383.339,391.15,380,400.233l9.083-3.339Z" transform="translate(-380 -391.15)" fill="#324a5e"/>
        </g>
        <g id="Grupo_17596" data-name="Grupo 17596" transform="translate(0 56.582)">
          <path id="Trazado_33273" data-name="Trazado 33273" d="M378.024,379.884a.993.993,0,0,1-.933-1.336l6.921-18.823a.993.993,0,0,1,1.635-.36l11.9,11.9a.994.994,0,0,1-.359,1.635l-18.823,6.921A1,1,0,0,1,378.024,379.884Zm7.317-18.015L379.7,377.217l15.347-5.643Z" transform="translate(-377.031 -359.075)" fill="#221f1f"/>
        </g>
      </g>
    </g>
    <g id="Grupo_17641" data-name="Grupo 17641" transform="translate(66.379 199.974)">
      <g id="Grupo_17599" data-name="Grupo 17599" transform="translate(0 0)">
        <circle id="Elipse_968" data-name="Elipse 968" cx="35.291" cy="35.291" r="35.291" transform="translate(0 49.91) rotate(-45)" fill="#fadcde"/>
        <path id="Trazado_33274" data-name="Trazado 33274" d="M143.415,446.112a36.284,36.284,0,1,1,25.657-10.627A36.048,36.048,0,0,1,143.415,446.112Zm0-70.583a34.3,34.3,0,1,0,24.252,10.046A34.073,34.073,0,0,0,143.414,375.529Z" transform="translate(-93.505 -359.917)" fill="#221f1f"/>
      </g>
      <g id="Grupo_17600" data-name="Grupo 17600" transform="translate(20.967 20.967)">
        <circle id="Elipse_969" data-name="Elipse 969" cx="28.942" cy="28.942" r="28.942" fill="#fff"/>
      </g>
      <g id="Grupo_17601" data-name="Grupo 17601" transform="translate(46.701 46.701)">
        <path id="Trazado_33275" data-name="Trazado 33275" d="M206.881,473.327a3.209,3.209,0,1,0,4.538,0A3.209,3.209,0,0,0,206.881,473.327Z" transform="translate(-205.941 -472.387)" fill="#ff7058"/>
      </g>
      <g id="Grupo_17602" data-name="Grupo 17602" transform="translate(16.676 16.675)">
        <line id="Línea_14" data-name="Línea 14" x1="32.241" y1="32.241" transform="translate(0.993 0.993)" fill="#fff"/>
        <path id="Trazado_33276" data-name="Trazado 33276" d="M149.447,416.886a.989.989,0,0,1-.7-.291L116.5,384.355a.993.993,0,1,1,1.4-1.405l32.241,32.241a.993.993,0,0,1-.7,1.7Z" transform="translate(-116.213 -382.659)" fill="#221f1f"/>
      </g>
      <g id="Grupo_17603" data-name="Grupo 17603" transform="translate(17.849 9.812)">
        <path id="Trazado_33277" data-name="Trazado 33277" d="M122.688,373.154l7.9,7.9,1.234-8.037-7.9-7.9Z" transform="translate(-121.694 -364.123)" fill="#ffd05b"/>
        <path id="Trazado_33278" data-name="Trazado 33278" d="M128.615,380.074a.992.992,0,0,1-.7-.291l-7.9-7.9a.993.993,0,0,1-.28-.853l1.234-8.037a.993.993,0,0,1,1.684-.551l7.9,7.9a.994.994,0,0,1,.28.854l-1.234,8.037a.994.994,0,0,1-.982.843Zm-6.844-9.243,6.16,6.16.86-5.6-6.16-6.16Z" transform="translate(-119.719 -362.148)" fill="#221f1f"/>
      </g>
      <g id="Grupo_17604" data-name="Grupo 17604" transform="translate(9.812 17.849)">
        <path id="Trazado_33279" data-name="Trazado 33279" d="M106.708,389.134l7.9,7.9-8.037,1.234-7.9-7.9Z" transform="translate(-97.678 -388.141)" fill="#ffd05b"/>
        <path id="Trazado_33280" data-name="Trazado 33280" d="M104.6,397.289a.993.993,0,0,1-.7-.291l-7.9-7.9a.993.993,0,0,1,.551-1.685l8.037-1.234a.992.992,0,0,1,.853.279l7.9,7.9a.993.993,0,0,1-.551,1.684l-8.037,1.234A1,1,0,0,1,104.6,397.289Zm-5.813-8.212,6.16,6.16,5.6-.86-6.16-6.16Z" transform="translate(-95.702 -386.165)" fill="#221f1f"/>
      </g>
      <g id="Grupo_17607" data-name="Grupo 17607" transform="translate(30.212 30.212)">
        <g id="Grupo_17605" data-name="Grupo 17605" transform="translate(36.079)">
          <line id="Línea_15" data-name="Línea 15" x1="1.329" y2="1.329" transform="translate(0.993 0.993)" fill="#84dbff"/>
          <path id="Trazado_33281" data-name="Trazado 33281" d="M265.479,426.428a.993.993,0,0,1-.7-1.7l1.329-1.329a.993.993,0,1,1,1.4,1.4l-1.329,1.329A.991.991,0,0,1,265.479,426.428Z" transform="translate(-264.486 -423.112)" fill="#221f1f"/>
        </g>
        <g id="Grupo_17606" data-name="Grupo 17606" transform="translate(0 36.079)">
          <line id="Línea_16" data-name="Línea 16" x1="1.329" y2="1.329" transform="translate(0.993 0.993)" fill="#84dbff"/>
          <path id="Trazado_33282" data-name="Trazado 33282" d="M157.66,534.248a.994.994,0,0,1-.7-1.7l1.329-1.329a.993.993,0,1,1,1.4,1.4l-1.329,1.329A.99.99,0,0,1,157.66,534.248Z" transform="translate(-156.666 -530.932)" fill="#221f1f"/>
        </g>
      </g>
      <g id="Grupo_17610" data-name="Grupo 17610" transform="translate(30.212 30.212)">
        <g id="Grupo_17608" data-name="Grupo 17608">
          <line id="Línea_17" data-name="Línea 17" x2="1.329" y2="1.329" transform="translate(0.993 0.993)" fill="#84dbff"/>
          <path id="Trazado_33283" data-name="Trazado 33283" d="M158.989,426.429a.99.99,0,0,1-.7-.291l-1.329-1.329a.993.993,0,1,1,1.4-1.405l1.329,1.329a.993.993,0,0,1-.7,1.7Z" transform="translate(-156.666 -423.113)" fill="#221f1f"/>
        </g>
        <g id="Grupo_17609" data-name="Grupo 17609" transform="translate(36.079 36.079)">
          <line id="Línea_18" data-name="Línea 18" x2="1.329" y2="1.329" transform="translate(0.993 0.993)" fill="#84dbff"/>
          <path id="Trazado_33284" data-name="Trazado 33284" d="M266.808,534.248a.99.99,0,0,1-.7-.291l-1.329-1.329a.993.993,0,0,1,1.4-1.405l1.329,1.329a.994.994,0,0,1-.7,1.7Z" transform="translate(-264.486 -530.932)" fill="#221f1f"/>
        </g>
      </g>
      <g id="Grupo_17613" data-name="Grupo 17613" transform="translate(26.008 35.69)">
        <g id="Grupo_17611" data-name="Grupo 17611" transform="translate(44.188)">
          <line id="Línea_19" data-name="Línea 19" x1="1.628" y2="0.94" transform="translate(0.993 0.994)" fill="#84dbff"/>
          <path id="Trazado_33285" data-name="Trazado 33285" d="M277.15,442.411a.993.993,0,0,1-.5-1.854l1.628-.94a.993.993,0,1,1,.993,1.72l-1.628.94A.99.99,0,0,1,277.15,442.411Z" transform="translate(-276.155 -439.483)" fill="#221f1f"/>
        </g>
        <g id="Grupo_17612" data-name="Grupo 17612" transform="translate(0 25.512)">
          <line id="Línea_20" data-name="Línea 20" x1="1.628" y2="0.94" transform="translate(0.994 0.993)" fill="#84dbff"/>
          <path id="Trazado_33286" data-name="Trazado 33286" d="M145.1,518.651a.993.993,0,0,1-.5-1.854l1.628-.94a.993.993,0,0,1,.993,1.721l-1.628.94A.986.986,0,0,1,145.1,518.651Z" transform="translate(-144.103 -515.724)" fill="#221f1f"/>
        </g>
      </g>
      <g id="Grupo_17616" data-name="Grupo 17616" transform="translate(35.69 26.008)">
        <g id="Grupo_17614" data-name="Grupo 17614">
          <line id="Línea_21" data-name="Línea 21" x2="0.94" y2="1.628" transform="translate(0.994 0.994)" fill="#84dbff"/>
          <path id="Trazado_33287" data-name="Trazado 33287" d="M174.971,414.165a.994.994,0,0,1-.861-.5l-.94-1.628a.993.993,0,0,1,1.721-.993l.94,1.628a.994.994,0,0,1-.859,1.49Z" transform="translate(-173.036 -410.549)" fill="#221f1f"/>
        </g>
        <g id="Grupo_17615" data-name="Grupo 17615" transform="translate(25.512 44.188)">
          <line id="Línea_22" data-name="Línea 22" x2="0.94" y2="1.628" transform="translate(0.994 0.994)" fill="#84dbff"/>
          <path id="Trazado_33288" data-name="Trazado 33288" d="M251.212,546.216a.994.994,0,0,1-.861-.5l-.94-1.628a.993.993,0,1,1,1.721-.994l.94,1.628a.994.994,0,0,1-.859,1.49Z" transform="translate(-249.278 -542.601)" fill="#221f1f"/>
        </g>
      </g>
      <g id="Grupo_17619" data-name="Grupo 17619" transform="translate(23.366 42.07)">
        <g id="Grupo_17617" data-name="Grupo 17617" transform="translate(49.285)">
          <line id="Línea_23" data-name="Línea 23" x1="1.816" y2="0.486" transform="translate(0.994 0.994)" fill="#84dbff"/>
          <path id="Trazado_33289" data-name="Trazado 33289" d="M284.483,461.022a.994.994,0,0,1-.257-1.953l1.816-.487a.993.993,0,0,1,.514,1.919l-1.816.487A.994.994,0,0,1,284.483,461.022Z" transform="translate(-283.49 -458.549)" fill="#221f1f"/>
        </g>
        <g id="Grupo_17618" data-name="Grupo 17618" transform="translate(0 13.206)">
          <line id="Línea_24" data-name="Línea 24" x1="1.816" y2="0.487" transform="translate(0.994 0.994)" fill="#84dbff"/>
          <path id="Trazado_33290" data-name="Trazado 33290" d="M137.2,500.487a.994.994,0,0,1-.256-1.953l1.816-.487a.993.993,0,0,1,.514,1.919l-1.815.487A.994.994,0,0,1,137.2,500.487Z" transform="translate(-136.206 -498.013)" fill="#221f1f"/>
        </g>
      </g>
      <g id="Grupo_17622" data-name="Grupo 17622" transform="translate(42.07 23.366)">
        <g id="Grupo_17620" data-name="Grupo 17620">
          <line id="Línea_25" data-name="Línea 25" x2="0.487" y2="1.816" transform="translate(0.994 0.994)" fill="#84dbff"/>
          <path id="Trazado_33291" data-name="Trazado 33291" d="M193.581,406.455a.994.994,0,0,1-.959-.736l-.487-1.816a.993.993,0,1,1,1.919-.514l.487,1.816a.994.994,0,0,1-.96,1.25Z" transform="translate(-192.102 -402.652)" fill="#221f1f"/>
        </g>
        <g id="Grupo_17621" data-name="Grupo 17621" transform="translate(13.206 49.285)">
          <line id="Línea_26" data-name="Línea 26" x2="0.486" y2="1.816" transform="translate(0.994 0.993)" fill="#84dbff"/>
          <path id="Trazado_33292" data-name="Trazado 33292" d="M233.046,553.74a.994.994,0,0,1-.959-.737l-.487-1.816a.993.993,0,1,1,1.919-.514l.487,1.816a.994.994,0,0,1-.96,1.251Z" transform="translate(-231.567 -549.937)" fill="#221f1f"/>
        </g>
      </g>
      <g id="Grupo_17625" data-name="Grupo 17625" transform="translate(22.465 48.916)">
        <g id="Grupo_17623" data-name="Grupo 17623" transform="translate(51.023)">
          <line id="Línea_27" data-name="Línea 27" x1="1.88" transform="translate(0.993 0.994)" fill="#84dbff"/>
          <path id="Trazado_33293" data-name="Trazado 33293" d="M288.866,480.995h-1.88a.993.993,0,1,1,0-1.987h1.88a.993.993,0,0,1,0,1.987Z" transform="translate(-285.993 -479.008)" fill="#221f1f"/>
        </g>
        <g id="Grupo_17624" data-name="Grupo 17624">
          <line id="Línea_28" data-name="Línea 28" x1="1.88" transform="translate(0.993 0.994)" fill="#84dbff"/>
          <path id="Trazado_33294" data-name="Trazado 33294" d="M136.386,480.995h-1.88a.993.993,0,0,1,0-1.987h1.88a.993.993,0,0,1,0,1.987Z" transform="translate(-133.513 -479.008)" fill="#221f1f"/>
        </g>
      </g>
      <g id="Grupo_17628" data-name="Grupo 17628" transform="translate(48.916 22.465)">
        <g id="Grupo_17626" data-name="Grupo 17626">
          <line id="Línea_29" data-name="Línea 29" y2="1.88" transform="translate(0.993 0.993)" fill="#84dbff"/>
          <path id="Trazado_33295" data-name="Trazado 33295" d="M213.555,403.826a.993.993,0,0,1-.993-.993v-1.88a.993.993,0,0,1,1.987,0v1.88A.994.994,0,0,1,213.555,403.826Z" transform="translate(-212.562 -399.96)" fill="#221f1f"/>
        </g>
        <g id="Grupo_17627" data-name="Grupo 17627" transform="translate(0 51.023)">
          <line id="Línea_30" data-name="Línea 30" y2="1.88" transform="translate(0.993 0.993)" fill="#84dbff"/>
          <path id="Trazado_33296" data-name="Trazado 33296" d="M213.555,556.307a.993.993,0,0,1-.993-.994v-1.88a.993.993,0,0,1,1.987,0v1.88A.994.994,0,0,1,213.555,556.307Z" transform="translate(-212.562 -552.44)" fill="#221f1f"/>
        </g>
      </g>
      <g id="Grupo_17631" data-name="Grupo 17631" transform="translate(23.366 42.07)">
        <g id="Grupo_17629" data-name="Grupo 17629" transform="translate(49.285 13.206)">
          <line id="Línea_31" data-name="Línea 31" x1="1.816" y1="0.486" transform="translate(0.994 0.994)" fill="#84dbff"/>
          <path id="Trazado_33297" data-name="Trazado 33297" d="M286.3,500.487a.992.992,0,0,1-.258-.034l-1.816-.487a.993.993,0,0,1,.514-1.919l1.816.487a.994.994,0,0,1-.256,1.953Z" transform="translate(-283.49 -498.013)" fill="#221f1f"/>
        </g>
        <g id="Grupo_17630" data-name="Grupo 17630">
          <line id="Línea_32" data-name="Línea 32" x1="1.816" y1="0.487" transform="translate(0.994 0.993)" fill="#84dbff"/>
          <path id="Trazado_33298" data-name="Trazado 33298" d="M139.016,461.023a1,1,0,0,1-.258-.034l-1.816-.487a.993.993,0,0,1,.514-1.919l1.815.487a.994.994,0,0,1-.256,1.953Z" transform="translate(-136.206 -458.549)" fill="#221f1f"/>
        </g>
      </g>
      <g id="Grupo_17634" data-name="Grupo 17634" transform="translate(42.07 23.366)">
        <g id="Grupo_17632" data-name="Grupo 17632" transform="translate(13.206)">
          <line id="Línea_33" data-name="Línea 33" x1="0.487" y2="1.816" transform="translate(0.994 0.993)" fill="#84dbff"/>
          <path id="Trazado_33299" data-name="Trazado 33299" d="M232.561,406.456a.994.994,0,0,1-.96-1.251l.487-1.816a.993.993,0,1,1,1.919.515l-.487,1.815A.993.993,0,0,1,232.561,406.456Z" transform="translate(-231.566 -402.653)" fill="#221f1f"/>
        </g>
        <g id="Grupo_17633" data-name="Grupo 17633" transform="translate(0 49.285)">
          <line id="Línea_34" data-name="Línea 34" x1="0.486" y2="1.816" transform="translate(0.994 0.993)" fill="#84dbff"/>
          <path id="Trazado_33300" data-name="Trazado 33300" d="M193.1,553.74a.994.994,0,0,1-.96-1.251l.487-1.816a.993.993,0,1,1,1.919.514L194.055,553A.994.994,0,0,1,193.1,553.74Z" transform="translate(-192.102 -549.937)" fill="#221f1f"/>
        </g>
      </g>
      <g id="Grupo_17637" data-name="Grupo 17637" transform="translate(26.008 35.69)">
        <g id="Grupo_17635" data-name="Grupo 17635" transform="translate(44.188 25.512)">
          <line id="Línea_35" data-name="Línea 35" x1="1.628" y1="0.94" transform="translate(0.993 0.994)" fill="#84dbff"/>
          <path id="Trazado_33301" data-name="Trazado 33301" d="M278.776,518.65a.986.986,0,0,1-.5-.133l-1.628-.94a.993.993,0,1,1,.993-1.72l1.628.94a.993.993,0,0,1-.5,1.854Z" transform="translate(-276.155 -515.723)" fill="#221f1f"/>
        </g>
        <g id="Grupo_17636" data-name="Grupo 17636">
          <line id="Línea_36" data-name="Línea 36" x1="1.628" y1="0.94" transform="translate(0.994 0.994)" fill="#84dbff"/>
          <path id="Trazado_33302" data-name="Trazado 33302" d="M146.724,442.411a.992.992,0,0,1-.5-.133l-1.628-.94a.993.993,0,0,1,.993-1.721l1.628.94a.994.994,0,0,1-.5,1.854Z" transform="translate(-144.103 -439.484)" fill="#221f1f"/>
        </g>
      </g>
      <g id="Grupo_17640" data-name="Grupo 17640" transform="translate(35.69 26.008)">
        <g id="Grupo_17638" data-name="Grupo 17638" transform="translate(25.511)">
          <line id="Línea_37" data-name="Línea 37" x1="0.94" y2="1.628" transform="translate(0.994 0.994)" fill="#84dbff"/>
          <path id="Trazado_33303" data-name="Trazado 33303" d="M250.269,414.165a.994.994,0,0,1-.859-1.49l.94-1.628a.993.993,0,0,1,1.721.993l-.94,1.628A.994.994,0,0,1,250.269,414.165Z" transform="translate(-249.277 -410.549)" fill="#221f1f"/>
        </g>
        <g id="Grupo_17639" data-name="Grupo 17639" transform="translate(0 44.187)">
          <line id="Línea_38" data-name="Línea 38" x1="0.94" y2="1.628" transform="translate(0.993 0.994)" fill="#84dbff"/>
          <path id="Trazado_33304" data-name="Trazado 33304" d="M174.03,546.216a.993.993,0,0,1-.859-1.49l.94-1.628a.993.993,0,1,1,1.721.993l-.94,1.628A.993.993,0,0,1,174.03,546.216Z" transform="translate(-173.038 -542.601)" fill="#221f1f"/>
        </g>
      </g>
    </g>
    <g id="Grupo_17649" data-name="Grupo 17649" transform="translate(114.533 284.005)">
      <g id="Grupo_17642" data-name="Grupo 17642" transform="translate(0.993 0.994)">
        <path id="Trazado_33305" data-name="Trazado 33305" d="M213.253,586.915a79.457,79.457,0,0,0,111.594,0Z" transform="translate(-213.253 -586.915)" fill="#fcc5c9"/>
      </g>
      <g id="Grupo_17643" data-name="Grupo 17643" transform="translate(12.748 0.994)">
        <path id="Trazado_33306" data-name="Trazado 33306" d="M248.383,586.915a79.547,79.547,0,0,0,74.749,16.735,79.611,79.611,0,0,0,25.09-16.735Z" transform="translate(-248.383 -586.915)" fill="#fadcde"/>
      </g>
      <g id="Grupo_17644" data-name="Grupo 17644">
        <path id="Trazado_33307" data-name="Trazado 33307" d="M267.076,608.82a79.987,79.987,0,0,1-56.495-23.174.994.994,0,0,1,.7-1.7H322.873a.993.993,0,0,1,.7,1.7A79.986,79.986,0,0,1,267.076,608.82Zm-53.322-22.888a78.466,78.466,0,0,0,106.643,0Z" transform="translate(-210.285 -583.945)" fill="#221f1f"/>
      </g>
      <g id="Grupo_17645" data-name="Grupo 17645" transform="translate(33.363 5.656)">
        <line id="Línea_39" data-name="Línea 39" x2="22.047" transform="translate(0.993 0.993)" fill="#fff"/>
        <path id="Trazado_33308" data-name="Trazado 33308" d="M333.029,602.835H310.983a.993.993,0,1,1,0-1.987h22.047a.993.993,0,1,1,0,1.987Z" transform="translate(-309.989 -600.848)" fill="#221f1f"/>
      </g>
      <g id="Grupo_17646" data-name="Grupo 17646" transform="translate(58.822 5.656)">
        <line id="Línea_40" data-name="Línea 40" x2="3.921" transform="translate(0.993 0.993)" fill="#fff"/>
        <path id="Trazado_33309" data-name="Trazado 33309" d="M390.986,602.835h-3.921a.993.993,0,0,1,0-1.987h3.921a.993.993,0,1,1,0,1.987Z" transform="translate(-386.072 -600.848)" fill="#221f1f"/>
      </g>
      <g id="Grupo_17647" data-name="Grupo 17647" transform="translate(53.004 10.411)">
        <line id="Línea_41" data-name="Línea 41" x2="4.812" transform="translate(0.993 0.993)" fill="#fff"/>
        <path id="Trazado_33310" data-name="Trazado 33310" d="M374.49,617.044h-4.812a.993.993,0,1,1,0-1.987h4.812a.993.993,0,1,1,0,1.987Z" transform="translate(-368.684 -615.057)" fill="#221f1f"/>
      </g>
      <g id="Grupo_17648" data-name="Grupo 17648" transform="translate(62.743 10.411)">
        <line id="Línea_42" data-name="Línea 42" x2="23.347" transform="translate(0.993 0.993)" fill="#fff"/>
        <path id="Trazado_33311" data-name="Trazado 33311" d="M422.129,617.044H398.782a.993.993,0,0,1,0-1.987h23.347a.993.993,0,1,1,0,1.987Z" transform="translate(-397.789 -615.057)" fill="#221f1f"/>
      </g>
    </g>
    <g id="Grupo_17654" data-name="Grupo 17654" transform="translate(114.302 140.672)">
      <g id="Grupo_17650" data-name="Grupo 17650" transform="translate(0.993 0.993)">
        <circle id="Elipse_970" data-name="Elipse 970" cx="21.171" cy="21.171" r="21.171" fill="#fadcde"/>
      </g>
      <g id="Grupo_17651" data-name="Grupo 17651" transform="translate(4.586 4.588)">
        <path id="Trazado_33312" data-name="Trazado 33312" d="M262.05,186.893A21.168,21.168,0,0,1,223.3,198.686a21.166,21.166,0,0,0,29.369-29.369A21.1,21.1,0,0,1,262.05,186.893Z" transform="translate(-223.297 -169.317)" fill="#fcc5c9"/>
      </g>
      <g id="Grupo_17652" data-name="Grupo 17652">
        <path id="Trazado_33313" data-name="Trazado 33313" d="M231.757,199.934a22.165,22.165,0,1,1,22.164-22.164A22.19,22.19,0,0,1,231.757,199.934Zm0-42.342a20.178,20.178,0,1,0,20.178,20.178A20.2,20.2,0,0,0,231.757,157.592Z" transform="translate(-209.593 -155.605)" fill="#221f1f"/>
      </g>
      <g id="Grupo_17653" data-name="Grupo 17653" transform="translate(10.844 10.844)">
        <path id="Trazado_33314" data-name="Trazado 33314" d="M262.315,197.664a9.1,9.1,0,0,0-1.454-3.512l1.322-1.966-1.716-1.716-1.966,1.322a9.1,9.1,0,0,0-3.512-1.454l-.455-2.326h-2.427l-.455,2.326a9.1,9.1,0,0,0-3.512,1.454l-1.966-1.322-1.716,1.716,1.322,1.966a9.1,9.1,0,0,0-1.454,3.512L242,198.12v2.427l2.326.455a9.1,9.1,0,0,0,1.454,3.512l-1.322,1.966,1.716,1.716,1.966-1.322a9.1,9.1,0,0,0,3.512,1.454l.455,2.326h2.427l.455-2.326a9.1,9.1,0,0,0,3.511-1.454l1.966,1.322,1.716-1.716-1.322-1.966A9.1,9.1,0,0,0,262.315,201l2.326-.455V198.12Zm-8.995,6.043a4.374,4.374,0,1,1,4.374-4.374A4.374,4.374,0,0,1,253.32,203.707Z" transform="translate(-242 -188.013)" fill="#fff"/>
      </g>
    </g>
  </g>
</svg>
