<svg xmlns="http://www.w3.org/2000/svg" xmlns:xlink="http://www.w3.org/1999/xlink" width="1075.531" height="433.769" viewBox="0 0 1075.531 433.769">
  <defs>
    <clipPath id="clip-path">
      <path id="Trazado_33781" data-name="Trazado 33781" d="M601.554,24.779H169.234l-2.2,363.119h432.32Z" fill="none"/>
    </clipPath>
    <clipPath id="clip-path-2">
      <path id="Trazado_33765" data-name="Trazado 33765" d="M507.129,119.662c-8.245,20.611-25.39,82.655-30.255,83.466-18.11,2.432-64.006,22.472-71.575,19.228l2.328,13.663a160.884,160.884,0,0,0-31.575-19.61l-34.593-1.523c-16.153,5.727-40.774,18.978-50.239,31.8v0c-10.985,8.872-55.239,83.945-49.33,108.85,5.046,21.265,60.464,66.315,68.839,68.48,9.57,2.471,29.94-13.645,37.282-27.918,30.71,1.473,62.584-.968,62.911-8.384.418-9.489.864-19.591,1.634-37.037.343-7.853,4-24.566,7.477-41.907,6.462-22.076,81.5-52.534,88.533-62.084s43.53-99.295,46.017-110.775C557.06,124.473,515.008,99.962,507.129,119.662Z" fill="none"/>
    </clipPath>
  </defs>
  <g id="Grupo_18033" data-name="Grupo 18033" transform="translate(-422.469 -6281)">
    <rect id="Rectángulo_4140" data-name="Rectángulo 4140" width="1075.531" height="355.961" transform="translate(422.469 6292.039)" fill="#ebebeb"/>
    <g id="Grupo_18032" data-name="Grupo 18032" transform="translate(586.312 6256.221)">
      <g id="Grupo_18009" data-name="Grupo 18009">
        <path id="Trazado_33672" data-name="Trazado 33672" d="M533.672,165.692A143.237,143.237,0,1,0,676.908,308.926,143.238,143.238,0,0,0,533.672,165.692Z" fill="#69cdff" opacity="0.5"/>
        <path id="Trazado_33673" data-name="Trazado 33673" d="M630.1,127.765a19.389,19.389,0,1,1-19.39-19.39A19.389,19.389,0,0,1,630.1,127.765Z" fill="#69cdff" opacity="0.5"/>
        <path id="Trazado_33674" data-name="Trazado 33674" d="M111.817,402.559a17.3,17.3,0,1,1-17.3-17.3A17.3,17.3,0,0,1,111.817,402.559Z" fill="#69cdff"/>
        <path id="Trazado_33675" data-name="Trazado 33675" d="M662.535,101.006A15.032,15.032,0,1,1,647.5,85.973,15.031,15.031,0,0,1,662.535,101.006Z" fill="#69cdff"/>
        <path id="Trazado_33676" data-name="Trazado 33676" d="M155.815,203.467a87.439,87.439,0,1,0,89.722,85.093A87.439,87.439,0,0,0,155.815,203.467Z" fill="#69cdff" opacity="0.4"/>
        <g id="Grupo_18001" data-name="Grupo 18001">
          <path id="Trazado_33677" data-name="Trazado 33677" d="M108.481,102.529h-7.69l12.166-21.537h7.69Z" fill="#2993e2"/>
          <path id="Trazado_33678" data-name="Trazado 33678" d="M122.253,102.529h-7.689l12.165-21.537h7.69Z" fill="#2993e2"/>
          <path id="Trazado_33679" data-name="Trazado 33679" d="M136.025,102.529h-7.689L140.5,80.993h7.69Z" fill="#2993e2"/>
        </g>
        <g id="Grupo_18002" data-name="Grupo 18002">
          <path id="Trazado_33680" data-name="Trazado 33680" d="M520.971,433.764h-9.558L526.533,407h9.557Z" fill="#2993e2"/>
          <path id="Trazado_33681" data-name="Trazado 33681" d="M538.087,433.764H528.53L543.65,407h9.557Z" fill="#2993e2"/>
          <path id="Trazado_33682" data-name="Trazado 33682" d="M555.2,433.764h-9.558L560.767,407h9.558Z" fill="#2993e2"/>
          <path id="Trazado_33683" data-name="Trazado 33683" d="M572.32,433.764h-9.557L577.882,407h9.559Z" fill="#2993e2"/>
          <path id="Trazado_33684" data-name="Trazado 33684" d="M589.44,433.764h-9.559L595,407h9.558Z" fill="#2993e2"/>
        </g>
        <rect id="Rectángulo_4115" data-name="Rectángulo 4115" width="23.5" height="7.008" transform="translate(75.51 97.627) rotate(-45.003)" fill="#2993e2"/>
        <rect id="Rectángulo_4116" data-name="Rectángulo 4116" width="7.008" height="23.499" transform="matrix(0.707, -0.707, 0.707, 0.707, 75.51, 85.965)" fill="#2993e2"/>
        <g id="Grupo_18004" data-name="Grupo 18004">
          <g id="Grupo_18003" data-name="Grupo 18003">
            <path id="Trazado_33685" data-name="Trazado 33685" d="M646.16,154.775a3.228,3.228,0,0,0-4.583,4.546,14.214,14.214,0,0,1-.082,20.081,3.226,3.226,0,1,0,4.543,4.582A20.677,20.677,0,0,0,646.16,154.775Z" fill="#2993e2"/>
            <path id="Trazado_33686" data-name="Trazado 33686" d="M655.144,193.164a33.625,33.625,0,0,0,.2-47.494,3.228,3.228,0,0,0-4.583,4.546,27.162,27.162,0,0,1-.158,38.367,3.226,3.226,0,1,0,4.544,4.581Z" fill="#2993e2"/>
            <path id="Trazado_33687" data-name="Trazado 33687" d="M639.118,165.007a6.367,6.367,0,1,0-.039,9.006A6.378,6.378,0,0,0,639.118,165.007Z" fill="#2993e2"/>
          </g>
        </g>
        <g id="Grupo_18007" data-name="Grupo 18007">
          <g id="Grupo_18006" data-name="Grupo 18006">
            <g id="Grupo_18005" data-name="Grupo 18005">
              <path id="Trazado_33688" data-name="Trazado 33688" d="M116.579,126.868l-2.842,0-4.075-5.763a1.712,1.712,0,0,0-1.4-.728l-16.306-.032a1.726,1.726,0,0,0-1.406.723l-4.094,5.748-2.845-.007a8.067,8.067,0,0,0-8.057,8.029l-.045,23.393a8.068,8.068,0,0,0,8.028,8.057l32.969.061a8.065,8.065,0,0,0,8.057-8.025l.043-23.394A8.066,8.066,0,0,0,116.579,126.868Zm-16.542,31.359A11.853,11.853,0,1,1,111.913,146.4,11.852,11.852,0,0,1,100.037,158.227Z" fill="#2993e2"/>
              <path id="Trazado_33689" data-name="Trazado 33689" d="M100.076,138.54a7.835,7.835,0,1,0,7.818,7.849A7.834,7.834,0,0,0,100.076,138.54Z" fill="#2993e2"/>
            </g>
          </g>
        </g>
        <g id="Grupo_18008" data-name="Grupo 18008">
          <path id="Trazado_33690" data-name="Trazado 33690" d="M635.165,408.721l-.069-9.431a1.638,1.638,0,0,0-1.651-1.622,6.328,6.328,0,0,0-6.281,6.377l.034,4.519-10.363.076-1.706.012a3.4,3.4,0,0,0-1.574,6.413,3.383,3.383,0,0,0,.044,5.972,3.393,3.393,0,0,0,.416,6.152,3.41,3.41,0,0,0,1.3,6.575l1.707-.013,15.357-.112,1.4-.012a6.4,6.4,0,0,0,6.354-6.445l-.089-12.313A6.388,6.388,0,0,0,635.165,408.721Z" fill="#2993e2"/>
          <path id="Trazado_33691" data-name="Trazado 33691" d="M649.705,410.955l-4.814.036a2.381,2.381,0,0,0-2.362,2.4l.113,15.234a2.38,2.38,0,0,0,2.395,2.361l4.817-.037a2.375,2.375,0,0,0,2.359-2.392l-.113-15.238A2.377,2.377,0,0,0,649.705,410.955Z" fill="#2993e2"/>
        </g>
      </g>
      <g id="Grupo_18028" data-name="Grupo 18028">
        <rect id="Rectángulo_4117" data-name="Rectángulo 4117" width="431.782" height="283.293" transform="translate(167.073 104.605)" fill="#69cdff"/>
        <rect id="Rectángulo_4118" data-name="Rectángulo 4118" width="424.517" height="5.083" transform="translate(170.849 112.005)" fill="#e2e2e2" style="mix-blend-mode: multiply;isolation: isolate"/>
        <rect id="Rectángulo_4119" data-name="Rectángulo 4119" width="89.248" height="9.313" transform="translate(485.072 81.35)" fill="#0b3356"/>
        <path id="Trazado_33692" data-name="Trazado 33692" d="M598.856,99.782l-8.148-15.134H176.866l-8.73,7.875V112h430.72Z" fill="#0b3356"/>
        <g id="Grupo_18010" data-name="Grupo 18010">
          <line id="Línea_43" data-name="Línea 43" x2="8.225" y2="8.22" transform="translate(580.242 93.78)" fill="none" stroke="#fff" stroke-linecap="round" stroke-miterlimit="10" stroke-width="3"/>
          <line id="Línea_44" data-name="Línea 44" x1="8.225" y2="8.221" transform="translate(580.242 93.779)" fill="none" stroke="#fff" stroke-linecap="round" stroke-miterlimit="10" stroke-width="3"/>
        </g>
        <g id="Grupo_18016" data-name="Grupo 18016">
          <g id="Grupo_18015" data-name="Grupo 18015" clip-path="url(#clip-path)">
            <path id="Trazado_33693" data-name="Trazado 33693" d="M548.555,262.1a75.34,75.34,0,1,0,75.342,75.34A75.34,75.34,0,0,0,548.555,262.1Zm0,115.492a40.152,40.152,0,1,1,40.153-40.152A40.152,40.152,0,0,1,548.555,377.6Z" fill="#9b9b9b" opacity="0.4" style="mix-blend-mode: color-burn;isolation: isolate"/>
            <path id="Trazado_33694" data-name="Trazado 33694" d="M478.482,128.794a46.3,46.3,0,1,0,46.3,46.295A46.3,46.3,0,0,0,478.482,128.794Zm0,70.969a24.673,24.673,0,1,1,24.673-24.674A24.672,24.672,0,0,1,478.482,199.763Z" fill="#9b9b9b" opacity="0.4" style="mix-blend-mode: color-burn;isolation: isolate"/>
            <path id="Trazado_33695" data-name="Trazado 33695" d="M158.544,194.742a51.221,51.221,0,1,0,51.223,51.221A51.222,51.222,0,0,0,158.544,194.742Zm0,78.52a27.3,27.3,0,1,1,27.3-27.3A27.3,27.3,0,0,1,158.544,273.262Z" fill="#9b9b9b" opacity="0.4" style="mix-blend-mode: color-burn;isolation: isolate"/>
            <path id="Trazado_33696" data-name="Trazado 33696" d="M230.813,383.243c-8.34-21.478-6.56-80.511,48.083-152.867-10.871-40.652,4.985-105.45,33.538-118.371l49.8,1.2s49.8,142.433,39.543,270.034Z" fill="#9b9b9b" opacity="0.4" style="mix-blend-mode: color-burn;isolation: isolate"/>
            <g id="Grupo_18014" data-name="Grupo 18014">
              <path id="Trazado_33697" data-name="Trazado 33697" d="M527.063,89.555c-.764-4.892-2.954-8.936-1.476-19.528.5-3.612-.065-3.844.28-6.819.188-1.6,1.284-3.157,1.286-4.607,0-4.468-.508-4.034-.467-6.53.73-5.663,10.144,3.013,6.685,14.681.319,6.338,1.028,6.228,1.6,5.7.276-.26,3.2-2.709,5.358-8.933,1.088-3.138,1.764-9.125,3.125-12.505,1.421-3.519,2.151-6.943,4.016-9.782,2.146-3.265,4.041-5.215,5.875-2.852.565.727.284,3.342-1.239,6.737-1.134,2.533-1.053,3.522-2.271,6.726-.958,3.091-2.945,12.335-2.68,12.506.176.112,3.066-7.019,7.02-14.272,1.45-2.663,2.627-4.447,3.457-6.113,1.42-2.842,3.7-2.943,4.3-2.318,1.3,1.352,1.161,3.248-.473,7.187-.908,2.183-2.289,4.865-3.648,7.541-2.755,5.417-4.864,10.189-4.659,10.463.038.049.531,1.893,1.149.957,2.261-3.42,7.542-14.436,10.449-18.251,2.11-2.765,3.444-.778,3.332,1.6a9.588,9.588,0,0,1-1.656,4.989c-.652,1.029-1.934,4.474-3.239,6.846-1.675,3.043-3.906,7.114-3.845,7.306.014.045.5,1.149,1.147.063,1.168-1.972,2.7-5.482,4.69-8.577a15.263,15.263,0,0,1,2.91-4.869c.991-.981,1.872-.038,2.1.636.65,1.9.416,2.723-.641,5.281-.83,2-1.6,3.868-2.071,4.716-1.009,1.806-2.558,4.731-3.417,6.514a88.864,88.864,0,0,0-3.977,8.613c-2.3,6.466-9.864,15.77-14.292,20.588-1.009,3.81-9.857,33.009-9.857,33.009s-21.378,1.007-19.578-4.95S524.96,97.974,527.063,89.555Z" fill="#ffa383"/>
              <path id="Trazado_33698" data-name="Trazado 33698" d="M405.3,222.356c7.569,3.244,53.465-16.8,71.575-19.228,4.865-.811,22.01-62.855,30.255-83.466,7.879-19.7,49.931,4.811,47.453,16.251-2.487,11.48-38.989,101.225-46.017,110.775S426.483,286.7,420.03,308.777" fill="#ff692e"/>
              <path id="Trazado_33699" data-name="Trazado 33699" d="M515.115,115.684c3.375-5.41,7.57-12.433,8.472-16.578s25.505,4.354,23.251,9.039c-3.266,6.79-3.694,14.924-3.608,17.992C543.363,130.912,512.954,119.153,515.115,115.684Z" fill="#ea4613"/>
              <path id="Trazado_33700" data-name="Trazado 33700" d="M539.769,125.371s.405-11.32,5.014-18.313" fill="#9b9b9b" style="mix-blend-mode: color-burn;isolation: isolate"/>
              <path id="Trazado_33701" data-name="Trazado 33701" d="M536.855,123.749s.407-11.319,5.014-18.314" fill="#9b9b9b" style="mix-blend-mode: color-burn;isolation: isolate"/>
              <path id="Trazado_33702" data-name="Trazado 33702" d="M533.024,122.668s.324-10.961,5.675-18.313" fill="#9b9b9b" style="mix-blend-mode: color-burn;isolation: isolate"/>
              <path id="Trazado_33703" data-name="Trazado 33703" d="M529.824,121.374s.434-10.957,5.86-18.255" fill="#9b9b9b" style="mix-blend-mode: color-burn;isolation: isolate"/>
              <path id="Trazado_33704" data-name="Trazado 33704" d="M525.456,119.694s2.027-11.826,7.3-17.773" fill="#9b9b9b" style="mix-blend-mode: color-burn;isolation: isolate"/>
              <path id="Trazado_33705" data-name="Trazado 33705" d="M522.524,118.546s2.029-11.827,7.3-17.773" fill="#9b9b9b" style="mix-blend-mode: color-burn;isolation: isolate"/>
              <path id="Trazado_33706" data-name="Trazado 33706" d="M518.549,116.519s2.974-11.015,8.514-16.353" fill="#9b9b9b" style="mix-blend-mode: color-burn;isolation: isolate"/>
              <path id="Trazado_33707" data-name="Trazado 33707" d="M405.114,231.833c-5.9-14.038,7.545-88.253-5.5-116.838-7.97-17.455-26.822-27.932-43.332-21.227-12.652-.4-20.841,8.951-27.119,20.251-11.923,21.468-.3,45.236-7.074,51.33-11.143,10.018-20.039,17.688-19.723,29.285.47,17.2,12.945,22.652,10.272,35.483C305.084,266.372,405.114,231.833,405.114,231.833Z" fill="#2993e2"/>
              <path id="Trazado_33708" data-name="Trazado 33708" d="M326.747,168.833c-3.186,14.506,5.927,21.953,7.195,29.964,1.175,7.426-.154,17.934-7.143,22.308l14.788-3.159,4.039-30.881L335.053,167.86Z" fill="#e2e2e2" style="mix-blend-mode: multiply;isolation: isolate"/>
              <path id="Trazado_33709" data-name="Trazado 33709" d="M376.052,216.409c17.493,8,44.8,26.377,49.587,41s-12.317,75.82-13.084,93.267-1.216,27.548-1.634,37.037c-.635,14.386-119.936,10.049-119.261-5.255.418-9.489.863-19.589,1.631-37.036s-10.89-79.909-4.834-94.057,34.873-30.053,53-36.482Z" fill="#ff692e"/>
              <path id="Trazado_33710" data-name="Trazado 33710" d="M408.175,158.689c-1.236,6.929-7.036,15.628-12.093,12.706-4.072-2.357-7.423-6.133-6.194-13.062s5.034-10.189,10.624-11.062C406.534,146.332,409.4,151.757,408.175,158.689Z" fill="#e5886e"/>
              <path id="Trazado_33711" data-name="Trazado 33711" d="M406.916,149.816c-1.049-1.433-7-2.438-8.959,2.723l.861-4.913a7.923,7.923,0,0,1,4.233-.353A5.447,5.447,0,0,1,406.916,149.816Z" fill="#ffa383"/>
              <path id="Trazado_33712" data-name="Trazado 33712" d="M318.224,154.726c.619,7.011,5.632,16.187,10.93,13.721,4.259-1.991,7.93-5.456,7.315-12.467s-4.118-10.593-9.608-11.953C320.945,142.561,317.608,147.713,318.224,154.726Z" fill="#e5886e"/>
              <path id="Trazado_33713" data-name="Trazado 33713" d="M320.256,146c1.181-1.335,7.192-1.814,8.69,3.5l-.424-4.971a7.956,7.956,0,0,0-4.188-.722A5.443,5.443,0,0,0,320.256,146Z" fill="#ffa383"/>
              <path id="Trazado_33714" data-name="Trazado 33714" d="M338.831,188.141c1.859,7.725-1.941,24.72-2.638,28.978-1.592.592-12.245,5.406-12.245,5.406-3.036,10.5,5.629,18.911,13.732,29.958,9.168,12.5,19.729,30.6,18.949,44.674l3.377.15c7.7-29.278,26.64-65.173,22.208-77.809-.543-1.665-3.573-16.119-.366-28.535Z" fill="#ffa383"/>
              <path id="Trazado_33715" data-name="Trazado 33715" d="M339.3,192.673a43.781,43.781,0,0,1-.272,7.319s11.811,15.307,20.71,15.7,20.88-12.743,20.88-12.743.211-9.14.788-12.932Z" fill="#e5886e"/>
              <path id="Trazado_33716" data-name="Trazado 33716" d="M398.989,143.751a35.17,35.17,0,1,1-70.272-3.1c1.147-26.051,17.427-37.886,36.837-37.032S400.111,118.246,398.989,143.751Z" fill="#ffa383"/>
              <path id="Trazado_33717" data-name="Trazado 33717" d="M398.989,143.751c-.829,18.793-1.523,34.525-9.136,44.424-4.589,5.962-16.261,16.047-24.5,18.368-2.045.571-7.8-.015-9.782-.813-7.93-3.207-17.8-13.97-21.667-20.019-6.712-10.531-6.019-26.262-5.191-45.055" fill="#ffa383"/>
              <path id="Trazado_33718" data-name="Trazado 33718" d="M384.546,157.749c-.14,3.191-2.177,5.7-4.549,5.6s-4.184-2.783-4.045-5.974,2.174-5.7,4.553-5.6S384.685,154.551,384.546,157.749Z" fill="#0e263f"/>
              <path id="Trazado_33719" data-name="Trazado 33719" d="M351.3,156.083c-.14,3.192-2.182,5.7-4.557,5.6s-4.182-2.783-4.043-5.974,2.18-5.7,4.551-5.6S351.44,152.886,351.3,156.083Z" fill="#0e263f"/>
              <path id="Trazado_33720" data-name="Trazado 33720" d="M370.393,141.4s15.746.08,22.663,5.1" fill="none" stroke="#0e263f" stroke-linecap="round" stroke-miterlimit="10" stroke-width="5"/>
              <path id="Trazado_33721" data-name="Trazado 33721" d="M356.852,141.9s-14.718-.561-22.222,4.5" fill="none" stroke="#0e263f" stroke-linecap="round" stroke-miterlimit="10" stroke-width="5"/>
              <path id="Trazado_33722" data-name="Trazado 33722" d="M356.278,175.993c2.074-.758,9.412-.5,11.108.49s-3.764,1.974-5.648,1.89S354.611,176.707,356.278,175.993Z" fill="#e5886e"/>
              <path id="Trazado_33723" data-name="Trazado 33723" d="M366.151,196.758a42.1,42.1,0,0,0-11.254-.495c-1.81.239,2.373-1.394,5.644-1.25C363.533,195.145,367.867,197.214,366.151,196.758Z" fill="#e5886e" opacity="0.5"/>
              <path id="Trazado_33724" data-name="Trazado 33724" d="M350.9,183.5c6.761,2.338,15.1,2.315,21.533,1.834.8-.059.444.062-.344.969-1.281,1.481-5.384,6.027-10.863,5.74-5.267-.275-9.79-6.853-10.932-8.754C349.852,182.558,350.292,183.289,350.9,183.5Z" fill="#fff"/>
              <path id="Trazado_33725" data-name="Trazado 33725" d="M328.324,163.575c-2.661-1.958-4.308-4.416-2.358-7.35a10.483,10.483,0,0,1,2.166-2.282c4.873-3.96,2.336,4.914,2.336,4.914Z" fill="#ffa383"/>
              <path id="Trazado_33726" data-name="Trazado 33726" d="M349.216,182.162c4.3.722,9.635-1.69,12.054.981,3.361-2.139,9.133,1.675,13.53,1.669.083,0,.219.158-.085.249-2.324.7-15.341,3.295-25.581-2.434C348.631,182.346,348.673,182.071,349.216,182.162Z" fill="#ea4939"/>
              <path id="Trazado_33727" data-name="Trazado 33727" d="M349.486,182.71s3.4,5.615,5.852,7.886c2.354,2.175,9.023,2.931,11.764,1.084,2.481-1.667,6.652-6.629,6.652-6.629l-1.024.293c-2.362,1.391-3.8,2.863-6.527,3.782a13.17,13.17,0,0,1-8.258.112c-3.479-1.109-4.228-3.709-6.643-5.656l-1.183-.711Z" fill="#ea4939"/>
              <path id="Trazado_33728" data-name="Trazado 33728" d="M351.882,183.955c1.837,1.4,5.262,2.676,9.6,3.011a33,33,0,0,0,10.828-1.369,68.589,68.589,0,0,1-10.585.568A32.464,32.464,0,0,1,351.882,183.955Z" fill="#e2e2e2"/>
              <path id="Trazado_33729" data-name="Trazado 33729" d="M328.324,163.575c-.028-10.732,3.89-25.97,10.748-32.1,5.692-5.09,14.9-10.541,13.554-19.786a18.245,18.245,0,0,0,8.611,17.876c7.645,4.972,43.8,5.5,32.965,34.738l4.057-4.01.579-14.925L388.8,130.551l-37.173-25.559-19.9,26.16L326.666,149.4Z" fill="#e5886e"/>
              <path id="Trazado_33730" data-name="Trazado 33730" d="M397.579,164.9c.258-9.653,1.239-17.274-6.305-24.567-10.616-10.265-20.617-7.289-29.185-13.695a24.206,24.206,0,0,1-9.594-23.589l12.817-1.265,12.983,2.4,14.715,11.7,7.153,17.1s1.409,5.987.486,15.872A74.416,74.416,0,0,1,397.579,164.9Z" fill="#2993e2"/>
              <path id="Trazado_33731" data-name="Trazado 33731" d="M354.875,103.1c-24.548,7.606-26.294,19.761-28.337,33.923a67.512,67.512,0,0,0,1.786,26.555c-.494-6.18.986-29.106,13.051-37.438s11.251-14.447,11.251-14.447Z" fill="#2993e2"/>
              <path id="Trazado_33732" data-name="Trazado 33732" d="M352.626,111.69s-1.8-11.794,3.652-17.922c0,0-4.678.4-6.555,6.507C347.978,105.943,352.626,111.69,352.626,111.69Z" fill="#e2e2e2" style="mix-blend-mode: multiply;isolation: isolate"/>
              <path id="Trazado_33733" data-name="Trazado 33733" d="M318.091,225.653c-1.661,9.93,4.554,17.334,14.266,30.643s20.367,27.35,21.158,40.725c.909,15.368-6.117,90.354-6.117,90.354l7.162.314,5.446-90.382c.335-10.567-6.826-21.914-12.167-30.917s-18.216-24.144-20.96-29.826-4.006-9.534-2.931-14.039C323.948,222.525,320.2,221.263,318.091,225.653Z" fill="#ea4613"/>
              <path id="Trazado_33734" data-name="Trazado 33734" d="M359.544,295.906c1.411-5.033,6.328-18.352,8.117-22.414s4.945,3.941,4.945,3.941-13.12,33.189-14.065,44.188-1.076-16.836-1.076-16.836Z" fill="#ea4613"/>
              <path id="Trazado_33735" data-name="Trazado 33735" d="M420.03,308.777c1.6-8.11,7.789-23.629,5.286-37.269s4.344-1.628,9.031.474,68.7-14.906,74.218-25.294a15.309,15.309,0,0,1-4.959,4.389c-7.409,4.57-21.936,12.107-37.091,20.665C432.05,291.2,421.376,302.123,420.03,308.777Z" fill="#ea4613"/>
              <path id="Trazado_33736" data-name="Trazado 33736" d="M454.6,209.051c4.3-1.368,21.193-4.343,27.321,2.684s6.489.376,3.966-2.6-5.092-10.685-4.7-13.215c-1.726,4.167-2.685,5.773-3.8,6.943C475.435,203.8,474.49,202.544,454.6,209.051Z" fill="#ea4613"/>
              <path id="Trazado_33737" data-name="Trazado 33737" d="M509.219,116.214c-1.533,2.233,8.563,10.458,22.8,14.965s21.908,5.132,22.668,3.469c0,0,.6,1.3-5.486,17.119,0,0,3.034-11.077-3.485-11.628-7.713-.651-25-5.037-34.693-16.563-2.171-2.582-3.827-1.516-6.974,4.444C506.978,120.039,507.8,117.4,509.219,116.214Z" fill="#ea4613"/>
              <path id="Trazado_33738" data-name="Trazado 33738" d="M318.151,294.718s-10.848,25.41-6.793,31.357,12.81,7.4,12.81,11.46-9.566-.918-9.025,3.137c.376,2.83,29.79,28.5,36.311,38.473,2.822,4.314-.9,15.467-.089,17.1l-3.355-.145c-9.5-8.028-43.41-43.535-43.41-43.535s-9.832-35.951-8.565-38.382,8.835-21.085,9.646-22.438S318.151,294.718,318.151,294.718Z" fill="#ea4613"/>
              <path id="Trazado_33739" data-name="Trazado 33739" d="M291.219,246.688c-10.985,8.872-55.239,83.945-49.33,108.85,5.046,21.265,60.464,66.315,68.839,68.48,14.525,3.752,53.939-35.321,34.9-45.774S302.6,337.159,301.435,333.2s19.384-44.332,19.384-44.332" fill="#ff692e"/>
              <path id="Trazado_33740" data-name="Trazado 33740" d="M416.907,324.193c-3.914,8.91-20.153,28.1-19.061,35.129s14.357,13,13.266,24.071C411.112,383.393,411.191,348.78,416.907,324.193Z" fill="#ea4613"/>
              <path id="Trazado_33741" data-name="Trazado 33741" d="M359.157,260.389c.586,6.308,5.093,21.8,5.093,21.8l3.094-7.608S360.373,271.022,359.157,260.389Z" fill="#e2e2e2" style="mix-blend-mode: multiply;isolation: isolate"/>
              <path id="Trazado_33742" data-name="Trazado 33742" d="M364.25,282.194c6.665,5.228,34.912,9.643,45.364-6.4s6.361-29.109,6.361-29.109l-48.631,27.9Z" fill="#ea4613"/>
              <path id="Trazado_33743" data-name="Trazado 33743" d="M241.349,347.609c.54,7.929,75.58,78,89.778,68.012,0,0-11.027,9.839-20.4,8.4C304.6,423.3,261,388.443,247.3,366.585,239.366,354.458,241.077,349.293,241.349,347.609Z" fill="#ea4613"/>
              <g id="Grupo_18013" data-name="Grupo 18013">
                <g id="Grupo_18012" data-name="Grupo 18012" clip-path="url(#clip-path-2)">
                  <g id="Grupo_18011" data-name="Grupo 18011">
                    <path id="Trazado_33744" data-name="Trazado 33744" d="M434.424,221.1a8.83,8.83,0,1,1-8.83-8.83A8.83,8.83,0,0,1,434.424,221.1Z" fill="#ededed" style="mix-blend-mode: soft-light;isolation: isolate"/>
                    <path id="Trazado_33745" data-name="Trazado 33745" d="M460.373,248.316a8.83,8.83,0,1,1-8.83-8.831A8.831,8.831,0,0,1,460.373,248.316Z" fill="#ededed" style="mix-blend-mode: soft-light;isolation: isolate"/>
                    <path id="Trazado_33746" data-name="Trazado 33746" d="M473.128,210.513a8.83,8.83,0,1,1-8.83-8.831A8.831,8.831,0,0,1,473.128,210.513Z" fill="#ededed" style="mix-blend-mode: soft-light;isolation: isolate"/>
                    <path id="Trazado_33747" data-name="Trazado 33747" d="M505.019,248.316a8.831,8.831,0,1,1-8.833-8.831A8.832,8.832,0,0,1,505.019,248.316Z" fill="#ededed" style="mix-blend-mode: soft-light;isolation: isolate"/>
                    <circle id="Elipse_1041" data-name="Elipse 1041" cx="8.83" cy="8.83" r="8.83" transform="translate(509.719 203.445)" fill="#ededed" style="mix-blend-mode: soft-light;isolation: isolate"/>
                    <path id="Trazado_33748" data-name="Trazado 33748" d="M425.738,298.269a8.831,8.831,0,1,1-8.831-8.831A8.832,8.832,0,0,1,425.738,298.269Z" fill="#ededed" style="mix-blend-mode: soft-light;isolation: isolate"/>
                    <path id="Trazado_33749" data-name="Trazado 33749" d="M383.733,327.522a8.83,8.83,0,1,1-8.83-8.833A8.828,8.828,0,0,1,383.733,327.522Z" fill="#ededed" style="mix-blend-mode: soft-light;isolation: isolate"/>
                    <path id="Trazado_33750" data-name="Trazado 33750" d="M409.792,365.16a8.829,8.829,0,1,1-8.83-8.83A8.828,8.828,0,0,1,409.792,365.16Z" fill="#ededed" style="mix-blend-mode: soft-light;isolation: isolate"/>
                    <path id="Trazado_33751" data-name="Trazado 33751" d="M379.225,396.51a8.831,8.831,0,1,1-8.832-8.831A8.831,8.831,0,0,1,379.225,396.51Z" fill="#ededed" style="mix-blend-mode: soft-light;isolation: isolate"/>
                    <path id="Trazado_33752" data-name="Trazado 33752" d="M334.9,370.771a8.83,8.83,0,1,1-9.771-8.783C325.443,361.955,329.806,366.822,334.9,370.771Z" fill="#ededed" style="mix-blend-mode: soft-light;isolation: isolate"/>
                    <path id="Trazado_33753" data-name="Trazado 33753" d="M313.7,420.506a8.83,8.83,0,1,1-8.831-8.831A8.83,8.83,0,0,1,313.7,420.506Z" fill="#ededed" style="mix-blend-mode: soft-light;isolation: isolate"/>
                    <path id="Trazado_33754" data-name="Trazado 33754" d="M286.068,374.851a8.83,8.83,0,1,1-8.83-8.831A8.831,8.831,0,0,1,286.068,374.851Z" fill="#ededed" style="mix-blend-mode: soft-light;isolation: isolate"/>
                    <path id="Trazado_33755" data-name="Trazado 33755" d="M302.353,333.512a8.83,8.83,0,1,1-8.829-8.83A8.83,8.83,0,0,1,302.353,333.512Z" fill="#ededed" style="mix-blend-mode: soft-light;isolation: isolate"/>
                    <path id="Trazado_33756" data-name="Trazado 33756" d="M258.669,324.785a8.831,8.831,0,1,1-8.83-8.832A8.829,8.829,0,0,1,258.669,324.785Z" fill="#ededed" style="mix-blend-mode: soft-light;isolation: isolate"/>
                    <path id="Trazado_33757" data-name="Trazado 33757" d="M313.7,291.484a8.83,8.83,0,1,1-8.831-8.831A8.83,8.83,0,0,1,313.7,291.484Z" fill="#ededed" style="mix-blend-mode: soft-light;isolation: isolate"/>
                    <path id="Trazado_33758" data-name="Trazado 33758" d="M277.238,282.2a8.831,8.831,0,1,1-8.831-8.831A8.83,8.83,0,0,1,277.238,282.2Z" fill="#ededed" style="mix-blend-mode: soft-light;isolation: isolate"/>
                    <path id="Trazado_33759" data-name="Trazado 33759" d="M309.827,242.725A8.831,8.831,0,1,1,301,233.893,8.831,8.831,0,0,1,309.827,242.725Z" fill="#ededed" style="mix-blend-mode: soft-light;isolation: isolate"/>
                    <path id="Trazado_33760" data-name="Trazado 33760" d="M345.366,315.955a8.831,8.831,0,1,1-8.831-8.831A8.83,8.83,0,0,1,345.366,315.955Z" fill="#ededed" style="mix-blend-mode: soft-light;isolation: isolate"/>
                    <path id="Trazado_33761" data-name="Trazado 33761" d="M344.539,273.74a8.832,8.832,0,1,1-10.023-14.494C336.676,262.645,340.372,267.779,344.539,273.74Z" fill="#ededed" style="mix-blend-mode: soft-light;isolation: isolate"/>
                    <path id="Trazado_33762" data-name="Trazado 33762" d="M500.348,171.976a8.831,8.831,0,1,1-8.829-8.83A8.83,8.83,0,0,1,500.348,171.976Z" fill="#ededed" style="mix-blend-mode: soft-light;isolation: isolate"/>
                    <path id="Trazado_33763" data-name="Trazado 33763" d="M547.531,164.9a8.831,8.831,0,1,1-8.832-8.831A8.831,8.831,0,0,1,547.531,164.9Z" fill="#ededed" style="mix-blend-mode: soft-light;isolation: isolate"/>
                    <path id="Trazado_33764" data-name="Trazado 33764" d="M525.081,133.336a8.83,8.83,0,1,1-8.831-8.831,8.953,8.953,0,0,1,1.1.069,39.111,39.111,0,0,0,5.617,3.034A8.791,8.791,0,0,1,525.081,133.336Z" fill="#ededed" style="mix-blend-mode: soft-light;isolation: isolate"/>
                  </g>
                </g>
              </g>
              <path id="Trazado_33766" data-name="Trazado 33766" d="M420.03,308.777c1.6-8.11,7.789-23.629,5.286-37.269s4.344-1.628,9.031.474,68.7-14.906,74.218-25.294a15.309,15.309,0,0,1-4.959,4.389c-7.409,4.57-21.936,12.107-37.091,20.665C432.05,291.2,421.376,302.123,420.03,308.777Z" fill="#ea4613" opacity="0.5" style="mix-blend-mode: multiply;isolation: isolate"/>
              <path id="Trazado_33767" data-name="Trazado 33767" d="M454.6,209.051c4.3-1.368,21.193-4.343,27.321,2.684s6.489.376,3.966-2.6-5.092-10.685-4.7-13.215c-1.726,4.167-2.685,5.773-3.8,6.943C475.435,203.8,474.49,202.544,454.6,209.051Z" fill="#ea4613" opacity="0.5" style="mix-blend-mode: multiply;isolation: isolate"/>
              <path id="Trazado_33768" data-name="Trazado 33768" d="M509.219,116.214c-1.533,2.233,8.563,10.458,22.8,14.965s21.908,5.132,22.668,3.469c0,0,.6,1.3-5.486,17.119,0,0,3.034-11.077-3.485-11.628-7.713-.651-25-5.037-34.693-16.563-2.171-2.582-3.827-1.516-6.974,4.444C506.978,120.039,507.8,117.4,509.219,116.214Z" fill="#ea4613" opacity="0.5" style="mix-blend-mode: multiply;isolation: isolate"/>
              <path id="Trazado_33769" data-name="Trazado 33769" d="M318.151,294.718s-10.848,25.41-6.793,31.357,12.81,7.4,12.81,11.46-9.566-.918-9.025,3.137c.376,2.83,29.79,28.5,36.311,38.473,2.822,4.314-.9,15.467-.089,17.1l-3.355-.145c4.517-9.206,3.713-14.792-3.945-18.757-21.354-12.184-41.814-42.52-41.814-42.52a15.055,15.055,0,0,1,.367-6.315C307.662,314.992,318.151,294.718,318.151,294.718Z" fill="#ea4613" opacity="0.5" style="mix-blend-mode: multiply;isolation: isolate"/>
              <path id="Trazado_33770" data-name="Trazado 33770" d="M416.907,324.193c-3.914,8.91-20.153,28.1-19.061,35.129s14.357,13,13.266,24.071C411.112,383.393,411.191,348.78,416.907,324.193Z" fill="#ea4613" opacity="0.5" style="mix-blend-mode: multiply;isolation: isolate"/>
              <path id="Trazado_33771" data-name="Trazado 33771" d="M364.25,282.194c6.665,5.228,34.912,9.643,45.364-6.4s6.361-29.109,6.361-29.109l-48.631,27.9Z" fill="#ea4613" opacity="0.5" style="mix-blend-mode: multiply;isolation: isolate"/>
              <path id="Trazado_33772" data-name="Trazado 33772" d="M241.349,347.609c.54,7.929,75.58,78,89.778,68.012,0,0-11.027,9.839-20.4,8.4C304.6,423.3,261,388.443,247.3,366.585,239.366,354.458,241.077,349.293,241.349,347.609Z" fill="#ea4613" opacity="0.5" style="mix-blend-mode: multiply;isolation: isolate"/>
              <path id="Trazado_33773" data-name="Trazado 33773" d="M402.478,123.58c3.521,15.818.783,18.509,8.344,31.671,5.765,10.029,17.969,30.692,6.123,45.5-3.994,5-11.113,8.845-11.588,15.9-.359,5.343,3.6,10.547,5.7,15.279,4.311,9.7,8.668,22.719,2.4,32.376a34.143,34.143,0,0,1-23.731,14.832c-11.108,1.387-23.857-1.318-28.834-12.618-5.417-12.3,2.856-21.885,11.084-29.8,3.71-3.571,8.277-6.62,8.811-12.254.549-5.786-2.55-9.878-5.422-14.653-13.346-22.2,21.7-36.92,22.264-55.781.26-8.631-3.717-12.369.337-20.2C397.965,133.83,402.473,123.566,402.478,123.58Z" fill="#2993e2"/>
              <path id="Trazado_33774" data-name="Trazado 33774" d="M372.687,203.128c12.707,7.278,22.244,10.645,22.311,15.768s-29.28,19.813-35.054,34.569l.028-.63s-1.437-7.116,5.446-17.093c3.814-5.525,9.28-9.75,10.816-16.682C377.072,215.286,372.89,208.782,372.687,203.128Z" fill="#e2e2e2" style="mix-blend-mode: multiply;isolation: isolate"/>
              <path id="Trazado_33775" data-name="Trazado 33775" d="M373.593,323.44a5.27,5.27,0,1,1-5.26-5.608A5.44,5.44,0,0,1,373.593,323.44Z" fill="#2993e2"/>
              <path id="Trazado_33776" data-name="Trazado 33776" d="M371.022,370.769a5.271,5.271,0,1,1-5.261-5.61A5.444,5.444,0,0,1,371.022,370.769Z" fill="#2993e2"/>
              <path id="Trazado_33777" data-name="Trazado 33777" d="M365.054,324.9c0-.539,1.106,1.023,3.279,1.023,2.268,0,3.28-1.437,3.28-1.023,0,1.449-1.468,2.624-3.28,2.624S365.054,326.346,365.054,324.9Z" fill="#2993e2"/>
              <path id="Trazado_33778" data-name="Trazado 33778" d="M362.482,372.225c0-.539,1.107,1.025,3.279,1.025,2.267,0,3.279-1.439,3.279-1.025,0,1.451-1.467,2.625-3.279,2.625S362.482,373.676,362.482,372.225Z" fill="#2993e2"/>
              <path id="Trazado_33779" data-name="Trazado 33779" d="M365.054,324.9c0-.539,1.106,1.023,3.279,1.023,2.268,0,3.28-1.437,3.28-1.023,0,1.449-1.468,2.624-3.28,2.624S365.054,326.346,365.054,324.9Z" fill="#ededed" style="mix-blend-mode: soft-light;isolation: isolate"/>
              <path id="Trazado_33780" data-name="Trazado 33780" d="M362.482,372.225c0-.539,1.107,1.025,3.279,1.025,2.267,0,3.279-1.439,3.279-1.025,0,1.451-1.467,2.625-3.279,2.625S362.482,373.676,362.482,372.225Z" fill="#ededed" style="mix-blend-mode: soft-light;isolation: isolate"/>
            </g>
          </g>
        </g>
        <rect id="Rectángulo_4120" data-name="Rectángulo 4120" width="428.007" height="30.266" transform="translate(170.849 357.633)" fill="#0b3356" opacity="0.6" style="mix-blend-mode: multiply;isolation: isolate"/>
        <rect id="Rectángulo_4121" data-name="Rectángulo 4121" width="52.602" height="2.91" transform="translate(170.849 354.723)" fill="#ea4939"/>
        <rect id="Rectángulo_4122" data-name="Rectángulo 4122" width="357.991" height="2.91" transform="translate(237.374 354.723)" fill="#0b3356" opacity="0.4" style="mix-blend-mode: multiply;isolation: isolate"/>
        <rect id="Rectángulo_4123" data-name="Rectángulo 4123" width="13.121" height="2.91" transform="translate(224.253 354.723)" fill="#fff" opacity="0.5"/>
        <g id="Grupo_18017" data-name="Grupo 18017">
          <path id="Trazado_33782" data-name="Trazado 33782" d="M576.731,365.2h-3.776v3.773" fill="none" stroke="#fff" stroke-linejoin="round" stroke-width="3"/>
          <path id="Trazado_33783" data-name="Trazado 33783" d="M584.6,368.975V365.2h-3.774" fill="none" stroke="#fff" stroke-linejoin="round" stroke-width="3"/>
          <path id="Trazado_33784" data-name="Trazado 33784" d="M580.82,376.853H584.6v-3.776" fill="none" stroke="#fff" stroke-linejoin="round" stroke-width="3"/>
          <path id="Trazado_33785" data-name="Trazado 33785" d="M572.954,373.076v3.777h3.775" fill="none" stroke="#fff" stroke-linejoin="round" stroke-width="3"/>
        </g>
        <rect id="Rectángulo_4124" data-name="Rectángulo 4124" width="10.285" height="7.662" transform="translate(553.554 369.19)" fill="none" stroke="#fff" stroke-linecap="round" stroke-linejoin="round" stroke-width="3"/>
        <path id="Trazado_33786" data-name="Trazado 33786" d="M162.314,81.35V392.556H603.9V81.35H565.259l-1.1,9.313h31.205v292.58H170.849V90.663h337.84l-.137-9.313Z" fill="#0b3356"/>
        <g id="Grupo_18018" data-name="Grupo 18018">
          <path id="Trazado_33787" data-name="Trazado 33787" d="M627.387,315.172c-4.131,5.521-55.822,18.675-63.424,17.832s-18.766-35.588-14.441-44.627,59.847-22.864,66.059-19.024S631.517,309.653,627.387,315.172Z" fill="#fff"/>
          <path id="Trazado_33788" data-name="Trazado 33788" d="M596.686,297.21l-14.666-6.151a2.286,2.286,0,0,0-3.1,2.664l4.647,18.505a2.287,2.287,0,0,0,3.994.884l10.02-12.353A2.286,2.286,0,0,0,596.686,297.21Z" fill="#2993e2"/>
        </g>
        <path id="Trazado_33789" data-name="Trazado 33789" d="M302.4,176.716H278.755a10.636,10.636,0,0,0-10.6,10.6v10.727a10.635,10.635,0,0,0,10.6,10.6h17.652L299.77,213a1.518,1.518,0,0,0,2.581-.3l1.94-4.235A10.636,10.636,0,0,0,313,198.047V187.32A10.635,10.635,0,0,0,302.4,176.716Zm-23.646,19.26a2.926,2.926,0,1,1,2.927-2.928A2.925,2.925,0,0,1,278.755,195.976Zm11.884,0a2.926,2.926,0,1,1,2.925-2.928A2.928,2.928,0,0,1,290.639,195.976Zm11.885,0a2.926,2.926,0,1,1,2.924-2.928A2.926,2.926,0,0,1,302.524,195.976Z" fill="#fff"/>
        <g id="Grupo_18021" data-name="Grupo 18021">
          <g id="Grupo_18020" data-name="Grupo 18020">
            <g id="Grupo_18019" data-name="Grupo 18019">
              <path id="Trazado_33790" data-name="Trazado 33790" d="M458.856,327.264l.148.054L476,333.307l9.835-15.1.087-.133a8.754,8.754,0,1,0-14.67-9.555l-2.411,3.7-4.164-1.467a8.754,8.754,0,1,0-5.82,16.512Z" fill="#fff"/>
            </g>
          </g>
        </g>
        <g id="Grupo_18024" data-name="Grupo 18024">
          <g id="Grupo_18023" data-name="Grupo 18023">
            <g id="Grupo_18022" data-name="Grupo 18022">
              <path id="Trazado_33791" data-name="Trazado 33791" d="M554.53,213.034l.058.09,6.751,10.269,11.573-4.132.1-.035A5.971,5.971,0,0,0,569,207.98l-2.835,1.012-1.655-2.515a5.969,5.969,0,1,0-9.977,6.557Z" fill="#fff"/>
            </g>
          </g>
        </g>
        <g id="Grupo_18027" data-name="Grupo 18027">
          <g id="Grupo_18026" data-name="Grupo 18026">
            <g id="Grupo_18025" data-name="Grupo 18025">
              <path id="Trazado_33792" data-name="Trazado 33792" d="M216.922,153.031l.1.037,11.583,4.105,6.727-10.283.06-.09a5.97,5.97,0,0,0-9.994-6.535l-1.648,2.519-2.839-1a5.969,5.969,0,1,0-3.99,11.252Z" fill="#fff"/>
            </g>
          </g>
        </g>
      </g>
      <g id="Grupo_18031" data-name="Grupo 18031">
        <path id="Trazado_33793" data-name="Trazado 33793" d="M264.753,434.277c0,13.4-30.731,24.271-68.64,24.271s-68.638-10.867-68.638-24.271,30.73-24.269,68.638-24.269S264.753,420.872,264.753,434.277Z" fill="#69cdff" opacity="0.2"/>
        <g id="Grupo_18030" data-name="Grupo 18030">
          <rect id="Rectángulo_4125" data-name="Rectángulo 4125" width="7.841" height="15.327" transform="translate(191.439 255.85)" fill="#123456"/>
          <g id="Grupo_18029" data-name="Grupo 18029">
            <path id="Trazado_33794" data-name="Trazado 33794" d="M203.152,175.415H182.3l-3.542,16.528h27.939Z" fill="#0b3356"/>
            <rect id="Rectángulo_4126" data-name="Rectángulo 4126" width="13.188" height="7.281" rx="2" transform="translate(186.029 179.152)"/>
            <rect id="Rectángulo_4127" data-name="Rectángulo 4127" width="103.889" height="66.35" rx="5" transform="translate(142.346 187.604)" fill="#0b3356"/>
            <rect id="Rectángulo_4128" data-name="Rectángulo 4128" width="103.889" height="66.348" rx="5" transform="translate(142.346 190.329)" fill="#0a1d35"/>
            <rect id="Rectángulo_4129" data-name="Rectángulo 4129" width="57.854" height="41.846" rx="5" transform="translate(148.839 205.794)" fill="#0a1d35"/>
            <rect id="Rectángulo_4130" data-name="Rectángulo 4130" width="57.854" height="41.849" rx="5" transform="translate(148.839 208.181)" fill="#69cdff"/>
            <path id="Trazado_33795" data-name="Trazado 33795" d="M167.539,250.029h-5.9l13.18-41.849h5.9Z" fill="#fff" style="mix-blend-mode: soft-light;isolation: isolate"/>
            <path id="Trazado_33796" data-name="Trazado 33796" d="M155.045,250.029h-1.083l13.18-41.849h1.083Z" fill="#fff" style="mix-blend-mode: soft-light;isolation: isolate"/>
            <path id="Trazado_33797" data-name="Trazado 33797" d="M187.7,250.029H171.176l13.18-41.849h16.525Z" fill="#fff" style="mix-blend-mode: soft-light;isolation: isolate"/>
            <rect id="Rectángulo_4131" data-name="Rectángulo 4131" width="7.335" height="4.049" rx="2" transform="translate(216.849 197.273)" fill="#e2e2e2"/>
            <rect id="Rectángulo_4132" data-name="Rectángulo 4132" width="7.335" height="4.049" rx="2" transform="translate(227.621 197.273)" fill="#e2e2e2"/>
            <rect id="Rectángulo_4133" data-name="Rectángulo 4133" width="7.335" height="4.049" rx="2" transform="translate(216.849 204.131)" fill="#e2e2e2"/>
            <rect id="Rectángulo_4134" data-name="Rectángulo 4134" width="7.335" height="4.049" rx="2" transform="translate(227.621 204.131)" fill="#e2e2e2"/>
            <rect id="Rectángulo_4135" data-name="Rectángulo 4135" width="7.335" height="4.049" rx="2" transform="translate(216.849 210.99)" fill="#e2e2e2"/>
            <rect id="Rectángulo_4136" data-name="Rectángulo 4136" width="7.335" height="4.049" rx="2" transform="translate(227.621 210.99)" fill="#e2e2e2"/>
            <path id="Trazado_33798" data-name="Trazado 33798" d="M236.9,234.954a11.511,11.511,0,1,1-11.51-11.512A11.511,11.511,0,0,1,236.9,234.954Z" fill="#0a1d35"/>
            <path id="Trazado_33799" data-name="Trazado 33799" d="M234.956,234.954a9.57,9.57,0,1,1-9.569-9.57A9.569,9.569,0,0,1,234.956,234.954Z" fill="#0b3356"/>
            <path id="Trazado_33800" data-name="Trazado 33800" d="M232.3,234.954a6.914,6.914,0,1,1-6.913-6.915A6.913,6.913,0,0,1,232.3,234.954Z" fill="#0a1d35"/>
          </g>
          <rect id="Rectángulo_4137" data-name="Rectángulo 4137" width="26.635" height="3.208" transform="translate(182.043 269.572)" fill="#123456"/>
          <path id="Trazado_33801" data-name="Trazado 33801" d="M210.281,271.177a1.6,1.6,0,1,1-1.6-1.605A1.6,1.6,0,0,1,210.281,271.177Z" fill="#123456"/>
          <path id="Trazado_33802" data-name="Trazado 33802" d="M183.926,271.177a1.6,1.6,0,1,1-1.6-1.605A1.605,1.605,0,0,1,183.926,271.177Z" fill="#123456"/>
          <rect id="Rectángulo_4138" data-name="Rectángulo 4138" width="26.635" height="3.208" transform="translate(182.043 277.084)" fill="#123456"/>
          <path id="Trazado_33803" data-name="Trazado 33803" d="M210.281,278.688a1.6,1.6,0,1,1-1.6-1.6A1.6,1.6,0,0,1,210.281,278.688Z" fill="#123456"/>
          <path id="Trazado_33804" data-name="Trazado 33804" d="M183.926,278.688a1.6,1.6,0,1,1-1.6-1.6A1.6,1.6,0,0,1,183.926,278.688Z" fill="#123456"/>
          <rect id="Rectángulo_4139" data-name="Rectángulo 4139" width="24.753" height="7.511" transform="translate(182.984 271.177)" fill="#123456"/>
          <line id="Línea_45" data-name="Línea 45" x1="49.094" y2="154.224" transform="translate(142.346 278.688)" fill="none" stroke="#153556" stroke-linecap="round" stroke-miterlimit="10" stroke-width="5"/>
          <line id="Línea_46" data-name="Línea 46" x1="49.094" y1="154.224" transform="translate(200.839 278.688)" fill="none" stroke="#153556" stroke-linecap="round" stroke-miterlimit="10" stroke-width="5"/>
          <line id="Línea_47" data-name="Línea 47" y2="165.102" transform="translate(196.113 280.105)" fill="none" stroke="#153556" stroke-linecap="round" stroke-miterlimit="10" stroke-width="5"/>
        </g>
      </g>
    </g>
  </g>
</svg>
