<svg xmlns="http://www.w3.org/2000/svg" width="297.63" height="254.021" viewBox="0 0 297.63 254.021">
  <g id="Grupo_18034" data-name="Grupo 18034" transform="translate(-363.804 -134.978)">
    <path id="Trazado_33537" data-name="Trazado 33537" d="M598.784,146.42l-.138-.165H416.737l.413.445h-1.669a19.154,19.154,0,0,0-19.154,19.154V359.491H380.269l-.138.165a25.553,25.553,0,0,0,0,32.716l.138.165H562.42a20.852,20.852,0,0,0,20.852-20.852V179.746s0-.159,0-.445h15.378l.138-.165A25.553,25.553,0,0,0,598.784,146.42Z" transform="translate(-4.448 -3.538)" opacity="0.17"/>
    <g id="Grupo_17816" data-name="Grupo 17816" transform="translate(363.804 136.978)">
      <g id="Grupo_17815" data-name="Grupo 17815" transform="translate(0 -2)">
        <path id="Trazado_33538" data-name="Trazado 33538" d="M438.084,171.025H619.993l.137-.165a25.551,25.551,0,0,0,0-32.716l-.137-.165H438.084l.9.968a22.89,22.89,0,0,1-.739,31.921Z" transform="translate(-395.556 -137.978)" fill="#0b3356"/>
        <path id="Trazado_33539" data-name="Trazado 33539" d="M568.529,384.26H402.437V157.577a19.154,19.154,0,0,1,19.154-19.154H584.083s16.863-1,16.523,0c-11.831.231-11.225,33.047-11.225,33.047V363.408A20.852,20.852,0,0,1,568.529,384.26Z" transform="translate(-380.318 -137.978)" fill="#69cdfd"/>
        <path id="Trazado_33540" data-name="Trazado 33540" d="M551.773,543.467H369.864l-.138-.165a25.553,25.553,0,0,1,0-32.716l.138-.165H551.773l-.9.968c-8.441,9.084-9.874,24.582.9,32.078Z" transform="translate(-363.804 -297.184)" fill="#0b3356"/>
      </g>
      <rect id="Rectángulo_4049" data-name="Rectángulo 4049" width="113.008" height="9.51" transform="translate(62.529 37.103)" fill="#f7d77f"/>
      <rect id="Rectángulo_4050" data-name="Rectángulo 4050" width="50.527" height="3.098" transform="translate(140.735 198.693)" fill="#004686"/>
      <rect id="Rectángulo_4051" data-name="Rectángulo 4051" width="144.459" height="3.863" transform="translate(46.803 64.48)" fill="#e6e6e6"/>
      <rect id="Rectángulo_4052" data-name="Rectángulo 4052" width="144.459" height="3.863" transform="translate(46.803 83.443)" fill="#e6e6e6"/>
      <rect id="Rectángulo_4053" data-name="Rectángulo 4053" width="144.459" height="3.863" transform="translate(46.803 102.407)" fill="#e6e6e6"/>
      <rect id="Rectángulo_4054" data-name="Rectángulo 4054" width="144.459" height="3.863" transform="translate(46.803 121.371)" fill="#e6e6e6"/>
      <rect id="Rectángulo_4055" data-name="Rectángulo 4055" width="144.459" height="3.863" transform="translate(46.803 140.335)" fill="#e6e6e6"/>
      <rect id="Rectángulo_4056" data-name="Rectángulo 4056" width="144.459" height="3.863" transform="translate(46.803 178.263)" fill="#e6e6e6"/>
      <rect id="Rectángulo_4057" data-name="Rectángulo 4057" width="144.459" height="3.863" transform="translate(46.803 159.299)" fill="#e6e6e6"/>
    </g>
    <path id="Trazado_33541" data-name="Trazado 33541" d="M804.308,216.179l-1.664-1.023-.445-.274-.8-.492,2.591-4.216a.562.562,0,0,0-.185-.773l-14.27-8.77a.562.562,0,0,0-.773.184l-2.591,4.216-.955-.587a.451.451,0,0,0-.621.149l-1.111,1.808a.452.452,0,0,0,.148.622l.955.587-22.359,36.38a.562.562,0,0,0,.185.772l1.3.8-48.773,79.362-1.012-.622a.776.776,0,0,0-1.068.255l-.008.013a.776.776,0,0,0,.255,1.068l1.126.692-.258.577-1.2-.735a.776.776,0,0,0-1.068.255l-.008.013a.777.777,0,0,0,.255,1.068l1.371.842-4.535,10.128h0l-5,11.163-2.75,1.73L698.543,362l1.379.848,8.583-7.039.456-2.989,8.154-9.223h0l.014-.016,7.384-8.353,1.22.75a.776.776,0,0,0,1.068-.255l.008-.013a.776.776,0,0,0-.255-1.068l-.987-.606.421-.477.894.549a.777.777,0,0,0,1.068-.255l.008-.013a.776.776,0,0,0-.255-1.068l-.741-.456,46.525-75.7,2.248-3.658.946.582a.562.562,0,0,0,.773-.184l22.358-36.38.417.256a.451.451,0,0,1,.148.621l-14.693,23.908a.452.452,0,0,0,.149.622l1.724,1.059a.452.452,0,0,0,.621-.148L804.457,216.8A.452.452,0,0,0,804.308,216.179Z" transform="translate(-143.09 -26.747)" opacity="0.28"/>
    <g id="Grupo_17818" data-name="Grupo 17818" transform="translate(551.696 170.675)">
      <path id="Trazado_33542" data-name="Trazado 33542" d="M717.806,365.365l-8.377-5.022,5.714-13.149,54.394-90.738,12.1,7.254-54.354,90.672Z" transform="translate(-699.439 -221.321)" fill="#153e49"/>
      <rect id="Rectángulo_4058" data-name="Rectángulo 4058" width="51.8" height="17.873" rx="0.981" transform="matrix(0.514, -0.858, 0.858, 0.514, 62.088, 44.429)" fill="#113542"/>
      <path id="Trazado_33543" data-name="Trazado 33543" d="M856.536,212.808l-.448-.269-17.1-10.25a.452.452,0,0,0-.62.155l-1.091,1.821a.452.452,0,0,0,.155.62L854.144,214.9a.452.452,0,0,1,.156.62l-14.428,24.069a.452.452,0,0,0,.156.619l1.735,1.04a.452.452,0,0,0,.62-.155l15.984-26.664a.452.452,0,0,0-.155-.62Z" transform="translate(-754.063 -198.139)" fill="#1a1a1a"/>
      <path id="Trazado_33544" data-name="Trazado 33544" d="M706.115,442.422l-5.2-3.117L711.5,414.937l12.1,7.254Z" transform="translate(-695.799 -289.066)" fill="#5d7a7f"/>
      <path id="Trazado_33545" data-name="Trazado 33545" d="M702.3,460.617l-5.2-3.117-2.731,1.76-2.383,10.651,1.389.832,8.5-7.133Z" transform="translate(-691.98 -307.261)" fill="#dae7e8"/>
      <path id="Rectángulo_4059" data-name="Rectángulo 4059" d="M.784,0h0a.784.784,0,0,1,.784.784V16.937a.784.784,0,0,1-.784.784h0A.784.784,0,0,1,0,16.937V.784A.784.784,0,0,1,.784,0Z" transform="translate(13.496 125.735) rotate(-59.059)" fill="#688689"/>
      <path id="Rectángulo_4060" data-name="Rectángulo 4060" d="M.784,0h0a.784.784,0,0,1,.784.784V16.937a.784.784,0,0,1-.784.784h0A.784.784,0,0,1,0,16.937V.784A.784.784,0,0,1,.784,0Z" transform="translate(12.367 127.618) rotate(-59.059)" fill="#688689"/>
      <g id="Grupo_17817" data-name="Grupo 17817" transform="translate(0.542 155.456)">
        <path id="Trazado_33546" data-name="Trazado 33546" d="M700.294,468.335a1.138,1.138,0,1,1-.391-1.561A1.138,1.138,0,0,1,700.294,468.335Z" transform="translate(-695.172 -466.612)" fill="#153e49"/>
        <rect id="Rectángulo_4061" data-name="Rectángulo 4061" width="7.057" height="0.549" transform="translate(0 7.52) rotate(-59.058)" fill="#153e49"/>
      </g>
      <path id="Trazado_33547" data-name="Trazado 33547" d="M803.557,274.567l12.1,7.254-6.692,11.163Z" transform="translate(-739.675 -229.063)" opacity="0.28"/>
    </g>
    <rect id="Rectángulo_4062" data-name="Rectángulo 4062" width="15.948" height="9.51" transform="translate(426.333 175.081)" fill="#8cad81"/>
  </g>
</svg>
