<svg xmlns="http://www.w3.org/2000/svg" width="1076" height="359.698" viewBox="0 0 1076 359.698">
  <g id="Grupo_18043" data-name="Grupo 18043" transform="translate(-422 -6242)">
    <g id="Grupo_16353" data-name="Grupo 16353" transform="translate(0 1278)">
      <path id="Trazado_32740" data-name="Trazado 32740" d="M0,0H1076V61H0Z" transform="translate(422 4964)" fill="#fdac29"/>
      <path id="Trazado_32741" data-name="Trazado 32741" d="M11.465-14.111h2.92V0H11L4.746-10.088V0H1.826V-14.111h3.35L11.465-4.082ZM22.285.2A6.313,6.313,0,0,1,19.443-.42,4.6,4.6,0,0,1,17.5-2.227a5.384,5.384,0,0,1-.708-2.8,4.911,4.911,0,0,1,1.523-3.809,5.652,5.652,0,0,1,3.975-1.4,5.665,5.665,0,0,1,3.984,1.4,4.911,4.911,0,0,1,1.523,3.809A4.938,4.938,0,0,1,26.27-1.206,5.654,5.654,0,0,1,22.285.2Zm-.029-2.236a2.577,2.577,0,0,0,1.987-.82A3.071,3.071,0,0,0,25-5.029,3.071,3.071,0,0,0,24.243-7.2a2.577,2.577,0,0,0-1.987-.82,2.483,2.483,0,0,0-1.929.825,3.1,3.1,0,0,0-.747,2.163,3.1,3.1,0,0,0,.747,2.163A2.483,2.483,0,0,0,22.256-2.041Zm19.521-8.193a3.836,3.836,0,0,1,2.588.815,2.918,2.918,0,0,1,.947,2.339V0H42.5V-6.279a1.677,1.677,0,0,0-.449-1.27,1.573,1.573,0,0,0-1.133-.43,1.814,1.814,0,0,0-1.367.547,2.484,2.484,0,0,0-.527,1.768V0H36.182V-6.25a1.721,1.721,0,0,0-.449-1.294,1.6,1.6,0,0,0-1.162-.435,1.757,1.757,0,0,0-1.357.576,2.751,2.751,0,0,0-.527,1.885V0h-2.8V-10.039h2.8v1.182a3.414,3.414,0,0,1,2.91-1.377,4.293,4.293,0,0,1,1.89.386A2.572,2.572,0,0,1,38.672-8.73,3.55,3.55,0,0,1,41.777-10.234Zm12.168,0a4.857,4.857,0,0,1,1.865.361,4.654,4.654,0,0,1,1.538,1.021A4.652,4.652,0,0,1,58.389-7.2,6.106,6.106,0,0,1,58.77-5a6.106,6.106,0,0,1-.381,2.2,4.652,4.652,0,0,1-1.04,1.655A4.654,4.654,0,0,1,55.811-.127a4.857,4.857,0,0,1-1.865.361,4.336,4.336,0,0,1-1.9-.405,2.808,2.808,0,0,1-1.265-1.138L50.713,0H48.047V-15h2.813v6.182a2.8,2.8,0,0,1,1.255-1.045A4.414,4.414,0,0,1,53.945-10.234ZM53.291-2.1A2.53,2.53,0,0,0,55.2-2.891,2.924,2.924,0,0,0,55.957-5,2.937,2.937,0,0,0,55.2-7.119a2.53,2.53,0,0,0-1.909-.791A2.5,2.5,0,0,0,51.4-7.1,2.938,2.938,0,0,0,50.635-5a2.932,2.932,0,0,0,.757,2.1A2.5,2.5,0,0,0,53.291-2.1ZM63.584-8.447A3.259,3.259,0,0,1,64.9-9.653a4.023,4.023,0,0,1,1.963-.5v2.51a3.8,3.8,0,0,0-2.4.605,2.643,2.643,0,0,0-.742,2.148V0H60.889V-10.039h2.7ZM77.9-5.166l-.029.674H70.43a2.6,2.6,0,0,0,.8,1.836A2.561,2.561,0,0,0,73-2.021a2.468,2.468,0,0,0,1.323-.347,2.131,2.131,0,0,0,.845-1.011L77.744-3A4.383,4.383,0,0,1,75.986-.645,5.226,5.226,0,0,1,73.018.2a5.435,5.435,0,0,1-3.911-1.382,5.042,5.042,0,0,1-1.45-3.833,5.072,5.072,0,0,1,1.455-3.833,5.273,5.273,0,0,1,3.818-1.4,5.04,5.04,0,0,1,3.6,1.279A5.019,5.019,0,0,1,77.9-5.166Zm-4.951-3.1a2.222,2.222,0,0,0-2.441,1.934h4.609a2.114,2.114,0,0,0-.693-1.436A2.2,2.2,0,0,0,72.949-8.262ZM90.293.2A6.818,6.818,0,0,1,86.377-.884a4.328,4.328,0,0,1-1.9-3.022L87.5-4.6a2.571,2.571,0,0,0,.933,1.782,3.1,3.1,0,0,0,1.978.62,2.554,2.554,0,0,0,1.543-.435,1.466,1.466,0,0,0,.586-1.284,1.37,1.37,0,0,0-.5-1.045,3.254,3.254,0,0,0-.991-.64q-.493-.19-1.587-.522-.146-.049-.215-.068-.557-.176-.9-.293T87.5-6.812a5.625,5.625,0,0,1-.82-.41,6.006,6.006,0,0,1-.679-.508,2.66,2.66,0,0,1-.566-.649,3.45,3.45,0,0,1-.342-.811,3.577,3.577,0,0,1-.137-1.006,3.778,3.778,0,0,1,.659-2.222A4.037,4.037,0,0,1,87.4-13.833a6.469,6.469,0,0,1,2.544-.474,8.036,8.036,0,0,1,1.841.205,6.448,6.448,0,0,1,1.646.63,4.031,4.031,0,0,1,1.313,1.162,4.37,4.37,0,0,1,.747,1.714l-2.832.7a2.294,2.294,0,0,0-2.539-2.021,2.78,2.78,0,0,0-1.572.41,1.39,1.39,0,0,0-.615,1.24q0,.771,1.025,1.25a15.28,15.28,0,0,0,1.963.674q.576.176.938.293t.908.342a6.311,6.311,0,0,1,.889.435,6.576,6.576,0,0,1,.742.542,2.919,2.919,0,0,1,.63.7,3.8,3.8,0,0,1,.386.874,3.653,3.653,0,0,1,.156,1.089,4.278,4.278,0,0,1-.283,1.592,3.464,3.464,0,0,1-.776,1.2,4.508,4.508,0,0,1-1.167.825A5.661,5.661,0,0,1,91.9.044,8.256,8.256,0,0,1,90.293.2Zm12.285,0A6.313,6.313,0,0,1,99.736-.42a4.6,4.6,0,0,1-1.948-1.807,5.384,5.384,0,0,1-.708-2.8A4.911,4.911,0,0,1,98.6-8.838a5.652,5.652,0,0,1,3.975-1.4,5.665,5.665,0,0,1,3.984,1.4,4.911,4.911,0,0,1,1.523,3.809,4.938,4.938,0,0,1-1.523,3.823A5.654,5.654,0,0,1,102.578.2Zm-.029-2.236a2.577,2.577,0,0,0,1.987-.82,3.071,3.071,0,0,0,.757-2.168,3.071,3.071,0,0,0-.757-2.168,2.577,2.577,0,0,0-1.987-.82,2.483,2.483,0,0,0-1.929.825,3.1,3.1,0,0,0-.747,2.163,3.1,3.1,0,0,0,.747,2.163A2.483,2.483,0,0,0,102.549-2.041ZM110.176,0V-15h2.842V0Zm12.4-10.039h2.813V0h-2.666l-.068-1.211A3.834,3.834,0,0,1,119.463.2a3.914,3.914,0,0,1-2.773-.9,3.349,3.349,0,0,1-.967-2.573v-6.758h2.822v6.152a1.735,1.735,0,0,0,.5,1.377,1.909,1.909,0,0,0,1.3.439,2.264,2.264,0,0,0,1.6-.571,2.454,2.454,0,0,0,.63-1.86ZM132.842.186a5.364,5.364,0,0,1-3.877-1.445,4.992,4.992,0,0,1-1.5-3.77,4.981,4.981,0,0,1,1.5-3.77,5.38,5.38,0,0,1,3.882-1.436,5.349,5.349,0,0,1,3.252.967,4.316,4.316,0,0,1,1.68,2.725l-2.6.283a2.225,2.225,0,0,0-.84-1.318,2.554,2.554,0,0,0-1.523-.439,2.3,2.3,0,0,0-1.836.82,3.216,3.216,0,0,0-.7,2.168,3.22,3.22,0,0,0,.7,2.163,2.3,2.3,0,0,0,1.836.825,2.532,2.532,0,0,0,1.519-.439,2.277,2.277,0,0,0,.845-1.318l2.6.283a4.328,4.328,0,0,1-1.694,2.725A5.327,5.327,0,0,1,132.842.186Zm8.369-11.729a1.579,1.579,0,0,1-1.152-.474,1.555,1.555,0,0,1-.479-1.147,1.536,1.536,0,0,1,.483-1.138,1.584,1.584,0,0,1,1.147-.474,1.556,1.556,0,0,1,1.133.474,1.544,1.544,0,0,1,.479,1.138,1.555,1.555,0,0,1-.479,1.147A1.556,1.556,0,0,1,141.211-11.543ZM139.775,0V-10.039h2.832V0Zm9.551-11.406L151.885-15l1.387.977-2.217,2.617ZM150.2.2a6.313,6.313,0,0,1-2.842-.615,4.6,4.6,0,0,1-1.948-1.807,5.384,5.384,0,0,1-.708-2.8,4.911,4.911,0,0,1,1.523-3.809,5.652,5.652,0,0,1,3.975-1.4,5.665,5.665,0,0,1,3.984,1.4A4.911,4.911,0,0,1,155.7-5.029a4.938,4.938,0,0,1-1.523,3.823A5.654,5.654,0,0,1,150.2.2Zm-.029-2.236a2.577,2.577,0,0,0,1.987-.82,3.071,3.071,0,0,0,.757-2.168,3.071,3.071,0,0,0-.757-2.168,2.577,2.577,0,0,0-1.987-.82,2.483,2.483,0,0,0-1.929.825,3.1,3.1,0,0,0-.747,2.163,3.1,3.1,0,0,0,.747,2.163A2.483,2.483,0,0,0,150.166-2.041Zm13.555-8.193a3.914,3.914,0,0,1,2.773.9,3.349,3.349,0,0,1,.967,2.573V0h-2.822V-6.152a1.749,1.749,0,0,0-.5-1.387,1.9,1.9,0,0,0-1.294-.439,2.643,2.643,0,0,0-.84.127,2.158,2.158,0,0,0-.7.4,1.748,1.748,0,0,0-.5.757,3.5,3.5,0,0,0-.19,1.162V0h-2.812V-10.039h2.813v1.113A3.868,3.868,0,0,1,163.721-10.234Z" transform="translate(436 5002)" fill="#00223d"/>
      <path id="Trazado_32742" data-name="Trazado 32742" d="M7.7-14.111A4.247,4.247,0,0,1,10.947-12.8a4.569,4.569,0,0,1,1.23,3.247,4.456,4.456,0,0,1-1.221,3.228A4.324,4.324,0,0,1,7.7-5.059H4.756V0H1.826V-14.111Zm-.488,6.6a2.153,2.153,0,0,0,1.611-.552A2.1,2.1,0,0,0,9.355-9.59,2.081,2.081,0,0,0,8.813-11.1a2.134,2.134,0,0,0-1.606-.562H4.756v4.15Zm9.756-.937a3.259,3.259,0,0,1,1.318-1.206,4.023,4.023,0,0,1,1.963-.5v2.51a3.8,3.8,0,0,0-2.4.605A2.643,2.643,0,0,0,17.1-4.893V0H14.268V-10.039h2.7ZM26.514.2A6.313,6.313,0,0,1,23.672-.42a4.6,4.6,0,0,1-1.948-1.807,5.384,5.384,0,0,1-.708-2.8,4.911,4.911,0,0,1,1.523-3.809,5.652,5.652,0,0,1,3.975-1.4,5.665,5.665,0,0,1,3.984,1.4,4.911,4.911,0,0,1,1.523,3.809A4.938,4.938,0,0,1,30.5-1.206,5.654,5.654,0,0,1,26.514.2Zm-.029-2.236a2.577,2.577,0,0,0,1.987-.82,3.071,3.071,0,0,0,.757-2.168A3.071,3.071,0,0,0,28.472-7.2a2.577,2.577,0,0,0-1.987-.82,2.483,2.483,0,0,0-1.929.825,3.1,3.1,0,0,0-.747,2.163,3.1,3.1,0,0,0,.747,2.163A2.483,2.483,0,0,0,26.484-2.041ZM40.01-10.234a4.857,4.857,0,0,1,1.865.361,4.654,4.654,0,0,1,1.538,1.021A4.652,4.652,0,0,1,44.453-7.2,6.106,6.106,0,0,1,44.834-5a6.106,6.106,0,0,1-.381,2.2,4.652,4.652,0,0,1-1.04,1.655A4.654,4.654,0,0,1,41.875-.127,4.857,4.857,0,0,1,40.01.234a4.336,4.336,0,0,1-1.9-.405,2.808,2.808,0,0,1-1.265-1.138L36.777,0H34.111V-15h2.813v6.182a2.8,2.8,0,0,1,1.255-1.045A4.414,4.414,0,0,1,40.01-10.234ZM39.355-2.1a2.53,2.53,0,0,0,1.909-.791A2.924,2.924,0,0,0,42.021-5a2.937,2.937,0,0,0-.757-2.119,2.53,2.53,0,0,0-1.909-.791,2.5,2.5,0,0,0-1.895.806A2.938,2.938,0,0,0,36.7-5a2.932,2.932,0,0,0,.757,2.1A2.5,2.5,0,0,0,39.355-2.1Zm7.6,2.1V-15h2.842V0Zm15.2-5.166-.029.674H54.678a2.6,2.6,0,0,0,.8,1.836,2.561,2.561,0,0,0,1.768.635,2.468,2.468,0,0,0,1.323-.347,2.131,2.131,0,0,0,.845-1.011L61.992-3A4.383,4.383,0,0,1,60.234-.645,5.226,5.226,0,0,1,57.266.2a5.435,5.435,0,0,1-3.911-1.382A5.042,5.042,0,0,1,51.9-5.02a5.072,5.072,0,0,1,1.455-3.833,5.273,5.273,0,0,1,3.818-1.4,5.04,5.04,0,0,1,3.6,1.279A5.019,5.019,0,0,1,62.148-5.166ZM57.2-8.262a2.222,2.222,0,0,0-2.441,1.934h4.609a2.114,2.114,0,0,0-.693-1.436A2.2,2.2,0,0,0,57.2-8.262Zm18.984-1.973a3.836,3.836,0,0,1,2.588.815,2.918,2.918,0,0,1,.947,2.339V0H76.9V-6.279a1.677,1.677,0,0,0-.449-1.27,1.573,1.573,0,0,0-1.133-.43,1.814,1.814,0,0,0-1.367.547,2.484,2.484,0,0,0-.527,1.768V0H70.586V-6.25a1.721,1.721,0,0,0-.449-1.294,1.6,1.6,0,0,0-1.162-.435,1.757,1.757,0,0,0-1.357.576,2.751,2.751,0,0,0-.527,1.885V0h-2.8V-10.039h2.8v1.182A3.414,3.414,0,0,1,70-10.234a4.293,4.293,0,0,1,1.89.386A2.572,2.572,0,0,1,73.076-8.73,3.55,3.55,0,0,1,76.182-10.234Zm14.5,7.51a9.392,9.392,0,0,0,.244,2.451V0H88.3l-.225-1.094a3.264,3.264,0,0,1-1.406.967A5.183,5.183,0,0,1,84.854.2a4.776,4.776,0,0,1-.937-.088,3.187,3.187,0,0,1-.845-.3,2.564,2.564,0,0,1-.7-.522,2.291,2.291,0,0,1-.469-.8A3.17,3.17,0,0,1,81.729-2.6a3.02,3.02,0,0,1,.186-1.089A2.552,2.552,0,0,1,82.4-4.5a2.962,2.962,0,0,1,.791-.6,6.053,6.053,0,0,1,1-.43,11.9,11.9,0,0,1,1.191-.312l1.65-.371a1.82,1.82,0,0,0,.747-.317.633.633,0,0,0,.22-.5A1.036,1.036,0,0,0,87.5-8a2.3,2.3,0,0,0-1.2-.293,1.721,1.721,0,0,0-1.963,1.533l-2.49-.449A3.371,3.371,0,0,1,83.311-9.5a5.783,5.783,0,0,1,3.154-.737q4.219,0,4.219,3.623ZM85.732-1.709a2.262,2.262,0,0,0,1.738-.728,3.066,3.066,0,0,0,.674-2.153l-2.383.674a2.816,2.816,0,0,0-1,.41.842.842,0,0,0-.347.723.935.935,0,0,0,.371.8A1.536,1.536,0,0,0,85.732-1.709Z" transform="translate(631.174 5002)" fill="#00223d"/>
      <path id="Trazado_32743" data-name="Trazado 32743" d="M6.514.2A6.818,6.818,0,0,1,2.6-.884a4.328,4.328,0,0,1-1.9-3.022L3.721-4.6a2.571,2.571,0,0,0,.933,1.782,3.1,3.1,0,0,0,1.978.62,2.554,2.554,0,0,0,1.543-.435A1.466,1.466,0,0,0,8.76-3.916a1.37,1.37,0,0,0-.5-1.045,3.254,3.254,0,0,0-.991-.64q-.493-.19-1.587-.522-.146-.049-.215-.068-.557-.176-.9-.293t-.845-.327a5.625,5.625,0,0,1-.82-.41,6.006,6.006,0,0,1-.679-.508,2.66,2.66,0,0,1-.566-.649,3.45,3.45,0,0,1-.342-.811A3.577,3.577,0,0,1,1.182-10.2a3.778,3.778,0,0,1,.659-2.222,4.037,4.037,0,0,1,1.777-1.416,6.469,6.469,0,0,1,2.544-.474A8.036,8.036,0,0,1,8-14.1a6.448,6.448,0,0,1,1.646.63,4.031,4.031,0,0,1,1.313,1.162,4.37,4.37,0,0,1,.747,1.714l-2.832.7a2.294,2.294,0,0,0-2.539-2.021,2.78,2.78,0,0,0-1.572.41,1.39,1.39,0,0,0-.615,1.24q0,.771,1.025,1.25a15.28,15.28,0,0,0,1.963.674q.576.176.938.293t.908.342a6.311,6.311,0,0,1,.889.435,6.576,6.576,0,0,1,.742.542,2.919,2.919,0,0,1,.63.7,3.8,3.8,0,0,1,.386.874,3.653,3.653,0,0,1,.156,1.089A4.278,4.278,0,0,1,11.5-2.471a3.464,3.464,0,0,1-.776,1.2,4.508,4.508,0,0,1-1.167.825A5.661,5.661,0,0,1,8.125.044,8.256,8.256,0,0,1,6.514.2ZM18.8.2A6.313,6.313,0,0,1,15.957-.42a4.6,4.6,0,0,1-1.948-1.807,5.384,5.384,0,0,1-.708-2.8,4.911,4.911,0,0,1,1.523-3.809,5.652,5.652,0,0,1,3.975-1.4,5.665,5.665,0,0,1,3.984,1.4,4.911,4.911,0,0,1,1.523,3.809,4.938,4.938,0,0,1-1.523,3.823A5.654,5.654,0,0,1,18.8.2ZM18.77-2.041a2.577,2.577,0,0,0,1.987-.82,3.071,3.071,0,0,0,.757-2.168A3.071,3.071,0,0,0,20.757-7.2a2.577,2.577,0,0,0-1.987-.82,2.483,2.483,0,0,0-1.929.825,3.1,3.1,0,0,0-.747,2.163,3.1,3.1,0,0,0,.747,2.163A2.483,2.483,0,0,0,18.77-2.041ZM26.4,0V-15h2.842V0ZM38.8-10.039h2.813V0H38.945l-.068-1.211A3.834,3.834,0,0,1,35.684.2a3.914,3.914,0,0,1-2.773-.9,3.349,3.349,0,0,1-.967-2.573v-6.758h2.822v6.152a1.735,1.735,0,0,0,.5,1.377,1.909,1.909,0,0,0,1.3.439,2.264,2.264,0,0,0,1.6-.571A2.454,2.454,0,0,0,38.8-4.5ZM49.063.186A5.364,5.364,0,0,1,45.186-1.26a4.992,4.992,0,0,1-1.5-3.77,4.981,4.981,0,0,1,1.5-3.77,5.38,5.38,0,0,1,3.882-1.436,5.349,5.349,0,0,1,3.252.967,4.316,4.316,0,0,1,1.68,2.725l-2.6.283a2.225,2.225,0,0,0-.84-1.318,2.554,2.554,0,0,0-1.523-.439A2.3,2.3,0,0,0,47.2-7.2a3.216,3.216,0,0,0-.7,2.168,3.22,3.22,0,0,0,.7,2.163,2.3,2.3,0,0,0,1.836.825,2.532,2.532,0,0,0,1.519-.439A2.277,2.277,0,0,0,51.4-3.8l2.6.283A4.328,4.328,0,0,1,52.3-.791,5.327,5.327,0,0,1,49.063.186Zm8.369-11.729a1.579,1.579,0,0,1-1.152-.474,1.555,1.555,0,0,1-.479-1.147,1.536,1.536,0,0,1,.483-1.138,1.584,1.584,0,0,1,1.147-.474,1.556,1.556,0,0,1,1.133.474,1.544,1.544,0,0,1,.479,1.138,1.555,1.555,0,0,1-.479,1.147A1.556,1.556,0,0,1,57.432-11.543ZM56,0V-10.039h2.832V0Zm9.551-11.406L68.105-15l1.387.977-2.217,2.617ZM66.416.2A6.313,6.313,0,0,1,63.574-.42a4.6,4.6,0,0,1-1.948-1.807,5.384,5.384,0,0,1-.708-2.8,4.911,4.911,0,0,1,1.523-3.809,5.652,5.652,0,0,1,3.975-1.4,5.665,5.665,0,0,1,3.984,1.4,4.911,4.911,0,0,1,1.523,3.809A4.938,4.938,0,0,1,70.4-1.206,5.654,5.654,0,0,1,66.416.2Zm-.029-2.236a2.577,2.577,0,0,0,1.987-.82,3.071,3.071,0,0,0,.757-2.168A3.071,3.071,0,0,0,68.374-7.2a2.577,2.577,0,0,0-1.987-.82,2.483,2.483,0,0,0-1.929.825,3.1,3.1,0,0,0-.747,2.163,3.1,3.1,0,0,0,.747,2.163A2.483,2.483,0,0,0,66.387-2.041Zm13.555-8.193a3.914,3.914,0,0,1,2.773.9,3.349,3.349,0,0,1,.967,2.573V0H80.859V-6.152a1.749,1.749,0,0,0-.5-1.387,1.9,1.9,0,0,0-1.294-.439,2.643,2.643,0,0,0-.84.127,2.158,2.158,0,0,0-.7.4,1.748,1.748,0,0,0-.5.757,3.5,3.5,0,0,0-.19,1.162V0H74.014V-10.039h2.813v1.113A3.868,3.868,0,0,1,79.941-10.234ZM95.137.2a5.61,5.61,0,0,1-2.93-.7A2.972,2.972,0,0,1,90.771-2.6l2.354-.664a1.891,1.891,0,0,0,2.012,1.494A2.078,2.078,0,0,0,96.162-2a.8.8,0,0,0,.4-.776.821.821,0,0,0-.166-.518,1.315,1.315,0,0,0-.513-.371,6.387,6.387,0,0,0-.684-.264q-.337-.107-.894-.259t-.928-.288a6.215,6.215,0,0,1-.884-.376,3.77,3.77,0,0,1-.732-.518,2.086,2.086,0,0,1-.547-.786,2.836,2.836,0,0,1-.19-1.074,2.565,2.565,0,0,1,1.089-2.246,4.865,4.865,0,0,1,2.847-.762,4.988,4.988,0,0,1,2.627.645,2.917,2.917,0,0,1,1.348,2.012l-2.178.488a1.706,1.706,0,0,0-1.787-1.27,1.957,1.957,0,0,0-.986.225.722.722,0,0,0-.391.664.761.761,0,0,0,.059.3.6.6,0,0,0,.205.244,2.991,2.991,0,0,0,.283.186,2.137,2.137,0,0,0,.4.161q.264.083.439.127l.513.132.522.137q.537.146.942.293a5.519,5.519,0,0,1,.864.41,3.1,3.1,0,0,1,.757.591,2.635,2.635,0,0,1,.493.83,3.066,3.066,0,0,1,.2,1.118,3.02,3.02,0,0,1-.337,1.455,2.529,2.529,0,0,1-.923.981,4.492,4.492,0,0,1-1.3.527A6.763,6.763,0,0,1,95.137.2Zm15.6-5.361-.029.674h-7.441a2.6,2.6,0,0,0,.8,1.836,2.561,2.561,0,0,0,1.768.635,2.468,2.468,0,0,0,1.323-.347A2.131,2.131,0,0,0,108-3.379L110.576-3a4.383,4.383,0,0,1-1.758,2.354A5.226,5.226,0,0,1,105.85.2a5.435,5.435,0,0,1-3.911-1.382,5.042,5.042,0,0,1-1.45-3.833,5.072,5.072,0,0,1,1.455-3.833,5.273,5.273,0,0,1,3.818-1.4,5.04,5.04,0,0,1,3.6,1.279A5.019,5.019,0,0,1,110.732-5.166Zm-4.951-3.1a2.222,2.222,0,0,0-2.441,1.934h4.609a2.114,2.114,0,0,0-.693-1.436A2.2,2.2,0,0,0,105.781-8.262ZM112.871,0V-15h2.842V0Zm15.2-5.166-.029.674H120.6a2.6,2.6,0,0,0,.8,1.836,2.561,2.561,0,0,0,1.768.635,2.468,2.468,0,0,0,1.323-.347,2.131,2.131,0,0,0,.845-1.011L127.91-3a4.383,4.383,0,0,1-1.758,2.354,5.226,5.226,0,0,1-2.969.84,5.435,5.435,0,0,1-3.911-1.382,5.042,5.042,0,0,1-1.45-3.833,5.072,5.072,0,0,1,1.455-3.833,5.273,5.273,0,0,1,3.818-1.4,5.04,5.04,0,0,1,3.6,1.279A5.019,5.019,0,0,1,128.066-5.166Zm-4.951-3.1a2.222,2.222,0,0,0-2.441,1.934h4.609a2.114,2.114,0,0,0-.693-1.436A2.2,2.2,0,0,0,123.115-8.262ZM134.746.186a5.364,5.364,0,0,1-3.877-1.445,4.992,4.992,0,0,1-1.5-3.77,4.981,4.981,0,0,1,1.5-3.77,5.38,5.38,0,0,1,3.882-1.436A5.349,5.349,0,0,1,138-9.268a4.316,4.316,0,0,1,1.68,2.725l-2.6.283a2.225,2.225,0,0,0-.84-1.318,2.554,2.554,0,0,0-1.523-.439,2.3,2.3,0,0,0-1.836.82,3.216,3.216,0,0,0-.7,2.168,3.22,3.22,0,0,0,.7,2.163,2.3,2.3,0,0,0,1.836.825,2.532,2.532,0,0,0,1.519-.439A2.277,2.277,0,0,0,137.08-3.8l2.6.283a4.328,4.328,0,0,1-1.694,2.725A5.327,5.327,0,0,1,134.746.186Zm11.475,0a5.364,5.364,0,0,1-3.877-1.445,4.992,4.992,0,0,1-1.5-3.77,4.981,4.981,0,0,1,1.5-3.77,5.38,5.38,0,0,1,3.882-1.436,5.349,5.349,0,0,1,3.252.967,4.316,4.316,0,0,1,1.68,2.725l-2.6.283a2.225,2.225,0,0,0-.84-1.318,2.554,2.554,0,0,0-1.523-.439,2.3,2.3,0,0,0-1.836.82,3.216,3.216,0,0,0-.7,2.168,3.22,3.22,0,0,0,.7,2.163,2.3,2.3,0,0,0,1.836.825,2.532,2.532,0,0,0,1.519-.439,2.277,2.277,0,0,0,.845-1.318l2.6.283a4.328,4.328,0,0,1-1.694,2.725A5.327,5.327,0,0,1,146.221.186Zm8.369-11.729a1.579,1.579,0,0,1-1.152-.474,1.555,1.555,0,0,1-.479-1.147,1.536,1.536,0,0,1,.483-1.138,1.584,1.584,0,0,1,1.147-.474,1.556,1.556,0,0,1,1.133.474,1.544,1.544,0,0,1,.479,1.138,1.555,1.555,0,0,1-.479,1.147A1.556,1.556,0,0,1,154.59-11.543ZM153.154,0V-10.039h2.832V0Zm10.42.2a6.313,6.313,0,0,1-2.842-.615,4.6,4.6,0,0,1-1.948-1.807,5.384,5.384,0,0,1-.708-2.8A4.911,4.911,0,0,1,159.6-8.838a5.652,5.652,0,0,1,3.975-1.4,5.665,5.665,0,0,1,3.984,1.4,4.911,4.911,0,0,1,1.523,3.809,4.938,4.938,0,0,1-1.523,3.823A5.654,5.654,0,0,1,163.574.2Zm-.029-2.236a2.577,2.577,0,0,0,1.987-.82,3.071,3.071,0,0,0,.757-2.168,3.071,3.071,0,0,0-.757-2.168,2.577,2.577,0,0,0-1.987-.82,2.483,2.483,0,0,0-1.929.825,3.1,3.1,0,0,0-.747,2.163,3.1,3.1,0,0,0,.747,2.163A2.483,2.483,0,0,0,163.545-2.041ZM177.1-10.234a3.914,3.914,0,0,1,2.773.9,3.349,3.349,0,0,1,.967,2.573V0h-2.822V-6.152a1.749,1.749,0,0,0-.5-1.387,1.9,1.9,0,0,0-1.294-.439,2.643,2.643,0,0,0-.84.127,2.158,2.158,0,0,0-.7.4,1.748,1.748,0,0,0-.5.757,3.5,3.5,0,0,0-.19,1.162V0h-2.812V-10.039h2.813v1.113A3.868,3.868,0,0,1,177.1-10.234Zm14.7,7.51a9.391,9.391,0,0,0,.244,2.451V0h-2.627l-.225-1.094a3.264,3.264,0,0,1-1.406.967A5.183,5.183,0,0,1,185.967.2a4.776,4.776,0,0,1-.937-.088,3.187,3.187,0,0,1-.845-.3,2.563,2.563,0,0,1-.7-.522,2.291,2.291,0,0,1-.469-.8,3.17,3.17,0,0,1-.176-1.089,3.019,3.019,0,0,1,.186-1.089,2.552,2.552,0,0,1,.488-.815,2.962,2.962,0,0,1,.791-.6,6.052,6.052,0,0,1,1-.43,11.9,11.9,0,0,1,1.191-.312l1.65-.371a1.82,1.82,0,0,0,.747-.317.633.633,0,0,0,.22-.5A1.036,1.036,0,0,0,188.618-8a2.3,2.3,0,0,0-1.2-.293,1.721,1.721,0,0,0-1.963,1.533l-2.49-.449a3.371,3.371,0,0,1,1.455-2.29,5.783,5.783,0,0,1,3.154-.737q4.219,0,4.219,3.623Zm-4.951,1.016a2.262,2.262,0,0,0,1.738-.728,3.066,3.066,0,0,0,.674-2.153l-2.383.674a2.816,2.816,0,0,0-1,.41.842.842,0,0,0-.347.723.935.935,0,0,0,.371.8A1.536,1.536,0,0,0,186.846-1.709ZM201.426-15h2.813V0h-2.666L201.5-1.309a2.867,2.867,0,0,1-1.274,1.138,4.29,4.29,0,0,1-1.88.405,4.883,4.883,0,0,1-1.875-.361,4.654,4.654,0,0,1-1.538-1.021A4.652,4.652,0,0,1,193.9-2.8a6.106,6.106,0,0,1-.381-2.2,5.708,5.708,0,0,1,.664-2.8,4.55,4.55,0,0,1,1.753-1.821,4.827,4.827,0,0,1,2.417-.615,4.4,4.4,0,0,1,1.821.366,2.843,2.843,0,0,1,1.255,1.04ZM198.994-2.1a2.5,2.5,0,0,0,1.9-.8A2.932,2.932,0,0,0,201.65-5a2.938,2.938,0,0,0-.762-2.1,2.5,2.5,0,0,0-1.895-.806,2.53,2.53,0,0,0-1.909.791A2.937,2.937,0,0,0,196.328-5a2.924,2.924,0,0,0,.757,2.109A2.53,2.53,0,0,0,198.994-2.1Zm16.387-.625a9.391,9.391,0,0,0,.244,2.451V0H213l-.225-1.094a3.264,3.264,0,0,1-1.406.967A5.183,5.183,0,0,1,209.551.2a4.776,4.776,0,0,1-.937-.088,3.187,3.187,0,0,1-.845-.3,2.563,2.563,0,0,1-.7-.522,2.291,2.291,0,0,1-.469-.8,3.17,3.17,0,0,1-.176-1.089,3.019,3.019,0,0,1,.186-1.089A2.552,2.552,0,0,1,207.1-4.5a2.962,2.962,0,0,1,.791-.6,6.052,6.052,0,0,1,1-.43,11.9,11.9,0,0,1,1.191-.312l1.65-.371a1.82,1.82,0,0,0,.747-.317.633.633,0,0,0,.22-.5A1.036,1.036,0,0,0,212.2-8a2.3,2.3,0,0,0-1.2-.293,1.721,1.721,0,0,0-1.963,1.533l-2.49-.449a3.371,3.371,0,0,1,1.455-2.29,5.783,5.783,0,0,1,3.154-.737q4.219,0,4.219,3.623ZM210.43-1.709a2.262,2.262,0,0,0,1.738-.728,3.066,3.066,0,0,0,.674-2.153l-2.383.674a2.816,2.816,0,0,0-1,.41.842.842,0,0,0-.347.723.935.935,0,0,0,.371.8A1.536,1.536,0,0,0,210.43-1.709Z" transform="translate(794 5002)" fill="#00223d"/>
      <path id="Trazado_32745" data-name="Trazado 32745" d="M8.076.2A7.877,7.877,0,0,1,5.2-.322,6.763,6.763,0,0,1,2.91-1.768a6.515,6.515,0,0,1-1.5-2.295,8,8,0,0,1-.547-3A7.644,7.644,0,0,1,1.8-10.894,6.382,6.382,0,0,1,4.37-13.428a7.705,7.705,0,0,1,3.706-.879,7.488,7.488,0,0,1,4.141,1.143,6.255,6.255,0,0,1,2.529,3.145l-2.734,1a3.866,3.866,0,0,0-1.514-1.9,4.323,4.323,0,0,0-2.422-.684,4.145,4.145,0,0,0-3.086,1.23,4.528,4.528,0,0,0-1.211,3.32A4.534,4.534,0,0,0,5-3.735,4.14,4.14,0,0,0,8.076-2.5a4.307,4.307,0,0,0,2.417-.688A3.883,3.883,0,0,0,12.012-5.1l2.734,1A6.28,6.28,0,0,1,12.217-.952,7.464,7.464,0,0,1,8.076.2ZM21.455.2A6.313,6.313,0,0,1,18.613-.42a4.6,4.6,0,0,1-1.948-1.807,5.384,5.384,0,0,1-.708-2.8A4.911,4.911,0,0,1,17.48-8.838a5.652,5.652,0,0,1,3.975-1.4,5.665,5.665,0,0,1,3.984,1.4,4.911,4.911,0,0,1,1.523,3.809,4.938,4.938,0,0,1-1.523,3.823A5.654,5.654,0,0,1,21.455.2Zm-.029-2.236a2.577,2.577,0,0,0,1.987-.82,3.071,3.071,0,0,0,.757-2.168A3.071,3.071,0,0,0,23.413-7.2a2.577,2.577,0,0,0-1.987-.82,2.483,2.483,0,0,0-1.929.825,3.1,3.1,0,0,0-.747,2.163A3.1,3.1,0,0,0,19.5-2.866,2.483,2.483,0,0,0,21.426-2.041ZM34.98-10.234a3.914,3.914,0,0,1,2.773.9,3.349,3.349,0,0,1,.967,2.573V0H35.9V-6.152a1.749,1.749,0,0,0-.5-1.387A1.9,1.9,0,0,0,34.1-7.979a2.643,2.643,0,0,0-.84.127,2.158,2.158,0,0,0-.7.4,1.748,1.748,0,0,0-.5.757,3.5,3.5,0,0,0-.19,1.162V0H29.053V-10.039h2.813v1.113A3.868,3.868,0,0,1,34.98-10.234ZM45.186,0A3.032,3.032,0,0,1,42.92-.815a3.172,3.172,0,0,1-.8-2.319V-7.881H40.146v-2.158h.635a1.656,1.656,0,0,0,1.25-.42,2.162,2.162,0,0,0,.4-1.494v-1.328h2.539v3.242h2.07v2.158h-2.07v4.443q0,1.3,1.162,1.3h.908V0ZM58.623-5.166l-.029.674H51.152a2.6,2.6,0,0,0,.8,1.836,2.561,2.561,0,0,0,1.768.635,2.468,2.468,0,0,0,1.323-.347,2.131,2.131,0,0,0,.845-1.011L58.467-3A4.383,4.383,0,0,1,56.709-.645,5.226,5.226,0,0,1,53.74.2a5.435,5.435,0,0,1-3.911-1.382,5.042,5.042,0,0,1-1.45-3.833,5.072,5.072,0,0,1,1.455-3.833,5.273,5.273,0,0,1,3.818-1.4,5.04,5.04,0,0,1,3.6,1.279A5.019,5.019,0,0,1,58.623-5.166Zm-4.951-3.1A2.222,2.222,0,0,0,51.23-6.328H55.84a2.114,2.114,0,0,0-.693-1.436A2.2,2.2,0,0,0,53.672-8.262Zm13.018-1.973a3.914,3.914,0,0,1,2.773.9,3.349,3.349,0,0,1,.967,2.573V0H67.607V-6.152a1.749,1.749,0,0,0-.5-1.387,1.9,1.9,0,0,0-1.294-.439,2.643,2.643,0,0,0-.84.127,2.158,2.158,0,0,0-.7.4,1.748,1.748,0,0,0-.5.757,3.5,3.5,0,0,0-.19,1.162V0H60.762V-10.039h2.813v1.113A3.868,3.868,0,0,1,66.689-10.234Zm7.9-1.309a1.579,1.579,0,0,1-1.152-.474,1.555,1.555,0,0,1-.479-1.147,1.536,1.536,0,0,1,.483-1.138,1.584,1.584,0,0,1,1.147-.474,1.556,1.556,0,0,1,1.133.474,1.544,1.544,0,0,1,.479,1.138,1.555,1.555,0,0,1-.479,1.147A1.556,1.556,0,0,1,74.59-11.543ZM73.154,0V-10.039h2.832V0ZM86.016-15h2.813V0H86.162l-.068-1.309A2.867,2.867,0,0,1,84.819-.171a4.29,4.29,0,0,1-1.88.405,4.883,4.883,0,0,1-1.875-.361,4.654,4.654,0,0,1-1.538-1.021A4.652,4.652,0,0,1,78.486-2.8,6.106,6.106,0,0,1,78.105-5a5.707,5.707,0,0,1,.664-2.8,4.55,4.55,0,0,1,1.753-1.821,4.827,4.827,0,0,1,2.417-.615,4.4,4.4,0,0,1,1.821.366,2.843,2.843,0,0,1,1.255,1.04ZM83.584-2.1a2.5,2.5,0,0,0,1.9-.8A2.932,2.932,0,0,0,86.24-5a2.938,2.938,0,0,0-.762-2.1,2.5,2.5,0,0,0-1.895-.806,2.53,2.53,0,0,0-1.909.791A2.937,2.937,0,0,0,80.918-5a2.924,2.924,0,0,0,.757,2.109A2.53,2.53,0,0,0,83.584-2.1ZM96.416.2A6.313,6.313,0,0,1,93.574-.42a4.6,4.6,0,0,1-1.948-1.807,5.384,5.384,0,0,1-.708-2.8,4.911,4.911,0,0,1,1.523-3.809,5.652,5.652,0,0,1,3.975-1.4,5.665,5.665,0,0,1,3.984,1.4,4.911,4.911,0,0,1,1.523,3.809A4.938,4.938,0,0,1,100.4-1.206,5.654,5.654,0,0,1,96.416.2Zm-.029-2.236a2.577,2.577,0,0,0,1.987-.82,3.071,3.071,0,0,0,.757-2.168A3.071,3.071,0,0,0,98.374-7.2a2.577,2.577,0,0,0-1.987-.82,2.483,2.483,0,0,0-1.929.825,3.1,3.1,0,0,0-.747,2.163,3.1,3.1,0,0,0,.747,2.163A2.483,2.483,0,0,0,96.387-2.041ZM116.328-15h2.813V0h-2.666l-.068-1.309a2.867,2.867,0,0,1-1.274,1.138,4.29,4.29,0,0,1-1.88.405,4.883,4.883,0,0,1-1.875-.361,4.654,4.654,0,0,1-1.538-1.021A4.652,4.652,0,0,1,108.8-2.8a6.106,6.106,0,0,1-.381-2.2,5.707,5.707,0,0,1,.664-2.8,4.55,4.55,0,0,1,1.753-1.821,4.827,4.827,0,0,1,2.417-.615,4.4,4.4,0,0,1,1.821.366,2.843,2.843,0,0,1,1.255,1.04ZM113.9-2.1a2.5,2.5,0,0,0,1.9-.8,2.932,2.932,0,0,0,.757-2.1,2.938,2.938,0,0,0-.762-2.1A2.5,2.5,0,0,0,113.9-7.91a2.53,2.53,0,0,0-1.909.791A2.937,2.937,0,0,0,111.23-5a2.924,2.924,0,0,0,.757,2.109A2.53,2.53,0,0,0,113.9-2.1Zm9.59-9.443a1.579,1.579,0,0,1-1.152-.474,1.555,1.555,0,0,1-.479-1.147,1.536,1.536,0,0,1,.483-1.138,1.584,1.584,0,0,1,1.147-.474,1.556,1.556,0,0,1,1.133.474,1.544,1.544,0,0,1,.479,1.138,1.555,1.555,0,0,1-.479,1.147A1.556,1.556,0,0,1,123.486-11.543ZM122.051,0V-10.039h2.832V0Zm12.656-10.039h2.676V-.752a7.51,7.51,0,0,1-.376,2.5,4.123,4.123,0,0,1-1.089,1.714,4.539,4.539,0,0,1-1.67.962,7.04,7.04,0,0,1-2.187.313q-3.975,0-5.176-3.115l2.334-1A3.406,3.406,0,0,0,130.3,2.08a2.763,2.763,0,0,0,1.65.469q2.607,0,2.607-3.1V-1.719a3.163,3.163,0,0,1-1.265.991,4.2,4.2,0,0,1-1.782.376,4.443,4.443,0,0,1-1.763-.356,4.478,4.478,0,0,1-1.46-1,4.638,4.638,0,0,1-.991-1.577,5.534,5.534,0,0,1-.366-2.031,5.523,5.523,0,0,1,.366-2.036,4.451,4.451,0,0,1,1-1.558,4.584,4.584,0,0,1,1.465-.977,4.521,4.521,0,0,1,1.772-.352,4.082,4.082,0,0,1,1.86.415,2.967,2.967,0,0,1,1.245,1.108ZM130.391-3.4a2.477,2.477,0,0,0,1.846.771,2.462,2.462,0,0,0,1.846-.781,2.644,2.644,0,0,0,.752-1.9,2.665,2.665,0,0,0-.747-1.914,2.458,2.458,0,0,0-1.851-.781,2.46,2.46,0,0,0-1.851.767,2.671,2.671,0,0,0-.737,1.929A2.653,2.653,0,0,0,130.391-3.4Zm11.348-8.145a1.579,1.579,0,0,1-1.152-.474,1.555,1.555,0,0,1-.479-1.147,1.536,1.536,0,0,1,.483-1.138,1.584,1.584,0,0,1,1.147-.474,1.556,1.556,0,0,1,1.133.474,1.544,1.544,0,0,1,.479,1.138,1.555,1.555,0,0,1-.479,1.147A1.556,1.556,0,0,1,141.738-11.543ZM140.3,0V-10.039h2.832V0Zm9.482,0a3.032,3.032,0,0,1-2.266-.815,3.171,3.171,0,0,1-.8-2.319V-7.881h-1.973v-2.158h.635a1.656,1.656,0,0,0,1.25-.42,2.162,2.162,0,0,0,.4-1.494v-1.328h2.539v3.242h2.07v2.158h-2.07v4.443q0,1.3,1.162,1.3h.908V0Zm12.227-2.725a9.391,9.391,0,0,0,.244,2.451V0h-2.627L159.4-1.094A3.264,3.264,0,0,1,158-.127,5.183,5.183,0,0,1,156.182.2a4.776,4.776,0,0,1-.937-.088,3.187,3.187,0,0,1-.845-.3,2.563,2.563,0,0,1-.7-.522,2.291,2.291,0,0,1-.469-.8,3.17,3.17,0,0,1-.176-1.089,3.019,3.019,0,0,1,.186-1.089,2.552,2.552,0,0,1,.488-.815,2.962,2.962,0,0,1,.791-.6,6.052,6.052,0,0,1,1-.43,11.9,11.9,0,0,1,1.191-.312l1.65-.371a1.82,1.82,0,0,0,.747-.317.633.633,0,0,0,.22-.5A1.036,1.036,0,0,0,158.833-8a2.3,2.3,0,0,0-1.2-.293,1.721,1.721,0,0,0-1.963,1.533l-2.49-.449a3.371,3.371,0,0,1,1.455-2.29,5.783,5.783,0,0,1,3.154-.737q4.219,0,4.219,3.623Zm-4.951,1.016a2.262,2.262,0,0,0,1.738-.728,3.066,3.066,0,0,0,.674-2.153l-2.383.674a2.816,2.816,0,0,0-1,.41.842.842,0,0,0-.347.723.935.935,0,0,0,.371.8A1.536,1.536,0,0,0,157.061-1.709ZM164.746,0V-15h2.842V0Zm16.836-10.234a4.883,4.883,0,0,1,1.875.361A4.692,4.692,0,0,1,185-8.857a4.6,4.6,0,0,1,1.04,1.655,6.146,6.146,0,0,1,.381,2.2,6.146,6.146,0,0,1-.381,2.2A4.6,4.6,0,0,1,185-1.143a4.692,4.692,0,0,1-1.538,1.016,4.883,4.883,0,0,1-1.875.361,4.356,4.356,0,0,1-1.816-.371,2.846,2.846,0,0,1-1.26-1.055V4.883h-2.812V-10.039h2.666l.078,1.348a2.75,2.75,0,0,1,1.255-1.138A4.313,4.313,0,0,1,181.582-10.234ZM180.947-2.1a2.527,2.527,0,0,0,1.9-.786A2.92,2.92,0,0,0,183.6-5a2.92,2.92,0,0,0-.757-2.114,2.527,2.527,0,0,0-1.9-.786,2.531,2.531,0,0,0-1.914.8,2.921,2.921,0,0,0-.762,2.1,2.921,2.921,0,0,0,.762,2.1A2.531,2.531,0,0,0,180.947-2.1Zm15.82-.625a9.391,9.391,0,0,0,.244,2.451V0h-2.627l-.225-1.094a3.264,3.264,0,0,1-1.406.967A5.183,5.183,0,0,1,190.938.2,4.776,4.776,0,0,1,190,.107a3.187,3.187,0,0,1-.845-.3,2.563,2.563,0,0,1-.7-.522,2.291,2.291,0,0,1-.469-.8,3.17,3.17,0,0,1-.176-1.089A3.019,3.019,0,0,1,188-3.687a2.552,2.552,0,0,1,.488-.815,2.962,2.962,0,0,1,.791-.6,6.052,6.052,0,0,1,1-.43,11.9,11.9,0,0,1,1.191-.312l1.65-.371a1.82,1.82,0,0,0,.747-.317.633.633,0,0,0,.22-.5A1.036,1.036,0,0,0,193.589-8a2.3,2.3,0,0,0-1.2-.293,1.721,1.721,0,0,0-1.963,1.533l-2.49-.449a3.371,3.371,0,0,1,1.455-2.29,5.783,5.783,0,0,1,3.154-.737q4.219,0,4.219,3.623Zm-4.951,1.016a2.262,2.262,0,0,0,1.738-.728,3.066,3.066,0,0,0,.674-2.153l-2.383.674a2.816,2.816,0,0,0-1,.41.842.842,0,0,0-.347.723.935.935,0,0,0,.371.8A1.536,1.536,0,0,0,191.816-1.709ZM202.2-8.447a3.259,3.259,0,0,1,1.318-1.206,4.023,4.023,0,0,1,1.963-.5v2.51a3.8,3.8,0,0,0-2.4.605,2.643,2.643,0,0,0-.742,2.148V0H199.5V-10.039h2.7ZM215.3-2.725a9.391,9.391,0,0,0,.244,2.451V0H212.92L212.7-1.094a3.264,3.264,0,0,1-1.406.967A5.183,5.183,0,0,1,209.473.2a4.776,4.776,0,0,1-.937-.088,3.187,3.187,0,0,1-.845-.3,2.563,2.563,0,0,1-.7-.522,2.291,2.291,0,0,1-.469-.8,3.17,3.17,0,0,1-.176-1.089,3.019,3.019,0,0,1,.186-1.089,2.552,2.552,0,0,1,.488-.815,2.962,2.962,0,0,1,.791-.6,6.052,6.052,0,0,1,1-.43A11.9,11.9,0,0,1,210-5.84l1.65-.371a1.82,1.82,0,0,0,.747-.317.633.633,0,0,0,.22-.5A1.036,1.036,0,0,0,212.124-8a2.3,2.3,0,0,0-1.2-.293,1.721,1.721,0,0,0-1.963,1.533l-2.49-.449A3.371,3.371,0,0,1,207.93-9.5a5.783,5.783,0,0,1,3.154-.737q4.219,0,4.219,3.623Zm-4.951,1.016a2.262,2.262,0,0,0,1.738-.728,3.066,3.066,0,0,0,.674-2.153l-2.383.674a2.816,2.816,0,0,0-1,.41.842.842,0,0,0-.347.723.935.935,0,0,0,.371.8A1.536,1.536,0,0,0,210.352-1.709Zm18.77-8.525A4.883,4.883,0,0,1,231-9.873a4.692,4.692,0,0,1,1.538,1.016,4.6,4.6,0,0,1,1.04,1.655,6.146,6.146,0,0,1,.381,2.2,6.146,6.146,0,0,1-.381,2.2,4.6,4.6,0,0,1-1.04,1.655A4.692,4.692,0,0,1,231-.127a4.883,4.883,0,0,1-1.875.361A4.356,4.356,0,0,1,227.3-.137a2.846,2.846,0,0,1-1.26-1.055V4.883h-2.812V-10.039H225.9l.078,1.348a2.75,2.75,0,0,1,1.255-1.138A4.313,4.313,0,0,1,229.121-10.234ZM228.486-2.1a2.527,2.527,0,0,0,1.9-.786A2.92,2.92,0,0,0,231.143-5a2.92,2.92,0,0,0-.757-2.114,2.527,2.527,0,0,0-1.9-.786,2.531,2.531,0,0,0-1.914.8,2.921,2.921,0,0,0-.762,2.1,2.921,2.921,0,0,0,.762,2.1A2.531,2.531,0,0,0,228.486-2.1ZM240.752.2A6.313,6.313,0,0,1,237.91-.42a4.6,4.6,0,0,1-1.948-1.807,5.384,5.384,0,0,1-.708-2.8,4.911,4.911,0,0,1,1.523-3.809,5.652,5.652,0,0,1,3.975-1.4,5.665,5.665,0,0,1,3.984,1.4,4.911,4.911,0,0,1,1.523,3.809,4.938,4.938,0,0,1-1.523,3.823A5.654,5.654,0,0,1,240.752.2Zm-.029-2.236a2.577,2.577,0,0,0,1.987-.82,3.071,3.071,0,0,0,.757-2.168A3.071,3.071,0,0,0,242.71-7.2a2.577,2.577,0,0,0-1.987-.82,2.483,2.483,0,0,0-1.929.825,3.1,3.1,0,0,0-.747,2.163,3.1,3.1,0,0,0,.747,2.163A2.483,2.483,0,0,0,240.723-2.041ZM252.09,0a3.032,3.032,0,0,1-2.266-.815,3.171,3.171,0,0,1-.8-2.319V-7.881h-1.973v-2.158h.635a1.656,1.656,0,0,0,1.25-.42,2.162,2.162,0,0,0,.4-1.494v-1.328h2.539v3.242h2.07v2.158h-2.07v4.443q0,1.3,1.162,1.3h.908V0Zm13.438-5.166-.029.674h-7.441a2.6,2.6,0,0,0,.8,1.836,2.561,2.561,0,0,0,1.768.635,2.468,2.468,0,0,0,1.323-.347,2.131,2.131,0,0,0,.845-1.011L265.371-3a4.383,4.383,0,0,1-1.758,2.354,5.226,5.226,0,0,1-2.969.84,5.435,5.435,0,0,1-3.911-1.382,5.042,5.042,0,0,1-1.45-3.833,5.072,5.072,0,0,1,1.455-3.833,5.273,5.273,0,0,1,3.818-1.4,5.04,5.04,0,0,1,3.6,1.279A5.019,5.019,0,0,1,265.527-5.166Zm-4.951-3.1a2.222,2.222,0,0,0-2.441,1.934h4.609a2.114,2.114,0,0,0-.693-1.436A2.2,2.2,0,0,0,260.576-8.262Zm13.018-1.973a3.914,3.914,0,0,1,2.773.9,3.349,3.349,0,0,1,.967,2.573V0h-2.822V-6.152a1.749,1.749,0,0,0-.5-1.387,1.9,1.9,0,0,0-1.294-.439,2.643,2.643,0,0,0-.84.127,2.158,2.158,0,0,0-.7.4,1.748,1.748,0,0,0-.5.757,3.5,3.5,0,0,0-.19,1.162V0h-2.812V-10.039h2.813v1.113A3.868,3.868,0,0,1,273.594-10.234ZM284.6.186a5.364,5.364,0,0,1-3.877-1.445,4.992,4.992,0,0,1-1.5-3.77,4.981,4.981,0,0,1,1.5-3.77,5.38,5.38,0,0,1,3.882-1.436,5.349,5.349,0,0,1,3.252.967,4.316,4.316,0,0,1,1.68,2.725l-2.6.283a2.226,2.226,0,0,0-.84-1.318,2.554,2.554,0,0,0-1.523-.439,2.3,2.3,0,0,0-1.836.82,3.216,3.216,0,0,0-.7,2.168,3.22,3.22,0,0,0,.7,2.163,2.3,2.3,0,0,0,1.836.825,2.531,2.531,0,0,0,1.519-.439,2.277,2.277,0,0,0,.845-1.318l2.6.283a4.328,4.328,0,0,1-1.694,2.725A5.327,5.327,0,0,1,284.6.186Zm8.369-11.729a1.579,1.579,0,0,1-1.152-.474,1.555,1.555,0,0,1-.479-1.147,1.536,1.536,0,0,1,.483-1.138,1.584,1.584,0,0,1,1.147-.474,1.556,1.556,0,0,1,1.133.474,1.544,1.544,0,0,1,.479,1.138,1.555,1.555,0,0,1-.479,1.147A1.556,1.556,0,0,1,292.969-11.543ZM291.533,0V-10.039h2.832V0Zm13.975-2.725a9.392,9.392,0,0,0,.244,2.451V0h-2.627L302.9-1.094a3.264,3.264,0,0,1-1.406.967A5.183,5.183,0,0,1,299.678.2a4.776,4.776,0,0,1-.937-.088,3.187,3.187,0,0,1-.845-.3,2.564,2.564,0,0,1-.7-.522,2.291,2.291,0,0,1-.469-.8,3.17,3.17,0,0,1-.176-1.089,3.02,3.02,0,0,1,.186-1.089,2.552,2.552,0,0,1,.488-.815,2.961,2.961,0,0,1,.791-.6,6.053,6.053,0,0,1,1-.43,11.9,11.9,0,0,1,1.191-.312l1.65-.371a1.82,1.82,0,0,0,.747-.317.633.633,0,0,0,.22-.5A1.036,1.036,0,0,0,302.329-8a2.3,2.3,0,0,0-1.2-.293,1.721,1.721,0,0,0-1.963,1.533l-2.49-.449a3.371,3.371,0,0,1,1.455-2.29,5.783,5.783,0,0,1,3.154-.737q4.219,0,4.219,3.623Zm-4.951,1.016a2.262,2.262,0,0,0,1.738-.728,3.066,3.066,0,0,0,.674-2.153l-2.383.674a2.816,2.816,0,0,0-1,.41.842.842,0,0,0-.347.723.935.935,0,0,0,.371.8A1.536,1.536,0,0,0,300.557-1.709Zm10.381-6.738a3.259,3.259,0,0,1,1.318-1.206,4.023,4.023,0,0,1,1.963-.5v2.51a3.8,3.8,0,0,0-2.4.605,2.643,2.643,0,0,0-.742,2.148V0h-2.832V-10.039h2.7ZM321.064,0V-15h2.842V0Zm13.984-2.725a9.392,9.392,0,0,0,.244,2.451V0h-2.627l-.225-1.094a3.264,3.264,0,0,1-1.406.967A5.183,5.183,0,0,1,329.219.2a4.776,4.776,0,0,1-.937-.088,3.187,3.187,0,0,1-.845-.3,2.564,2.564,0,0,1-.7-.522,2.291,2.291,0,0,1-.469-.8,3.17,3.17,0,0,1-.176-1.089,3.02,3.02,0,0,1,.186-1.089,2.552,2.552,0,0,1,.488-.815,2.961,2.961,0,0,1,.791-.6,6.053,6.053,0,0,1,1-.43,11.9,11.9,0,0,1,1.191-.312l1.65-.371a1.82,1.82,0,0,0,.747-.317.633.633,0,0,0,.22-.5A1.036,1.036,0,0,0,331.87-8a2.3,2.3,0,0,0-1.2-.293,1.721,1.721,0,0,0-1.963,1.533l-2.49-.449a3.371,3.371,0,0,1,1.455-2.29,5.783,5.783,0,0,1,3.154-.737q4.219,0,4.219,3.623ZM330.1-1.709a2.262,2.262,0,0,0,1.738-.728,3.066,3.066,0,0,0,.674-2.153l-2.383.674a2.816,2.816,0,0,0-1,.41.842.842,0,0,0-.347.723.935.935,0,0,0,.371.8A1.536,1.536,0,0,0,330.1-1.709ZM346.514.2a5.61,5.61,0,0,1-2.93-.7,2.972,2.972,0,0,1-1.436-2.09l2.354-.664a1.891,1.891,0,0,0,2.012,1.494A2.078,2.078,0,0,0,347.539-2a.8.8,0,0,0,.4-.776.821.821,0,0,0-.166-.518,1.315,1.315,0,0,0-.513-.371,6.387,6.387,0,0,0-.684-.264q-.337-.107-.894-.259t-.928-.288a6.215,6.215,0,0,1-.884-.376,3.77,3.77,0,0,1-.732-.518,2.086,2.086,0,0,1-.547-.786,2.836,2.836,0,0,1-.19-1.074,2.565,2.565,0,0,1,1.089-2.246,4.865,4.865,0,0,1,2.847-.762,4.988,4.988,0,0,1,2.627.645,2.917,2.917,0,0,1,1.348,2.012l-2.178.488a1.706,1.706,0,0,0-1.787-1.27,1.957,1.957,0,0,0-.986.225.722.722,0,0,0-.391.664.761.761,0,0,0,.059.3.6.6,0,0,0,.205.244,2.99,2.99,0,0,0,.283.186,2.137,2.137,0,0,0,.4.161q.264.083.439.127l.513.132.522.137q.537.146.942.293a5.52,5.52,0,0,1,.864.41,3.1,3.1,0,0,1,.757.591,2.635,2.635,0,0,1,.493.83,3.066,3.066,0,0,1,.2,1.118,3.02,3.02,0,0,1-.337,1.455,2.529,2.529,0,0,1-.923.981,4.492,4.492,0,0,1-1.3.527A6.763,6.763,0,0,1,346.514.2Zm10.83,0A6.313,6.313,0,0,1,354.5-.42a4.6,4.6,0,0,1-1.948-1.807,5.384,5.384,0,0,1-.708-2.8,4.911,4.911,0,0,1,1.523-3.809,5.652,5.652,0,0,1,3.975-1.4,5.665,5.665,0,0,1,3.984,1.4,4.911,4.911,0,0,1,1.523,3.809,4.938,4.938,0,0,1-1.523,3.823A5.654,5.654,0,0,1,357.344.2Zm-.029-2.236a2.577,2.577,0,0,0,1.987-.82,3.071,3.071,0,0,0,.757-2.168A3.071,3.071,0,0,0,359.3-7.2a2.577,2.577,0,0,0-1.987-.82,2.483,2.483,0,0,0-1.929.825,3.1,3.1,0,0,0-.747,2.163,3.1,3.1,0,0,0,.747,2.163A2.483,2.483,0,0,0,357.314-2.041ZM364.941,0V-15h2.842V0Zm12.4-10.039h2.813V0H377.49l-.068-1.211A3.834,3.834,0,0,1,374.229.2a3.914,3.914,0,0,1-2.773-.9,3.349,3.349,0,0,1-.967-2.573v-6.758h2.822v6.152a1.735,1.735,0,0,0,.5,1.377,1.909,1.909,0,0,0,1.3.439,2.264,2.264,0,0,0,1.6-.571,2.454,2.454,0,0,0,.63-1.86ZM387.607.186A5.364,5.364,0,0,1,383.73-1.26a4.992,4.992,0,0,1-1.5-3.77,4.981,4.981,0,0,1,1.5-3.77,5.38,5.38,0,0,1,3.882-1.436,5.349,5.349,0,0,1,3.252.967,4.316,4.316,0,0,1,1.68,2.725l-2.6.283a2.226,2.226,0,0,0-.84-1.318,2.554,2.554,0,0,0-1.523-.439,2.3,2.3,0,0,0-1.836.82,3.216,3.216,0,0,0-.7,2.168,3.22,3.22,0,0,0,.7,2.163,2.3,2.3,0,0,0,1.836.825A2.531,2.531,0,0,0,389.1-2.48a2.277,2.277,0,0,0,.845-1.318l2.6.283a4.328,4.328,0,0,1-1.694,2.725A5.327,5.327,0,0,1,387.607.186Zm8.369-11.729a1.579,1.579,0,0,1-1.152-.474,1.555,1.555,0,0,1-.479-1.147,1.536,1.536,0,0,1,.483-1.138,1.584,1.584,0,0,1,1.147-.474,1.556,1.556,0,0,1,1.133.474,1.544,1.544,0,0,1,.479,1.138,1.555,1.555,0,0,1-.479,1.147A1.556,1.556,0,0,1,395.977-11.543ZM394.541,0V-10.039h2.832V0Zm9.551-11.406L406.65-15l1.387.977-2.217,2.617ZM404.961.2a6.313,6.313,0,0,1-2.842-.615,4.6,4.6,0,0,1-1.948-1.807,5.384,5.384,0,0,1-.708-2.8,4.911,4.911,0,0,1,1.523-3.809,5.652,5.652,0,0,1,3.975-1.4,5.665,5.665,0,0,1,3.984,1.4,4.911,4.911,0,0,1,1.523,3.809,4.938,4.938,0,0,1-1.523,3.823A5.654,5.654,0,0,1,404.961.2Zm-.029-2.236a2.577,2.577,0,0,0,1.987-.82,3.071,3.071,0,0,0,.757-2.168,3.071,3.071,0,0,0-.757-2.168,2.577,2.577,0,0,0-1.987-.82A2.483,2.483,0,0,0,403-7.192a3.1,3.1,0,0,0-.747,2.163A3.1,3.1,0,0,0,403-2.866,2.483,2.483,0,0,0,404.932-2.041Zm13.555-8.193a3.914,3.914,0,0,1,2.773.9,3.349,3.349,0,0,1,.967,2.573V0H419.4V-6.152a1.749,1.749,0,0,0-.5-1.387,1.9,1.9,0,0,0-1.294-.439,2.643,2.643,0,0,0-.84.127,2.158,2.158,0,0,0-.7.4,1.748,1.748,0,0,0-.5.757,3.5,3.5,0,0,0-.19,1.162V0h-2.812V-10.039h2.813v1.113A3.868,3.868,0,0,1,418.486-10.234Z" transform="translate(1049 5002)" fill="#00223d"/>
      <path id="Trazado_32744" data-name="Trazado 32744" d="M0,0H1076V298.7H0Z" transform="translate(422 5025)" fill="#ebebeb"/>
      <path id="Trazado_32737" data-name="Trazado 32737" d="M2004.059,3664v359.7" transform="translate(-1390 1300)" fill="none" stroke="#707070" stroke-width="1"/>
      <path id="Trazado_32738" data-name="Trazado 32738" d="M2004.059,3664v359.7" transform="translate(-1218 1300)" fill="none" stroke="#707070" stroke-width="1"/>
      <path id="Trazado_32739" data-name="Trazado 32739" d="M2004.059,3664v359.7" transform="translate(-975 1300)" fill="none" stroke="#707070" stroke-width="1"/>
    </g>
    <text id="RDMapp" transform="translate(444 6360)" fill="#00223d" font-size="18" font-family="CerebriSans-Bold, Cerebri Sans" font-weight="700"><tspan x="0" y="17">RDMapp</tspan></text>
    <text id="Debido_a_la_pandemia_los_restaurantes_y_negocios_no_pueden_llegar_a_sus_clientes" data-name="Debido a la pandemia, los restaurantes y negocios no pueden llegar a sus clientes" transform="translate(633 6360)" fill="#00223d" font-size="18" font-family="CerebriSans-Bold, Cerebri Sans" font-weight="700"><tspan x="0" y="17">Debido a la </tspan><tspan x="0" y="47">pandemia, los </tspan><tspan x="0" y="77">restaurantes y </tspan><tspan x="0" y="107">negocios no </tspan><tspan x="0" y="137">pueden llegar a </tspan><tspan x="0" y="167">sus clientes</tspan></text>
    <text id="Servicios_de_domiciliarios_en_motocicletas_administrado_por_una_aplicación_móvil_y_con_publicidad_por_redes_sociales" data-name="Servicios de domiciliarios en motocicletas administrado por una aplicación móvil y con publicidad por redes sociales" transform="translate(799 6360)" fill="#00223d" font-size="18" font-family="CerebriSans-Bold, Cerebri Sans" font-weight="700"><tspan x="0" y="17">Servicios de </tspan><tspan x="0" y="47">domiciliarios en </tspan><tspan x="0" y="77">motocicletas </tspan><tspan x="0" y="107">administrado por una </tspan><tspan x="0" y="137">aplicación móvil y con </tspan><tspan x="0" y="167">publicidad por redes </tspan><tspan x="0" y="197">sociales</tspan></text>
    <text id="Banner_con_promociones_video_para_difundir_por_redes_sociales" data-name="Banner con promociones, video para difundir por redes sociales" transform="translate(1046 6360)" fill="#00223d" font-size="18" font-family="CerebriSans-Bold, Cerebri Sans" font-weight="700"><tspan x="0" y="17">Banner con promociones, video para </tspan><tspan x="0" y="47">difundir por redes sociales</tspan></text>
  </g>
</svg>
