<svg xmlns="http://www.w3.org/2000/svg" width="436" height="447" viewBox="0 0 436 447">
  <g id="Grupo_16414" data-name="Grupo 16414" transform="translate(-1062 -2958)">
    <rect id="Rectángulo_3944" data-name="Rectángulo 3944" width="436" height="447" rx="21" transform="translate(1062 2958)" fill="#a7e0e8"/>
    <g id="Grupo_16413" data-name="Grupo 16413" transform="translate(898.387 2583.146)">
      <path id="Trazado_32791" data-name="Trazado 32791" d="M1162.3,954.807l-3.635-5.256-6.391.014a.878.878,0,0,1-.7-1.411l3.875-5.081L1153.466,937a.878.878,0,0,1,1.125-1.1l6.03,2.116,5.162-3.768a.878.878,0,0,1,1.4.73l-.149,6.389,5.178,3.745a.878.878,0,0,1-.263,1.553l-6.123,1.833-1.961,6.082A.878.878,0,0,1,1162.3,954.807Z" transform="translate(-658.473 -382.044)" fill="#fa7167"/>
      <path id="Trazado_32792" data-name="Trazado 32792" d="M1689.086,601.8l3.369-7.8-4.517-7.2a1.168,1.168,0,0,1,1.1-1.783l8.462.794,5.45-6.521a1.168,1.168,0,0,1,2.036.493l1.86,8.293,7.885,3.168a1.168,1.168,0,0,1,.16,2.089l-7.311,4.332-.577,8.479a1.168,1.168,0,0,1-1.937.8l-6.379-5.615-8.242,2.072A1.168,1.168,0,0,1,1689.086,601.8Z" transform="translate(-1237.728 69.631)" fill="#92b5f9"/>
      <path id="Trazado_32793" data-name="Trazado 32793" d="M337.838,1234.262l-4.323-8.272-9.264-1.128a1.283,1.283,0,0,1-.762-2.171l6.531-6.667-1.79-9.16a1.283,1.283,0,0,1,1.829-1.395l8.359,4.151,8.158-4.533a1.283,1.283,0,0,1,1.892,1.309l-1.364,9.233,6.832,6.358a1.283,1.283,0,0,1-.66,2.2l-9.2,1.556-3.935,8.462A1.283,1.283,0,0,1,337.838,1234.262Z" transform="translate(-105.427 -562.892)" fill="#4951ec"/>
      <path id="Trazado_32794" data-name="Trazado 32794" d="M1827.781,695.132l.109,4.52-7.254.978-.657,6.629-5.309,1.619.819,2.687,7.1-2.165.623-6.282,7.546-1.017-.163-6.8Z" transform="translate(-1293.339 55.559)" fill="#4951ec"/>
      <path id="Trazado_32795" data-name="Trazado 32795" d="M645.236,485.186a5.549,5.549,0,0,1,6.194-4.707,5.515,5.515,0,1,1-6.194,4.707Zm2.922-8.125,1.452-23.816a3.45,3.45,0,0,1,3.828-3.219l2.37.266a3.45,3.45,0,0,1,3.022,3.979l-3.806,23.559Z" transform="translate(-320.466 -58.828)" fill="#fa7167"/>
      <g id="Grupo_16398" data-name="Grupo 16398" transform="translate(272.503 531.711)">
        <path id="Trazado_32796" data-name="Trazado 32796" d="M599.89,887.439c.161,5.907,1.685,18.584,15.08,20.679,8.315,1.3,18.965-6.169,18.28-11.653S631.04,877,622.358,873.806C615.1,871.133,599.529,874.259,599.89,887.439Z" transform="translate(-562.727 -872.928)" fill="#4951ec"/>
        <path id="Trazado_32797" data-name="Trazado 32797" d="M936.257,1488.443c1.894,7.953,3.385,19.431,3.939,20.071.266.307.817,2.313,1.085,2.639,8.65,3.146,16.252-.1,22.277-3.673-4.724-.837-11.082-1.708-11.97-2.333-3.287-2.32-2.5-10.58-3.094-17.995C946.156,1487.565,940.478,1486.087,936.257,1488.443Z" transform="translate(-787.326 -1282.993)" fill="#fb9390"/>
        <path id="Trazado_32798" data-name="Trazado 32798" d="M947.571,1549.078c.055,3.142,2.078,9.848,2.7,9.84.746-.01,26.744-2.262,29.194-6.25,1.473-2.4-2.53-3.023-8.355-4.173C965.087,1552.067,948.294,1551.046,947.571,1549.078Z" transform="translate(-794.88 -1324.008)" fill="#4951ec"/>
        <path id="Trazado_32799" data-name="Trazado 32799" d="M525.29,1544.622a118.452,118.452,0,0,1-12.862,8.841c-.368.174-2.447.168-2.833.338-5.349,7.491-4.257,15.685-2.43,22.447,2.072-4.327,4.512-10.369,5.455-10.907a127.163,127.163,0,0,1,16.643-8.03C525.969,1553.737,526.428,1549.32,525.29,1544.622Z" transform="translate(-499.817 -1321.423)" fill="#fb9390"/>
        <path id="Trazado_32800" data-name="Trazado 32800" d="M530.789,1044.469l-18.581,33.8s-12.424,15.634-18.819,23.659c1.377,2.255,2.709,4.565,3.9,6.939,6.364-5.413,19.9-16.9,24.737-23.241,7.141-9.375,20.064-31.635,20.064-31.635Z" transform="translate(-491.62 -987.467)" fill="#fb9390"/>
        <path id="Trazado_32801" data-name="Trazado 32801" d="M714.549,1221.508l-19.874,29.316s-1.14-1.964,5.977.639,53.016,11.176,55.732,14.417c1.922,2.294,16.158,47.318,18.9,53.1,4.129,1.674,10.134-.184,14.373-.794.27-21.689-11.216-61.174-14.279-65.8-6.849-10.347-39.459-21.525-54.139-27.795-2.381-1.017-4.228-1.93-5.374-2.482C715.016,1221.7,714.549,1221.508,714.549,1221.508Z" transform="translate(-625.975 -1105.677)" fill="#4951ec"/>
        <path id="Trazado_32802" data-name="Trazado 32802" d="M500.356,1570.243c-3.042-.789-9.242-.765-9.4-.161-.191.722-4.986,26.372-1.8,29.8,1.916,2.062,3.591-1.628,6.259-6.931C493.586,1586.19,498.267,1570.412,500.356,1570.243Z" transform="translate(-488.065 -1338.127)" fill="#4951ec"/>
        <path id="Trazado_32803" data-name="Trazado 32803" d="M617.586,1228.812c.172-2.2,4.88-15.053,6.548-20.056.053-.159-1.18-3.052-2.511-7.215l-1.906.306-28.255,1.281s-11.379,19.219-10.055,28.049c1.85,12.327,19.671,56.144,16.961,58.208-4.891,3.726-28.853,17.611-41.167,25.866.787,4.769,2.992,11.422,6.013,15.23,10.021-3.484,53.321-20.939,57.776-34.331C624.923,1284.32,617.294,1232.555,617.586,1228.812Z" transform="translate(-534.227 -1092.345)" fill="#7c9af2"/>
        <path id="Trazado_32804" data-name="Trazado 32804" d="M712.7,958.463s-7.782,12.226-12.37,12.667l16.229,15.016s11.055-16.576,12.209-19.419C728.764,966.726,718.7,957.764,712.7,958.463Z" transform="translate(-629.793 -930.014)" fill="#bed1f9"/>
        <path id="Trazado_32805" data-name="Trazado 32805" d="M642.943,1056.812a43.227,43.227,0,0,0,1.348,14.095c-6.526,1.4-29.657,4.35-35.315-2.537-.2-.247,8.011-14.734,6.88-20.648-1.668-8.725-8.912-23.52-9.514-24.312-1.008-1.33-4.713,5.554-4.713,5.554-4.34.022-14.279-10.064-14.279-10.064s10.279-17.907,13.108-19.591,26.2-4.227,26.216-4.229c1.72-.124,6.418,3.953,7.709,5.241C649.154,1015.057,645.175,1036.176,642.943,1056.812Z" transform="translate(-554.358 -954.487)" fill="#dde8fe"/>
        <path id="Trazado_32806" data-name="Trazado 32806" d="M666.043,961.478s2.547,8.416,2.565,11.838,1.383,8.078,8.557,7.373,1.289-7.925.271-11.175-2.24-13.509-2.24-13.509Z" transform="translate(-606.902 -928.399)" fill="#fb9390"/>
        <path id="Trazado_32807" data-name="Trazado 32807" d="M675.876,961.146c-.4-2.8-.681-5.141-.681-5.141l-9.152,5.473s.521,1.721,1.093,3.923C671.433,965.812,674.321,963.939,675.876,961.146Z" transform="translate(-606.902 -928.399)" fill="#ef7f7f"/>
        <path id="Trazado_32808" data-name="Trazado 32808" d="M633.707,892.33a12.943,12.943,0,0,0-4.741,7.6C628,904.9,630.949,917.15,641.6,919.08s14.118-8.372,11.193-15.843S644.231,886.5,633.707,892.33Z" transform="translate(-582.03 -884.658)" fill="#fb9390"/>
        <path id="Trazado_32809" data-name="Trazado 32809" d="M695.148,911.894c.011,2.087-.966,3.784-2.181,3.79s-2.21-1.68-2.221-3.767.966-3.784,2.181-3.79S695.137,909.807,695.148,911.894Z" transform="translate(-623.396 -896.431)" fill="#fb9390"/>
        <path id="Trazado_32810" data-name="Trazado 32810" d="M632.55,947.177c1.4,1.68,1.617,3.81.481,4.758s-3.193.353-4.594-1.327-1.618-3.81-.482-4.758S631.149,945.5,632.55,947.177Z" transform="translate(-580.984 -921.317)" fill="#fb9390"/>
      </g>
      <g id="Grupo_16400" data-name="Grupo 16400" transform="translate(221.755 452.739)">
        <path id="Trazado_32827" data-name="Trazado 32827" d="M524.995,829.037C523.581,824.917,466,657.19,463.487,649.864A21.81,21.81,0,0,0,435.962,636.4L350.081,665a21.331,21.331,0,0,0-13.58,27.156l61.508,179.173a21.809,21.809,0,0,0,27.525,13.466l85.881-28.6A21.331,21.331,0,0,0,524.995,829.037Zm-20.859,4.521-86.762,28.9a12.579,12.579,0,0,1-15.876-7.767L344.609,688.969a12.3,12.3,0,0,1,7.832-15.663l86.763-28.9a12.579,12.579,0,0,1,15.876,7.767L511.968,817.9A12.3,12.3,0,0,1,504.136,833.558Z" transform="translate(-335.344 -635.269)" fill="#0b0754"/>
        <path id="Trazado_32828" data-name="Trazado 32828" d="M711.838,1283.526c1.324,3.856-4.751,9.362-13.568,12.3s-17.038,2.191-18.362-1.665,4.751-9.362,13.569-12.3S710.515,1279.669,711.838,1283.526Z" transform="translate(-565.291 -1065.804)" fill="#4951ec"/>
        <path id="Trazado_32829" data-name="Trazado 32829" d="M714.715,1284.461c1.244,3.622-3.787,8.57-11.236,11.05s-14.5,1.556-15.739-2.067,3.787-8.57,11.236-11.051S713.472,1280.839,714.715,1284.461Z" transform="translate(-570.515 -1066.43)" fill="#0b0754"/>
      </g>
      <path id="Trazado_32835" data-name="Trazado 32835" d="M1275.02,988.481l1.931-2.441a4.739,4.739,0,0,1,3.005-2.043c1.806-.182,1.751-2.447-.162-2.124a18.187,18.187,0,0,0-3.115.779,35.382,35.382,0,0,0,3.868-2.206c.378-1.423-1.72-1.976-4.53.11S1275.02,988.481,1275.02,988.481Z" transform="translate(-740.633 -412.161)" fill="#f7a491"/>
      <path id="Trazado_32836" data-name="Trazado 32836" d="M484.715,1217.789a19.819,19.819,0,0,0-2.467,1.565c.018-.04.038-.08.058-.121.4-.424,1.792-1.909,1.8-1.918,1.825-1.392.866-2.881-.84-1.958a18.218,18.218,0,0,0-2.7,1.744s2.96-2.887,2.947-3.338c-.043-1.472-2.266-1.314-4.251,1.567-1.738,2.523.826,6.935,1.569,7.979a5.329,5.329,0,0,0,2.079,2.22l.453-2.878a4.737,4.737,0,0,1,2.184-2.9C487.2,1218.991,486.421,1216.866,484.715,1217.789Z" transform="translate(-209.294 -568.184)" fill="#fb9390"/>
      <path id="Trazado_32837" data-name="Trazado 32837" d="M1296.969,975.614s4.5-3.62,5.222-2.08.4,4.871-.269,4.636-.582-2.609-2.518-1.99C1298.865,976.352,1296.183,977.2,1296.969,975.614Z" transform="translate(-755.577 -408.137)" fill="#f7a491"/>
      <g id="Grupo_16406" data-name="Grupo 16406" transform="translate(408.149 525.057)">
        <path id="Trazado_32844" data-name="Trazado 32844" d="M923.2,901.875,898.8,887.044a5.25,5.25,0,0,1-1.76-7.212l14.831-24.4a5.249,5.249,0,0,1,7.212-1.76l24.4,14.83a5.25,5.25,0,0,1,1.76,7.213l-14.831,24.4A5.249,5.249,0,0,1,923.2,901.875Z" transform="translate(-896.275 -852.903)" fill="#7c9af2"/>
        <g id="Grupo_16405" data-name="Grupo 16405" transform="translate(11.734 12.682)">
          <path id="Trazado_32845" data-name="Trazado 32845" d="M959.638,907.4c.9-.922.606-2.69-.728-3.87a67.694,67.694,0,0,0-19.794-12.184c-1.656-.662-3.364-.108-3.775,1.145h0c-3.381,10-2.215,6.243-3.677,12.052a2.8,2.8,0,0,0,1.7,3.247h0a2.834,2.834,0,0,0,3.595-1.361l1.033-2.2a1.756,1.756,0,0,1,2.432-.684,57.154,57.154,0,0,1,7.151,4.332,1.747,1.747,0,0,1,.529,2.458l-1.461,1.913a2.77,2.77,0,0,0,.493,3.768h0a2.841,2.841,0,0,0,3.664.022C951.876,915.094,957.772,909.343,959.638,907.4Z" transform="translate(-931.586 -891.067)" fill="#fff"/>
          <g id="Grupo_16404" data-name="Grupo 16404" transform="translate(4.777 2.533)">
            <path id="Trazado_32846" data-name="Trazado 32846" d="M957.109,900.329a1.982,1.982,0,0,1,.724.765l.82-1.348-1.737-1.055-.819,1.348A1.985,1.985,0,0,1,957.109,900.329Z" transform="translate(-952.729 -898.691)" fill="#7c9af2"/>
            <path id="Trazado_32847" data-name="Trazado 32847" d="M947.6,902.534a1.986,1.986,0,0,1,.765-.724l-1.348-.819-1.055,1.737,1.348.819A1.986,1.986,0,0,1,947.6,902.534Z" transform="translate(-945.963 -900.227)" fill="#7c9af2"/>
            <path id="Trazado_32848" data-name="Trazado 32848" d="M949.805,912.348a1.985,1.985,0,0,1-.724-.765l-.819,1.348L950,913.986l.819-1.348A1.985,1.985,0,0,1,949.805,912.348Z" transform="translate(-947.498 -907.299)" fill="#7c9af2"/>
            <path id="Trazado_32849" data-name="Trazado 32849" d="M959.91,908.825a2,2,0,0,1-1.055,1.737l1.348.819,1.055-1.736Z" transform="translate(-954.571 -905.457)" fill="#7c9af2"/>
          </g>
          <path id="Trazado_32850" data-name="Trazado 32850" d="M954.619,906.939a1.217,1.217,0,1,1-.409-1.672A1.218,1.218,0,0,1,954.619,906.939Z" transform="translate(-945.458 -900.43)" fill="#7c9af2"/>
          <path id="Trazado_32851" data-name="Trazado 32851" d="M995.788,931.425a2.6,2.6,0,1,1-.873-3.578A2.6,2.6,0,0,1,995.788,931.425Z" transform="translate(-971.229 -915.372)" fill="#7c9af2"/>
        </g>
      </g>
      <path id="Trazado_32852" data-name="Trazado 32852" d="M1017.124,643.5a11.034,11.034,0,0,1,6.138-7.5c4.684-2.173,9.735.258,11.857,4.833,2.457,5.3.962,13.6-7.936,24.348-13.951-.146-21.258-4.37-23.715-9.665-2.122-4.575-.717-10,3.968-12.174A11.038,11.038,0,0,1,1017.124,643.5Z" transform="translate(-559.056 -182.481)" fill="#fa7167"/>
      <path id="Trazado_32853" data-name="Trazado 32853" d="M437.059,528.707l-31.008,14.775a7.336,7.336,0,0,1-9.779-3.467l-8.32-17.461a7.336,7.336,0,0,1,3.467-9.779L422.427,498a7.336,7.336,0,0,1,9.779,3.467l8.32,17.461A7.337,7.337,0,0,1,437.059,528.707Z" transform="translate(-148.238 -90.397)" fill="#bed1f9"/>
      <path id="Trazado_32854" data-name="Trazado 32854" d="M392.426,597.207l-6.64,19.787,14.75-10.907Z" transform="translate(-147.269 -157.116)" fill="#bed1f9"/>
      <g id="Grupo_16407" data-name="Grupo 16407" transform="translate(255.607 417.282)">
        <path id="Trazado_32855" data-name="Trazado 32855" d="M437.713,543.725l3.923-1.993s3.177-6.146,2.691-7.536-2.657-3.779-2.053-4.5a2.882,2.882,0,0,1,3.989-.558c1.366.9,2.983,5.821,3.6,5.9a23.262,23.262,0,0,0,4.329-1.847,3.264,3.264,0,0,1,3.369.293l0,0a1.739,1.739,0,0,1,.561,2.117l-.524,1.166,1.143.586a1.738,1.738,0,0,1,.76,2.33l-.439.87.741.312a1.739,1.739,0,0,1,.845,2.448l-.409.735.176.126a1.739,1.739,0,0,1,.485,2.3l-.422.714L450.03,552.5a8.062,8.062,0,0,1-3.145.858l-3.984,1.259a.906.906,0,0,1-1.088-.467l-4.5-9.214A.907.907,0,0,1,437.713,543.725Z" transform="translate(-437.217 -528.567)" fill="#fff"/>
      </g>
      <g id="Grupo_16408" data-name="Grupo 16408" transform="translate(475.705 479.209)">
        <path id="Trazado_32856" data-name="Trazado 32856" d="M1136.511,716.661c23.437-5.323,45.088,2.034,48.358,16.431,1.635,7.2-1.635,14.8-8.244,21.257l14.333,19.067-23.765-11.956a66.279,66.279,0,0,1-18.842,7.339c-23.438,5.323-45.088-2.034-48.358-16.431S1113.073,721.984,1136.511,716.661Z" transform="translate(-1099.577 -714.929)" fill="#fff"/>
        <path id="Trazado_32857" data-name="Trazado 32857" d="M1217.732,763.658a15.166,15.166,0,1,1-14.543-15.768A15.164,15.164,0,0,1,1217.732,763.658Z" transform="translate(-1158.226 -736.928)" fill="#92b5f9"/>
        <path id="Trazado_32858" data-name="Trazado 32858" d="M1208.366,799.761a8.108,8.108,0,1,0,16.2.656Z" transform="translate(-1172.212 -771.572)" fill="#fff"/>
      </g>
      <path id="Trazado_32859" data-name="Trazado 32859" d="M283.878,921.946l-7.733,1.543.96,7.286-7.551,1.856.059,7.076-5.423,2.313,1.171,2.745,7.254-3.093-.056-6.706,7.855-1.931-.944-7.166,7.008-1.4Z" transform="translate(-66.079 -373.946)" fill="#fa7167"/>
      <path id="Trazado_32860" data-name="Trazado 32860" d="M1824.928,1066.093l-2.158-7.584-7.185,1.541-2.456-7.377-7.048.626-2.741-5.221-2.643,1.387,3.664,6.982,6.68-.593,2.555,7.675,7.067-1.516,1.955,6.873Z" transform="translate(-1331.676 -458.165)" fill="#fa7167"/>
      <path id="Trazado_32861" data-name="Trazado 32861" d="M288.824,660.582l-4.322,1.327-2.9-6.719-6.559,1.16-2.994-4.673-2.366,1.516,4,6.25,6.216-1.1,3.02,6.99,6.5-2Z" transform="translate(-69.744 -193.485)" fill="#7c9af2"/>
      <g id="Grupo_16412" data-name="Grupo 16412" transform="translate(342.778 421.678)">
        <path id="Trazado_32862" data-name="Trazado 32862" d="M765.353,755.254c-1.509-1.244-5.032-2.265-6.785-2.423s-9.411-.152-10.4,1.688,7.047,7.058,7.476,9.226-4.655,35.829-6.123,42.513c-.724,3.3-3.5,9.506-6.135,14.954,3.784.605,8.409,3.7,11.313,5.909,3.722-8.142,7.531-17.3,8-21.6C763.657,796.838,766.862,756.5,765.353,755.254Z" transform="translate(-728.817 -682.663)" fill="#fb9390"/>
        <g id="Grupo_16411" data-name="Grupo 16411" transform="translate(0 0)">
          <g id="Grupo_16409" data-name="Grupo 16409" transform="translate(41.875 14.519)">
            <path id="Trazado_32863" data-name="Trazado 32863" d="M842.434,585.491c-2.61-.219-16.257,10.188-16.257,10.188l-.609.816s18.425,3.113,19.29,2.535C847.192,597.468,844.577,585.671,842.434,585.491ZM826.221,596c4.447-3.235,13.609-7.2,15.583-8.03a21.048,21.048,0,0,1,1.67,8.831C841.3,596.635,831.611,596.855,826.221,596Z" transform="translate(-825.567 -585.488)" fill="#4951ec"/>
          </g>
          <g id="Grupo_16410" data-name="Grupo 16410" transform="translate(24.163)">
            <path id="Trazado_32864" data-name="Trazado 32864" d="M786.91,547.689c-2.361-6.318-4.667-6.023-6.3-5.81s-8.986,5.418-8.3,9.42S787.7,566.989,787.7,566.989l.973-1.127S789.271,554.007,786.91,547.689Zm-12.364,3.219c-.342-2,4.756-6.25,6.434-6.786a2.642,2.642,0,0,1,.983-.013c.311.089,1.432.667,2.818,4.375a69.823,69.823,0,0,1,3.078,17.179C781.995,560.761,774.929,552.627,774.546,550.907Z" transform="translate(-772.263 -541.795)" fill="#4951ec"/>
          </g>
          <path id="Rectángulo_3941" data-name="Rectángulo 3941" d="M1.911,0H3.529A1.911,1.911,0,0,1,5.44,1.911v0A1.912,1.912,0,0,1,3.529,3.823H1.911A1.911,1.911,0,0,1,0,1.911v0A1.911,1.911,0,0,1,1.911,0Z" transform="matrix(0.275, -0.962, 0.962, 0.275, 38.287, 27.256)" fill="#4951ec"/>
          <path id="Trazado_32865" data-name="Trazado 32865" d="M754.225,654.917l-50.75-14.492a5.413,5.413,0,0,1-3.8-6.349l8.979-41.524,66.09,18.872-14.9,41.666C759.221,654.832,756.747,655.637,754.225,654.917Z" transform="translate(-699.547 -575.686)" fill="#fa7167"/>
          <path id="Trazado_32866" data-name="Trazado 32866" d="M782.154,619.462l-71.785-20.351.555-4.83a4.715,4.715,0,0,1,5.991-3.993l64.872,18.717c2.306.665,3.707,2.6,3.031,4.193Z" transform="translate(-706.773 -574.049)" fill="#bed1f9"/>
          <rect id="Rectángulo_3942" data-name="Rectángulo 3942" width="10.169" height="1.42" transform="translate(38.028 34.845) rotate(-74.067)" fill="#4951ec"/>
          <rect id="Rectángulo_3943" data-name="Rectángulo 3943" width="38.227" height="1.775" transform="matrix(0.275, -0.962, 0.962, 0.275, 28.929, 71.952)" fill="#4951ec"/>
        </g>
        <path id="Trazado_32867" data-name="Trazado 32867" d="M755.854,746.749l.184-2.159a47.776,47.776,0,0,1-4.785-1.654l-.28-1.649c-.911-2.26-1.924-.647-2.22-.132,0,0-.074,2.9.251,3.237,0,0,3.421,3.613,4.882,4.98.723.677,3.032,2.551,3.032,2.551l1.836-2.544Z" transform="translate(-732.397 -674.214)" fill="#fb9390"/>
      </g>
    </g>
  </g>
</svg>
