<svg xmlns="http://www.w3.org/2000/svg" width="366" height="390" viewBox="0 0 366 390">
  <g id="Grupo_18036" data-name="Grupo 18036" transform="translate(-422 -3690)">
    <rect id="Rectángulo_3967" data-name="Rectángulo 3967" width="366" height="390" rx="16" transform="translate(422 3690)" fill="#a7e0e8"/>
    <g id="Grupo_16575" data-name="Grupo 16575" transform="translate(274.469 3623.813)">
      <g id="Grupo_16422" data-name="Grupo 16422" transform="translate(197.898 168.902)">
        <g id="Grupo_16421" data-name="Grupo 16421" transform="translate(0)">
          <g id="Grupo_16420" data-name="Grupo 16420">
            <g id="Grupo_16416" data-name="Grupo 16416" transform="translate(36.264 30.303)">
              <g id="Grupo_16415" data-name="Grupo 16415">
                <path id="Trazado_32868" data-name="Trazado 32868" d="M342.156,347.564l-1.433,2.743,4.257,2.9,2.82-1.576.12-2.779-2.452.021.269-.514.791-.24-.253-.789Z" transform="translate(-340.723 -347.326)" fill="#ebceb1"/>
              </g>
            </g>
            <g id="Grupo_16419" data-name="Grupo 16419">
              <g id="Grupo_16418" data-name="Grupo 16418">
                <g id="Grupo_16417" data-name="Grupo 16417">
                  <path id="Trazado_32869" data-name="Trazado 32869" d="M261.878,270.225l8.884,19.423,16.309,10.094-2,4.288-21.351-8.687-15.676-25.465Z" transform="translate(-248.041 -269.878)" fill="#474ebb"/>
                </g>
              </g>
            </g>
          </g>
        </g>
      </g>
      <g id="Grupo_16433" data-name="Grupo 16433" transform="translate(165.668 133.911)">
        <g id="Grupo_16423" data-name="Grupo 16423" transform="translate(18.96 192.023)">
          <path id="Trazado_32870" data-name="Trazado 32870" d="M216.366,671.751l-.243,2.813-1.857,2.287s-.533,3.432.482,4.035,16.857,2.483,16.857,2.483l1.632-2.435-1.309-2.689-8.373-3.83-2.876-3.194Z" transform="translate(-214.127 -671.221)" fill="#292949"/>
        </g>
        <g id="Grupo_16424" data-name="Grupo 16424" transform="translate(35.548 185.941)">
          <path id="Trazado_32871" data-name="Trazado 32871" d="M258.736,656.212l-.242,2.813-1.83,2.29s-.529,3.433.469,4.034,16.582,2.46,16.582,2.46l1.61-2.438-1.285-2.687-8.233-3.818-2.825-3.189Z" transform="translate(-256.523 -655.676)" fill="#292949"/>
        </g>
        <g id="Grupo_16432" data-name="Grupo 16432" transform="translate(0 0)">
          <g id="Grupo_16425" data-name="Grupo 16425" transform="translate(10.291 101.377)">
            <path id="Trazado_32872" data-name="Trazado 32872" d="M200.379,475.556c1.36,2.862,2.585,5.458,2.807,9.144.218,3.625-.46,7.236-.974,10.831-1.778,12.443-1.6,25.071-1.425,37.639q6.5.283,13.014.27a2.019,2.019,0,0,0,2.418-2.717,214.251,214.251,0,0,1-.792-26.934,61.585,61.585,0,0,1,1.124-12.46A46.978,46.978,0,0,0,217,478.411c-.712-10.514-2.842-20.834-3.429-31.344-.106-1.906-.287-3.955-1.52-5.412-1.483-1.752-4.026-2.109-6.321-2.108-6.31,0-13.431,1-13.748,8.651a23.66,23.66,0,0,0,1.28,7.516,155.521,155.521,0,0,0,5.678,16.686C199.412,473.523,199.9,474.556,200.379,475.556Z" transform="translate(-191.971 -439.547)" fill="#292949"/>
          </g>
          <g id="Grupo_16426" data-name="Grupo 16426" transform="translate(28.729 96.776)">
            <path id="Trazado_32873" data-name="Trazado 32873" d="M246.658,463.566c1.3,2.925,2.463,5.579,2.509,9.271.045,3.632-.862,7.2-1.593,10.77-2.53,12.34-3,24.962-3.454,37.522q6.891.6,13.806.912a2.989,2.989,0,0,0,2.219-.494,2.568,2.568,0,0,0,.489-2.1c-.742-11.158-1.579-22.351-.793-33.506.3-4.269.838-8.521,1.079-12.794a140.124,140.124,0,0,0-1.214-24.914c-.624-5.09.26-15.988-4.89-19.069a12.142,12.142,0,0,0-8.006-1.184,10.475,10.475,0,0,0-3.953,1.316,8.537,8.537,0,0,0-3.705,6.53,22.33,22.33,0,0,0,.972,7.57,148.623,148.623,0,0,0,5.17,16.947C245.735,461.488,246.2,462.543,246.658,463.566Z" transform="translate(-239.094 -427.788)" fill="#292949"/>
          </g>
          <g id="Grupo_16427" data-name="Grupo 16427" transform="translate(4.922 33.516)">
            <path id="Trazado_32874" data-name="Trazado 32874" d="M187.021,269.369a13.6,13.6,0,0,0-6.7,9.434c-3.929,20.142-1.5,40.915.936,61.291.166,1.39.423,2.942,1.553,3.769,1.279.936,3.058.511,4.578.063a224.034,224.034,0,0,1,36.595-7.52q-1.122-22.474-4.351-44.776a51.883,51.883,0,0,0-2.723-11.827c-3.347-8.412-9.029-14.408-18.553-13.628A26.7,26.7,0,0,0,187.021,269.369Z" transform="translate(-178.246 -266.107)" fill="#474ebb"/>
          </g>
          <g id="Grupo_16431" data-name="Grupo 16431">
            <g id="Grupo_16428" data-name="Grupo 16428" transform="translate(16.915 4.975)">
              <path id="Trazado_32875" data-name="Trazado 32875" d="M226.534,205.209c.162,2.566.286,5.3-1,7.528-1.092,1.9-3.037,3.121-4.531,4.721a6.71,6.71,0,0,0-1.837,3.587c-.168,1.325.544,2.455.536,3.781a.776.776,0,0,1-.064.363.687.687,0,0,1-.294.259,4.19,4.19,0,0,1-1.994.341,20.079,20.079,0,0,1-2.483.014c-1.044-.128-.831-.338-.93-1.4a20.492,20.492,0,0,0-.873-4.693c-1.056-3.125-3.3-5.8-3.941-9.071-.7-3.624.349-7.176,1.5-10.622a12.682,12.682,0,0,1,2.136-4.348c2.322-2.713,7.768-3.58,10.371-.808C226.222,198.156,226.26,200.857,226.534,205.209Z" transform="translate(-208.898 -193.161)" fill="#fee4d6"/>
            </g>
            <g id="Grupo_16429" data-name="Grupo 16429" transform="translate(27.684 4.805)">
              <path id="Trazado_32876" data-name="Trazado 32876" d="M242.466,203.186a8.025,8.025,0,0,1,.684,8.134c1.959-1.367,2.882-3.8,3.276-6.16a14.135,14.135,0,0,0,.16-3.926c-.47-4.123-3.738-7.934-7.852-8.481-2.721-.362-2.71,3.107-1.65,4.795C238.479,199.767,240.932,201.084,242.466,203.186Z" transform="translate(-236.422 -192.726)" fill="#292949"/>
            </g>
            <g id="Grupo_16430" data-name="Grupo 16430">
              <path id="Trazado_32877" data-name="Trazado 32877" d="M192.19,183.122a9.6,9.6,0,0,0-4.969-.628c-2.307.2-6.949.878-9.69,2.6-1.546-3.305-6.007-5.8-9.263-4.089a3.73,3.73,0,0,0-1.851,4.9,3.487,3.487,0,0,0,.942,1.146,9.549,9.549,0,0,1,1.043.792c1.108,1.161.083,2.807-.732,4.12a13.864,13.864,0,0,0-1.863,4.728,4.393,4.393,0,0,0,.182,2.776,2.852,2.852,0,0,0,2.6,1.553c2.071-.09,2.488-1.854,2.6-3.457a13.277,13.277,0,0,1,1.272-5.186,2.494,2.494,0,0,1,1.4-1.475,1.506,1.506,0,0,1,.39-.047,11.177,11.177,0,0,0-.462,4.822,20.308,20.308,0,0,0,3.837,9.5,16.123,16.123,0,0,0,8.365,5.8c.236-2.105-1.985-3.7-2.389-5.779a4.755,4.755,0,0,1,.717-3.286,14.14,14.14,0,0,1,2.216-2.62l4.184-4.2a21.277,21.277,0,0,0,3.137-3.669C195.582,188.636,195.5,184.707,192.19,183.122Z" transform="translate(-165.668 -180.446)" fill="#292949"/>
            </g>
          </g>
        </g>
      </g>
      <g id="Grupo_16451" data-name="Grupo 16451" transform="translate(298.963 155.163)">
        <g id="Grupo_16435" data-name="Grupo 16435" transform="translate(13.016 170.923)">
          <g id="Grupo_16434" data-name="Grupo 16434">
            <path id="Trazado_32878" data-name="Trazado 32878" d="M551.183,672.456v3.009l-7.715,3.858-3.858-3.858,3.858-3.858h.5l.124.849Z" transform="translate(-539.61 -671.607)" fill="#41352b"/>
          </g>
        </g>
        <g id="Grupo_16437" data-name="Grupo 16437" transform="translate(36.407 170.923)">
          <g id="Grupo_16436" data-name="Grupo 16436">
            <path id="Trazado_32879" data-name="Trazado 32879" d="M606.576,671.607h.533l3.858,3.858-3.858,3.858-7.715-3.858v-3.009h7.094Z" transform="translate(-599.393 -671.607)" fill="#41352b"/>
          </g>
        </g>
        <g id="Grupo_16450" data-name="Grupo 16450" transform="translate(0 0)">
          <g id="Grupo_16439" data-name="Grupo 16439" transform="translate(34.813)">
            <g id="Grupo_16438" data-name="Grupo 16438">
              <path id="Trazado_32880" data-name="Trazado 32880" d="M603.987,292.352A94.019,94.019,0,0,1,602.1,279.9c-.219-7.736-1.192-33.286-1.192-33.286l-4.722-9.773-.871.009.188-.023c-.205.025.1-1.889.172-2.057a16.3,16.3,0,0,1,11.986,5.4,30.138,30.138,0,0,1,4.165,8.173c3.125,8.074,4.543,15.554,6.1,24.043.994,5.413,1.913,10.8,2.636,16.175a168.546,168.546,0,0,1,1.529,17.785c.018.652.147,2.476.22,4.655.152,4.564.054,10.668-1.835,10.9a1.839,1.839,0,0,1-1.006-.27,66.414,66.414,0,0,1-6.489-4.139l-.115-23.807Z" transform="translate(-595.319 -234.762)" fill="#d67086"/>
            </g>
          </g>
          <g id="Grupo_16441" data-name="Grupo 16441" transform="translate(0 0.268)">
            <g id="Grupo_16440" data-name="Grupo 16440">
              <path id="Trazado_32881" data-name="Trazado 32881" d="M506.4,317.235c.483-5.066.985-10.131,1.6-15.183a190.165,190.165,0,0,1,5.7-29.883c1.075-3.726,2.316-7.4,3.557-11.074l4.531-13.418c1.877-5.559,5.045-9.475,10.593-11.42a20.536,20.536,0,0,1,3.108-.811,3.358,3.358,0,0,1,.065.354,2.917,2.917,0,0,0,.547,1.513l-3.641.035s-10.272,36.508-10.65,42.8c-.144,2.392-.621,7.613-1.152,13.114l-5.578.835-.239,21.04c-.313.091-.623.18-.932.263-1.77.478-3.21,1.789-4.68,2.818C507.052,319.738,506.1,320.34,506.4,317.235Z" transform="translate(-506.343 -235.446)" fill="#d67086"/>
            </g>
          </g>
          <g id="Grupo_16443" data-name="Grupo 16443" transform="translate(8.492 58.085)">
            <g id="Grupo_16442" data-name="Grupo 16442">
              <path id="Trazado_32882" data-name="Trazado 32882" d="M533.865,383.215c-.84,8.7-1.815,18.11-1.815,18.11s4.51.108,11.034.6c-.482-.011-.965-.024-1.447-.029-4.538-.041-9.244,1.92-13.589,3.191l.239-21.04Z" transform="translate(-528.048 -383.215)" fill="#145566"/>
            </g>
          </g>
          <g id="Grupo_16445" data-name="Grupo 16445" transform="translate(43.481 57.59)">
            <g id="Grupo_16444" data-name="Grupo 16444">
              <path id="Trazado_32883" data-name="Trazado 32883" d="M618.751,403.806c3.111.165,3.5-.421,3.5-.421s-2.807-11.463-4.777-21.434l8.884,1.33.115,23.807a23.149,23.149,0,0,0-2.378-1.348A29.974,29.974,0,0,0,618.751,403.806Z" transform="translate(-617.472 -381.951)" fill="#145566"/>
            </g>
          </g>
          <g id="Grupo_16447" data-name="Grupo 16447" transform="translate(8.166 76.768)">
            <g id="Grupo_16446" data-name="Grupo 16446">
              <path id="Trazado_32884" data-name="Trazado 32884" d="M527.54,434.158c4.345-1.271,9.051-3.231,13.589-3.191.482,0,.965.017,1.447.029q.606.046,1.234.1c3.041.245,6.458.571,10.025,1l.526.063a61.8,61.8,0,0,0,9.448,1.483,29.973,29.973,0,0,1,5.342,1.934,23.144,23.144,0,0,1,2.378,1.348l.024,4.957-8.7,84.2h-7.132v.857h-.041l-7.841-56.479-.033-.318-4.3,56.8h-.041v-.857H536.3l-9.089-63.247Z" transform="translate(-527.214 -430.966)" fill="#545150"/>
            </g>
          </g>
          <g id="Grupo_16449" data-name="Grupo 16449" transform="translate(12.495 2.077)">
            <g id="Grupo_16448" data-name="Grupo 16448">
              <path id="Trazado_32885" data-name="Trazado 32885" d="M538.277,314.188s4.51.108,11.034.6l1.234.1c3.041.245,6.458.571,10.025,1l.525.064a61.844,61.844,0,0,0,9.448,1.483c3.111.165,3.5-.421,3.5-.421s-2.807-11.463-4.777-21.434a94.017,94.017,0,0,1-1.882-12.454c-.219-7.736-1.192-33.286-1.192-33.286l-4.722-9.773-.871.009-3.611.434a2.127,2.127,0,0,1-.931-.026,1.129,1.129,0,0,1-.392-.227,1.344,1.344,0,0,1-.127-.132l-3.641.035s-10.272,36.508-10.65,42.8c-.144,2.392-.621,7.613-1.152,13.114C539.252,304.784,538.277,314.188,538.277,314.188Z" transform="translate(-538.277 -240.071)" fill="#fff"/>
            </g>
          </g>
        </g>
      </g>
      <g id="Grupo_16461" data-name="Grupo 16461" transform="translate(317.101 124.093)">
        <g id="Grupo_16453" data-name="Grupo 16453" transform="translate(0.967 5.072)">
          <g id="Grupo_16452" data-name="Grupo 16452">
            <path id="Trazado_32886" data-name="Trazado 32886" d="M559.22,173.119a13.294,13.294,0,0,0-1.279,5.994,1.9,1.9,0,0,1-.419,1.529c-.448.371,0,1.108-.378.664a10.11,10.11,0,0,1-1.747-2.571,22.027,22.027,0,0,1-.2-4.117,5.99,5.99,0,0,1,.949-3.4,6.646,6.646,0,0,1,1.591-1.369,8.424,8.424,0,0,1,2.687-1.4c1.7-.414,2.778.156,1.328,1.449A10.613,10.613,0,0,0,559.22,173.119Z" transform="translate(-555.172 -168.316)" fill="#292949"/>
          </g>
        </g>
        <g id="Grupo_16456" data-name="Grupo 16456" transform="translate(2.612 5.186)">
          <g id="Grupo_16455" data-name="Grupo 16455">
            <g id="Grupo_16454" data-name="Grupo 16454">
              <path id="Trazado_32887" data-name="Trazado 32887" d="M573.6,196.107l-7.035,1.042a44.174,44.174,0,0,1-.947-6.248c-2.07-.25-4.518-.8-5.33-2.948a7.3,7.3,0,0,1-.344-2.158q-.262-4.541-.526-9.082a8.934,8.934,0,0,1,.186-3.117,6.255,6.255,0,0,1,3.564-3.557,13.226,13.226,0,0,1,12.193.118,6.682,6.682,0,0,1,2.562,2.364c.943,1.619.939,3.678.9,5.605l-.1,5.335c-.038,2.046-.221,4.407-1.722,5.565-.8.615-1.86.775-2.535,1.553C573.285,191.949,573.976,194.239,573.6,196.107Z" transform="translate(-559.376 -168.608)" fill="#eacdb0"/>
            </g>
          </g>
        </g>
        <g id="Grupo_16458" data-name="Grupo 16458" transform="translate(2.402 19.619)">
          <g id="Grupo_16457" data-name="Grupo 16457">
            <path id="Trazado_32888" data-name="Trazado 32888" d="M559.178,210.041a7.434,7.434,0,0,0,3.013,4.6c1.771,1.11,3.922,1.084,5.954,1.026l3.336-.095c2.813-.08,5.59-.6,6.883-3.68a9.287,9.287,0,0,0,.549-4.606,3.016,3.016,0,0,0-.344-1.228,1.021,1.021,0,0,0-1-.549c-.494.1-.766.658-1.065,1.1a2.472,2.472,0,0,1-2.886,1.1,3.872,3.872,0,0,1-.836-.549c-.109-.086-.218-.172-.329-.254a7.11,7.11,0,0,0-3.714-1.242c-1.129-.09-2.8-.424-3.584.591l-1.367,1.771a2.753,2.753,0,0,1-.63.653,1.79,1.79,0,0,1-.86.255,1.849,1.849,0,0,1-1.914-1.021,3.884,3.884,0,0,1-.163-1.064,1.714,1.714,0,0,0-.335-1c-.883-.991-1.041.667-1.046,1.231A11.9,11.9,0,0,0,559.178,210.041Zm7.68.121a3.084,3.084,0,0,0,2.826.167c.5-.182.758.671.259.853a3.835,3.835,0,0,1-3.46-.225C566.023,210.675,566.395,209.878,566.858,210.161Z" transform="translate(-558.839 -205.496)" fill="#292949"/>
          </g>
        </g>
        <g id="Grupo_16460" data-name="Grupo 16460" transform="translate(0)">
          <g id="Grupo_16459" data-name="Grupo 16459">
            <path id="Trazado_32889" data-name="Trazado 32889" d="M553.848,160.168a16.388,16.388,0,0,1-.547-2.214,4.3,4.3,0,0,0,2.163.075q-.031-.654-.061-1.307c-.015-.362,4.79-.869,5.18-.922,3.65-.5,6.987-.964,10.4.863a10.144,10.144,0,0,1,5.464,7.316,15.766,15.766,0,0,1-1.907,10.077c-.032-.846.345-2.863.108-3.656a7.248,7.248,0,0,0-.887-2.256,9.4,9.4,0,0,0-3.444-3.321,17.9,17.9,0,0,0-7.264-2.072,19.257,19.257,0,0,0-7.329.377c-1.071.353-1.236.639-1.95-.441a19.136,19.136,0,0,1-1.071-2.442Z" transform="translate(-552.701 -155.353)" fill="#292949"/>
          </g>
        </g>
      </g>
      <g id="Grupo_16489" data-name="Grupo 16489" transform="translate(253.187 205.95)">
        <g id="Grupo_16474" data-name="Grupo 16474">
          <g id="Grupo_16465" data-name="Grupo 16465">
            <g id="Grupo_16462" data-name="Grupo 16462">
              <rect id="Rectángulo_3945" data-name="Rectángulo 3945" width="103.95" height="132.782" rx="4.694" fill="#292949"/>
            </g>
            <g id="Grupo_16463" data-name="Grupo 16463" transform="translate(4.465 4.56)">
              <rect id="Rectángulo_3946" data-name="Rectángulo 3946" width="95.02" height="117.412" fill="#fff"/>
            </g>
            <g id="Grupo_16464" data-name="Grupo 16464" transform="translate(48.761 123.471)" opacity="0.53">
              <path id="Trazado_32890" data-name="Trazado 32890" d="M520.4,683.348a3.214,3.214,0,1,1-3.214-3.214A3.214,3.214,0,0,1,520.4,683.348Z" transform="translate(-513.974 -680.134)"/>
            </g>
          </g>
          <g id="Grupo_16471" data-name="Grupo 16471" transform="translate(5.808 86.205)">
            <g id="Grupo_16468" data-name="Grupo 16468" transform="translate(0.32)">
              <g id="Grupo_16466" data-name="Grupo 16466">
                <rect id="Rectángulo_3947" data-name="Rectángulo 3947" width="44.649" height="26.05" fill="#b3c1c4"/>
              </g>
              <g id="Grupo_16467" data-name="Grupo 16467" transform="translate(46.928)">
                <rect id="Rectángulo_3948" data-name="Rectángulo 3948" width="44.649" height="26.05" fill="#b3c1c4"/>
              </g>
            </g>
            <g id="Grupo_16469" data-name="Grupo 16469" transform="translate(0 28.599)">
              <rect id="Rectángulo_3949" data-name="Rectángulo 3949" width="24.602" height="2.803" fill="#b3c1c4"/>
            </g>
            <g id="Grupo_16470" data-name="Grupo 16470" transform="translate(47.248 28.599)">
              <rect id="Rectángulo_3950" data-name="Rectángulo 3950" width="24.602" height="2.803" fill="#b3c1c4"/>
            </g>
          </g>
          <g id="Grupo_16472" data-name="Grupo 16472" transform="translate(4.465 9.467)">
            <rect id="Rectángulo_3951" data-name="Rectángulo 3951" width="95.02" height="71.688" fill="#8eb3ba"/>
          </g>
          <g id="Grupo_16473" data-name="Grupo 16473" transform="translate(4.171 4.56)" opacity="0.15">
            <path id="Trazado_32891" data-name="Trazado 32891" d="M471.22,376.22,411.976,493.677H400.011V376.471Z" transform="translate(-400.011 -376.22)" fill="#fff"/>
          </g>
        </g>
        <g id="Grupo_16475" data-name="Grupo 16475" transform="translate(4.318 4.076)">
          <rect id="Rectángulo_3952" data-name="Rectángulo 3952" width="95.314" height="117.412" fill="#f9f9f9"/>
        </g>
        <g id="Grupo_16485" data-name="Grupo 16485" transform="translate(7.177 52.002)">
          <g id="Grupo_16478" data-name="Grupo 16478" opacity="0.22">
            <g id="Grupo_16476" data-name="Grupo 16476">
              <rect id="Rectángulo_3953" data-name="Rectángulo 3953" width="89.596" height="3.54" fill="#59595b"/>
            </g>
            <g id="Grupo_16477" data-name="Grupo 16477" transform="translate(0 9.701)">
              <rect id="Rectángulo_3954" data-name="Rectángulo 3954" width="89.596" height="3.54" fill="#59595b"/>
            </g>
          </g>
          <g id="Grupo_16481" data-name="Grupo 16481" transform="translate(0 18.582)" opacity="0.22">
            <g id="Grupo_16479" data-name="Grupo 16479">
              <rect id="Rectángulo_3955" data-name="Rectángulo 3955" width="89.596" height="3.54" fill="#59595b"/>
            </g>
            <g id="Grupo_16480" data-name="Grupo 16480" transform="translate(0 9.701)">
              <rect id="Rectángulo_3956" data-name="Rectángulo 3956" width="54.28" height="3.54" fill="#59595b"/>
            </g>
          </g>
          <g id="Grupo_16484" data-name="Grupo 16484" transform="translate(0 38.474)" opacity="0.22">
            <g id="Grupo_16482" data-name="Grupo 16482">
              <rect id="Rectángulo_3957" data-name="Rectángulo 3957" width="54.28" height="3.54" fill="#59595b"/>
            </g>
            <g id="Grupo_16483" data-name="Grupo 16483" transform="translate(0 9.701)">
              <rect id="Rectángulo_3958" data-name="Rectángulo 3958" width="54.28" height="3.54" fill="#59595b"/>
            </g>
          </g>
        </g>
        <g id="Grupo_16486" data-name="Grupo 16486" transform="translate(7.177 12.05)">
          <rect id="Rectángulo_3959" data-name="Rectángulo 3959" width="89.596" height="43.265" fill="#dddae8"/>
        </g>
        <g id="Grupo_16487" data-name="Grupo 16487" transform="translate(65.72 77.975)">
          <rect id="Rectángulo_3960" data-name="Rectángulo 3960" width="31.053" height="25.99" fill="#dddae8"/>
        </g>
        <g id="Grupo_16488" data-name="Grupo 16488" transform="translate(7.177 107.982)" opacity="0.24">
          <rect id="Rectángulo_3961" data-name="Rectángulo 3961" width="89.596" height="3.454" fill="#59595b"/>
        </g>
      </g>
      <g id="Grupo_16493" data-name="Grupo 16493" transform="translate(217.877 317.43)">
        <g id="Grupo_16492" data-name="Grupo 16492" transform="translate(0 0)">
          <g id="Grupo_16490" data-name="Grupo 16490">
            <path id="Trazado_32892" data-name="Trazado 32892" d="M260.209,294.671l2.807-3.561,7.219-9.157,4.239-5.377.027-.034a6.081,6.081,0,0,0-1-8.542l-4.865-3.836a6.088,6.088,0,0,0-1.657-7.51l-4.937-3.893q-.157-.124-.321-.236a6.088,6.088,0,0,0-1.778-7.257l-5.106-4.025L266,227.088c.1-.125.192-.252.282-.381.027-.039.052-.078.079-.117.062-.092.122-.184.18-.278.013-.021.028-.041.04-.062s.017-.033.026-.048a8.235,8.235,0,0,0-1.959-10.67l-2.244-1.769a8.228,8.228,0,0,0-11.553,1.383L226.374,246.19l.616-6.09c.016-.158.027-.316.034-.473,0-.047,0-.094,0-.141,0-.111,0-.221,0-.331,0-.025,0-.05,0-.074s0-.036,0-.054a8.211,8.211,0,0,0-7.382-7.932l-2.846-.284a8.262,8.262,0,0,0-9.02,7.373l-5.427,37.85a2.505,2.505,0,0,1-.525,1.293l-5.449,6.911a6.082,6.082,0,0,0,1,8.542l25.408,20.031a6.092,6.092,0,0,0,5.353,1.087l27.626-15.52a9.868,9.868,0,0,0,3.538-2.554C259.6,295.437,259.906,295.055,260.209,294.671Z" transform="translate(-195.069 -212.002)" fill="#fff"/>
          </g>
          <g id="Grupo_16491" data-name="Grupo 16491">
            <path id="Trazado_32893" data-name="Trazado 32893" d="M260.209,294.671l2.807-3.561,7.219-9.157,4.239-5.377.027-.034a6.081,6.081,0,0,0-1-8.542l-4.865-3.836a6.088,6.088,0,0,0-1.657-7.51l-4.937-3.893q-.157-.124-.321-.236a6.088,6.088,0,0,0-1.778-7.257l-5.106-4.025L266,227.088c.1-.125.192-.252.282-.381.027-.039.052-.078.079-.117.062-.092.122-.184.18-.278.013-.021.028-.041.04-.062s.017-.033.026-.048a8.235,8.235,0,0,0-1.959-10.67l-2.244-1.769a8.228,8.228,0,0,0-11.553,1.383L226.374,246.19l.616-6.09c.016-.158.027-.316.034-.473,0-.047,0-.094,0-.141,0-.111,0-.221,0-.331,0-.025,0-.05,0-.074s0-.036,0-.054a8.211,8.211,0,0,0-7.382-7.932l-2.846-.284a8.262,8.262,0,0,0-9.02,7.373l-5.427,37.85a2.505,2.505,0,0,1-.525,1.293l-5.449,6.911a6.082,6.082,0,0,0,1,8.542l25.408,20.031a6.092,6.092,0,0,0,5.353,1.087l27.626-15.52a9.868,9.868,0,0,0,3.538-2.554C259.6,295.437,259.906,295.055,260.209,294.671Zm-4.674-2.149c-.648.822-1.142,1.1-2.891,2.052l-25.809,14.49a1.075,1.075,0,0,1-.945-.192L200.483,288.84a1.073,1.073,0,0,1-.176-1.507l6.446-8.176a2.977,2.977,0,0,0,.624-1.547l5.383-38.93a3.233,3.233,0,0,1,3.529-2.885l2.846.284a3.213,3.213,0,0,1,2.89,3.163c0,.035,0,.07,0,.105s0,.048,0,.072c0,.061-.007.122-.013.184l-1.486,14.167c-.212,1.321-.061,2.106.8,2.782a2.359,2.359,0,0,0,3.465-.267l29.992-38.043a3.219,3.219,0,0,1,4.521-.541l2.244,1.769a3.222,3.222,0,0,1,.736,4.225c-.018.03-.038.059-.058.088l-.04.061c-.036.05-.072.1-.11.148l-13.156,16.687-10.025,12.716a2.562,2.562,0,0,0,.231,3.477,2.5,2.5,0,0,0,3.643-.313l8.969-11.376,5.106,4.025a1.073,1.073,0,0,1,.176,1.507l-1.4,1.774-7.944,10.076a2.562,2.562,0,0,0,.23,3.478,2.5,2.5,0,0,0,3.644-.314l7.208-9.142a1.074,1.074,0,0,1,.183.115l4.937,3.892a1.073,1.073,0,0,1,.176,1.508l-1.122,1.423-6.674,8.466a2.562,2.562,0,0,0,.231,3.477,2.5,2.5,0,0,0,3.643-.313l5.5-6.974,4.769,3.76a1.073,1.073,0,0,1,.176,1.508Z" transform="translate(-195.069 -212.002)" fill="#292949"/>
          </g>
        </g>
      </g>
      <g id="Grupo_16496" data-name="Grupo 16496" transform="translate(178.402 205.904)">
        <g id="Grupo_16494" data-name="Grupo 16494" transform="translate(0)">
          <path id="Trazado_32894" data-name="Trazado 32894" d="M198.265,369.282a5.939,5.939,0,0,1,5.749-4.834c.864-.009,1.943.327,2.181,1.181a2.1,2.1,0,0,1-.064,1.063c-.5,2.061-1.531,9.09-4.012,9.4C199.229,376.458,197.934,371.2,198.265,369.282Z" transform="translate(-198.215 -364.448)" fill="#474ebb"/>
        </g>
        <g id="Grupo_16495" data-name="Grupo 16495" transform="translate(2.977 2.252)">
          <path id="Trazado_32895" data-name="Trazado 32895" d="M209.99,370.247a3.77,3.77,0,0,0-4.13,3.38,3.4,3.4,0,0,0,2.486,3.748,2.415,2.415,0,0,0,2.863-1.4c.761-1.725-.354-2.58-1.406-3.773a2.836,2.836,0,0,1,.684-.4,1.186,1.186,0,0,0,.583-.518C211.4,370.559,210.484,370.328,209.99,370.247Z" transform="translate(-205.822 -370.202)" fill="#ebceb1"/>
        </g>
      </g>
      <g id="Grupo_16501" data-name="Grupo 16501" transform="translate(339.992 163.779)">
        <g id="Grupo_16498" data-name="Grupo 16498" transform="translate(4.667 46.358)">
          <g id="Grupo_16497" data-name="Grupo 16497">
            <path id="Trazado_32896" data-name="Trazado 32896" d="M628.251,375.266l-1.022,3.4-2.783,1.4.006.749.917.045L623.4,382.7l-.268,2.186,2.153,2.021,3.01.293,1.736-2.329.391-3.458,1.6-4.6Z" transform="translate(-623.134 -375.266)" fill="#eacdb0"/>
          </g>
        </g>
        <g id="Grupo_16500" data-name="Grupo 16500" transform="translate(0 0)">
          <g id="Grupo_16499" data-name="Grupo 16499">
            <path id="Trazado_32897" data-name="Trazado 32897" d="M618.9,304.545q.533-5.836,1.067-11.671c.23-2.512.51-5.024.689-7.54.225-3.163-1.962-3.372-3.471-6.086-3.4-6.107-6.909-12.828-5.758-19.72a3.876,3.876,0,0,1,.745-1.929,3.015,3.015,0,0,1,3.643-.389,8.6,8.6,0,0,1,2.73,2.82c4.113,5.862,9.356,12.407,12.049,19.076,1.21,3-.759,7.584-1.475,10.741l-4.343,19.161Z" transform="translate(-611.207 -256.784)" fill="#d67086"/>
          </g>
        </g>
      </g>
      <g id="Grupo_16506" data-name="Grupo 16506" transform="translate(282.188 148.153)">
        <g id="Grupo_16503" data-name="Grupo 16503" transform="translate(0 0)">
          <g id="Grupo_16502" data-name="Grupo 16502">
            <path id="Trazado_32898" data-name="Trazado 32898" d="M469.6,228.5l-.715-3.482,1.784-2.556-.36-.656-.829.4.862-2.549-.8-2.052-2.854-.758-2.789,1.17-.424,2.874,1.3,3.23.771,4.8Z" transform="translate(-463.47 -216.846)" fill="#eacdb0"/>
          </g>
        </g>
        <g id="Grupo_16505" data-name="Grupo 16505" transform="translate(0.009 8.288)">
          <g id="Grupo_16504" data-name="Grupo 16504">
            <path id="Trazado_32899" data-name="Trazado 32899" d="M470.782,239.171l4.6,10.782c.906,2.126,2.375,8.659,5.587,8.392a3.2,3.2,0,0,0,1.563-.755,95.12,95.12,0,0,0,15.219-14.08c.683-.786,1.584-1.667,2.6-1.425,1.029.246,1.432,1.479,1.576,2.527.979,7.112-1.763,14.251-5.479,20.393a5.747,5.747,0,0,1-3.518,3.023,59.166,59.166,0,0,1-10.72,3.2,13.31,13.31,0,0,1-5.97.16c-3.153-.838-3.755-3.473-5.056-6.01-1.354-2.641-1.638-5.595-2.424-8.418q-2.631-9.464-5.263-18.929Z" transform="translate(-463.493 -238.029)" fill="#d67086"/>
          </g>
        </g>
      </g>
      <g id="Grupo_16513" data-name="Grupo 16513" transform="translate(250.824 104)">
        <g id="Grupo_16512" data-name="Grupo 16512">
          <g id="Grupo_16507" data-name="Grupo 16507">
            <path id="Trazado_32900" data-name="Trazado 32900" d="M446.691,104H383.748a.46.46,0,0,0-.439.479v47.75a.46.46,0,0,0,.439.479h14.227l9.764,13.7a.509.509,0,0,0,.923-.288l.2-13.411h24.607c7.545,0,13.661-6.664,13.661-14.885V104.479A.46.46,0,0,0,446.691,104Z" transform="translate(-383.309 -104)" fill="#8cabef"/>
          </g>
          <g id="Grupo_16511" data-name="Grupo 16511" transform="translate(8.816 7.968)">
            <g id="Grupo_16508" data-name="Grupo 16508" transform="translate(7.555)">
              <rect id="Rectángulo_3962" data-name="Rectángulo 3962" width="39.207" height="1.634" fill="#fffdf4"/>
            </g>
            <g id="Grupo_16509" data-name="Grupo 16509" transform="translate(0 12.456)">
              <rect id="Rectángulo_3963" data-name="Rectángulo 3963" width="46.762" height="1.634" fill="#fffdf4"/>
            </g>
            <g id="Grupo_16510" data-name="Grupo 16510" transform="translate(0 24.913)">
              <rect id="Rectángulo_3964" data-name="Rectángulo 3964" width="46.762" height="1.634" fill="#fffdf4"/>
            </g>
          </g>
        </g>
      </g>
      <g id="Grupo_16549" data-name="Grupo 16549" transform="translate(383.302 135.259)">
        <g id="Grupo_16521" data-name="Grupo 16521" transform="translate(24.813 95.27)">
          <g id="Grupo_16517" data-name="Grupo 16517">
            <g id="Grupo_16516" data-name="Grupo 16516">
              <g id="Grupo_16515" data-name="Grupo 16515">
                <g id="Grupo_16514" data-name="Grupo 16514">
                  <path id="Trazado_32901" data-name="Trazado 32901" d="M807.817,432.734l-4.974,47.176,3.44,33.848-4.7,1.815-5.292-31.207-10.976-56.982Z" transform="translate(-785.314 -427.384)" fill="#ebceb1"/>
                </g>
              </g>
            </g>
          </g>
          <g id="Grupo_16520" data-name="Grupo 16520" transform="translate(15.902 87.33)">
            <g id="Grupo_16519" data-name="Grupo 16519">
              <g id="Grupo_16518" data-name="Grupo 16518">
                <path id="Trazado_32902" data-name="Trazado 32902" d="M826.365,652.4l-.409,3.532,1.413,6.641,3.913-.5.412-9.919-.63-1.567Z" transform="translate(-825.957 -650.582)" fill="#292949"/>
              </g>
            </g>
          </g>
        </g>
        <g id="Grupo_16528" data-name="Grupo 16528" transform="translate(8.804 96.064)">
          <g id="Grupo_16524" data-name="Grupo 16524">
            <g id="Grupo_16523" data-name="Grupo 16523">
              <g id="Grupo_16522" data-name="Grupo 16522">
                <path id="Trazado_32903" data-name="Trazado 32903" d="M744.4,433.845l3.416,39.76,10.718,55.387,4.809-.224L759.5,477.213l4.666-47.8Z" transform="translate(-744.4 -429.413)" fill="#ebceb1"/>
              </g>
            </g>
          </g>
          <g id="Grupo_16527" data-name="Grupo 16527" transform="translate(8.182 98.624)">
            <g id="Grupo_16526" data-name="Grupo 16526">
              <g id="Grupo_16525" data-name="Grupo 16525">
                <path id="Trazado_32904" data-name="Trazado 32904" d="M771.312,681.478l-6,4.711.879,3.343,11.169-3.056-1.077-4.835Z" transform="translate(-765.312 -681.478)" fill="#292949"/>
              </g>
            </g>
          </g>
        </g>
        <g id="Grupo_16531" data-name="Grupo 16531" transform="translate(7.941 99.573)">
          <g id="Grupo_16530" data-name="Grupo 16530">
            <g id="Grupo_16529" data-name="Grupo 16529">
              <path id="Trazado_32905" data-name="Trazado 32905" d="M742.194,445.309l1.73,46.225,6.688,30.985,12.82-2.513-1.567-36.013,1.366-39.663-1.524-5.949-18.572,2.733Z" transform="translate(-742.194 -438.381)" fill="#292949"/>
            </g>
          </g>
        </g>
        <g id="Grupo_16534" data-name="Grupo 16534" transform="translate(26.066 94.351)">
          <g id="Grupo_16533" data-name="Grupo 16533">
            <g id="Grupo_16532" data-name="Grupo 16532">
              <path id="Trazado_32906" data-name="Trazado 32906" d="M794.584,476.4l5.074,32.657,11.15-2.116-3.6-31.128,2.839-40.051-2.8-10.728-18.728,3.793Z" transform="translate(-788.518 -425.034)" fill="#292949"/>
            </g>
          </g>
        </g>
        <g id="Grupo_16545" data-name="Grupo 16545" transform="translate(25.748)">
          <g id="Grupo_16537" data-name="Grupo 16537" transform="translate(6.533 8.085)">
            <g id="Grupo_16536" data-name="Grupo 16536">
              <g id="Grupo_16535" data-name="Grupo 16535">
                <path id="Trazado_32907" data-name="Trazado 32907" d="M822.364,213.355c-1.128-8.11-11.641-12.76-15.784-4.319a18.225,18.225,0,0,0-2.18,8.121,8.971,8.971,0,0,0,3.517,7.326l.04.025-.674,2.078a.661.661,0,0,0-.035.457.641.641,0,0,0,.42.292l2.432.83a2.746,2.746,0,0,0,1.242.219c.921-.126,1.472-1.122,1.676-2.044.048-.221.087-.445.124-.671C818.381,224.84,823.1,218.657,822.364,213.355Z" transform="translate(-804.4 -204.555)" fill="#eacdb0"/>
              </g>
            </g>
          </g>
          <g id="Grupo_16544" data-name="Grupo 16544">
            <g id="Grupo_16540" data-name="Grupo 16540" transform="translate(0 3.926)">
              <g id="Grupo_16539" data-name="Grupo 16539">
                <g id="Grupo_16538" data-name="Grupo 16538">
                  <path id="Trazado_32908" data-name="Trazado 32908" d="M796.251,205c-1.476,1.847-1.7,4.3-1.652,6.583.043,2.235-.457,4.355-.207,6.592-.274.312-.769.025-1.065-.264q-2.6-2.541-5.134-5.154a1.324,1.324,0,0,1-.421-1.513c1.176-6.057,4.1-10.233,8.1-14.643,1.942-2.141,6.692-4.2,8.876-1.1a4.689,4.689,0,0,1,.648,2.482,3.927,3.927,0,0,1-.136,1.54c-.7,1.946-2.558,1.61-4.1,2.075A10.244,10.244,0,0,0,796.251,205Z" transform="translate(-787.704 -193.927)" fill="#292949"/>
                </g>
              </g>
            </g>
            <g id="Grupo_16543" data-name="Grupo 16543" transform="translate(12.953)">
              <g id="Grupo_16542" data-name="Grupo 16542">
                <g id="Grupo_16541" data-name="Grupo 16541">
                  <path id="Trazado_32909" data-name="Trazado 32909" d="M829.848,204.59a19.06,19.06,0,0,1-1.589,5.311c-.252.554-1.517,1.763-1.6,2.149-.235,1.119,1.771,4.053,2.258,5.114l11.635-4.748a1.367,1.367,0,0,0,1.081-1.341c.894-5.73.032-11.081-1.537-16.55s-5.979-10.285-11.813-10.617c-4.715-.269-8.4,2.791-7.269,7.817.855,3.795,5.291,5.109,7.458,7.891A6.115,6.115,0,0,1,829.848,204.59Z" transform="translate(-820.81 -183.892)" fill="#292949"/>
                </g>
              </g>
            </g>
          </g>
        </g>
        <g id="Grupo_16548" data-name="Grupo 16548" transform="translate(0 30.11)">
          <g id="Grupo_16547" data-name="Grupo 16547">
            <g id="Grupo_16546" data-name="Grupo 16546">
              <path id="Trazado_32910" data-name="Trazado 32910" d="M767.545,263.071c.091.043.182.087.272.131,4.3,2.119,7.121,9.961,8.728,14.563,4.147,11.882,5.34,23.945,4.619,36.539-.388,6.781-1.081,13.542-1.912,20.282-.23,1.862-3.418,18.42-2.594,18.906-8.448-4.991-17.063-9.768-26.237-13.058s-18.851.211-28.523,1.382c4.8-20.942,10.794-47.391,18.669-67.3a53.627,53.627,0,0,1,2.937-7.166c1.472-2.554,3.39-3.158,5.865-4.505a15.156,15.156,0,0,1,2.616-1.215C756.8,260.108,763.008,260.922,767.545,263.071Z" transform="translate(-721.898 -260.849)" fill="#3b3387"/>
            </g>
          </g>
        </g>
      </g>
      <g id="Grupo_16559" data-name="Grupo 16559" transform="translate(432.676 114.014)">
        <g id="Grupo_16551" data-name="Grupo 16551" transform="translate(0)">
          <g id="Grupo_16550" data-name="Grupo 16550">
            <circle id="Elipse_951" data-name="Elipse 951" cx="31.927" cy="31.927" r="31.927" fill="#474ebb"/>
          </g>
        </g>
        <g id="Grupo_16558" data-name="Grupo 16558" transform="translate(6.238 15.261)">
          <g id="Grupo_16557" data-name="Grupo 16557">
            <g id="Grupo_16552" data-name="Grupo 16552" transform="translate(20.898 27.05)">
              <circle id="Elipse_952" data-name="Elipse 952" cx="4.202" cy="4.202" r="4.202" transform="matrix(0.131, -0.991, 0.991, 0.131, 0, 8.331)" fill="#fff"/>
            </g>
            <g id="Grupo_16556" data-name="Grupo 16556">
              <g id="Grupo_16553" data-name="Grupo 16553" transform="translate(13.407 18.237)">
                <path id="Trazado_32911" data-name="Trazado 32911" d="M910.562,215.209a14.032,14.032,0,0,0-12.265,7.078l3.9,3.69c.038-.07.074-.142.106-.217a8.919,8.919,0,0,1,16.429.07c.029.069.061.136.1.2l3.93-3.656A14.032,14.032,0,0,0,910.562,215.209Z" transform="translate(-898.297 -215.209)" fill="#fff"/>
              </g>
              <g id="Grupo_16554" data-name="Grupo 16554" transform="translate(6.578 8.993)">
                <path id="Trazado_32912" data-name="Trazado 32912" d="M899.978,191.584a23.227,23.227,0,0,0-19.133,9.859l3.781,3.579c.015-.022.03-.042.045-.064a18.162,18.162,0,0,1,30.309-.16,2.581,2.581,0,0,0,.252.314l3.783-3.519A23.286,23.286,0,0,0,899.978,191.584Z" transform="translate(-880.845 -191.583)" fill="#fff"/>
              </g>
              <g id="Grupo_16555" data-name="Grupo 16555">
                <path id="Trazado_32913" data-name="Trazado 32913" d="M889.782,168.6a32.445,32.445,0,0,0-25.75,12.627l3.753,3.551c.026-.032.052-.064.077-.1a27.156,27.156,0,0,1,43.7.187c.021.029.045.055.067.083l3.782-3.518A32.445,32.445,0,0,0,889.782,168.6Z" transform="translate(-864.032 -168.599)" fill="#fff"/>
              </g>
            </g>
          </g>
        </g>
      </g>
      <g id="Grupo_16570" data-name="Grupo 16570" transform="translate(351.646 165.608)">
        <g id="Grupo_16566" data-name="Grupo 16566" transform="translate(0 0)">
          <g id="Grupo_16560" data-name="Grupo 16560">
            <rect id="Rectángulo_3965" data-name="Rectángulo 3965" width="51.563" height="46.442" fill="#fff"/>
          </g>
          <g id="Grupo_16561" data-name="Grupo 16561" transform="translate(2.31 2.27)">
            <rect id="Rectángulo_3966" data-name="Rectángulo 3966" width="46.944" height="36.955" fill="#5d66d3"/>
          </g>
          <g id="Grupo_16565" data-name="Grupo 16565" transform="translate(2.31 11.375)">
            <g id="Grupo_16562" data-name="Grupo 16562" transform="translate(0 10.443)">
              <path id="Trazado_32914" data-name="Trazado 32914" d="M646.895,334.628l11.721-17.406L673.9,334.628Z" transform="translate(-646.895 -317.221)" fill="#fff"/>
            </g>
            <g id="Grupo_16563" data-name="Grupo 16563" transform="translate(19.943 4.168)">
              <path id="Trazado_32915" data-name="Trazado 32915" d="M697.865,324.865l13.5-23.681,13.5,23.681Z" transform="translate(-697.865 -301.184)" fill="#fff"/>
            </g>
            <g id="Grupo_16564" data-name="Grupo 16564" transform="translate(17.27)">
              <path id="Trazado_32916" data-name="Trazado 32916" d="M698.573,294.146a3.773,3.773,0,1,1-3.77-3.616A3.7,3.7,0,0,1,698.573,294.146Z" transform="translate(-691.034 -290.53)" fill="#fff"/>
            </g>
          </g>
        </g>
        <g id="Grupo_16569" data-name="Grupo 16569" transform="translate(31.796 44.215)">
          <g id="Grupo_16567" data-name="Grupo 16567" transform="translate(0 0.54)">
            <path id="Trazado_32917" data-name="Trazado 32917" d="M728.026,385.8a7.332,7.332,0,0,1-5.77-7.261c.019-1.066.471-2.387,1.533-2.651a2.594,2.594,0,0,1,1.31.115c2.527.685,11.167,2.2,11.467,5.275C736.915,384.857,730.384,386.274,728.026,385.8Z" transform="translate(-722.255 -375.842)" fill="#3b3387"/>
          </g>
          <g id="Grupo_16568" data-name="Grupo 16568" transform="translate(2.806)">
            <path id="Trazado_32918" data-name="Trazado 32918" d="M729.5,376.118c-.5,2.6,1.586,4.76,4.03,5.213a4.192,4.192,0,0,0,4.71-2.94,2.982,2.982,0,0,0-1.626-3.581c-2.1-1-3.2.348-4.705,1.606a3.54,3.54,0,0,1-.469-.858,1.464,1.464,0,0,0-.619-.737C729.935,374.39,729.619,375.51,729.5,376.118Z" transform="translate(-729.426 -374.463)" fill="#ebceb1"/>
          </g>
        </g>
      </g>
      <g id="Grupo_16574" data-name="Grupo 16574" transform="translate(429.245 169.862)">
        <g id="Grupo_16572" data-name="Grupo 16572" transform="translate(22.657 2.893)">
          <g id="Grupo_16571" data-name="Grupo 16571">
            <path id="Trazado_32919" data-name="Trazado 32919" d="M898.117,287.361c2.105,1.6,4.971.689,6.461-1.3a4.192,4.192,0,0,0-.548-5.527,2.981,2.981,0,0,0-3.931-.13c-1.828,1.443-1.105,3.02-.647,4.931a3.545,3.545,0,0,1-.977.04,1.461,1.461,0,0,0-.935.229C896.759,286.206,897.624,286.986,898.117,287.361Z" transform="translate(-897.227 -279.724)" fill="#ebceb1"/>
          </g>
        </g>
        <g id="Grupo_16573" data-name="Grupo 16573" transform="translate(0 0)">
          <path id="Trazado_32920" data-name="Trazado 32920" d="M869.679,282.624q.01-.186.02-.372c-2.223-.612-7.382-2.373-8.314.948-1.064,3.793-.615,8.728-.894,12.672l-.289,1.442a52.907,52.907,0,0,0-6.4-13.038,53.693,53.693,0,0,0-8.33-9.651c-2.866-2.612-6.795-3.985-6.058,1.448,1.938,14.3,8.163,27.513,18.923,37.2a2.968,2.968,0,0,0,1.108.723,3.06,3.06,0,0,0,1.923-.306c2.466-.973,5.161-2.156,6.252-4.573a10.262,10.262,0,0,0,.678-3.476C868.877,297.964,869.269,290.272,869.679,282.624Z" transform="translate(-839.32 -272.331)" fill="#3b3387"/>
        </g>
      </g>
    </g>
  </g>
</svg>
