<svg xmlns="http://www.w3.org/2000/svg" width="130.78" height="275.909" viewBox="0 0 130.78 275.909">
  <g id="Grupo_17575" data-name="Grupo 17575" transform="translate(-186.784 -130.61)">
    <g id="Mind_Map" data-name="Mind Map" transform="translate(204.667 130.61)">
      <g id="Grupo_17294" data-name="Grupo 17294">
        <circle id="Elipse_961" data-name="Elipse 961" cx="40.417" cy="40.417" r="40.417" fill="#e8505b"/>
        <g id="Grupo_17258" data-name="Grupo 17258" opacity="0.8">
          <circle id="Elipse_962" data-name="Elipse 962" cx="40.417" cy="40.417" r="40.417" fill="#fff"/>
        </g>
        <g id="Grupo_17293" data-name="Grupo 17293" transform="translate(22.623 18.841)">
          <g id="Grupo_17272" data-name="Grupo 17272">
            <g id="Grupo_17261" data-name="Grupo 17261">
              <g id="Grupo_17260" data-name="Grupo 17260">
                <g id="Grupo_17259" data-name="Grupo 17259">
                  <path id="Trazado_33184" data-name="Trazado 33184" d="M268.248,165.188a16.054,16.054,0,1,0-17.54,20.676l1.2,3.867,13.435-4.185s-.6-2.2-1.168-4.142A16.048,16.048,0,0,0,268.248,165.188Z" transform="translate(-236.861 -153.903)" fill="#e8505b"/>
                </g>
              </g>
            </g>
            <g id="Grupo_17265" data-name="Grupo 17265" transform="translate(9.339 15.81)">
              <g id="Grupo_17264" data-name="Grupo 17264">
                <g id="Grupo_17263" data-name="Grupo 17263">
                  <g id="Grupo_17262" data-name="Grupo 17262">
                    <path id="Trazado_33185" data-name="Trazado 33185" d="M262.675,190.731s-.018-.065-.044-.193l-.109-.573c-.092-.5-.229-1.247-.38-2.209s-.319-2.141-.428-3.521a23.8,23.8,0,0,1,.062-4.7,15.291,15.291,0,0,1,.546-2.686,2.957,2.957,0,0,1,.755-1.267,1.658,1.658,0,0,1,1.47-.406,1.093,1.093,0,0,1,.674.456,1.119,1.119,0,0,1,.181.806,2.282,2.282,0,0,1-.866,1.389,4.387,4.387,0,0,1-3.257.767,4.45,4.45,0,0,1-2.961-1.883,3.37,3.37,0,0,1-.641-1.74,1.444,1.444,0,0,1,1.061-1.5,1.039,1.039,0,0,1,.949.3,1.454,1.454,0,0,1,.417.906,3.141,3.141,0,0,1-.6,1.859,4.791,4.791,0,0,1-3.25,2.15A4.174,4.174,0,0,1,252.6,177.4a2.429,2.429,0,0,1-.682-1.824,1.23,1.23,0,0,1,.461-.887,1.2,1.2,0,0,1,.971-.207,1.6,1.6,0,0,1,.857.471,2.5,2.5,0,0,1,.509.811,4.629,4.629,0,0,1,.313,1.824,4.778,4.778,0,0,1-1.36,3.244,4.866,4.866,0,0,1-3.036,1.424,2.541,2.541,0,0,1-1.607-.3,1.242,1.242,0,0,1-.545-1.449,1.049,1.049,0,0,1,.584-.552,1.517,1.517,0,0,1,.775-.086,2.324,2.324,0,0,1,1.266.76c.645.712,1.205,1.423,1.758,2.1,2.188,2.708,3.851,4.983,4.983,6.565.565.792.995,1.413,1.285,1.835l.325.484c.073.109.105.168.105.168s-.044-.051-.121-.157l-.342-.472-1.314-1.814c-1.15-1.568-2.829-3.828-5.028-6.522-.553-.667-1.127-1.385-1.759-2.079a2.182,2.182,0,0,0-1.18-.709.962.962,0,0,0-.7,1.788,2.385,2.385,0,0,0,1.5.271,4.694,4.694,0,0,0,2.921-1.379,4.6,4.6,0,0,0,1.3-3.121,4.428,4.428,0,0,0-.3-1.747,1.743,1.743,0,0,0-1.224-1.163,1,1,0,0,0-.817.172,1.033,1.033,0,0,0-.385.751,2.234,2.234,0,0,0,.634,1.674,3.976,3.976,0,0,0,3.477,1.222,4.594,4.594,0,0,0,3.114-2.061,2.957,2.957,0,0,0,.573-1.734,1.26,1.26,0,0,0-.36-.785.839.839,0,0,0-.773-.247,1.126,1.126,0,0,0-.685.483,1.38,1.38,0,0,0-.223.823,3.176,3.176,0,0,0,.605,1.637,4.269,4.269,0,0,0,2.834,1.81,4.217,4.217,0,0,0,3.12-.723,2.119,2.119,0,0,0,.807-1.276.948.948,0,0,0-.726-1.081,1.5,1.5,0,0,0-1.325.363,2.81,2.81,0,0,0-.717,1.2,15.257,15.257,0,0,0-.552,2.655,23.95,23.95,0,0,0-.091,4.674c.1,1.376.256,2.556.394,3.518s.263,1.7.343,2.214c.039.247.069.438.091.575S262.675,190.731,262.675,190.731Z" transform="translate(-248.407 -173.449)" fill="#263238"/>
                  </g>
                </g>
              </g>
            </g>
            <g id="Grupo_17268" data-name="Grupo 17268" transform="translate(15.515 32.68)">
              <g id="Grupo_17267" data-name="Grupo 17267">
                <g id="Grupo_17266" data-name="Grupo 17266">
                  <path id="Trazado_33186" data-name="Trazado 33186" d="M268.753,196.077l-11.534,3.593a.908.908,0,0,1-1.136-.6h0a.906.906,0,0,1,.6-1.135l11.535-3.593a.906.906,0,0,1,1.135.6h0A.906.906,0,0,1,268.753,196.077Z" transform="translate(-256.042 -194.305)" fill="#263238"/>
                </g>
              </g>
            </g>
            <g id="Grupo_17271" data-name="Grupo 17271" transform="translate(16.29 35.167)">
              <g id="Grupo_17270" data-name="Grupo 17270">
                <g id="Grupo_17269" data-name="Grupo 17269">
                  <path id="Trazado_33187" data-name="Trazado 33187" d="M269.172,197.421l-11.535,3.593a.907.907,0,1,0,.54,1.731l1.266-.395,2.676,2.674a1.165,1.165,0,0,0,1.17.289l4.122-1.285a1.163,1.163,0,0,0,.8-.913l.64-3.695.861-.269a.907.907,0,1,0-.539-1.731Z" transform="translate(-257 -197.38)" fill="#263238"/>
                </g>
              </g>
            </g>
          </g>
          <g id="Grupo_17276" data-name="Grupo 17276" transform="translate(1.522 4.707)" opacity="0.2">
            <g id="Grupo_17275" data-name="Grupo 17275">
              <g id="Grupo_17274" data-name="Grupo 17274">
                <g id="Grupo_17273" data-name="Grupo 17273">
                  <path id="Trazado_33188" data-name="Trazado 33188" d="M240.39,164.375a11.805,11.805,0,0,1,2.434-3,8.5,8.5,0,0,1,2.149-1.422c.561-.241.908-.288.975-.175.153.258-.88,1.032-2.12,2.566a13.2,13.2,0,0,0-1.89,14.167c.8,1.8,1.589,2.823,1.373,3.032-.093.091-.417-.045-.9-.424a8.533,8.533,0,0,1-1.7-1.936,11.833,11.833,0,0,1-1.564-3.53,12.51,12.51,0,0,1-.307-4.766" transform="translate(-238.743 -159.723)" fill="#fff"/>
                </g>
              </g>
            </g>
          </g>
          <g id="Grupo_17280" data-name="Grupo 17280" transform="translate(10.393 2.243)" opacity="0.2">
            <g id="Grupo_17279" data-name="Grupo 17279">
              <g id="Grupo_17278" data-name="Grupo 17278">
                <g id="Grupo_17277" data-name="Grupo 17277">
                  <path id="Trazado_33189" data-name="Trazado 33189" d="M251.936,158.712c-.975.294-1.915.3-2.174-.188a.833.833,0,0,1,.258-.891,3.218,3.218,0,0,1,2.9-.887c.416.107.679.325.712.595" transform="translate(-249.71 -156.676)" fill="#fff"/>
                </g>
              </g>
            </g>
          </g>
          <g id="Grupo_17284" data-name="Grupo 17284" transform="translate(21.954 41.102)">
            <g id="Grupo_17283" data-name="Grupo 17283">
              <g id="Grupo_17282" data-name="Grupo 17282">
                <g id="Grupo_17281" data-name="Grupo 17281">
                  <path id="Trazado_33190" data-name="Trazado 33190" d="M269.42,204.859c0,.032-.336-.01-.869,0a6.723,6.723,0,0,0-3.861,1.327c-.428.317-.663.554-.687.531a2.453,2.453,0,0,1,.6-.641,5.873,5.873,0,0,1,3.948-1.356A2.456,2.456,0,0,1,269.42,204.859Z" transform="translate(-264.003 -204.717)" fill="#455a64"/>
                </g>
              </g>
            </g>
          </g>
          <g id="Grupo_17288" data-name="Grupo 17288" transform="translate(18.863 37.236)">
            <g id="Grupo_17287" data-name="Grupo 17287">
              <g id="Grupo_17286" data-name="Grupo 17286">
                <g id="Grupo_17285" data-name="Grupo 17285">
                  <path id="Trazado_33191" data-name="Trazado 33191" d="M269.5,199.941c.016.052-2.056.743-4.628,1.544s-4.67,1.409-4.687,1.357,2.055-.744,4.628-1.545S269.48,199.889,269.5,199.941Z" transform="translate(-260.181 -199.938)" fill="#455a64"/>
                </g>
              </g>
            </g>
          </g>
          <g id="Grupo_17292" data-name="Grupo 17292" transform="translate(20.137 38.829)">
            <g id="Grupo_17291" data-name="Grupo 17291">
              <g id="Grupo_17290" data-name="Grupo 17290">
                <g id="Grupo_17289" data-name="Grupo 17289">
                  <path id="Trazado_33192" data-name="Trazado 33192" d="M269.5,201.91a6.784,6.784,0,0,1-1.1.469c-.689.264-1.649.607-2.719.957s-2.048.641-2.76.836a6.785,6.785,0,0,1-1.165.271,7.617,7.617,0,0,1,1.124-.4l2.739-.89,2.735-.9A7.554,7.554,0,0,1,269.5,201.91Z" transform="translate(-261.757 -201.907)" fill="#455a64"/>
                </g>
              </g>
            </g>
          </g>
        </g>
      </g>
    </g>
    <g id="Character" transform="translate(186.784 195.37)">
      <g id="Grupo_17574" data-name="Grupo 17574">
        <g id="Grupo_17311" data-name="Grupo 17311" transform="translate(0 84.871)">
          <path id="Trazado_33193" data-name="Trazado 33193" d="M227.21,321.735l-1.131.381c-5.05,1.7-20.069,6.669-24.611,8.528,0,0,8.039,71.109,8.983,77.718s1.18,33.046,1.18,33.046h85.529s-.229-71.263.019-82.317c.32-14.3,2.092-28.446,2.092-28.446l-14.939-5.84L266.864,315.6Z" transform="translate(-189.59 -315.598)" fill="#e8505b"/>
          <g id="Grupo_17295" data-name="Grupo 17295" transform="translate(33.393 21.523)" opacity="0.3">
            <path id="Trazado_33194" data-name="Trazado 33194" d="M251.318,342.207q-10.472,38.895-22.067,77.476c-.911,3.031-1.816,6.36-.585,9.276a8.323,8.323,0,0,0,6.6,4.694,13.325,13.325,0,0,0,8.126-1.831c5.781-3.228,9.534-9.3,11.38-15.663s2.01-13.066,2.161-19.685q.605-26.478,1.211-52.956Z" transform="translate(-228.068 -342.207)"/>
          </g>
          <path id="Trazado_33195" data-name="Trazado 33195" d="M198.722,334.2s-12.544,5.559-11.566,27.853a274.311,274.311,0,0,0,2.965,29.041l35.274-10.158-8.97-38.711Z" transform="translate(-186.844 -319.153)" fill="#e8505b"/>
          <path id="Trazado_33196" data-name="Trazado 33196" d="M304.447,370.076l-1.888,25.729,35.461-11.484s-7.6-45.414-19.647-50.122l-12.982,22.187Z" transform="translate(-208.912 -319.153)" fill="#e8505b"/>
          <g id="Grupo_17296" data-name="Grupo 17296" transform="translate(99.547 43.492)">
            <path id="Trazado_33197" data-name="Trazado 33197" d="M309.872,369.367a2.51,2.51,0,0,1,.066.524c.028.387.063.886.108,1.5.074,1.361.178,3.24.3,5.54.231,4.679.482,11.145.711,18.288.229,7.121.436,13.565.587,18.293.071,2.3.129,4.183.171,5.543.012.62.021,1.12.028,1.509a2.51,2.51,0,0,1-.019.527,2.457,2.457,0,0,1-.066-.523c-.028-.388-.063-.887-.107-1.5-.075-1.36-.178-3.24-.3-5.539-.231-4.679-.482-11.146-.71-18.291l-.588-18.29c-.07-2.3-.129-4.183-.171-5.544-.011-.62-.021-1.12-.028-1.509A2.47,2.47,0,0,1,309.872,369.367Z" transform="translate(-309.853 -369.367)" fill="#263238"/>
          </g>
          <g id="Grupo_17297" data-name="Grupo 17297" transform="translate(13.505 16.5)">
            <path id="Trazado_33198" data-name="Trazado 33198" d="M219.4,352.159a4.03,4.03,0,0,1-.463-.818l-1.144-2.283a37.837,37.837,0,0,0-4.418-7.1,17.254,17.254,0,0,0-6.564-5,20.617,20.617,0,0,0-3.332-.937,3.351,3.351,0,0,1,.942.037,10.931,10.931,0,0,1,2.5.623,16.522,16.522,0,0,1,6.78,5.013,33.2,33.2,0,0,1,4.361,7.242c.453.982.8,1.785,1.025,2.344A4.06,4.06,0,0,1,219.4,352.159Z" transform="translate(-203.48 -335.997)" fill="#263238"/>
          </g>
          <g id="Grupo_17298" data-name="Grupo 17298" transform="translate(100.342 13.966)">
            <path id="Trazado_33199" data-name="Trazado 33199" d="M314.207,332.865a32.9,32.9,0,0,0-3.285,12.224,6.471,6.471,0,0,1-.07-1.884,21.608,21.608,0,0,1,2.35-8.745A6.412,6.412,0,0,1,314.207,332.865Z" transform="translate(-310.835 -332.864)" fill="#263238"/>
          </g>
          <g id="Grupo_17302" data-name="Grupo 17302" transform="translate(0 24.387)">
            <g id="Grupo_17299" data-name="Grupo 17299" transform="translate(2.119)">
              <path id="Trazado_33200" data-name="Trazado 33200" d="M212.124,346.405c0,.021-.128-.009-.349.037a1.359,1.359,0,0,0-.775.566,3.277,3.277,0,0,0-.54,1.468,6.427,6.427,0,0,1-.256,1,1.964,1.964,0,0,1-.719.966,2.376,2.376,0,0,1-2.622-.282,9.314,9.314,0,0,1-1.876-2.384,4.313,4.313,0,0,0-1.049-1.128,2.346,2.346,0,0,0-1.438-.491,1.541,1.541,0,0,0-1.234.8,4.053,4.053,0,0,0-.374,1.654c-.041.6-.049,1.2-.121,1.805a3.774,3.774,0,0,1-.571,1.739,2.452,2.452,0,0,1-.679.638,2.2,2.2,0,0,1-.87.276,3.192,3.192,0,0,1-1.675-.318,6.873,6.873,0,0,1-2.236-2.072,8.018,8.018,0,0,0-1.784-1.815,2.665,2.665,0,0,0-1.929-.506,2.043,2.043,0,0,0-1.25.839,1.449,1.449,0,0,0-.267.925c.015.228.075.341.052.349a.708.708,0,0,1-.136-.338,1.463,1.463,0,0,1,.213-1.025,2.19,2.19,0,0,1,1.339-.981,2.886,2.886,0,0,1,2.142.488,8.129,8.129,0,0,1,1.893,1.845,6.648,6.648,0,0,0,2.129,1.939,2.809,2.809,0,0,0,1.466.27,1.707,1.707,0,0,0,1.255-.752c.593-.883.521-2.131.61-3.337a4.4,4.4,0,0,1,.426-1.826,1.956,1.956,0,0,1,1.579-1.009,3.49,3.49,0,0,1,2.83,1.812,9.314,9.314,0,0,0,1.762,2.321,2.077,2.077,0,0,0,2.254.315,2.686,2.686,0,0,0,.908-1.767,3.339,3.339,0,0,1,.642-1.52,1.377,1.377,0,0,1,.89-.548A.653.653,0,0,1,212.124,346.405Z" transform="translate(-189.403 -345.747)" fill="#fafafa"/>
            </g>
            <g id="Grupo_17300" data-name="Grupo 17300" transform="translate(0 12.591)">
              <path id="Trazado_33201" data-name="Trazado 33201" d="M218.793,361.313a1.458,1.458,0,0,1,.016.464,2.91,2.91,0,0,1-.44,1.259,3.689,3.689,0,0,1-1.59,1.39,3.127,3.127,0,0,1-2.778-.04c-.949-.459-1.737-1.361-2.836-1.667a2.911,2.911,0,0,0-3.026,1.513c-.735,1.084-1.033,2.507-1.776,3.83a4.5,4.5,0,0,1-1.611,1.678,2.59,2.59,0,0,1-2.406.19,4.209,4.209,0,0,1-1.682-1.712c-.4-.66-.734-1.331-1.139-1.92a2.825,2.825,0,0,0-1.537-1.245,2.148,2.148,0,0,0-1.81.354,6.831,6.831,0,0,0-2.18,2.975,24.255,24.255,0,0,1-1.522,3A5.15,5.15,0,0,1,188.495,374a2.8,2.8,0,0,1-1.312-.23,1.707,1.707,0,0,1-.3-.164c-.066-.042-.1-.066-.094-.073a3.542,3.542,0,0,0,1.7.3,5.035,5.035,0,0,0,3.741-2.614,25.238,25.238,0,0,0,1.457-2.986,7.11,7.11,0,0,1,2.281-3.151,2.541,2.541,0,0,1,2.13-.421,3.223,3.223,0,0,1,1.772,1.4c.431.624.767,1.3,1.157,1.936a3.836,3.836,0,0,0,1.5,1.548,2.17,2.17,0,0,0,2.022-.17,4.1,4.1,0,0,0,1.463-1.521c.711-1.24,1.016-2.673,1.813-3.844a4.377,4.377,0,0,1,1.5-1.393,2.589,2.589,0,0,1,1.935-.239,4.881,4.881,0,0,1,1.575.853,11.005,11.005,0,0,0,1.309.887,2.878,2.878,0,0,0,2.546.089,3.582,3.582,0,0,0,1.548-1.263A3.529,3.529,0,0,0,218.793,361.313Z" transform="translate(-186.784 -361.313)" fill="#fafafa"/>
            </g>
            <g id="Grupo_17301" data-name="Grupo 17301" transform="translate(2.252 29.732)">
              <path id="Trazado_33202" data-name="Trazado 33202" d="M215.206,382.635c-.006.019-.1-.027-.3-.042a1.137,1.137,0,0,0-.78.248,2.364,2.364,0,0,0-.747,1.1,3.978,3.978,0,0,0-.078,1.812,4.591,4.591,0,0,1-.175,2.344,2.48,2.48,0,0,1-2.35,1.346A3.721,3.721,0,0,1,208,388.156a11.266,11.266,0,0,1-1.766-2.829l.147.111a2.372,2.372,0,0,0-2.2,1.091,5.63,5.63,0,0,0-.927,2.668,19.219,19.219,0,0,1-.394,2.188,4.709,4.709,0,0,1-1.053,1.949,2.63,2.63,0,0,1-1.968.9,3.085,3.085,0,0,1-1.9-.812,18.358,18.358,0,0,1-2.25-2.912,3.418,3.418,0,0,0-2.56-1.463,3.217,3.217,0,0,0-2.33.779,3.386,3.386,0,0,0-.988,1.62,4.247,4.247,0,0,0-.072,1.653c-.007,0-.023-.033-.046-.1a1.891,1.891,0,0,1-.08-.319,3.224,3.224,0,0,1,.039-1.269,3.488,3.488,0,0,1,.988-1.754,3.534,3.534,0,0,1,4.032-.486,4.416,4.416,0,0,1,1.289,1.124,18.878,18.878,0,0,0,2.229,2.835,2.7,2.7,0,0,0,1.661.707,2.228,2.228,0,0,0,1.658-.783,4.3,4.3,0,0,0,.951-1.778,19.355,19.355,0,0,0,.382-2.141,6,6,0,0,1,1.011-2.856,2.773,2.773,0,0,1,2.6-1.238l.1.019.044.092a11.088,11.088,0,0,0,1.68,2.745,3.369,3.369,0,0,0,2.5,1.2,2.16,2.16,0,0,0,2.071-1.127,4.428,4.428,0,0,0,.2-2.194,4.1,4.1,0,0,1,.146-1.9,2.452,2.452,0,0,1,.854-1.149,1.164,1.164,0,0,1,.87-.205A.676.676,0,0,1,215.206,382.635Z" transform="translate(-189.567 -382.504)" fill="#fafafa"/>
            </g>
          </g>
          <g id="Grupo_17303" data-name="Grupo 17303" transform="translate(100.697 50.818)">
            <path id="Trazado_33203" data-name="Trazado 33203" d="M336.662,378.434c0,.027-.15.021-.408.117a1.923,1.923,0,0,0-.911.734,4.992,4.992,0,0,0-.721,1.75,10.213,10.213,0,0,1-.686,2.5,2.6,2.6,0,0,1-1.028,1.181,1.871,1.871,0,0,1-1.712.051,3.407,3.407,0,0,1-1.306-1.258,11.352,11.352,0,0,1-.853-1.661,5.216,5.216,0,0,0-1.046-1.528,1.808,1.808,0,0,0-1.616-.627,1.562,1.562,0,0,0-1.1,1.357,11.693,11.693,0,0,0-.107,2.11,5.858,5.858,0,0,1-1.477,4.039,3.544,3.544,0,0,1-3.841.921,11.615,11.615,0,0,1-2.8-2.294,2.89,2.89,0,0,0-2.677-.929,3.388,3.388,0,0,0-1.928,1.454,6.307,6.307,0,0,0-.755,1.746c-.275,1.022-.37,1.609-.408,1.6a1.668,1.668,0,0,1,.032-.43c.037-.278.1-.69.217-1.213a6.177,6.177,0,0,1,.716-1.832,3.607,3.607,0,0,1,2.052-1.616,2.6,2.6,0,0,1,1.564.066,4.4,4.4,0,0,1,1.419.889,11.709,11.709,0,0,0,2.72,2.2,3.157,3.157,0,0,0,3.4-.853,5.481,5.481,0,0,0,1.348-3.757,11.868,11.868,0,0,1,.117-2.185,2.593,2.593,0,0,1,.445-1.049,1.751,1.751,0,0,1,.971-.625,2.2,2.2,0,0,1,1.994.741,5.561,5.561,0,0,1,1.118,1.656,11.154,11.154,0,0,0,.811,1.619,3.08,3.08,0,0,0,1.145,1.145,1.539,1.539,0,0,0,1.407-.022,2.3,2.3,0,0,0,.916-1.029,10.386,10.386,0,0,0,.724-2.427,4.959,4.959,0,0,1,.819-1.79,1.907,1.907,0,0,1,1.017-.717A.96.96,0,0,1,336.662,378.434Z" transform="translate(-311.275 -378.424)" fill="#fafafa"/>
          </g>
          <g id="Grupo_17304" data-name="Grupo 17304" transform="translate(99.244 31.821)">
            <path id="Trazado_33204" data-name="Trazado 33204" d="M332.111,354.939c.012.008-.039.11-.148.3s-.277.459-.513.8a8.006,8.006,0,0,1-.967,1.162,4.255,4.255,0,0,1-1.722,1.06,3.006,3.006,0,0,1-2.452-.217c-.811-.5-1.2-1.446-1.926-1.952a1.246,1.246,0,0,0-1.224-.125,2.139,2.139,0,0,0-.942,1.018,3.845,3.845,0,0,0-.386,1.463c-.025.53,0,1.086-.026,1.654a4.768,4.768,0,0,1-.319,1.7,2.4,2.4,0,0,1-1.177,1.252,3.815,3.815,0,0,1-3.114-.18,13.911,13.911,0,0,1-2.327-1.534,6.866,6.866,0,0,0-2.046-1.119,2.728,2.728,0,0,0-1.848.093,2.474,2.474,0,0,0-1.124.858,1.867,1.867,0,0,0-.276,1.175.768.768,0,0,1-.087-.324,1.539,1.539,0,0,1,.225-.94,2.581,2.581,0,0,1,1.17-.987,2.951,2.951,0,0,1,2.021-.163,7.029,7.029,0,0,1,2.169,1.122,14.094,14.094,0,0,0,2.281,1.463,3.455,3.455,0,0,0,2.778.164,2,2,0,0,0,.971-1.047,4.4,4.4,0,0,0,.283-1.546c.021-.55,0-1.1.027-1.66a4.238,4.238,0,0,1,.436-1.627,2.521,2.521,0,0,1,1.145-1.2,1.643,1.643,0,0,1,1.606.171c.857.64,1.2,1.557,1.9,1.978a2.717,2.717,0,0,0,2.182.227,4.1,4.1,0,0,0,1.646-.947,8.831,8.831,0,0,0,1-1.088A10.206,10.206,0,0,1,332.111,354.939Z" transform="translate(-309.478 -354.938)" fill="#fafafa"/>
          </g>
          <g id="Grupo_17310" data-name="Grupo 17310" transform="translate(21.434 9.082)">
            <g id="Grupo_17305" data-name="Grupo 17305" transform="translate(34.54 67.423)">
              <path id="Trazado_33205" data-name="Trazado 33205" d="M301.214,412.041a1.2,1.2,0,0,1-.417.476,2.291,2.291,0,0,1-1.775.288,4.462,4.462,0,0,1-1.252-.427,12.646,12.646,0,0,1-1.307-.85,7.6,7.6,0,0,0-1.513-.866,2.551,2.551,0,0,0-1.844-.048,3.262,3.262,0,0,0-1.508,1.4,17.394,17.394,0,0,0-1.052,2.1,11.635,11.635,0,0,1-1.231,2.271,3.491,3.491,0,0,1-1.045.927,2.015,2.015,0,0,1-.681.256c-.121.024-.24.058-.362.073l-.372,0a2.555,2.555,0,0,1-1.4-.493,5.1,5.1,0,0,1-1.072-1.03c-.62-.769-1.129-1.621-1.737-2.4a4.529,4.529,0,0,0-2.277-1.756,3.674,3.674,0,0,0-2.842.591,6.726,6.726,0,0,0-2.093,2.2c-.551.862-1,1.78-1.515,2.656a9.042,9.042,0,0,1-1.858,2.371,4.879,4.879,0,0,1-2.629,1.255,3.652,3.652,0,0,1-2.656-.8,8.967,8.967,0,0,1-1.718-1.939,11.8,11.8,0,0,0-2.917-3.4,3.308,3.308,0,0,0-1.8-.547,4.224,4.224,0,0,0-1.668.383,4.609,4.609,0,0,0-2.059,1.81,3.724,3.724,0,0,0-.536,1.665,5.845,5.845,0,0,1-.006.624.5.5,0,0,1-.034-.156,3.221,3.221,0,0,1-.044-.471,3.616,3.616,0,0,1,.48-1.745,4.715,4.715,0,0,1,2.1-1.943,4.434,4.434,0,0,1,1.764-.436,3.574,3.574,0,0,1,1.965.562,11.9,11.9,0,0,1,3.044,3.447A8.689,8.689,0,0,0,267,419.952a3.278,3.278,0,0,0,2.388.7,4.5,4.5,0,0,0,2.406-1.172,8.651,8.651,0,0,0,1.767-2.275c.5-.86.952-1.784,1.519-2.674A7.12,7.12,0,0,1,277.3,412.2a4.087,4.087,0,0,1,3.172-.641,4.921,4.921,0,0,1,2.5,1.909c.625.81,1.131,1.661,1.724,2.4a3.1,3.1,0,0,0,2.182,1.388,2.536,2.536,0,0,0,2.147-1.092,11.4,11.4,0,0,0,1.206-2.189,17.444,17.444,0,0,1,1.1-2.134,3.543,3.543,0,0,1,1.676-1.5,2.826,2.826,0,0,1,2.048.077,7.666,7.666,0,0,1,1.55.923,13.148,13.148,0,0,0,1.266.865,4.362,4.362,0,0,0,1.189.444,2.259,2.259,0,0,0,1.7-.2A3.483,3.483,0,0,0,301.214,412.041Z" transform="translate(-255.984 -410.18)" fill="#fafafa"/>
            </g>
            <g id="Grupo_17306" data-name="Grupo 17306" transform="translate(36.781 40.863)">
              <path id="Trazado_33206" data-name="Trazado 33206" d="M300.2,378.849c.006,0-.015.047-.065.13a.853.853,0,0,1-.328.28,1.868,1.868,0,0,1-1.61-.145c-.669-.311-1.194-1.072-2.084-1.429a1.315,1.315,0,0,0-1.362.237,3.384,3.384,0,0,0-.747,1.519,10.1,10.1,0,0,1-.658,1.886,2.606,2.606,0,0,1-.7.859,2.241,2.241,0,0,1-1.084.423,5.1,5.1,0,0,1-4.158-2.176,12.522,12.522,0,0,0-1.783-1.755,3.652,3.652,0,0,0-2.352-.755,6.443,6.443,0,0,0-4.518,2.659c-1.153,1.492-1.928,3.209-2.948,4.725a7.874,7.874,0,0,1-4.025,3.345,4.526,4.526,0,0,1-2.491.153,4.186,4.186,0,0,1-2.013-1.217c-1.044-1.08-1.729-2.318-2.769-2.958a2.7,2.7,0,0,0-1.618-.416,2.858,2.858,0,0,0-1.415.527,6.449,6.449,0,0,0-1.675,1.851c-.737,1.184-1,1.923-1.043,1.9a2.585,2.585,0,0,1,.184-.535,11.172,11.172,0,0,1,.719-1.455,6.409,6.409,0,0,1,1.68-1.957,3.083,3.083,0,0,1,1.528-.6,2.973,2.973,0,0,1,1.795.428c1.141.688,1.848,1.95,2.861,2.966a3.835,3.835,0,0,0,1.852,1.1,4.165,4.165,0,0,0,2.283-.161,7.5,7.5,0,0,0,3.8-3.206c.992-1.481,1.765-3.207,2.959-4.755a6.818,6.818,0,0,1,4.837-2.812,4.054,4.054,0,0,1,2.6.843,12.711,12.711,0,0,1,1.833,1.82,6.928,6.928,0,0,0,1.759,1.561,3.574,3.574,0,0,0,2.072.527,1.931,1.931,0,0,0,1.54-1.09,10.107,10.107,0,0,0,.659-1.818,3.59,3.59,0,0,1,.853-1.632,1.564,1.564,0,0,1,1.625-.258c.971.425,1.466,1.206,2.076,1.5a1.818,1.818,0,0,0,1.5.214A1.3,1.3,0,0,0,300.2,378.849Z" transform="translate(-258.755 -377.344)" fill="#fafafa"/>
            </g>
            <g id="Grupo_17307" data-name="Grupo 17307" transform="translate(39.838 13.859)">
              <path id="Trazado_33207" data-name="Trazado 33207" d="M301.342,344.554c-.016.017-.127-.127-.413-.278a1.912,1.912,0,0,0-1.369-.1,2.67,2.67,0,0,0-1.669,1.361,14.493,14.493,0,0,0-1,2.836,6.277,6.277,0,0,1-.773,1.635,3.027,3.027,0,0,1-1.593,1.194,3.769,3.769,0,0,1-2.125-.059,7.685,7.685,0,0,1-2.008-.958c-1.249-.81-2.458-1.9-4-2.169a3.688,3.688,0,0,0-2.272.37,6.722,6.722,0,0,0-1.919,1.529c-1.15,1.236-1.924,2.752-3.009,4a8.125,8.125,0,0,1-1.807,1.637,4.457,4.457,0,0,1-2.249.726,6.293,6.293,0,0,1-3.944-1.636c-1.046-.84-1.915-1.71-2.84-2.33a4.964,4.964,0,0,0-2.74-1,3.544,3.544,0,0,0-2.089.671,2.332,2.332,0,0,0-.844,1.106c-.111.306-.108.486-.135.483a1.247,1.247,0,0,1,.054-.509,2.314,2.314,0,0,1,.823-1.209,3.66,3.66,0,0,1,2.186-.776,5.152,5.152,0,0,1,2.909.987c.963.623,1.861,1.5,2.889,2.3a5.985,5.985,0,0,0,3.717,1.522,5.361,5.361,0,0,0,3.755-2.241c1.043-1.2,1.815-2.727,3.013-4.02a7.1,7.1,0,0,1,2.044-1.619,4.1,4.1,0,0,1,2.525-.4c1.708.319,2.928,1.46,4.145,2.252a4.915,4.915,0,0,0,3.82,1.007,2.7,2.7,0,0,0,1.427-1.048,6.036,6.036,0,0,0,.755-1.541,14,14,0,0,1,1.085-2.86,3.284,3.284,0,0,1,.848-.961,2.746,2.746,0,0,1,.984-.44,1.938,1.938,0,0,1,1.449.184A1.038,1.038,0,0,1,301.342,344.554Z" transform="translate(-262.534 -343.959)" fill="#fafafa"/>
            </g>
            <g id="Grupo_17308" data-name="Grupo 17308" transform="translate(54.471)">
              <path id="Trazado_33208" data-name="Trazado 33208" d="M300.645,328.152a.781.781,0,0,1-.048.3,4.707,4.707,0,0,1-.29.83,2.767,2.767,0,0,1-.855,1.124,1.476,1.476,0,0,1-1.843-.12,8.583,8.583,0,0,1-1.246-1.862,2.663,2.663,0,0,0-.771-.845,2.293,2.293,0,0,0-1.135-.359,3.281,3.281,0,0,0-2.406.9,7.9,7.9,0,0,0-1.675,2.38,6.089,6.089,0,0,1-.849,1.327,1.783,1.783,0,0,1-1.469.658,2.013,2.013,0,0,1-1.341-.776,3.881,3.881,0,0,1-.666-1.269,5.1,5.1,0,0,0-1.037-2.188,1.662,1.662,0,0,0-.906-.475,1.1,1.1,0,0,0-.862.264,3.674,3.674,0,0,0-.843,1.511,3.482,3.482,0,0,1-.695,1.22,1.38,1.38,0,0,1-.773.447.534.534,0,0,1-.311-.022,1.4,1.4,0,0,0,.961-.533,3.5,3.5,0,0,0,.6-1.189,3.77,3.77,0,0,1,.87-1.657,1.4,1.4,0,0,1,1.1-.362,1.978,1.978,0,0,1,1.108.543,5.305,5.305,0,0,1,1.163,2.313,3.535,3.535,0,0,0,.608,1.14,1.623,1.623,0,0,0,1.065.624,1.371,1.371,0,0,0,1.127-.529,5.733,5.733,0,0,0,.784-1.238,8.188,8.188,0,0,1,1.777-2.5,3.661,3.661,0,0,1,2.706-.98,2.658,2.658,0,0,1,1.315.438,2.987,2.987,0,0,1,.861.968,8.914,8.914,0,0,0,1.149,1.826,1.219,1.219,0,0,0,1.513.146,2.731,2.731,0,0,0,.84-1C300.5,328.552,300.607,328.14,300.645,328.152Z" transform="translate(-280.624 -326.825)" fill="#fafafa"/>
            </g>
            <g id="Grupo_17309" data-name="Grupo 17309" transform="translate(0 1.391)">
              <path id="Trazado_33209" data-name="Trazado 33209" d="M235.031,328.545a1.319,1.319,0,0,1,.078.383,10.607,10.607,0,0,1,.1,1.115,5.222,5.222,0,0,1-.21,1.775,2.963,2.963,0,0,1-1.536,1.809,2.108,2.108,0,0,1-1.423.181,2.257,2.257,0,0,1-1.259-.908c-.321-.424-.556-.9-.845-1.344a2.133,2.133,0,0,0-3.9.2,4.37,4.37,0,0,0-.5,1.725,12.9,12.9,0,0,0,.034,1.92,6.069,6.069,0,0,1-.144,2.009,2.8,2.8,0,0,1-1.14,1.649,2.216,2.216,0,0,1-1.937.156,4.249,4.249,0,0,1-1.527-1.007c-.825-.86-1.333-1.831-2.044-2.519a3.108,3.108,0,0,0-2.419-.982,3.031,3.031,0,0,0-2.007.861,3.21,3.21,0,0,0-.833,1.468,4.386,4.386,0,0,0-.078,1.469,1.022,1.022,0,0,1-.11-.378,3,3,0,0,1,.029-1.129,3.292,3.292,0,0,1,.823-1.594,3.254,3.254,0,0,1,2.159-.993,3.41,3.41,0,0,1,2.68,1.028c.765.725,1.3,1.712,2.073,2.494a3.877,3.877,0,0,0,1.387.9,1.808,1.808,0,0,0,1.586-.126,2.4,2.4,0,0,0,.955-1.414,5.719,5.719,0,0,0,.126-1.872,6.6,6.6,0,0,1,.531-3.871,2.775,2.775,0,0,1,3.278-1.391,2.747,2.747,0,0,1,1.3,1.191c.3.469.524.942.814,1.335a1.941,1.941,0,0,0,1.059.8,1.815,1.815,0,0,0,1.217-.137,2.729,2.729,0,0,0,1.439-1.615,5.353,5.353,0,0,0,.27-1.7C235.05,329.085,234.993,328.547,235.031,328.545Z" transform="translate(-213.282 -328.545)" fill="#fafafa"/>
            </g>
          </g>
        </g>
        <g id="Grupo_17525" data-name="Grupo 17525" transform="translate(24.931)">
          <g id="Grupo_17523" data-name="Grupo 17523">
            <g id="Grupo_17470" data-name="Grupo 17470">
              <g id="Grupo_17314" data-name="Grupo 17314">
                <g id="Grupo_17313" data-name="Grupo 17313">
                  <g id="Grupo_17312" data-name="Grupo 17312">
                    <path id="Trazado_33210" data-name="Trazado 33210" d="M279.186,212.88c-5.477-1.18-10.636,4.069-16.2,3.46-3.382-.37-6.119-2.816-9.218-4.218-4.635-2.1-10.927-1.966-15.253.711s-7.031,5.375-7.222,10.459c-4.314-2.013-10.739,3.747-12.654,8.941s-.891,10.311.89,15.553a73.055,73.055,0,0,0,14.209,24.606c.556.634,1.417,1.316,2.148.894a1.843,1.843,0,0,0,.666-1.543c.372-4.963-.672-9.908-1.513-14.814s-1.482-9.982-.32-14.823,4.482-9.446,9.266-10.819c3.534-1.014,7.366-.16,10.713,1.362s6.357,3.685,9.572,5.469,6.776,3.215,10.45,3.065,7.453-2.209,8.733-5.656-.87-8.009-4.518-8.466a7.227,7.227,0,0,0,.256-14.18Z" transform="translate(-217.605 -210.673)" fill="#263238"/>
                  </g>
                </g>
              </g>
              <g id="Grupo_17441" data-name="Grupo 17441" transform="translate(8.979 6.898)">
                <g id="Grupo_17440" data-name="Grupo 17440">
                  <g id="Grupo_17439" data-name="Grupo 17439">
                    <g id="Grupo_17339" data-name="Grupo 17339">
                      <g id="Grupo_17338" data-name="Grupo 17338">
                        <g id="Grupo_17337" data-name="Grupo 17337">
                          <g id="Grupo_17325" data-name="Grupo 17325">
                            <g id="Grupo_17324" data-name="Grupo 17324">
                              <g id="Grupo_17323" data-name="Grupo 17323">
                                <g id="Grupo_17322" data-name="Grupo 17322">
                                  <g id="Grupo_17321" data-name="Grupo 17321">
                                    <g id="Grupo_17320" data-name="Grupo 17320">
                                      <g id="Grupo_17319" data-name="Grupo 17319">
                                        <g id="Grupo_17318" data-name="Grupo 17318">
                                          <g id="Grupo_17317" data-name="Grupo 17317">
                                            <g id="Grupo_17316" data-name="Grupo 17316">
                                              <g id="Grupo_17315" data-name="Grupo 17315">
                                                <path id="Trazado_33211" data-name="Trazado 33211" d="M272.11,301.758,270.7,291.2s13.74-3.858,12.232-17.878c-.728-6.77-3.362-20.587-5.891-33.066a26.274,26.274,0,0,0-28.883-20.87l-1.351.162c-14.463,2.6-20.334,16.335-17.335,30.719l8.151,56.295a17.412,17.412,0,0,0,19.618,14.753h0A17.413,17.413,0,0,0,272.11,301.758Z" transform="translate(-228.706 -219.201)" fill="#ffbe9d"/>
                                              </g>
                                            </g>
                                          </g>
                                        </g>
                                      </g>
                                    </g>
                                  </g>
                                </g>
                              </g>
                            </g>
                          </g>
                          <g id="Grupo_17336" data-name="Grupo 17336" transform="translate(23.132 68.998)">
                            <g id="Grupo_17335" data-name="Grupo 17335">
                              <g id="Grupo_17334" data-name="Grupo 17334">
                                <g id="Grupo_17333" data-name="Grupo 17333">
                                  <g id="Grupo_17332" data-name="Grupo 17332">
                                    <g id="Grupo_17331" data-name="Grupo 17331">
                                      <g id="Grupo_17330" data-name="Grupo 17330">
                                        <g id="Grupo_17329" data-name="Grupo 17329">
                                          <g id="Grupo_17328" data-name="Grupo 17328">
                                            <g id="Grupo_17327" data-name="Grupo 17327">
                                              <g id="Grupo_17326" data-name="Grupo 17326">
                                                <path id="Trazado_33212" data-name="Trazado 33212" d="M276.177,307.5a32.789,32.789,0,0,1-18.873-3s5.524,9.556,19.342,6.618Z" transform="translate(-257.304 -304.502)" fill="#eb996e"/>
                                              </g>
                                            </g>
                                          </g>
                                        </g>
                                      </g>
                                    </g>
                                  </g>
                                </g>
                              </g>
                            </g>
                          </g>
                        </g>
                      </g>
                    </g>
                    <g id="Grupo_17438" data-name="Grupo 17438" transform="translate(14.703 19.855)">
                      <g id="Grupo_17437" data-name="Grupo 17437">
                        <g id="Grupo_17414" data-name="Grupo 17414" transform="translate(2.873 7.668)">
                          <g id="Grupo_17413" data-name="Grupo 17413">
                            <g id="Grupo_17412" data-name="Grupo 17412">
                              <g id="Grupo_17363" data-name="Grupo 17363" transform="translate(20.651)">
                                <g id="Grupo_17350" data-name="Grupo 17350" transform="translate(1.813 0.374)">
                                  <g id="Grupo_17349" data-name="Grupo 17349">
                                    <g id="Grupo_17348" data-name="Grupo 17348">
                                      <g id="Grupo_17347" data-name="Grupo 17347">
                                        <g id="Grupo_17346" data-name="Grupo 17346">
                                          <g id="Grupo_17345" data-name="Grupo 17345">
                                            <g id="Grupo_17344" data-name="Grupo 17344">
                                              <g id="Grupo_17343" data-name="Grupo 17343">
                                                <g id="Grupo_17342" data-name="Grupo 17342">
                                                  <g id="Grupo_17341" data-name="Grupo 17341">
                                                    <g id="Grupo_17340" data-name="Grupo 17340">
                                                      <path id="Trazado_33213" data-name="Trazado 33213" d="M282.193,255.354a2.053,2.053,0,0,1-1.673,2.327,1.963,1.963,0,0,1-2.29-1.632,2.053,2.053,0,0,1,1.67-2.328A1.966,1.966,0,0,1,282.193,255.354Z" transform="translate(-278.206 -253.69)" fill="#263238"/>
                                                    </g>
                                                  </g>
                                                </g>
                                              </g>
                                            </g>
                                          </g>
                                        </g>
                                      </g>
                                    </g>
                                  </g>
                                </g>
                                <g id="Grupo_17362" data-name="Grupo 17362">
                                  <g id="Grupo_17361" data-name="Grupo 17361">
                                    <g id="Grupo_17360" data-name="Grupo 17360">
                                      <g id="Grupo_17359" data-name="Grupo 17359">
                                        <g id="Grupo_17358" data-name="Grupo 17358">
                                          <g id="Grupo_17357" data-name="Grupo 17357">
                                            <g id="Grupo_17356" data-name="Grupo 17356">
                                              <g id="Grupo_17355" data-name="Grupo 17355">
                                                <g id="Grupo_17354" data-name="Grupo 17354">
                                                  <g id="Grupo_17353" data-name="Grupo 17353">
                                                    <g id="Grupo_17352" data-name="Grupo 17352">
                                                      <g id="Grupo_17351" data-name="Grupo 17351">
                                                        <path id="Trazado_33214" data-name="Trazado 33214" d="M283.881,254.9c-.217.29-1.865-.649-4.017-.384-2.152.232-3.6,1.529-3.862,1.293-.129-.1.067-.6.694-1.187a5.525,5.525,0,0,1,3.054-1.358,5.3,5.3,0,0,1,3.235.632C283.708,254.324,283.989,254.768,283.881,254.9Z" transform="translate(-275.965 -253.228)" fill="#263238"/>
                                                      </g>
                                                    </g>
                                                  </g>
                                                </g>
                                              </g>
                                            </g>
                                          </g>
                                        </g>
                                      </g>
                                    </g>
                                  </g>
                                </g>
                              </g>
                              <g id="Grupo_17387" data-name="Grupo 17387" transform="translate(0 1.678)">
                                <g id="Grupo_17374" data-name="Grupo 17374" transform="translate(1.983 0.379)">
                                  <g id="Grupo_17373" data-name="Grupo 17373">
                                    <g id="Grupo_17372" data-name="Grupo 17372">
                                      <g id="Grupo_17371" data-name="Grupo 17371">
                                        <g id="Grupo_17370" data-name="Grupo 17370">
                                          <g id="Grupo_17369" data-name="Grupo 17369">
                                            <g id="Grupo_17368" data-name="Grupo 17368">
                                              <g id="Grupo_17367" data-name="Grupo 17367">
                                                <g id="Grupo_17366" data-name="Grupo 17366">
                                                  <g id="Grupo_17365" data-name="Grupo 17365">
                                                    <g id="Grupo_17364" data-name="Grupo 17364">
                                                      <path id="Trazado_33215" data-name="Trazado 33215" d="M256.874,257.474a2.074,2.074,0,0,1-1.666,2.368,1.983,1.983,0,0,1-2.3-1.672,2.074,2.074,0,0,1,1.664-2.368A1.984,1.984,0,0,1,256.874,257.474Z" transform="translate(-252.886 -255.771)" fill="#263238"/>
                                                    </g>
                                                  </g>
                                                </g>
                                              </g>
                                            </g>
                                          </g>
                                        </g>
                                      </g>
                                    </g>
                                  </g>
                                </g>
                                <g id="Grupo_17386" data-name="Grupo 17386">
                                  <g id="Grupo_17385" data-name="Grupo 17385">
                                    <g id="Grupo_17384" data-name="Grupo 17384">
                                      <g id="Grupo_17383" data-name="Grupo 17383">
                                        <g id="Grupo_17382" data-name="Grupo 17382">
                                          <g id="Grupo_17381" data-name="Grupo 17381">
                                            <g id="Grupo_17380" data-name="Grupo 17380">
                                              <g id="Grupo_17379" data-name="Grupo 17379">
                                                <g id="Grupo_17378" data-name="Grupo 17378">
                                                  <g id="Grupo_17377" data-name="Grupo 17377">
                                                    <g id="Grupo_17376" data-name="Grupo 17376">
                                                      <g id="Grupo_17375" data-name="Grupo 17375">
                                                        <path id="Trazado_33216" data-name="Trazado 33216" d="M258.352,256.974c-.218.29-1.868-.648-4.018-.384-2.151.233-3.6,1.53-3.862,1.294-.129-.1.065-.6.695-1.187a5.519,5.519,0,0,1,3.053-1.359,5.313,5.313,0,0,1,3.236.632C258.177,256.4,258.459,256.843,258.352,256.974Z" transform="translate(-250.434 -255.303)" fill="#263238"/>
                                                      </g>
                                                    </g>
                                                  </g>
                                                </g>
                                              </g>
                                            </g>
                                          </g>
                                        </g>
                                      </g>
                                    </g>
                                  </g>
                                </g>
                              </g>
                              <g id="Grupo_17399" data-name="Grupo 17399" transform="translate(14.04 0.889)">
                                <g id="Grupo_17398" data-name="Grupo 17398">
                                  <g id="Grupo_17397" data-name="Grupo 17397">
                                    <g id="Grupo_17396" data-name="Grupo 17396">
                                      <g id="Grupo_17395" data-name="Grupo 17395">
                                        <g id="Grupo_17394" data-name="Grupo 17394">
                                          <g id="Grupo_17393" data-name="Grupo 17393">
                                            <g id="Grupo_17392" data-name="Grupo 17392">
                                              <g id="Grupo_17391" data-name="Grupo 17391">
                                                <g id="Grupo_17390" data-name="Grupo 17390">
                                                  <g id="Grupo_17389" data-name="Grupo 17389">
                                                    <g id="Grupo_17388" data-name="Grupo 17388">
                                                      <path id="Trazado_33217" data-name="Trazado 33217" d="M270.945,272.135a14.31,14.31,0,0,1,3.417-1.05c.543-.123,1.05-.294,1.1-.68a2.813,2.813,0,0,0-.562-1.585q-1.014-1.9-2.127-3.988c-2.971-5.685-5.192-10.385-4.962-10.5s2.825,4.395,5.8,10.079q1.079,2.105,2.061,4.021a3.2,3.2,0,0,1,.544,2.122,1.386,1.386,0,0,1-.807.912,3.734,3.734,0,0,1-.917.242A14.087,14.087,0,0,1,270.945,272.135Z" transform="translate(-267.792 -254.327)" fill="#263238"/>
                                                    </g>
                                                  </g>
                                                </g>
                                              </g>
                                            </g>
                                          </g>
                                        </g>
                                      </g>
                                    </g>
                                  </g>
                                </g>
                              </g>
                              <g id="Grupo_17411" data-name="Grupo 17411" transform="translate(10.804 20.944)">
                                <g id="Grupo_17410" data-name="Grupo 17410">
                                  <g id="Grupo_17409" data-name="Grupo 17409">
                                    <g id="Grupo_17408" data-name="Grupo 17408">
                                      <g id="Grupo_17407" data-name="Grupo 17407">
                                        <g id="Grupo_17406" data-name="Grupo 17406">
                                          <g id="Grupo_17405" data-name="Grupo 17405">
                                            <g id="Grupo_17404" data-name="Grupo 17404">
                                              <g id="Grupo_17403" data-name="Grupo 17403">
                                                <g id="Grupo_17402" data-name="Grupo 17402">
                                                  <g id="Grupo_17401" data-name="Grupo 17401">
                                                    <g id="Grupo_17400" data-name="Grupo 17400">
                                                      <path id="Trazado_33218" data-name="Trazado 33218" d="M264.027,279.122c.348-.062.632,2.273,2.83,3.69s4.653.862,4.71,1.187c.05.142-.5.52-1.547.675a5.854,5.854,0,0,1-3.916-.858,5.1,5.1,0,0,1-2.223-3.112C263.675,279.737,263.866,279.127,264.027,279.122Z" transform="translate(-263.791 -279.12)" fill="#263238"/>
                                                    </g>
                                                  </g>
                                                </g>
                                              </g>
                                            </g>
                                          </g>
                                        </g>
                                      </g>
                                    </g>
                                  </g>
                                </g>
                              </g>
                            </g>
                          </g>
                        </g>
                        <g id="Grupo_17425" data-name="Grupo 17425">
                          <g id="Grupo_17424" data-name="Grupo 17424">
                            <g id="Grupo_17423" data-name="Grupo 17423">
                              <g id="Grupo_17422" data-name="Grupo 17422">
                                <g id="Grupo_17421" data-name="Grupo 17421">
                                  <g id="Grupo_17420" data-name="Grupo 17420">
                                    <g id="Grupo_17419" data-name="Grupo 17419">
                                      <g id="Grupo_17418" data-name="Grupo 17418">
                                        <g id="Grupo_17417" data-name="Grupo 17417">
                                          <g id="Grupo_17416" data-name="Grupo 17416">
                                            <g id="Grupo_17415" data-name="Grupo 17415">
                                              <path id="Trazado_33219" data-name="Trazado 33219" d="M256.589,244.926c-.142.61-2.323.591-4.81,1.2-2.5.557-4.446,1.541-4.844,1.056-.18-.233.109-.826.865-1.491a8.619,8.619,0,0,1,7.355-1.718C256.126,244.234,256.648,244.638,256.589,244.926Z" transform="translate(-246.883 -243.748)" fill="#263238"/>
                                            </g>
                                          </g>
                                        </g>
                                      </g>
                                    </g>
                                  </g>
                                </g>
                              </g>
                            </g>
                          </g>
                        </g>
                        <g id="Grupo_17436" data-name="Grupo 17436" transform="translate(22.525 0.46)">
                          <g id="Grupo_17435" data-name="Grupo 17435">
                            <g id="Grupo_17434" data-name="Grupo 17434">
                              <g id="Grupo_17433" data-name="Grupo 17433">
                                <g id="Grupo_17432" data-name="Grupo 17432">
                                  <g id="Grupo_17431" data-name="Grupo 17431">
                                    <g id="Grupo_17430" data-name="Grupo 17430">
                                      <g id="Grupo_17429" data-name="Grupo 17429">
                                        <g id="Grupo_17428" data-name="Grupo 17428">
                                          <g id="Grupo_17427" data-name="Grupo 17427">
                                            <g id="Grupo_17426" data-name="Grupo 17426">
                                              <path id="Trazado_33220" data-name="Trazado 33220" d="M282.107,246.133c-.32.535-1.863.2-3.648.4-1.791.127-3.252.723-3.66.253-.182-.229,0-.747.6-1.289a5.313,5.313,0,0,1,5.889-.523C281.978,245.4,282.245,245.875,282.107,246.133Z" transform="translate(-274.731 -244.316)" fill="#263238"/>
                                            </g>
                                          </g>
                                        </g>
                                      </g>
                                    </g>
                                  </g>
                                </g>
                              </g>
                            </g>
                          </g>
                        </g>
                      </g>
                    </g>
                  </g>
                </g>
              </g>
              <g id="Grupo_17465" data-name="Grupo 17465" transform="translate(3.475 48.05)">
                <g id="Grupo_17452" data-name="Grupo 17452">
                  <g id="Grupo_17451" data-name="Grupo 17451">
                    <g id="Grupo_17450" data-name="Grupo 17450">
                      <g id="Grupo_17449" data-name="Grupo 17449">
                        <g id="Grupo_17448" data-name="Grupo 17448">
                          <g id="Grupo_17447" data-name="Grupo 17447">
                            <g id="Grupo_17446" data-name="Grupo 17446">
                              <g id="Grupo_17445" data-name="Grupo 17445">
                                <g id="Grupo_17444" data-name="Grupo 17444">
                                  <g id="Grupo_17443" data-name="Grupo 17443">
                                    <g id="Grupo_17442" data-name="Grupo 17442">
                                      <path id="Trazado_33221" data-name="Trazado 33221" d="M230.555,270.224c-.252-.075-9.96-1.691-8.505,7.844s10.726,6.106,10.7,5.83S230.555,270.224,230.555,270.224Z" transform="translate(-221.901 -270.076)" fill="#ffbe9d"/>
                                    </g>
                                  </g>
                                </g>
                              </g>
                            </g>
                          </g>
                        </g>
                      </g>
                    </g>
                  </g>
                </g>
                <g id="Grupo_17464" data-name="Grupo 17464" transform="translate(2.52 3.369)">
                  <g id="Grupo_17463" data-name="Grupo 17463">
                    <g id="Grupo_17462" data-name="Grupo 17462">
                      <g id="Grupo_17461" data-name="Grupo 17461">
                        <g id="Grupo_17460" data-name="Grupo 17460">
                          <g id="Grupo_17459" data-name="Grupo 17459">
                            <g id="Grupo_17458" data-name="Grupo 17458">
                              <g id="Grupo_17457" data-name="Grupo 17457">
                                <g id="Grupo_17456" data-name="Grupo 17456">
                                  <g id="Grupo_17455" data-name="Grupo 17455">
                                    <g id="Grupo_17454" data-name="Grupo 17454">
                                      <g id="Grupo_17453" data-name="Grupo 17453">
                                        <path id="Trazado_33222" data-name="Trazado 33222" d="M229.883,281.526c-.047-.023-.149.142-.41.314a1.677,1.677,0,0,1-1.237.214c-1.064-.216-2.156-1.686-2.465-3.4a5.547,5.547,0,0,1,.1-2.449,1.944,1.944,0,0,1,1.055-1.466.857.857,0,0,1,1.05.306c.168.247.137.447.19.455.03.02.18-.191.043-.573a1.069,1.069,0,0,0-.466-.54,1.271,1.271,0,0,0-.955-.1,2.361,2.361,0,0,0-1.509,1.743,5.694,5.694,0,0,0-.171,2.745c.354,1.911,1.612,3.559,3.051,3.748a1.8,1.8,0,0,0,1.48-.485C229.9,281.759,229.919,281.539,229.883,281.526Z" transform="translate(-225.017 -274.241)" fill="#eb996e"/>
                                      </g>
                                    </g>
                                  </g>
                                </g>
                              </g>
                            </g>
                          </g>
                        </g>
                      </g>
                    </g>
                  </g>
                </g>
              </g>
              <g id="Grupo_17469" data-name="Grupo 17469" transform="translate(7.444 4.364)">
                <g id="Grupo_17468" data-name="Grupo 17468">
                  <g id="Grupo_17467" data-name="Grupo 17467">
                    <g id="Grupo_17466" data-name="Grupo 17466">
                      <path id="Trazado_33223" data-name="Trazado 33223" d="M279.283,236.371a20.364,20.364,0,0,1-18.447-1.889c-3.752-2.479-6.878-6.314-11.3-7.115a11.448,11.448,0,0,0-8.552,2.233,22.112,22.112,0,0,0-5.864,6.85c3.559,6.79,2.7,14.949,1.741,22.555a3.834,3.834,0,0,1-.849,2.343c-1.027,1.006-2.8.529-3.915-.384-1.779-1.464-2.673-3.726-3.346-5.929a39.667,39.667,0,0,1-1.771-15.535,27,27,0,0,1,5.741-14.413,25.576,25.576,0,0,1,17-8.869,31.4,31.4,0,0,1,18.862,4.3,18.4,18.4,0,0,1,6.69,6.064" transform="translate(-226.808 -216.067)" fill="#263238"/>
                    </g>
                  </g>
                </g>
              </g>
            </g>
            <g id="Grupo_17474" data-name="Grupo 17474" transform="translate(15.625 3.324)">
              <g id="Grupo_17473" data-name="Grupo 17473">
                <g id="Grupo_17472" data-name="Grupo 17472">
                  <g id="Grupo_17471" data-name="Grupo 17471">
                    <path id="Trazado_33224" data-name="Trazado 33224" d="M287.3,216.557a2.074,2.074,0,0,1,.013.84,3.91,3.91,0,0,1-1.1,2.134,6.129,6.129,0,0,1-3.434,1.623,10.26,10.26,0,0,1-2.392.138,5.116,5.116,0,0,1-2.575-.837,3.4,3.4,0,0,1-1.521-2.558,3,3,0,0,1,1.739-2.687,3.715,3.715,0,0,1,1.7-.426,3.143,3.143,0,0,1,1.732.541,4.38,4.38,0,0,1,1.827,3.175,5.076,5.076,0,0,1-1.087,3.692,7.718,7.718,0,0,1-3.231,2.384,12.686,12.686,0,0,1-8.284.093,36.256,36.256,0,0,1-7.59-3.413,46.066,46.066,0,0,0-6.911-3.328,14.307,14.307,0,0,0-6.769-.81,13.667,13.667,0,0,0-5.55,2.158,17.059,17.059,0,0,0-5.656,6.534,22.082,22.082,0,0,0-.971,2.179,6.758,6.758,0,0,1-.314.775.683.683,0,0,1,.044-.209c.037-.135.091-.338.179-.6a18.033,18.033,0,0,1,.9-2.229,16.849,16.849,0,0,1,5.635-6.732,13.911,13.911,0,0,1,5.679-2.269,14.615,14.615,0,0,1,6.97.786,45.8,45.8,0,0,1,6.994,3.333,36.189,36.189,0,0,0,7.5,3.363,12.263,12.263,0,0,0,7.977-.067,7.284,7.284,0,0,0,3.045-2.228,4.632,4.632,0,0,0,1.012-3.366,3.963,3.963,0,0,0-1.623-2.874,2.9,2.9,0,0,0-3.013-.112,2.615,2.615,0,0,0-1.552,2.321,3.059,3.059,0,0,0,1.348,2.3,4.83,4.83,0,0,0,2.4.81,10.122,10.122,0,0,0,2.325-.1,6.006,6.006,0,0,0,3.345-1.49,3.934,3.934,0,0,0,1.137-2.019A6.8,6.8,0,0,0,287.3,216.557Z" transform="translate(-236.922 -214.782)" fill="#455a64"/>
                  </g>
                </g>
              </g>
            </g>
            <g id="Grupo_17478" data-name="Grupo 17478" transform="translate(0.314 18.285)">
              <g id="Grupo_17477" data-name="Grupo 17477">
                <g id="Grupo_17476" data-name="Grupo 17476">
                  <g id="Grupo_17475" data-name="Grupo 17475">
                    <path id="Trazado_33225" data-name="Trazado 33225" d="M217.994,245a15.913,15.913,0,0,0,3.014.408,8.3,8.3,0,0,0,3.167-.718,13.938,13.938,0,0,0,3.381-2.158,11.271,11.271,0,0,0,3.58-6.214,23.119,23.119,0,0,0,.28-3.041,2.463,2.463,0,0,1,.15.823,9.608,9.608,0,0,1-.1,2.279,11,11,0,0,1-3.6,6.514,13.474,13.474,0,0,1-3.523,2.2,8.164,8.164,0,0,1-3.338.65,7.587,7.587,0,0,1-2.251-.4A2.422,2.422,0,0,1,217.994,245Z" transform="translate(-217.994 -233.278)" fill="#455a64"/>
                  </g>
                </g>
              </g>
            </g>
            <g id="Grupo_17482" data-name="Grupo 17482" transform="translate(1.564 25.012)">
              <g id="Grupo_17481" data-name="Grupo 17481">
                <g id="Grupo_17480" data-name="Grupo 17480">
                  <g id="Grupo_17479" data-name="Grupo 17479">
                    <path id="Trazado_33226" data-name="Trazado 33226" d="M219.539,253.467c0-.088,1.149.026,2.943-.293a13.222,13.222,0,0,0,10.282-8.724c.607-1.717.68-2.867.768-2.855a2.362,2.362,0,0,1-.007.806,10.968,10.968,0,0,1-.44,2.155,12.764,12.764,0,0,1-10.55,8.952,11.023,11.023,0,0,1-2.2.083A2.355,2.355,0,0,1,219.539,253.467Z" transform="translate(-219.539 -241.595)" fill="#455a64"/>
                  </g>
                </g>
              </g>
            </g>
            <g id="Grupo_17486" data-name="Grupo 17486" transform="translate(27.652 47.599)">
              <g id="Grupo_17485" data-name="Grupo 17485">
                <g id="Grupo_17484" data-name="Grupo 17484">
                  <g id="Grupo_17483" data-name="Grupo 17483">
                    <path id="Trazado_33227" data-name="Trazado 33227" d="M252.114,270.027a.262.262,0,1,1,.146-.323A.252.252,0,0,1,252.114,270.027Z" transform="translate(-251.791 -269.519)" fill="#eb996e"/>
                  </g>
                </g>
              </g>
            </g>
            <g id="Grupo_17490" data-name="Grupo 17490" transform="translate(31.634 46.102)">
              <g id="Grupo_17489" data-name="Grupo 17489">
                <g id="Grupo_17488" data-name="Grupo 17488">
                  <g id="Grupo_17487" data-name="Grupo 17487">
                    <path id="Trazado_33228" data-name="Trazado 33228" d="M257.053,268.247a.307.307,0,1,1,.133-.359A.275.275,0,0,1,257.053,268.247Z" transform="translate(-256.714 -267.668)" fill="#eb996e"/>
                  </g>
                </g>
              </g>
            </g>
            <g id="Grupo_17494" data-name="Grupo 17494" transform="translate(34.387 45.518)">
              <g id="Grupo_17493" data-name="Grupo 17493">
                <g id="Grupo_17492" data-name="Grupo 17492">
                  <g id="Grupo_17491" data-name="Grupo 17491">
                    <path id="Trazado_33229" data-name="Trazado 33229" d="M260.462,267.709c-.128.032-.274-.112-.327-.322s.01-.4.138-.437.274.112.326.321S260.59,267.676,260.462,267.709Z" transform="translate(-260.117 -266.946)" fill="#eb996e"/>
                  </g>
                </g>
              </g>
            </g>
            <g id="Grupo_17498" data-name="Grupo 17498" transform="translate(30.049 50.138)">
              <g id="Grupo_17497" data-name="Grupo 17497">
                <g id="Grupo_17496" data-name="Grupo 17496">
                  <g id="Grupo_17495" data-name="Grupo 17495">
                    <path id="Trazado_33230" data-name="Trazado 33230" d="M255.01,272.964c-.131.016-.246-.04-.256-.123s.088-.165.219-.18.245.04.255.123S255.141,272.948,255.01,272.964Z" transform="translate(-254.754 -272.658)" fill="#eb996e"/>
                  </g>
                </g>
              </g>
            </g>
            <g id="Grupo_17502" data-name="Grupo 17502" transform="translate(33.673 48.581)">
              <g id="Grupo_17501" data-name="Grupo 17501">
                <g id="Grupo_17500" data-name="Grupo 17500">
                  <g id="Grupo_17499" data-name="Grupo 17499">
                    <path id="Trazado_33231" data-name="Trazado 33231" d="M259.531,271.269a.273.273,0,1,1,.179-.315A.256.256,0,0,1,259.531,271.269Z" transform="translate(-259.235 -270.733)" fill="#eb996e"/>
                  </g>
                </g>
              </g>
            </g>
            <g id="Grupo_17506" data-name="Grupo 17506" transform="translate(52.979 43.896)">
              <g id="Grupo_17505" data-name="Grupo 17505">
                <g id="Grupo_17504" data-name="Grupo 17504">
                  <g id="Grupo_17503" data-name="Grupo 17503">
                    <path id="Trazado_33232" data-name="Trazado 33232" d="M283.429,265.464a.272.272,0,1,1,.143-.331A.255.255,0,0,1,283.429,265.464Z" transform="translate(-283.103 -264.941)" fill="#eb996e"/>
                  </g>
                </g>
              </g>
            </g>
            <g id="Grupo_17510" data-name="Grupo 17510" transform="translate(55.768 43.234)">
              <g id="Grupo_17509" data-name="Grupo 17509">
                <g id="Grupo_17508" data-name="Grupo 17508">
                  <g id="Grupo_17507" data-name="Grupo 17507">
                    <path id="Trazado_33233" data-name="Trazado 33233" d="M286.858,264.715a.309.309,0,1,1,.168-.345A.276.276,0,0,1,286.858,264.715Z" transform="translate(-286.551 -264.122)" fill="#eb996e"/>
                  </g>
                </g>
              </g>
            </g>
            <g id="Grupo_17514" data-name="Grupo 17514" transform="translate(50.538 44.373)">
              <g id="Grupo_17513" data-name="Grupo 17513">
                <g id="Grupo_17512" data-name="Grupo 17512">
                  <g id="Grupo_17511" data-name="Grupo 17511">
                    <path id="Trazado_33234" data-name="Trazado 33234" d="M280.387,265.944a.212.212,0,1,1,.162-.274A.225.225,0,0,1,280.387,265.944Z" transform="translate(-280.085 -265.531)" fill="#eb996e"/>
                  </g>
                </g>
              </g>
            </g>
            <g id="Grupo_17518" data-name="Grupo 17518" transform="translate(52.863 46.833)">
              <g id="Grupo_17517" data-name="Grupo 17517">
                <g id="Grupo_17516" data-name="Grupo 17516">
                  <g id="Grupo_17515" data-name="Grupo 17515">
                    <path id="Trazado_33235" data-name="Trazado 33235" d="M283.349,269.077a.279.279,0,1,1,.065-.36A.26.26,0,0,1,283.349,269.077Z" transform="translate(-282.959 -268.572)" fill="#eb996e"/>
                  </g>
                </g>
              </g>
            </g>
            <g id="Grupo_17522" data-name="Grupo 17522" transform="translate(55.379 46.172)">
              <g id="Grupo_17521" data-name="Grupo 17521">
                <g id="Grupo_17520" data-name="Grupo 17520">
                  <g id="Grupo_17519" data-name="Grupo 17519">
                    <path id="Trazado_33236" data-name="Trazado 33236" d="M286.279,268.154a.2.2,0,1,1,.266-.163A.222.222,0,0,1,286.279,268.154Z" transform="translate(-286.07 -267.754)" fill="#eb996e"/>
                  </g>
                </g>
              </g>
            </g>
          </g>
          <g id="Grupo_17524" data-name="Grupo 17524" transform="translate(1.874 49.741)">
            <path id="Trazado_33237" data-name="Trazado 33237" d="M221.159,275.669c.015.048-.525.045-.954-.58a1.664,1.664,0,0,1-.25-1.247,2.1,2.1,0,0,1,.865-1.289,2.2,2.2,0,0,1,1.5-.371,2.427,2.427,0,0,1,1.164.446c.585.433.683.907.643.912-.064.039-.254-.349-.806-.662a2.158,2.158,0,0,0-2.261.022,1.809,1.809,0,0,0-.727,1.026,1.446,1.446,0,0,0,.126,1.013C220.748,275.491,221.187,275.605,221.159,275.669Z" transform="translate(-219.923 -272.167)" fill="#263238"/>
          </g>
        </g>
        <g id="Grupo_17562" data-name="Grupo 17562" transform="translate(5.075 149.034)">
          <path id="Trazado_33238" data-name="Trazado 33238" d="M292.489,403.62l.72,20.885s-60.551,12-68.341,16.009-10.968,4.634-10.5,16.2l96.764-.167s11.926-4.467,11.69-17.45-3.481-44.176-3.481-44.176Z" transform="translate(-197.122 -394.922)" fill="#ffbe9d"/>
          <g id="Grupo_17560" data-name="Grupo 17560" transform="translate(0 34.803)">
            <g id="Grupo_17559" data-name="Grupo 17559">
              <g id="Grupo_17558" data-name="Grupo 17558">
                <g id="Grupo_17527" data-name="Grupo 17527" transform="translate(8.103 4.586)">
                  <g id="Grupo_17526" data-name="Grupo 17526">
                    <path id="Trazado_33239" data-name="Trazado 33239" d="M222.236,466.344l8.041-.736,7.675-18.338c-1.244-.211-27.141-4.039-28.667-3.62l-6.21,22.064S221.682,466.342,222.236,466.344Z" transform="translate(-203.075 -443.617)" fill="#ffbe9d"/>
                  </g>
                </g>
                <g id="Grupo_17557" data-name="Grupo 17557">
                  <g id="Grupo_17556" data-name="Grupo 17556">
                    <g id="Grupo_17553" data-name="Grupo 17553" transform="translate(0 4.832)">
                      <g id="Grupo_17552" data-name="Grupo 17552">
                        <g id="Grupo_17530" data-name="Grupo 17530" transform="translate(6.548 16.554)">
                          <g id="Grupo_17529" data-name="Grupo 17529">
                            <g id="Grupo_17528" data-name="Grupo 17528">
                              <path id="Trazado_33240" data-name="Trazado 33240" d="M204.16,470.031c.02.037.173.07.432.1,2.139.235,12.015-.367,12.015-.367.451-1.276-.4-5.107-1.632-5.332s-11.741.484-11.741.484-1.655.218-2.067,3C200.912,469.633,204.16,470.031,204.16,470.031Z" transform="translate(-201.152 -464.387)" fill="#ffbe9d"/>
                            </g>
                          </g>
                        </g>
                        <g id="Grupo_17533" data-name="Grupo 17533" transform="translate(3.211 10.941)">
                          <g id="Grupo_17532" data-name="Grupo 17532">
                            <g id="Grupo_17531" data-name="Grupo 17531">
                              <path id="Trazado_33241" data-name="Trazado 33241" d="M200.035,463.093c.019.036.172.07.431.1,2.139.235,11.475.132,11.879-1.006.452-1.276-.266-4.468-1.5-4.693s-11.741.485-11.741.485-1.656.218-2.068,3C196.787,462.7,200.035,463.093,200.035,463.093Z" transform="translate(-197.027 -457.448)" fill="#ffbe9d"/>
                            </g>
                          </g>
                        </g>
                        <g id="Grupo_17536" data-name="Grupo 17536" transform="translate(1.555 5.456)">
                          <g id="Grupo_17535" data-name="Grupo 17535">
                            <g id="Grupo_17534" data-name="Grupo 17534">
                              <path id="Trazado_33242" data-name="Trazado 33242" d="M197.988,456.311c.019.037.173.07.431.1,2.139.234,11.475.131,11.879-1.006.452-1.276-.266-4.469-1.5-4.693s-11.741.484-11.741.484-1.656.217-2.067,3C194.74,455.913,197.988,456.311,197.988,456.311Z" transform="translate(-194.98 -450.667)" fill="#ffbe9d"/>
                            </g>
                          </g>
                        </g>
                        <g id="Grupo_17539" data-name="Grupo 17539">
                          <g id="Grupo_17538" data-name="Grupo 17538">
                            <g id="Grupo_17537" data-name="Grupo 17537">
                              <path id="Trazado_33243" data-name="Trazado 33243" d="M196.066,449.566c.019.037.172.071.431.1,2.139.234,11.475.131,11.879-1.006.451-1.276-.266-4.469-1.5-4.693s-11.741.484-11.741.484-1.656.218-2.068,3C192.817,449.169,196.066,449.566,196.066,449.566Z" transform="translate(-193.057 -443.922)" fill="#ffbe9d"/>
                            </g>
                          </g>
                        </g>
                        <g id="Grupo_17543" data-name="Grupo 17543" transform="translate(8.599 16.356)">
                          <g id="Grupo_17542" data-name="Grupo 17542">
                            <g id="Grupo_17541" data-name="Grupo 17541">
                              <g id="Grupo_17540" data-name="Grupo 17540">
                                <path id="Trazado_33244" data-name="Trazado 33244" d="M212.73,464.331a18.345,18.345,0,0,1-4.546.421,17.354,17.354,0,0,1-4.5-.163,18.407,18.407,0,0,1,4.546-.42A17.381,17.381,0,0,1,212.73,464.331Z" transform="translate(-203.688 -464.142)" fill="#eb996e"/>
                              </g>
                            </g>
                          </g>
                        </g>
                        <g id="Grupo_17547" data-name="Grupo 17547" transform="translate(4.746 10.887)">
                          <g id="Grupo_17546" data-name="Grupo 17546">
                            <g id="Grupo_17545" data-name="Grupo 17545">
                              <g id="Grupo_17544" data-name="Grupo 17544">
                                <path id="Trazado_33245" data-name="Trazado 33245" d="M211.87,457.534a35.884,35.884,0,0,1-6.463.5,35.93,35.93,0,0,1-6.482-.088,36.054,36.054,0,0,1,6.464-.5A36.017,36.017,0,0,1,211.87,457.534Z" transform="translate(-198.925 -457.381)" fill="#eb996e"/>
                              </g>
                            </g>
                          </g>
                        </g>
                        <g id="Grupo_17551" data-name="Grupo 17551" transform="translate(4.304 5.292)" opacity="0.78">
                          <g id="Grupo_17550" data-name="Grupo 17550">
                            <g id="Grupo_17549" data-name="Grupo 17549">
                              <g id="Grupo_17548" data-name="Grupo 17548">
                                <path id="Trazado_33246" data-name="Trazado 33246" d="M211.323,450.618a35.868,35.868,0,0,1-6.463.5,36.011,36.011,0,0,1-6.482-.088,35.879,35.879,0,0,1,6.464-.5A35.83,35.83,0,0,1,211.323,450.618Z" transform="translate(-198.378 -450.464)" fill="#eb996e"/>
                              </g>
                            </g>
                          </g>
                        </g>
                      </g>
                    </g>
                    <g id="Grupo_17555" data-name="Grupo 17555" transform="translate(10.71)">
                      <g id="Grupo_17554" data-name="Grupo 17554">
                        <path id="Trazado_33247" data-name="Trazado 33247" d="M227.824,444.766S210.2,436.929,209.1,438.06a25.942,25.942,0,0,0-2.8,4.772Z" transform="translate(-206.298 -437.948)" fill="#ffbe9d"/>
                      </g>
                    </g>
                  </g>
                </g>
              </g>
            </g>
          </g>
          <g id="Grupo_17561" data-name="Grupo 17561" transform="translate(95.379 29.536)">
            <path id="Trazado_33248" data-name="Trazado 33248" d="M325.217,449.709c-.074.022-.434-1.262-1.272-3.23a32.88,32.88,0,0,0-1.671-3.358,32.078,32.078,0,0,0-5.628-7.219,32.952,32.952,0,0,0-2.85-2.44c-1.7-1.293-2.86-1.954-2.821-2.021a3.991,3.991,0,0,1,.842.412,21.349,21.349,0,0,1,2.156,1.37,28.4,28.4,0,0,1,2.939,2.4,29.547,29.547,0,0,1,5.7,7.31,28.413,28.413,0,0,1,1.609,3.436,21.441,21.441,0,0,1,.8,2.425A3.962,3.962,0,0,1,325.217,449.709Z" transform="translate(-310.974 -431.438)" fill="#eb996e"/>
          </g>
        </g>
        <g id="Grupo_17573" data-name="Grupo 17573" transform="translate(5.073 55.163)">
          <g id="Grupo_17571" data-name="Grupo 17571" transform="translate(0.002)">
            <g id="Grupo_17569" data-name="Grupo 17569">
              <path id="Trazado_33249" data-name="Trazado 33249" d="M231.791,332.451l-18.234,51.894-20.5,5.9s7.431,31.454,15.022,37.1c2.578,1.919,6.8,4,11.116,3.7,8.195-.571,17.384-6.349,20.887-14.415,3.113-7.168,11.429-81.286,11.429-81.286Z" transform="translate(-193.058 -289.111)" fill="#ffbe9d"/>
              <g id="Grupo_17568" data-name="Grupo 17568" transform="translate(32.622)">
                <g id="Grupo_17564" data-name="Grupo 17564">
                  <path id="Trazado_33250" data-name="Trazado 33250" d="M259.01,327.364l1.062-12.645-2.932-10.148-1.135-3.883,2.217,2.267,4.046-4.31s-1.313-7.659-2.407-7.659a20.462,20.462,0,0,0-4.1,1.2c-.832.306-1.451.548-1.451.548l-3.425,1.751,3.425-5.252s3.527,2.935,5.33.385c1.379-1.95-3.76-6.32-5.7-7.861a1.916,1.916,0,0,0-1.573-.377l-2,.4a2.908,2.908,0,0,0-2.923-2.662,4.492,4.492,0,0,0-3.829,2.294l-2.107.379a3.506,3.506,0,0,0-3.29,2.3L233.6,296.675l5.938,25.583" transform="translate(-233.429 -278.919)" fill="#ffbe9d"/>
                  <g id="Grupo_17563" data-name="Grupo 17563">
                    <path id="Trazado_33251" data-name="Trazado 33251" d="M239.5,322.21s-.053-.152-.131-.454q-.12-.483-.336-1.34l-1.237-5.13c-1.053-4.463-2.561-10.848-4.4-18.623l-.011-.048.017-.047c.912-2.5,1.878-5.14,2.891-7.913q.761-2.081,1.557-4.255a4.088,4.088,0,0,1,1.3-2.025,3.738,3.738,0,0,1,2.327-.827l-.035,0,2.106-.382-.142.1a5.163,5.163,0,0,1,1.543-1.665,4.22,4.22,0,0,1,2.2-.73,3.256,3.256,0,0,1,2.266.713,2.765,2.765,0,0,1,1.124,2.154l-.247-.214,1.51-.3a6.708,6.708,0,0,1,.793-.137,2.137,2.137,0,0,1,.848.126,2.353,2.353,0,0,1,.724.438l.611.5q.608.506,1.2,1.039a27.016,27.016,0,0,1,2.277,2.279,7.5,7.5,0,0,1,1.719,2.831,1.851,1.851,0,0,1-.024,1.026,2.492,2.492,0,0,1-2.416,1.492,6.313,6.313,0,0,1-3.4-1.473l.309-.047-3.428,5.25-.267-.3,3.427-1.748.01,0,.008,0c1.157-.438,2.3-.871,3.448-1.238a15.1,15.1,0,0,1,1.752-.476,1.54,1.54,0,0,1,.514-.03.809.809,0,0,1,.451.353,4.071,4.071,0,0,1,.422.823,40.334,40.334,0,0,1,1.624,6.634l.017.09-.065.07-4.053,4.3-.126.134-.128-.132-2.212-2.271.282-.166,4.023,14.044.006.022,0,.023c-.359,3.983-.644,7.137-.84,9.319-.1,1.063-.183,1.887-.239,2.468-.029.265-.052.475-.07.634a1.066,1.066,0,0,1-.035.214,1.019,1.019,0,0,1,0-.216c.01-.161.022-.37.037-.637.041-.582.1-1.408.176-2.474.171-2.183.417-5.341.727-9.329l0,.044c-1.138-3.881-2.52-8.592-4.112-14.018l-.19-.645.472.48,2.222,2.262-.253,0,4.038-4.318-.048.159a40.342,40.342,0,0,0-1.62-6.549,3.737,3.737,0,0,0-.378-.739.5.5,0,0,0-.213-.2,1.428,1.428,0,0,0-.364.034,15,15,0,0,0-1.7.466c-1.137.365-2.274.8-3.421,1.235l.018-.008-3.424,1.754-.691.353.424-.65,3.422-5.254.124-.188.186.142a5.932,5.932,0,0,0,3.147,1.374,2.057,2.057,0,0,0,1.53-.552,2.115,2.115,0,0,0,.476-.657,1.428,1.428,0,0,0,.011-.794,7.168,7.168,0,0,0-1.626-2.649,26.634,26.634,0,0,0-2.24-2.242c-.391-.352-.789-.695-1.19-1.029a5.207,5.207,0,0,0-1.211-.867,2.316,2.316,0,0,0-1.416.027l-1.511.3-.255.051.007-.265a2.37,2.37,0,0,0-.967-1.81,2.843,2.843,0,0,0-1.991-.627,4.217,4.217,0,0,0-3.411,2.173l-.051.088-.091.016-2.107.376-.018,0h-.017a3.353,3.353,0,0,0-2.083.734,3.69,3.69,0,0,0-1.184,1.855l-1.571,4.251c-1.024,2.769-2,5.409-2.923,7.9l.006-.1c1.776,7.789,3.235,14.184,4.255,18.656.493,2.211.881,3.946,1.149,5.149.123.578.219,1.026.289,1.351C239.48,322.051,239.5,322.21,239.5,322.21Z" transform="translate(-233.388 -278.871)" fill="#eb996e"/>
                  </g>
                </g>
                <g id="Grupo_17565" data-name="Grupo 17565" transform="translate(20.716 17.58)">
                  <path id="Trazado_33252" data-name="Trazado 33252" d="M259,303.155a22.871,22.871,0,0,1,3.545-1.909l1.316-.641-1.094.979a3.459,3.459,0,0,0-1.134,2.8,3.551,3.551,0,0,0,.48,1.509,8.679,8.679,0,0,0,.963,1.166c-.011.04-.627-.182-1.213-1a3.554,3.554,0,0,1-.617-1.634,3.681,3.681,0,0,1,1.252-3.147l.222.339A22.749,22.749,0,0,1,259,303.155Z" transform="translate(-258.999 -300.605)" fill="#eb996e"/>
                </g>
                <g id="Grupo_17566" data-name="Grupo 17566" transform="translate(11.019 2.452)">
                  <path id="Trazado_33253" data-name="Trazado 33253" d="M247.015,292.744a10.959,10.959,0,0,1,.991-1.908c.658-1.151,1.592-2.725,2.646-4.45.531-.863,1.024-1.682,1.51-2.424a5.058,5.058,0,0,1,1.675-1.695,2.633,2.633,0,0,1,1.576-.349c.385.049.566.177.557.2-.011.036-.208-.037-.566-.032a2.731,2.731,0,0,0-1.415.442c-1.114.657-1.9,2.385-2.977,4.082-1.053,1.725-2.028,3.275-2.751,4.386A10.9,10.9,0,0,1,247.015,292.744Z" transform="translate(-247.011 -281.902)" fill="#eb996e"/>
                </g>
                <g id="Grupo_17567" data-name="Grupo 17567" transform="translate(4.75 2.158)">
                  <path id="Trazado_33254" data-name="Trazado 33254" d="M239.267,292.631a7.449,7.449,0,0,1,.6-1.72c.426-1.039,1.06-2.455,1.82-3.99s1.505-2.9,2.074-3.864a7.419,7.419,0,0,1,1.006-1.517,8.283,8.283,0,0,1-.744,1.659l-1.959,3.909-1.925,3.925A8.287,8.287,0,0,1,239.267,292.631Z" transform="translate(-239.26 -281.539)" fill="#eb996e"/>
                </g>
              </g>
            </g>
            <g id="Grupo_17570" data-name="Grupo 17570" transform="translate(14.36 90.163)">
              <path id="Trazado_33255" data-name="Trazado 33255" d="M219.182,390.339a4.471,4.471,0,0,1-.3.94c-.252.675-.565,1.514-.937,2.51-.8,2.116-1.891,5.041-3.046,8.29s-2.151,6.21-2.867,8.356c-.34,1.006-.626,1.856-.857,2.537a4.454,4.454,0,0,1-.363.916,4.46,4.46,0,0,1,.206-.964c.159-.613.408-1.494.73-2.579.644-2.17,1.6-5.15,2.753-8.407s2.3-6.169,3.167-8.259c.434-1.045.8-1.886,1.061-2.461A4.355,4.355,0,0,1,219.182,390.339Z" transform="translate(-210.811 -390.339)" fill="#eb996e"/>
            </g>
          </g>
          <g id="Grupo_17572" data-name="Grupo 17572" transform="translate(0 101.137)">
            <path id="Trazado_33256" data-name="Trazado 33256" d="M242.824,416.857a.99.99,0,0,1-.017.239c-.024.18-.055.41-.094.7-.092.641-.222,1.535-.387,2.673-.176,1.16-.391,2.579-.717,4.217a34.11,34.11,0,0,1-1.523,5.467,18.11,18.11,0,0,1-3.566,5.88,26.918,26.918,0,0,1-6.147,4.958,33.03,33.03,0,0,1-8.06,3.353,17.841,17.841,0,0,1-4.6.643,13.94,13.94,0,0,1-4.714-.826,17.36,17.36,0,0,1-7.509-5.548,29.822,29.822,0,0,1-4.349-7.567c-1.058-2.587-1.684-5.161-2.414-7.508s-1.406-4.547-2.026-6.552c-1.251-4-2.205-7.264-2.8-9.533-.3-1.134-.519-2.019-.656-2.621-.062-.283-.112-.509-.152-.687a1,1,0,0,1-.037-.237,1.117,1.117,0,0,1,.079.226c.049.176.113.4.193.676l.731,2.6c.643,2.254,1.64,5.5,2.927,9.487.635,2,1.33,4.191,2.076,6.539s1.385,4.915,2.44,7.464a29.578,29.578,0,0,0,4.31,7.452,16.991,16.991,0,0,0,7.331,5.412,13.543,13.543,0,0,0,4.573.8,17.467,17.467,0,0,0,4.491-.624,32.859,32.859,0,0,0,7.967-3.287,26.725,26.725,0,0,0,6.088-4.86,17.914,17.914,0,0,0,3.546-5.751,34.683,34.683,0,0,0,1.57-5.406c.347-1.627.585-3.041.786-4.2.2-1.132.353-2.023.465-2.661l.134-.69A1.108,1.108,0,0,1,242.824,416.857Z" transform="translate(-193.056 -403.905)" fill="#eb996e"/>
          </g>
        </g>
      </g>
    </g>
  </g>
</svg>
