<svg xmlns="http://www.w3.org/2000/svg" width="196.633" height="203.899" viewBox="0 0 196.633 203.899">
  <g id="Grupo_17576" data-name="Grupo 17576" transform="translate(-13.341 -9.171)">
    <g id="Shape" transform="translate(38.386 9.171)">
      <g id="Grupo_17042" data-name="Grupo 17042" transform="translate(0 0)">
        <path id="Trazado_33079" data-name="Trazado 33079" d="M301.646,142.078c.644-5.723-3.472-10.815-7.64-14.789s-8.909-8.02-10.126-13.649c-.932-4.31.408-8.738,1.014-13.105s.2-9.436-3.213-12.229c-6-4.913-16.345.092-22.437-4.71-6.479-5.109-.671-16.642-7.965-20.5-7.038-3.724-12.907,7.228-17.151-1.955-5.7-12.338-16.8-5.456-16.8-5.456-4.362,3.155-6.645,11.294-11.862,12.62-7.717,1.962-15.839-7.441-22.877-3.717C175.3,68.445,178.977,81.211,172.5,86.32c-6.092,4.8-16.339-.908-22.342,4.006-3.412,2.793-3.819,7.861-3.213,12.229s1.946,8.795,1.014,13.105c-1.217,5.629-5.958,9.674-10.126,13.649s-8.285,9.066-7.639,14.789c.708,6.291,6.89,10.664,8.539,16.776,2.458,9.106-5.779,18.908-2.438,27.728,4.205,11.1,21.83,9.88,28.629,19.61,2.561,3.664,3.144,8.341,5.108,12.357,4.305,8.8,14.813,13.163,24.61,13.027,8.27-.115,16.206-2.833,23.93-5.92,6.048,2.166,12.238,3.812,18.628,3.9,9.8.136,20.3-4.226,24.61-13.027,1.964-4.016,2.547-8.692,5.107-12.357,6.8-9.73,24.424-8.509,28.629-19.61,3.342-8.82-4.9-18.622-2.437-27.728C294.756,152.741,300.937,148.369,301.646,142.078Z" transform="translate(-130.125 -53.771)" fill="#ff725e"/>
        <g id="Grupo_17041" data-name="Grupo 17041" opacity="0.8">
          <path id="Trazado_33080" data-name="Trazado 33080" d="M301.646,142.078c.644-5.723-3.472-10.815-7.64-14.789s-8.909-8.02-10.126-13.649c-.932-4.31.408-8.738,1.014-13.105s.2-9.436-3.213-12.229c-6-4.913-16.345.092-22.437-4.71-6.479-5.109-.671-16.642-7.965-20.5-7.038-3.724-12.907,7.228-17.151-1.955-5.7-12.338-16.8-5.456-16.8-5.456-4.362,3.155-6.645,11.294-11.862,12.62-7.717,1.962-15.839-7.441-22.877-3.717C175.3,68.445,178.977,81.211,172.5,86.32c-6.092,4.8-16.339-.908-22.342,4.006-3.412,2.793-3.819,7.861-3.213,12.229s1.946,8.795,1.014,13.105c-1.217,5.629-5.958,9.674-10.126,13.649s-8.285,9.066-7.639,14.789c.708,6.291,6.89,10.664,8.539,16.776,2.458,9.106-5.779,18.908-2.438,27.728,4.205,11.1,21.83,9.88,28.629,19.61,2.561,3.664,3.144,8.341,5.108,12.357,4.305,8.8,14.813,13.162,24.61,13.027,8.27-.115,16.206-2.833,23.93-5.92,6.048,2.166,12.238,3.812,18.628,3.9,9.8.136,20.3-4.226,24.61-13.027,1.964-4.016,2.547-8.692,5.107-12.357,6.8-9.73,24.424-8.509,28.629-19.61,3.342-8.82-4.9-18.622-2.437-27.728C294.756,152.741,300.937,148.369,301.646,142.078Z" transform="translate(-130.125 -53.771)" fill="#fff"/>
        </g>
      </g>
    </g>
    <g id="Pen" transform="translate(37.885 108.733)">
      <g id="Grupo_17094" data-name="Grupo 17094">
        <g id="Grupo_17090" data-name="Grupo 17090" transform="translate(0 24.837)">
          <g id="Grupo_17088" data-name="Grupo 17088" transform="translate(78.052 0)">
            <path id="Trazado_33097" data-name="Trazado 33097" d="M398.448,165.369,366.4,170.011l-2.134,8.477-4.172,2.549,8.267,12.99,4.177-2.746,8.845,1.159Z" transform="translate(-359.94 -165.369)" fill="#fafafa"/>
            <g id="Grupo_17087" data-name="Grupo 17087" transform="translate(0 0)">
              <path id="Trazado_33098" data-name="Trazado 33098" d="M398.38,165.369,381.4,192.5l-.034.054-.063-.008-8.846-1.153.071-.016-4.175,2.747-.091.06-.059-.092-4.221-6.63-4.046-6.359-.061-.1.1-.059,4.173-2.548-.048.065c.741-2.933,1.455-5.764,2.14-8.475l.016-.066.066-.01,32.065-4.541-32.037,4.743.083-.076q-1.022,4.069-2.128,8.479l-.01.043-.038.023-4.171,2.551.034-.154,4.048,6.359,4.22,6.631-.149-.032,4.178-2.744.032-.021.039,0,8.844,1.165-.1.046C391.314,176.5,397.9,166.123,398.38,165.369Z" transform="translate(-359.872 -165.369)" fill="#263238"/>
            </g>
          </g>
          <path id="Trazado_33099" data-name="Trazado 33099" d="M387.574,186.747a4.615,4.615,0,0,1-6.444-1.4,4.782,4.782,0,0,1,1.382-6.549,4.615,4.615,0,0,1,6.444,1.4A4.782,4.782,0,0,1,387.574,186.747Z" transform="translate(-288.208 -169.313)" fill="#263238"/>
          <g id="Grupo_17089" data-name="Grupo 17089" transform="translate(96.835)">
            <path id="Trazado_33100" data-name="Trazado 33100" d="M406.876,165.369c.034.051-4.355,3.1-9.8,6.82s-9.89,6.687-9.924,6.636,4.354-3.1,9.8-6.821S406.842,165.318,406.876,165.369Z" transform="translate(-387.151 -165.368)" fill="#263238"/>
          </g>
          <path id="Trazado_33101" data-name="Trazado 33101" d="M247.707,249.866h0a7.624,7.624,0,0,1,2.168-10.415l70.562-46.957,8.068,12.677-70.491,46.911A7.356,7.356,0,0,1,247.707,249.866Z" transform="translate(-246.515 -173.816)" fill="#ff725e"/>
          <path id="Trazado_33102" data-name="Trazado 33102" d="M362.424,204.415l-9.488-14.908,5.1-3.35,9.488,14.908Z" transform="translate(-279.659 -171.843)" fill="#ff725e"/>
        </g>
        <g id="Grupo_17093" data-name="Grupo 17093" transform="translate(99.509)">
          <path id="Trazado_33103" data-name="Trazado 33103" d="M413.926,166.741l-1.842-2.7,2.658-1.872,1.842,2.7Z" transform="translate(-397.59 -139.534)" fill="#ff725e"/>
          <g id="Grupo_17092" data-name="Grupo 17092">
            <g id="Grupo_17091" data-name="Grupo 17091" transform="translate(0.957 0.973)">
              <path id="Trazado_33104" data-name="Trazado 33104" d="M423.6,176.433c-.137.1-7.228-10.061-15.836-22.685s-15.479-22.941-15.342-23.038,7.226,10.06,15.837,22.689S423.74,176.338,423.6,176.433Z" transform="translate(-392.423 -130.71)" fill="#ff725e"/>
            </g>
            <path id="Trazado_33105" data-name="Trazado 33105" d="M437.535,197.06a.949.949,0,0,1-1.334-.245.985.985,0,0,1,.242-1.356.948.948,0,0,1,1.333.246A.984.984,0,0,1,437.535,197.06Z" transform="translate(-405.048 -149.849)" fill="#ff725e"/>
            <path id="Trazado_33106" data-name="Trazado 33106" d="M392.538,131.071a.949.949,0,0,1-1.334-.246.983.983,0,0,1,.242-1.355.949.949,0,0,1,1.334.246A.984.984,0,0,1,392.538,131.071Z" transform="translate(-391.034 -129.297)" fill="#ff725e"/>
          </g>
        </g>
        <path id="Trazado_33107" data-name="Trazado 33107" d="M353.567,192.494l8.068,12.677-1.888,1.256-6.854-13.485Z" transform="translate(-279.646 -148.979)" opacity="0.3"/>
        <path id="Trazado_33108" data-name="Trazado 33108" d="M363.167,192.09l-2.092,7.765,1.115,2.058,2.15-7.98Z" transform="translate(-282.194 -148.854)" fill="#fff" opacity="0.5"/>
      </g>
    </g>
    <g id="Pencil" transform="translate(38.026 30.774) rotate(17)">
      <g id="Grupo_17103" data-name="Grupo 17103" transform="translate(0)">
        <g id="Grupo_17097" data-name="Grupo 17097">
          <g id="Grupo_17096" data-name="Grupo 17096">
            <path id="Trazado_33109" data-name="Trazado 33109" d="M100.167,160.983l16.113,29.906,68.977,54.525,15.89-22.036-67.715-53.152Z" transform="translate(-100.167 -160.983)" fill="#ff725e"/>
            <g id="Grupo_17095" data-name="Grupo 17095" transform="translate(0 0)" opacity="0.7">
              <path id="Trazado_33110" data-name="Trazado 33110" d="M133.432,170.227a2.01,2.01,0,0,1-2.469,2.013,6.045,6.045,0,0,1-6.31,9.56,7.052,7.052,0,0,1-8.492,8.865l-15.993-29.681Z" transform="translate(-100.167 -160.984)" fill="#fff"/>
            </g>
            <path id="Trazado_33111" data-name="Trazado 33111" d="M106.646,173.01s6.444.906,7.15-8.24l-13.629-3.787Z" transform="translate(-100.167 -160.984)" fill="#ff725e"/>
          </g>
        </g>
        <path id="Trazado_33112" data-name="Trazado 33112" d="M126.3,183.946l67.9,52.841-7.294,10.774-68.976-54.525-.12-.225a6.776,6.776,0,0,0,3.1.079A7.326,7.326,0,0,0,124.5,191a6.97,6.97,0,0,0,2.082-4.428A7.1,7.1,0,0,0,126.3,183.946Z" transform="translate(-101.816 -163.13)" opacity="0.3"/>
        <path id="Trazado_33113" data-name="Trazado 33113" d="M134.138,173.192l68.146,53.964,2.038-2.826L136.607,171.18a2.138,2.138,0,0,1-1.972,2.094A2.406,2.406,0,0,1,134.138,173.192Z" transform="translate(-103.342 -161.937)" opacity="0.3"/>
        <g id="Grupo_17098" data-name="Grupo 17098" transform="translate(12.085 13.08)">
          <path id="Trazado_33114" data-name="Trazado 33114" d="M118.529,181.846a.538.538,0,0,0,.314.2.735.735,0,0,0,.839-.513,2.833,2.833,0,0,0-.126-1.706,1.747,1.747,0,0,0-.631-.846,1.156,1.156,0,0,0-1.114-.152,1.56,1.56,0,0,0-.785.994,5.016,5.016,0,0,0-.208,1.436,7.765,7.765,0,0,0,.547,3.154,1.989,1.989,0,0,0,1.147,1.169,1.768,1.768,0,0,0,1.625-.416,4.719,4.719,0,0,0,1.173-3.49,6.732,6.732,0,0,0-3.677-5.956,1.748,1.748,0,0,0-1.547.084,3.219,3.219,0,0,0-1.075,1.087,9.358,9.358,0,0,0-1.089,2.589,10.31,10.31,0,0,0-.211,4.062c.077.478.16.845.226,1.092s.093.379.093.379a7.473,7.473,0,0,1-.392-1.459,10.11,10.11,0,0,1,.154-4.107,9.446,9.446,0,0,1,1.086-2.641A3.369,3.369,0,0,1,116,175.661a1.918,1.918,0,0,1,1.69-.1,6.88,6.88,0,0,1,3.8,6.115,6.739,6.739,0,0,1-.26,1.968,3.459,3.459,0,0,1-.981,1.666,1.947,1.947,0,0,1-1.8.448,2.159,2.159,0,0,1-1.252-1.27,7.887,7.887,0,0,1-.545-3.23,5.172,5.172,0,0,1,.227-1.479,1.692,1.692,0,0,1,.871-1.071,1.283,1.283,0,0,1,1.235.177,1.851,1.851,0,0,1,.661.907,2.871,2.871,0,0,1,.1,1.77.783.783,0,0,1-.917.524A.42.42,0,0,1,118.529,181.846Z" transform="translate(-113.498 -175.412)" fill="#fff"/>
        </g>
        <g id="Grupo_17099" data-name="Grupo 17099" transform="translate(15.496 5.699)">
          <path id="Trazado_33115" data-name="Trazado 33115" d="M121.2,167.27c.022.007-.136.363-.247,1.044a7.333,7.333,0,0,0,.179,2.895,18.59,18.59,0,0,0,1.639,4.011,16.232,16.232,0,0,1,1.856,5.01,9.222,9.222,0,0,1-.855,5.248,8.986,8.986,0,0,1-5.462,4.617,6,6,0,0,1-1.055.228,1.519,1.519,0,0,1,.268-.076c.178-.042.437-.113.765-.222a9.378,9.378,0,0,0,2.585-1.337,8.92,8.92,0,0,0,2.742-3.286,9.135,9.135,0,0,0,.824-5.146,16.37,16.37,0,0,0-1.825-4.959,18.147,18.147,0,0,1-1.614-4.058,7.138,7.138,0,0,1-.121-2.937A4.046,4.046,0,0,1,121.2,167.27Z" transform="translate(-117.26 -167.27)" fill="#fff"/>
        </g>
        <g id="Grupo_17100" data-name="Grupo 17100" transform="translate(25.409 7.414)">
          <path id="Trazado_33116" data-name="Trazado 33116" d="M129.9,169.162a2.811,2.811,0,0,0-1.2,1.585,15.831,15.831,0,0,0-.273,4.913,27.05,27.05,0,0,0,.767,4.892c.152.616.3,1.109.4,1.45a3.012,3.012,0,0,1,.143.535,3.183,3.183,0,0,1-.213-.512c-.121-.335-.287-.824-.457-1.44a24.267,24.267,0,0,1-.847-7.659,7.931,7.931,0,0,1,.354-2.222,2.775,2.775,0,0,1,.84-1.262A1.7,1.7,0,0,1,129.9,169.162Z" transform="translate(-128.195 -169.162)" fill="#fff"/>
        </g>
        <g id="Grupo_17101" data-name="Grupo 17101" transform="translate(29.262 12.639)">
          <path id="Trazado_33117" data-name="Trazado 33117" d="M133.556,181.419a5.1,5.1,0,0,1-.516-1,6.167,6.167,0,0,1-.593-2.645,3.128,3.128,0,0,1,1.146-2.422,2.241,2.241,0,0,1,.739-.382.686.686,0,0,1,.3-.044,3.4,3.4,0,0,0-.956.529,3.123,3.123,0,0,0-1.041,2.326,6.722,6.722,0,0,0,.528,2.588A9.124,9.124,0,0,1,133.556,181.419Z" transform="translate(-132.445 -174.926)" fill="#fff"/>
        </g>
        <g id="Grupo_17102" data-name="Grupo 17102" transform="translate(10.584 4.1)">
          <path id="Trazado_33118" data-name="Trazado 33118" d="M116.251,165.506a.556.556,0,0,1,.077.143c.044.1.11.238.183.426a2.006,2.006,0,0,1,.161.726,2.173,2.173,0,0,1-.256.953,25.029,25.029,0,0,1-1.285,2.178,18.12,18.12,0,0,0-1.322,2.772,35.412,35.412,0,0,0-1.479,5.4c-.124.61-.238,1.161-.341,1.667a3.79,3.79,0,0,1-.146.607,4.062,4.062,0,0,1,.073-.621c.061-.4.153-.972.283-1.679a31.071,31.071,0,0,1,1.433-5.437,17.294,17.294,0,0,1,1.349-2.794c.5-.817,1.008-1.5,1.314-2.147a1.812,1.812,0,0,0,.145-1.6A4.585,4.585,0,0,1,116.251,165.506Z" transform="translate(-111.842 -165.506)" fill="#fff"/>
        </g>
      </g>
    </g>
    <g id="Cursor" transform="translate(189.085 145.838)">
      <path id="Trazado_33133" data-name="Trazado 33133" d="M348.987,252.254l2.288,12.142,1.881-3.388,4.04,6.052,2.02-1.362-4.04-6.052,3.709-.57Z" transform="translate(-348.987 -252.254)" fill="#263238"/>
    </g>
  </g>
</svg>
