<svg xmlns="http://www.w3.org/2000/svg" xmlns:xlink="http://www.w3.org/1999/xlink" width="419.106" height="320" viewBox="0 0 419.106 320">
  <defs>
    <clipPath id="clip-path">
      <rect id="Rectángulo_3471" data-name="Rectángulo 3471" width="21.276" height="9.435" fill="none"/>
    </clipPath>
  </defs>
  <g id="Grupo_16299" data-name="Grupo 16299" transform="translate(-1066 -24)">
    <path id="Trazado_32612" data-name="Trazado 32612" d="M160,0A160,160,0,1,1,0,160,160,160,0,0,1,160,0Z" transform="translate(1066 24)" fill="#373c6c"/>
    <g id="Grupo_16298" data-name="Grupo 16298" transform="translate(927.483 -85.981)">
      <g id="Grupo_16275" data-name="Grupo 16275" transform="translate(147.62 155.22)">
        <path id="Trazado_32210" data-name="Trazado 32210" d="M284.557,355.314s-5.013-29.409-44.448-22.391-30.746,40.772-30.746,40.772-33.42-3.676-45.785,21.723,7.018,44.448,46.787,37.43,117.3-23.728,129.334-47.122S326.666,326.572,284.557,355.314Z" transform="translate(-157.839 -331.84)" fill="#e3e9fe"/>
      </g>
      <g id="Grupo_16281" data-name="Grupo 16281" transform="translate(356.718 119.981)">
        <g id="Grupo_16276" data-name="Grupo 16276" transform="translate(28.557 0)">
          <circle id="Elipse_940" data-name="Elipse 940" cx="19.515" cy="19.515" r="19.515" transform="translate(0 81.726) rotate(-87.145)" fill="#8ededd"/>
          <circle id="Elipse_941" data-name="Elipse 941" cx="16.155" cy="16.155" r="16.155" transform="translate(34.045 30.924) rotate(-73.155)" fill="#8ededd"/>
          <circle id="Elipse_942" data-name="Elipse 942" cx="10.753" cy="10.753" r="10.753" transform="translate(88.911 45.873) rotate(-76.717)" fill="#8ededd"/>
          <path id="Trazado_32212" data-name="Trazado 32212" d="M1678.091,440.435a5.324,5.324,0,1,1-5.324-5.324A5.324,5.324,0,0,1,1678.091,440.435Z" transform="translate(-1652.304 -382.695)" fill="#fff"/>
          <path id="Trazado_32213" data-name="Trazado 32213" d="M1664.443,514.97a8.726,8.726,0,1,0-17.452,0Z" transform="translate(-1635.255 -441.997)" fill="#fff"/>
          <path id="Trazado_32214" data-name="Trazado 32214" d="M1885.721,192.53a4.112,4.112,0,1,1-4.112-4.112A4.112,4.112,0,0,1,1885.721,192.53Z" transform="translate(-1827.42 -177.035)" fill="#fff"/>
          <path id="Trazado_32215" data-name="Trazado 32215" d="M1875.668,249.872a6.617,6.617,0,1,0-13.235,0Z" transform="translate(-1814.862 -222.751)" fill="#fff"/>
          <circle id="Elipse_943" data-name="Elipse 943" cx="2.534" cy="2.534" r="2.534" transform="translate(99.251 37.291) rotate(-80.783)" fill="#fff"/>
          <path id="Trazado_32216" data-name="Trazado 32216" d="M2173.49,354.558a4.267,4.267,0,1,0-8.534,0Z" transform="translate(-2067.066 -311.983)" fill="#fff"/>
          <rect id="Rectángulo_3466" data-name="Rectángulo 3466" width="24.145" height="1.826" transform="translate(27.523 46.905) rotate(-52.431)" fill="#8ededd"/>
          <rect id="Rectángulo_3467" data-name="Rectángulo 3467" width="1.826" height="31.857" transform="translate(64.017 23.378) rotate(-70.964)" fill="#8ededd"/>
        </g>
        <path id="Trazado_32217" data-name="Trazado 32217" d="M1891.258,476.2h-5.992v-5.991a1.563,1.563,0,1,0-3.126,0V476.2h-5.991a1.563,1.563,0,1,0,0,3.126h5.991v5.992a1.563,1.563,0,1,0,3.126,0V479.33h5.992a1.563,1.563,0,1,0,0-3.126Z" transform="translate(-1796.436 -410.656)" fill="#c4d0fe"/>
        <path id="Trazado_32218" data-name="Trazado 32218" d="M1662.431,221.069h-5.289V215.78a1.38,1.38,0,0,0-2.76,0v5.289h-5.289a1.38,1.38,0,0,0,0,2.759h5.289v5.289a1.38,1.38,0,1,0,2.76,0v-5.289h5.289a1.38,1.38,0,0,0,0-2.759Z" transform="translate(-1607.3 -198.695)" fill="#c4d0fe"/>
        <path id="Trazado_32219" data-name="Trazado 32219" d="M2149.205,140.11h-3.094v-3.095a.807.807,0,0,0-1.615,0v3.095H2141.4a.807.807,0,1,0,0,1.615h3.095v3.095a.807.807,0,1,0,1.615,0v-3.095h3.094a.807.807,0,1,0,0-1.615Z" transform="translate(-2018.199 -133.509)" fill="#c4d0fe"/>
        <path id="Trazado_32220" data-name="Trazado 32220" d="M1976.826,396.892h-4.181v-4.181a1.091,1.091,0,0,0-2.182,0v4.181h-4.181a1.091,1.091,0,1,0,0,2.181h4.181v4.181a1.091,1.091,0,0,0,2.182,0v-4.181h4.181a1.091,1.091,0,1,0,0-2.181Z" transform="translate(-1871.971 -346.438)" fill="#c4d0fe"/>
        <path id="Trazado_32221" data-name="Trazado 32221" d="M1425.932,158.843,1407.1,172.885a1.177,1.177,0,0,0,.084,1.944l6.3,3.9a1.177,1.177,0,0,1,.25,1.793l-8.681,9.525a1.177,1.177,0,0,0,1.493,1.791l19.623-12.246a1.176,1.176,0,0,0,.024-1.981l-5.629-3.7a1.177,1.177,0,0,1-.352-1.606l7.416-11.894A1.177,1.177,0,0,0,1425.932,158.843Z" transform="translate(-1404.74 -152.177)" fill="#7794fd"/>
        <path id="Trazado_32222" data-name="Trazado 32222" d="M1515.4,656.625l-19.795.579a.992.992,0,0,0-.883,1.382l2.462,5.744a.992.992,0,0,1-.7,1.359l-10.6,2.373a.992.992,0,0,0,.164,1.959l19.474,1.046a.992.992,0,0,0,.976-1.356l-2.093-5.281a.992.992,0,0,1,.534-1.279l10.877-4.62A.992.992,0,0,0,1515.4,656.625Z" transform="translate(-1471.74 -567.365)" fill="#7794fd"/>
        <g id="Grupo_16278" data-name="Grupo 16278" transform="translate(-77.39 4.939)">
          <path id="Trazado_32223" data-name="Trazado 32223" d="M2117.345,619.3a13.487,13.487,0,0,0,3.511-4.005c1.573-2.672,3.064-5.195,3.044-6.963s.595-5.3,1.488-5.857,2.581-.556,3.785,1.389,1.365,6.709.853,8.741l1.458-.083s6.571-2.131,7.839-2.029,2.892.22,3.314,2.2a7.49,7.49,0,0,1-.271,4.329s2.57,1.344,2.908,3.348a4.451,4.451,0,0,1-1.386,4.058s1.4,3.175-.575,4.836-6.386,2.765-8.52,2.118a16.4,16.4,0,0,1-15.317,1.756Z" transform="translate(-2108.427 -601.891)" fill="#fff"/>
          <path id="Trazado_32224" data-name="Trazado 32224" d="M2180.158,667.571a.292.292,0,0,1-.221-.514c.02-.017,1.994-1.68,2.183-3.368a.292.292,0,0,1,.58.065c-.215,1.923-2.3,3.677-2.389,3.751A.291.291,0,0,1,2180.158,667.571Z" transform="translate(-2160.521 -652.977)" fill="#5d88fc"/>
          <g id="Grupo_16277" data-name="Grupo 16277">
            <path id="Trazado_32225" data-name="Trazado 32225" d="M2127.221,633.005a22.523,22.523,0,0,1-8.554-.662l-.19-.051-1.693-14.2.093-.1c.064-.068,6.355-6.817,6.5-11.949.137-4.83,1.279-5.335,2.436-5.439.049,0,.1-.008.142-.014a3.389,3.389,0,0,1,2.448,1.18c1.213,1.246,2.482,3.883,1.76,9.394a74.532,74.532,0,0,1,8.139-2.256,3.771,3.771,0,0,1,4.379,3.074,6.082,6.082,0,0,1-.412,3.691,5.2,5.2,0,0,1,2.827,3.446,3.708,3.708,0,0,1-1.368,4.046c.278.487.669,1.644.032,3.808-.807,2.742-5.431,3.67-9.186,3.632A18.4,18.4,0,0,1,2127.221,633.005Zm-8.212-1.175c9.164,2.384,15.257-1.714,15.317-1.756l.077-.053h.093c2.871.04,7.935-.591,8.707-3.212.764-2.6-.077-3.5-.085-3.51l-.263-.271.326-.189a3.12,3.12,0,0,0,1.355-3.569,4.541,4.541,0,0,0-2.754-3.166l-.343-.111.18-.313a5.54,5.54,0,0,0,.5-3.576,3.183,3.183,0,0,0-3.74-2.616,85.565,85.565,0,0,0-8.47,2.374l-.448.146.069-.466c.821-5.591-.383-8.179-1.537-9.366a2.931,2.931,0,0,0-1.961-1.007l-.159.016c-.662.06-1.771.158-1.9,4.875-.144,5.065-5.739,11.332-6.566,12.231Z" transform="translate(-2107.959 -600.585)" fill="#5d88fc"/>
            <path id="Trazado_32226" data-name="Trazado 32226" d="M2201.961,675.93c-.083,0-2.025,0-2.33-2.56a3.4,3.4,0,0,1,1.5-2.944,2.96,2.96,0,0,1-1.235-.475,3.394,3.394,0,0,1-1.344-2.309,3.353,3.353,0,0,1,1.33-3.622,2.688,2.688,0,0,1-.767-.365,4.269,4.269,0,0,1-1.585-2.942c-.666-3.849,4.726-5.658,4.956-5.734l.181.554c-.052.017-5.142,1.727-4.563,5.08a3.736,3.736,0,0,0,1.331,2.554,2.047,2.047,0,0,0,1.443.362.3.3,0,0,1,.339.222.291.291,0,0,1-.208.346,2.8,2.8,0,0,0-1.884,3.44,2.838,2.838,0,0,0,1.1,1.932,2.63,2.63,0,0,0,1.8.384.292.292,0,0,1,.19.545c-.022.012-2.215,1.187-2.01,2.9.244,2.043,1.682,2.046,1.743,2.045Z" transform="translate(-2175.231 -645.932)" fill="#5d88fc"/>
            <path id="Trazado_32227" data-name="Trazado 32227" d="M2215.117,698a.292.292,0,0,1-.115-.57l6.245-1.809a.292.292,0,0,1,.162.56l-6.244,1.808Z" transform="translate(-2189.665 -679.807)" fill="#5d88fc"/>
            <path id="Trazado_32228" data-name="Trazado 32228" d="M2222.453,736.924a.292.292,0,0,1-.118-.569l5.505-1.642a.292.292,0,0,1,.167.559l-5.505,1.642Z" transform="translate(-2195.781 -712.393)" fill="#5d88fc"/>
            <path id="Trazado_32229" data-name="Trazado 32229" d="M2070.568,700.573h0a4.874,4.874,0,0,1-5.4-4.251l-1.4-11.776a4.86,4.86,0,0,1,9.653-1.151l1.4,11.776A4.875,4.875,0,0,1,2070.568,700.573Z" transform="translate(-2063.729 -666.049)" fill="#7794fd"/>
          </g>
        </g>
        <g id="Grupo_16280" data-name="Grupo 16280" transform="translate(-103.851 266.488)">
          <path id="Trazado_32230" data-name="Trazado 32230" d="M2448.024,348.795a9.363,9.363,0,0,0,3.376-1.5c1.767-1.226,3.44-2.381,3.941-3.5s1.914-3.162,2.639-3.257,1.787.4,1.98,1.975-1.091,4.622-2,5.753l.942.372s4.758.568,5.527,1,1.758.979,1.449,2.348a5.2,5.2,0,0,1-1.428,2.648s1.229,1.593.859,2.954a3.086,3.086,0,0,1-2.053,2.153s-.04,2.407-1.768,2.879a8.112,8.112,0,0,1-5.981-1.142,11.373,11.373,0,0,1-10.158-3.346Z" transform="translate(-2439.411 -340.328)" fill="#fff"/>
          <path id="Trazado_32231" data-name="Trazado 32231" d="M2506.259,388.433a.2.2,0,0,1,.01-.388,4.594,4.594,0,0,0,2.353-1.487.2.2,0,0,1,.346.209,4.9,4.9,0,0,1-2.595,1.668A.2.2,0,0,1,2506.259,388.433Z" transform="translate(-2490.075 -378.624)" fill="#5d88fc"/>
          <g id="Grupo_16279" data-name="Grupo 16279">
            <path id="Trazado_32232" data-name="Trazado 32232" d="M2447.824,360.276a15.619,15.619,0,0,1-5.2-2.9l-.105-.088,3.061-9.435.087-.035c.06-.024,5.984-2.447,7.567-5.636,1.49-3,2.356-2.988,3.115-2.718l.093.032a2.349,2.349,0,0,1,1.2,1.455c.4,1.137.435,3.167-1.621,6.428a51.733,51.733,0,0,1,5.782.945,2.616,2.616,0,0,1,1.865,3.209,4.222,4.222,0,0,1-1.332,2.205,3.6,3.6,0,0,1,.779,2.992,2.572,2.572,0,0,1-2.037,2.151,3.368,3.368,0,0,1-1.087,2.408c-1.305,1.493-4.487.733-6.841-.382A12.763,12.763,0,0,1,2447.824,360.276Zm-4.831-3.127a13.685,13.685,0,0,0,10.158,3.346l.063-.011.058.028c1.8.86,5.17,1.933,6.417.507s.969-2.228.967-2.235l-.087-.247.26-.025a2.164,2.164,0,0,0,1.891-1.854,3.151,3.151,0,0,0-.814-2.795l-.184-.17.2-.145a3.845,3.845,0,0,0,1.351-2.108,2.208,2.208,0,0,0-1.6-2.734,59.358,59.358,0,0,0-6.025-.966l-.324-.038.178-.274c2.142-3.283,2.136-5.263,1.754-6.346a2.034,2.034,0,0,0-.942-1.2l-.1-.036c-.434-.154-1.161-.415-2.616,2.517-1.562,3.148-6.908,5.469-7.69,5.8Z" transform="translate(-2437.058 -339.348)" fill="#5d88fc"/>
            <path id="Trazado_32233" data-name="Trazado 32233" d="M2502.558,403.49a1.717,1.717,0,0,1-.724-2.289,2.358,2.358,0,0,1,1.8-1.417,2.06,2.06,0,0,1-.64-.658,2.355,2.355,0,0,1-.175-1.844,2.325,2.325,0,0,1,1.89-1.895,1.867,1.867,0,0,1-.377-.453,2.961,2.961,0,0,1-.143-2.314c.7-2.618,4.621-2.19,4.788-2.171l-.047.4c-.037,0-3.741-.406-4.35,1.874a2.592,2.592,0,0,0,.1,2,1.421,1.421,0,0,0,.8.648.205.205,0,0,1,.148.238.2.2,0,0,1-.232.157,1.939,1.939,0,0,0-2.186,1.619,1.97,1.97,0,0,0,.131,1.536,1.823,1.823,0,0,0,1.022.765.2.2,0,0,1-.038.4c-.018,0-1.74.1-2.11,1.244-.44,1.357.464,1.778.5,1.795Z" transform="translate(-2486.385 -381.918)" fill="#5d88fc"/>
            <path id="Trazado_32234" data-name="Trazado 32234" d="M2521.985,420.14a.2.2,0,0,1,.093-.393l4.458.676a.2.2,0,1,1-.061.4l-4.458-.676Z" transform="translate(-2503.186 -406.373)" fill="#5d88fc"/>
            <path id="Trazado_32235" data-name="Trazado 32235" d="M2515.536,446.262a.2.2,0,0,1,.091-.393l3.945.566a.2.2,0,0,1-.057.4l-3.945-.566Z" transform="translate(-2497.81 -428.15)" fill="#5d88fc"/>
            <path id="Trazado_32236" data-name="Trazado 32236" d="M2411.993,379.24h0a3.381,3.381,0,0,1-2.167-4.247l2.539-7.825a3.371,3.371,0,0,1,6.414,2.08l-2.538,7.825A3.381,3.381,0,0,1,2411.993,379.24Z" transform="translate(-2409.663 -360.597)" fill="#7794fd"/>
          </g>
        </g>
      </g>
      <g id="Grupo_16282" data-name="Grupo 16282" transform="translate(494.631 242.513)">
        <path id="Trazado_32237" data-name="Trazado 32237" d="M2264.656,856.7l-26.979,3.521a4.366,4.366,0,0,0-3.753,4.88l1.795,13.751a4.366,4.366,0,0,0,4.88,3.753l17.886-2.334,6.521,4.224a1.5,1.5,0,0,0,2.3-1.453l-.5-3.856.771-.1a4.366,4.366,0,0,0,3.753-4.88l-1.795-13.751A4.366,4.366,0,0,0,2264.656,856.7Z" transform="translate(-2233.887 -856.66)" fill="#e3e9fe"/>
        <path id="Trazado_32238" data-name="Trazado 32238" d="M2289.647,897.133l-24.086,3.151a.993.993,0,1,1-.257-1.966l24.086-3.151a.993.993,0,1,1,.257,1.966Z" transform="translate(-2259.311 -888.754)" fill="#a1b5ff"/>
        <path id="Trazado_32239" data-name="Trazado 32239" d="M2296.861,943.614l-24.086,3.151a.993.993,0,1,1-.257-1.966l24.086-3.151a.993.993,0,1,1,.257,1.966Z" transform="translate(-2265.325 -927.504)" fill="#a1b5ff"/>
        <path id="Trazado_32240" data-name="Trazado 32240" d="M2286.287,925.259l-17.115,2.238a.993.993,0,1,1-.257-1.966l17.115-2.239a.993.993,0,1,1,.257,1.966Z" transform="translate(-2262.322 -912.202)" fill="#a1b5ff"/>
      </g>
      <g id="Grupo_16285" data-name="Grupo 16285" transform="translate(149.142 314.229)">
        <g id="Grupo_16283" data-name="Grupo 16283" transform="translate(0 25.98)">
          <path id="Trazado_32241" data-name="Trazado 32241" d="M162.565,1469.89H333.009a2.988,2.988,0,0,0,2.745-3.168v-19.535a2.988,2.988,0,0,0-2.745-3.168H162.565a2.988,2.988,0,0,0-2.745,3.168v19.535A2.988,2.988,0,0,0,162.565,1469.89Z" transform="translate(-159.313 -1444.019)" fill="#87a1fd"/>
          <path id="Trazado_32242" data-name="Trazado 32242" d="M159.82,1485.777h39.042a3.012,3.012,0,0,0,2.805-3.168v-11.615a3.012,3.012,0,0,0-2.805-3.168H159.82Z" transform="translate(-159.313 -1463.866)" fill="#f2f4ff"/>
          <path id="Trazado_32243" data-name="Trazado 32243" d="M157.277,1482.19h21.041a.507.507,0,0,0,0-1.015H157.277a.507.507,0,0,0,0,1.015Z" transform="translate(-156.77 -1474.995)" fill="#8ca4ff"/>
          <path id="Trazado_32244" data-name="Trazado 32244" d="M282.011,1512.61h20.633a.507.507,0,1,0,0-1.015H282.011a.507.507,0,1,0,0,1.015Z" transform="translate(-260.757 -1500.355)" fill="#8ca4ff"/>
          <path id="Trazado_32245" data-name="Trazado 32245" d="M157.277,1538h41.38a.507.507,0,1,0,0-1.015h-41.38a.507.507,0,1,0,0,1.015Z" transform="translate(-156.77 -1521.525)" fill="#8ca4ff"/>
          <path id="Trazado_32246" data-name="Trazado 32246" d="M411.411,1493.285v10.494h17.3l-5.143-5.28,5.143-5.28Z" transform="translate(-369.057 -1485.036)" fill="#ff5475"/>
        </g>
        <g id="Grupo_16284" data-name="Grupo 16284" transform="translate(13.94)">
          <path id="Trazado_32247" data-name="Trazado 32247" d="M383.154,1313.7H246.136c-1.379,0-2.506-1.425-2.506-3.168v-19.535c0-1.742,1.128-3.168,2.506-3.168H383.154c5.629,0,10.234,5.821,10.234,12.935h0C393.388,1307.875,388.783,1313.7,383.154,1313.7Z" transform="translate(-243.123 -1287.825)" fill="#34a7b0"/>
          <path id="Trazado_32248" data-name="Trazado 32248" d="M429.48,1329.583H535.167c3.906,0,7.1-4.039,7.1-8.975s-3.2-8.976-7.1-8.976H429.48Z" transform="translate(-398.06 -1307.672)" fill="#c4d0fe"/>
          <path id="Trazado_32249" data-name="Trazado 32249" d="M243.63,1329.583H349.317c3.906,0,7.1-4.039,7.1-8.975s-3.2-8.976-7.1-8.976H243.63Z" transform="translate(-243.123 -1307.672)" fill="#f2f4ff"/>
          <path id="Trazado_32250" data-name="Trazado 32250" d="M241.087,1341.34h53.679a.507.507,0,0,0,0-1.015H241.087a.507.507,0,0,0,0,1.015Z" transform="translate(-240.58 -1331.593)" fill="#8ca4ff"/>
          <path id="Trazado_32251" data-name="Trazado 32251" d="M541.837,1369.114H604.6a.507.507,0,0,0,0-1.015H541.837a.507.507,0,0,0,0,1.015Z" transform="translate(-491.306 -1354.747)" fill="#8ca4ff"/>
          <path id="Trazado_32252" data-name="Trazado 32252" d="M241.715,1396.757H263.96a.507.507,0,0,0,0-1.015H241.715a.507.507,0,0,0,0,1.015Z" transform="translate(-241.104 -1377.792)" fill="#8ca4ff"/>
          <path id="Trazado_32253" data-name="Trazado 32253" d="M722.9,1375.116l5.709,6.468,4.874-6.468Z" transform="translate(-642.679 -1360.597)" fill="#ff5475"/>
          <path id="Trazado_32254" data-name="Trazado 32254" d="M372.553,1346.549l5.709,6.468,4.874-6.468Z" transform="translate(-350.602 -1336.781)" fill="#ff5475"/>
        </g>
      </g>
      <g id="Grupo_16286" data-name="Grupo 16286" transform="translate(172.112 177.387)">
        <path id="Trazado_32255" data-name="Trazado 32255" d="M491.592,636.069c0,1.7-.692,3.836-3.789,3.836s-7.426-2.136-7.426-3.836a10.515,10.515,0,0,1,11.216,0Z" transform="translate(-449.521 -606.283)" fill="#ffafa1"/>
        <path id="Rectángulo_3468" data-name="Rectángulo 3468" d="M2.878,0h0A2.878,2.878,0,0,1,5.757,2.878V8.338a2.878,2.878,0,0,1-2.878,2.878h0A2.878,2.878,0,0,1,0,8.337V2.878A2.878,2.878,0,0,1,2.878,0Z" transform="translate(33.178 20.13) rotate(-2.625)" fill="#ffafa1"/>
        <path id="Trazado_32256" data-name="Trazado 32256" d="M495.067,607.389a10.984,10.984,0,0,1-4.749,1.086l-.3,3.334-1.895.07a7.624,7.624,0,0,1,1.408-.531l-.2-5.147Z" transform="translate(-455.977 -582.734)" fill="#de666d"/>
        <path id="Trazado_32257" data-name="Trazado 32257" d="M529.093,520.889s.942-5.658-2.8-7.419l-.864,1.3S527.716,516.308,529.093,520.889Z" transform="translate(-487.082 -505.427)" fill="#ffe8de"/>
        <path id="Trazado_32258" data-name="Trazado 32258" d="M470.877,525.458c.387,1.81,2.679,5.135,5.458,5.424a21.279,21.279,0,0,0,5.441-.017,9.6,9.6,0,0,0,1.614-6.091c-.116-4.267-2.045-8.57-3.738-9.667C477.455,513.684,468.5,514.175,470.877,525.458Z" transform="translate(-441.269 -506.315)" fill="#ffafa1"/>
        <ellipse id="Elipse_944" data-name="Elipse 944" cx="1.743" cy="1.44" rx="1.743" ry="1.44" transform="translate(32.068 18.466)" fill="#ff8686"/>
        <path id="Trazado_32259" data-name="Trazado 32259" d="M537.782,567.582a1.6,1.6,0,0,0,1.693,1.438c.026-.384.036-.789.025-1.218a16.233,16.233,0,0,0-.133-1.653A1.58,1.58,0,0,0,537.782,567.582Z" transform="translate(-497.378 -549.344)" fill="#ff8686"/>
        <path id="Trazado_32260" data-name="Trazado 32260" d="M476.956,526.536a10.24,10.24,0,0,0,3.833-2.813s-2.88,3.486-2.728,4.547c0,0,0-.607,1.516-1.97s5.963-5.685,4.573-9.057a3.562,3.562,0,0,1,1.035,3.449,19.859,19.859,0,0,0-.606,2.122s2.728-2.122,2.274-3.941l-1.061-1.516-2.576-1.364L476.69,526.12Z" transform="translate(-446.448 -507.53)" fill="#de666d"/>
        <path id="Trazado_32261" data-name="Trazado 32261" d="M510.877,510.508s3.727,1.96,1.037,6.326c0,0,2.915-2.707,2.966-4.985s-2.563-3.073-3.32-3.04-1.549.131-1.549.131A1.789,1.789,0,0,0,510.877,510.508Z" transform="translate(-474.226 -501.54)" fill="#ffe8de"/>
        <path id="Trazado_32262" data-name="Trazado 32262" d="M421.309,481.245s-1.473-9.341-4.593-7.838-3.539,5.769-3.6,7.744.385,5.293,2.919,4.271a48.775,48.775,0,0,0,5.344-2.662Z" transform="translate(-393.44 -471.891)" fill="#ffe8de"/>
        <path id="Trazado_32263" data-name="Trazado 32263" d="M427.382,476.478s2.9-1.193,4.874,5.627C432.256,482.1,431.346,473.617,427.382,476.478Z" transform="translate(-405.341 -474.096)" fill="#fff"/>
        <path id="Trazado_32264" data-name="Trazado 32264" d="M421.661,481.341s-1.322,5.461,4.741,6.218c0,0-3.334.758-4.85-1.212S421.661,481.341,421.661,481.341Z" transform="translate(-399.942 -478.642)" fill="#e0a9a0"/>
        <path id="Trazado_32265" data-name="Trazado 32265" d="M420.506,510.909v-1.833a24.359,24.359,0,0,1-5,1.213c-2.566.3-2.156-3.83-2.153-3.865a16.855,16.855,0,0,0-.24,2.389c-.065,1.975.385,5.293,2.919,4.271A44.846,44.846,0,0,0,420.506,510.909Z" transform="translate(-393.44 -499.552)" fill="#e0a9a0"/>
        <path id="Trazado_32266" data-name="Trazado 32266" d="M455.383,465.112s2.465,4.291.162,7.123l.424,1.6s2.083-3.227,1.213-5.768S455.383,465.112,455.383,465.112Z" transform="translate(-428.685 -465.112)" fill="#ffe8de"/>
        <path id="Trazado_32267" data-name="Trazado 32267" d="M446.117,514.47s-1.333-.486.119-3.426c1.532-3.1,2.911-1.645,2.911-1.645Z" transform="translate(-420.495 -501.748)" fill="#434f97"/>
        <path id="Trazado_32268" data-name="Trazado 32268" d="M451.815,511.07s-5.559-5.672-.48-10.9,10.724-1.079,10.764-.17c0,0-3.008.587-4.146,2.306S451.815,511.07,451.815,511.07Z" transform="translate(-423.526 -492.177)" fill="#ffe8de"/>
        <path id="Trazado_32269" data-name="Trazado 32269" d="M483.609,590.986a.217.217,0,0,0,.037.088C483.632,591.045,483.62,591.016,483.609,590.986Z" transform="translate(-452.216 -570.049)" fill="#ffe8de"/>
        <path id="Trazado_32270" data-name="Trazado 32270" d="M467.676,507.784a4.944,4.944,0,0,1-.329-.592c-4.082.331-7.9,3.23-9.035,8.438s2.019,7.952,2.019,7.952c-1.772-2.349.715-4.431,4.361-7.777a7.94,7.94,0,0,0,1.182-1.364,6.95,6.95,0,0,1-.721,1.495c-1.8,2.734-3.221,4.161-2.838,5.193-.063-.271.024-1.237,2.747-3.824C468.41,514.124,468.638,508.956,467.676,507.784Z" transform="translate(-430.921 -500.193)" fill="#ffe8de"/>
        <path id="Trazado_32271" data-name="Trazado 32271" d="M305.452,660.19s4.8,12.294,8.479,13.849a40.689,40.689,0,0,1,4.8,2.261l6.924-13.283-6.218-1.272-2.4,7.49a72.983,72.983,0,0,0-9.327-10.457,36.272,36.272,0,0,1-.848-3.815c-.283-1.837-.141-3.109,1.413-4.522,0,0-.141-.565-1.413-.283a2.468,2.468,0,0,0-1.7,2.4,5.907,5.907,0,0,1-.989,2.12,8.782,8.782,0,0,1-2.4-1.837c-.565-.848-3.25-2.12-4.522-2.826s-.848,1.13,0,1.554,1.837.848,1.837.848l1.554,1.413a15.217,15.217,0,0,0-2.261-.283,20.089,20.089,0,0,0-3.391.424c-.424.141.283.989,1.413.848,0,0-.707.141-.707.283s.141.848,2.12.707l1.413.283a11.473,11.473,0,0,0-1.272.283c-.424.141-1.413.424-1.413.424s-.424.707.989.565c.267-.027.654-.082.989-.142a3.521,3.521,0,0,1,1.13.142,3.156,3.156,0,0,0,.424.707,5.555,5.555,0,0,0,3.391,1.978C305.593,660.331,305.452,660.19,305.452,660.19Z" transform="translate(-294.87 -619.127)" fill="#ffafa1"/>
        <path id="Trazado_32272" data-name="Trazado 32272" d="M605.046,672.858s-6.77,6.131-9.924,8.3a36.758,36.758,0,0,1-4.8,2.053l-9.239-13.108,3.677-3.88,6.894,10.319a93.5,93.5,0,0,1,11.3-5.256,37.18,37.18,0,0,0,1.1-3.746c.407-1.812.362-3.091-1.044-4.609,0,0,.178-.554,1.391-.182a2.468,2.468,0,0,1,1.472,2.515,5.979,5.979,0,0,0,.806,2.184,8.559,8.559,0,0,0,2.463-1.664c.61-.806,3.306-1.886,4.591-2.5s.741,1.187-.112,1.55-1.843.717-1.843.717l-1.61,1.3a14.449,14.449,0,0,1,2.214-.123,19.04,19.04,0,0,1,3.259.661c.4.171-.346.967-1.432.747,0,0,.675.19.665.331s-.2.836-2.107.556l-1.391.183a10.954,10.954,0,0,1,1.213.371c.4.171,1.34.522,1.34.522s.36.735-1,.494c-.257-.045-.628-.127-.949-.21a3.34,3.34,0,0,0-1.107.062,3.162,3.162,0,0,1-.462.675,5.39,5.39,0,0,1-3.433,1.735C604.9,672.989,605.046,672.858,605.046,672.858Z" transform="translate(-533.477 -629.771)" fill="#ffafa1"/>
        <path id="Trazado_32273" data-name="Trazado 32273" d="M413.2,733.227l4.1,2.4-4.239,9.609s-6.076-2.4-4.663-1.7,4.8,2.261,4.8,2.261l5.6-10.751Z" transform="translate(-389.334 -688.631)" fill="#e07972"/>
        <path id="Trazado_32274" data-name="Trazado 32274" d="M373.542,944.258s-.758,5.911-2.88,9.7-5.911,6.517-8.336,18.793a99.262,99.262,0,0,0-1.994,21.534s-1.946,3.322-1.491,4.08,4.221,1.882,9.98,1.579c.606-.758-4.136-1.306-5.441-4.789-.958-2.554,2.13-14.978,4.555-19.525s5.911-11.822,6.82-14.095a79.752,79.752,0,0,1,5-10.609Z" transform="translate(-348.143 -864.561)" fill="#ffafa1"/>
        <path id="Trazado_32275" data-name="Trazado 32275" d="M436.139,974.641s2.447,3.921,5.539,4.076l1.819-3.536-6.517-3.587Z" transform="translate(-412.642 -887.351)" fill="#de666d"/>
        <path id="Trazado_32276" data-name="Trazado 32276" d="M514.58,946.683a34.425,34.425,0,0,1,.758,7.321c-.152,3.136-1.667,7.532-1.819,12.23s.757,28.922.757,28.922l-.871,3.7,3.7.435s3.918.871,5.659,0l-5.877-3.918s3.452-25.5,4.967-35.96,2.576-15.156,2.576-15.156Z" transform="translate(-477.056 -864.561)" fill="#ffafa1"/>
        <path id="Trazado_32277" data-name="Trazado 32277" d="M522.427,1003.1a37.306,37.306,0,0,0,7.1,1.208l.833-4.926-7.5.531a11.435,11.435,0,0,1-.152,1.857C522.556,1002.493,522.427,1003.1,522.427,1003.1Z" transform="translate(-484.577 -910.52)" fill="#de666d"/>
        <path id="Trazado_32278" data-name="Trazado 32278" d="M356.365,1254.191a12.161,12.161,0,0,0,1.484,1.806c.87.858,3.74,2.765,6.134,1.676.5-.226-.871-1.089-.871-1.089a15.537,15.537,0,0,1,3.483,1.089c1.121.631,1.319.794,1.524,1.524s-1.637.8-4.135.87-9.035.2-8.924-1.088A21.1,21.1,0,0,1,356.365,1254.191Z" transform="translate(-345.047 -1122.943)" fill="#5e82ff"/>
        <path id="Trazado_32279" data-name="Trazado 32279" d="M512.087,1254.191A12.161,12.161,0,0,0,513.57,1256c.87.858,3.74,2.765,6.134,1.676.5-.226-.871-1.089-.871-1.089a15.538,15.538,0,0,1,3.483,1.089c1.121.631,1.319.794,1.524,1.524s-1.637.8-4.135.87-9.035.2-8.924-1.088A21.1,21.1,0,0,1,512.087,1254.191Z" transform="translate(-474.867 -1122.943)" fill="#5e82ff"/>
        <path id="Trazado_32280" data-name="Trazado 32280" d="M442.934,639.2s-4.938.26-5.544,1.927-2.273,9.094-3.486,13.034a39.868,39.868,0,0,0,8.184,2.425,13.071,13.071,0,0,0,3.637,6.517s8.791,1.667,11.67.455c0,0,2.576-6.972,2.728-10.609a7.622,7.622,0,0,0,2.88-4.244s-4.85-8.184-6.063-9.094-4.564-.358-5.911-.606c0,0,1.743.834,1.629,2.235s-4.054,2.463-6.025,1.705S443.477,641.365,442.934,639.2Z" transform="translate(-410.778 -610.081)" fill="#fff"/>
        <path id="Trazado_32281" data-name="Trazado 32281" d="M578.835,690.19s2.176,3.7,2.176,5.442c0,0,1.182-1.2,1.353-1.361Z" transform="translate(-531.603 -652.753)" fill="#c4d0fe"/>
        <path id="Trazado_32282" data-name="Trazado 32282" d="M421.268,782.388l.3-2.117,12.42.673.013,2.051,8.639,31.222s-14.6,8.767-26.826,1.667c-9.4-5.456-10.155-10.306-10.155-10.306Z" transform="translate(-387.23 -727.85)" fill="#ff5475"/>
        <path id="Trazado_32283" data-name="Trazado 32283" d="M469.029,576.439s-1.41-1.533-1.865-.017a2.9,2.9,0,0,0,2.848,3.508Z" transform="translate(-438.431 -557.35)" fill="#ffafa1"/>
        <path id="Trazado_32284" data-name="Trazado 32284" d="M479.851,721.926a4.723,4.723,0,0,0,3.486,3.486,5.952,5.952,0,0,0,4.547-.606,28.731,28.731,0,0,1-4.092,3.334,10.543,10.543,0,0,0,1.514,3.6l-1.969-.112a14.807,14.807,0,0,1-2.956-5.684C479.4,722.38,479.851,721.926,479.851,721.926Z" transform="translate(-448.996 -679.21)" fill="#c4d0fe"/>
        <path id="Trazado_32285" data-name="Trazado 32285" d="M496.385,685.88s-1.42-1.32-1.97,0c-.758,1.819,2.728,2.122,2.728,2.122s1.6-1.194.909-2.576C497.446,684.213,496.234,685.274,496.385,685.88Z" transform="translate(-461.134 -648.317)" fill="#ff7292"/>
        <path id="Trazado_32286" data-name="Trazado 32286" d="M423.693,780.394l-.455,2.122-13.495,28.965s-3.329-2.745-4.087-5.928l15.611-23.189.3-2.122Z" transform="translate(-387.23 -727.827)" fill="#d1385c"/>
        <rect id="Rectángulo_3469" data-name="Rectángulo 3469" width="0.406" height="9.711" transform="translate(34.786 54.589) rotate(-87.316)" fill="#d1385c"/>
        <path id="Trazado_32287" data-name="Trazado 32287" d="M531.743,555.419a6.445,6.445,0,0,1,1.283.095l.664-.338-.606.909s-.758-.606-2.573-.034A2.644,2.644,0,0,1,531.743,555.419Z" transform="translate(-491.316 -540.195)" fill="#443e61"/>
        <path id="Trazado_32288" data-name="Trazado 32288" d="M496.018,562.153a6.452,6.452,0,0,0-1.181.509l-.793-.185.909.758a2.815,2.815,0,0,1,2.437-.889A2.64,2.64,0,0,0,496.018,562.153Z" transform="translate(-460.915 -545.982)" fill="#443e61"/>
        <path id="Trazado_32289" data-name="Trazado 32289" d="M452.616,506.423h0a10.07,10.07,0,0,0-1.282,1.12c-3.547,3.652-1.906,7.519-.594,9.52a10.7,10.7,0,0,1-.452-5.714A12.784,12.784,0,0,1,452.616,506.423Z" transform="translate(-423.526 -499.552)" fill="#e0a9a0"/>
        <path id="Trazado_32290" data-name="Trazado 32290" d="M466.925,517.554s-7.532,6.588-4.865,13.774a9.673,9.673,0,0,1,.545-9.486C464.879,518.355,466.925,517.554,466.925,517.554Z" transform="translate(-433.418 -508.831)" fill="#e0a9a0"/>
        <path id="Trazado_32291" data-name="Trazado 32291" d="M522.9,510.526s1.819,1.061,1.819,2.728-2.419,4.87-2.424,4.876c.581-.574,2.781-2.873,2.826-4.849a2.713,2.713,0,0,0-.047-.572C524.571,510.526,522.9,510.526,522.9,510.526Z" transform="translate(-484.471 -502.972)" fill="#fff"/>
        <path id="Trazado_32292" data-name="Trazado 32292" d="M481.926,515.537a7.877,7.877,0,0,1-.676,6.073c-1.208,2.221-4.559,4.433-4.559,4.433a17.416,17.416,0,0,0,3.947-4.823A7.989,7.989,0,0,0,481.926,515.537Z" transform="translate(-446.448 -507.15)" fill="#fff"/>
        <path id="Trazado_32293" data-name="Trazado 32293" d="M466.545,505.97s-4.85,1.212-5.3,5.911C461.24,511.881,461.695,509,466.545,505.97Z" transform="translate(-433.568 -499.174)" fill="#fff"/>
        <path id="Trazado_32294" data-name="Trazado 32294" d="M568.366,731.643a4.016,4.016,0,0,0,3.714-.606,6.147,6.147,0,0,0-.208,1.171A3.112,3.112,0,0,1,568.366,731.643Z" transform="translate(-522.875 -686.806)" fill="#c4d0fe"/>
        <path id="Trazado_32295" data-name="Trazado 32295" d="M510.978,589.264s-1.248-.344-1.459.222,1.021,1.513,1.7,1.646,2.6-.91,2.794-1.884S512.207,589.706,510.978,589.264Z" transform="translate(-473.796 -568.311)" fill="#de666d"/>
        <path id="Trazado_32296" data-name="Trazado 32296" d="M512.711,589.268a2.525,2.525,0,0,0-1.137-.053c.091.34.439,1.059,1.747,1.081,1.659.029,2.329-.7,2.421-1.016l.007-.029a.548.548,0,0,0-.006-.223C515.548,588.545,513.818,589.666,512.711,589.268Z" transform="translate(-475.53 -568.315)" fill="#fff"/>
      </g>
      <g id="Grupo_16287" data-name="Grupo 16287" transform="translate(229.776 149.967)">
        <path id="Trazado_32297" data-name="Trazado 32297" d="M751.485,863.352s2.9,50.621,19.294,68.67h12.24s-13.485-39.833-10.165-71.574Z" transform="translate(-733.2 -767.271)" fill="#4d5bad"/>
        <path id="Trazado_32298" data-name="Trazado 32298" d="M889.474,943.4s-13.358-45.043-8.857-69.3l-3.828.4s-3.289,26.791,10.4,68.906Z" transform="translate(-837.373 -778.65)" fill="#2f3e97"/>
        <path id="Trazado_32299" data-name="Trazado 32299" d="M752.7,883.152h20.32l.28-6.663L752.3,878.671Z" transform="translate(-733.883 -780.644)" fill="#2f3e97"/>
        <path id="Trazado_32300" data-name="Trazado 32300" d="M881.463,429.334s24.688,6.639,52.9,23.236c0,0-23.028-21.368-27.385-53.11s7.884-57.882,7.884-57.882-9.193,15.6-43.152,36.513c0,0-14.522,2.282-11.41,24.688S876.276,429.542,881.463,429.334Z" transform="translate(-823.553 -334.705)" fill="#4d5bad"/>
        <path id="Trazado_32301" data-name="Trazado 32301" d="M675.6,612.239,645.581,623.28a4.6,4.6,0,0,0-2.867,3.174,37.067,37.067,0,0,0,5.693,30.754,4.619,4.619,0,0,0,4.237,1.928l36.031-3.745-11.618-20.539Z" transform="translate(-641.553 -560.347)" fill="#4d5bad"/>
        <path id="Trazado_32302" data-name="Trazado 32302" d="M814.992,612.239l-3.427,1.26c-3.014,5.937-3.763,14.1-1.488,22.418,2.575,9.412,8.38,16.684,14.945,19.789l3.04-.316-11.618-20.539Z" transform="translate(-780.94 -560.347)" fill="#2f3e97"/>
        <path id="Trazado_32303" data-name="Trazado 32303" d="M828.561,590.371c-3.592-13.131.352-25.877,8.851-30.085a14.128,14.128,0,0,0-6.02.3c-10.187,2.787-15.263,16.681-11.337,31.033s15.366,23.729,25.553,20.943a13.781,13.781,0,0,0,2.486-.948C839.763,610.264,831.724,601.934,828.561,590.371Z" transform="translate(-789.258 -516.876)" fill="#7881b8"/>
        <path id="Trazado_32304" data-name="Trazado 32304" d="M680.369,802.042s-17.911-.83-24.55-1.452-11.854-13.644-11.87-13.685a36.314,36.314,0,0,0,6.456,15.916,4.619,4.619,0,0,0,4.237,1.928l25.5-2.651Z" transform="translate(-643.55 -705.961)" fill="#2f3e97"/>
        <path id="Trazado_32305" data-name="Trazado 32305" d="M661.427,673.564a41.539,41.539,0,0,0,1.036,13.6s.289-11.879,2.789-13.726,9.394-6.494,9.394-6.494l-10.573,3.487A3.489,3.489,0,0,0,661.427,673.564Z" transform="translate(-658.002 -605.956)" fill="#fff"/>
        <ellipse id="Elipse_945" data-name="Elipse 945" cx="22.792" cy="58.204" rx="22.792" ry="58.204" transform="translate(75.379 6.257) rotate(-7.889)" fill="#4d5bad"/>
        <path id="Trazado_32306" data-name="Trazado 32306" d="M1187.475,351.63c13.458,25.468,15.5,37.436,15.513,37.483a144.565,144.565,0,0,0-1.332-15.955c-4.412-31.841-18.1-56.252-30.565-54.525-5.021.7-9.079,5.528-11.848,13.129C1159.3,331.741,1174.016,326.163,1187.475,351.63Z" transform="translate(-1073.135 -315.506)" fill="#2f3e97"/>
        <path id="Trazado_32307" data-name="Trazado 32307" d="M1141.5,378.529c-4.051-29.237,1.125-54.57,11.652-59.855a9.318,9.318,0,0,0-2.7-.03c-12.469,1.728-19,28.941-14.587,60.782s18.1,56.252,30.565,54.525a9.392,9.392,0,0,0,2.936-.927C1157.68,431.231,1145.6,408.082,1141.5,378.529Z" transform="translate(-1052.496 -315.516)" fill="#7881b8"/>
        <path id="Trazado_32308" data-name="Trazado 32308" d="M1197.837,616.6a13.316,13.316,0,0,0-14.974-11.329l-12.714,1.762c.226,3.461.584,7.011,1.085,10.621a144.638,144.638,0,0,0,3.032,15.617l12.242-1.7a13.316,13.316,0,0,0,11.329-14.974Z" transform="translate(-1082.227 -554.432)" fill="#3b4bad"/>
        <path id="Trazado_32309" data-name="Trazado 32309" d="M1261.125,629.768c1.569,2.473,1.376,5.406-.43,6.553s-4.543.071-6.112-2.4-1.376-5.407.43-6.553S1259.556,627.295,1261.125,629.768Z" transform="translate(-1151.733 -572.575)" fill="#fff"/>
      </g>
      <g id="Grupo_16289" data-name="Grupo 16289" transform="translate(409.268 220.561)">
        <g id="Grupo_16288" data-name="Grupo 16288" transform="translate(6.945 0)">
          <path id="Trazado_32310" data-name="Trazado 32310" d="M1788.079,755.1l-21.864-5.716a5.077,5.077,0,0,1-3.617-6.178l3.854-14.744a5.077,5.077,0,0,1,6.178-3.618l21.864,5.715a5.077,5.077,0,0,1,3.617,6.178l-3.854,14.744A5.077,5.077,0,0,1,1788.079,755.1Z" transform="translate(-1762.434 -724.68)" fill="#ff7292"/>
          <rect id="Rectángulo_3470" data-name="Rectángulo 3470" width="11.822" height="5.325" rx="2.663" transform="translate(6.376 20.203) rotate(-75.349)" fill="#fff"/>
          <path id="Trazado_32311" data-name="Trazado 32311" d="M1842.115,776.935c3.861,3.511,7.076,2.935,7.117,2.93l.051-.006.045.024c1.391.755,2.921,1.322,3.969.238s.86-1.731.858-1.738l-.059-.2.207-.009a1.722,1.722,0,0,0,1.576-1.4,2.507,2.507,0,0,0-.533-2.253l-.139-.142.168-.107a3.063,3.063,0,0,0,1.158-1.622,1.755,1.755,0,0,0-1.155-2.236,20.6,20.6,0,0,0-3.639-.587l-.256-.043.153-.21c1.833-2.523,1.909-4.1,1.65-4.972a1.615,1.615,0,0,0-.7-.994l-.082-.033c-.338-.14-.9-.376-2.178,1.9-1.368,2.439-5.7,4.071-6.339,4.3Z" transform="translate(-1828.862 -757.038)" fill="#fff"/>
        </g>
        <path id="Trazado_32312" data-name="Trazado 32312" d="M1806.537,1304.87s-4.772,4.144-15.194,3.893-12.557-2.511-12.557-2.511a3.845,3.845,0,0,1,1.13-3.014c1.381-1.507,11.929-3.391,11.929-3.391S1804.151,1299.6,1806.537,1304.87Z" transform="translate(-1769.106 -1204.177)" fill="#272c6a"/>
        <path id="Trazado_32313" data-name="Trazado 32313" d="M1822.862,1661.583l.672,4.4h3.359l.537-5.172Z" transform="translate(-1805.865 -1505.101)" fill="#ffbdb3"/>
        <path id="Trazado_32314" data-name="Trazado 32314" d="M1881.623,1665.712l.346,5.162,3.93-.245a27.611,27.611,0,0,1,.282-5.2Z" transform="translate(-1854.853 -1508.954)" fill="#ffbdb3"/>
        <path id="Trazado_32315" data-name="Trazado 32315" d="M1874.479,1679.8c-1.053,4.114-1.084,5.584-1.008,6.094a.315.315,0,0,0,.317.262h8.941a.317.317,0,0,0,.315-.251l.392-1.979a.307.307,0,0,0-.156-.325c-2.31-1.3-3.059-2.387-3.3-2.961a.734.734,0,0,0-.681-.436.315.315,0,0,0-.321.309v.543c0,.232-.787.211-1,.1l-2.316-1.442a.343.343,0,0,0-.1-.031l-.718-.115A.321.321,0,0,0,1874.479,1679.8Z" transform="translate(-1848.036 -1520.738)" fill="#434f97"/>
        <path id="Trazado_32316" data-name="Trazado 32316" d="M1934.161,1706.955a3.3,3.3,0,0,0-2.662-2.329c-2.178-.349-2.3-.233-2.3-.233l-.62,2.446Z" transform="translate(-1893.999 -1541.421)" fill="#434f97"/>
        <path id="Trazado_32317" data-name="Trazado 32317" d="M1871.738,1720.239h14.28a.524.524,0,1,0,0-1.048h-14.28a.524.524,0,1,0,0,1.048Z" transform="translate(-1846.158 -1553.773)" fill="#fff"/>
        <path id="Trazado_32318" data-name="Trazado 32318" d="M1918.194,1699.123h1.21a.2.2,0,0,0,0-.406h-1.21a.2.2,0,1,0,0,.406Z" transform="translate(-1885.172 -1536.705)" fill="#fff"/>
        <path id="Trazado_32319" data-name="Trazado 32319" d="M1914.556,1694.877h1.21a.2.2,0,0,0,0-.406h-1.21a.2.2,0,0,0,0,.406Z" transform="translate(-1882.139 -1533.165)" fill="#fff"/>
        <path id="Trazado_32320" data-name="Trazado 32320" d="M1910.919,1690.72h1.21a.2.2,0,1,0,0-.406h-1.21a.2.2,0,1,0,0,.406Z" transform="translate(-1879.107 -1529.699)" fill="#fff"/>
        <path id="Trazado_32321" data-name="Trazado 32321" d="M1816.594,1286.12s4.6,12.12,6.369,19.141a169.475,169.475,0,0,1,3,16.952s-1.229,4.241-5.593,11.292-7.668,18.17-7.668,18.17l-4.025-1.483s-.092-17.742,8.081-27.954l-8.638-22.671-1.293-.776s-1.673,19.925-1.423,23.015-.464,8.62-.443,14.629a103.9,103.9,0,0,1-1.5,14.655l-4.6-.062s-1.69-8.713-2.446-29.075-2.617-19.327-2.089-35.011Z" transform="translate(-1781.998 -1192.735)" fill="#6d8cff"/>
        <path id="Trazado_32322" data-name="Trazado 32322" d="M1883.7,1663.007l-5.643-1.423-.269,2.457,5.374,1.164Z" transform="translate(-1851.656 -1505.748)" fill="#8fa7ff"/>
        <path id="Trazado_32323" data-name="Trazado 32323" d="M1878.477,1368.52l11.1,22c-8.61,9.138-10.638,26.81-10.638,26.81s-.284-12.439,6.043-23.646a25.653,25.653,0,0,1,2-2.754Z" transform="translate(-1852.23 -1261.43)" fill="#5478ff"/>
        <path id="Trazado_32324" data-name="Trazado 32324" d="M1805.487,1295.057s.083,6.84.217,14.051c.067,3.606.147,7.3.237,10.287.045,1.492.092,2.8.141,3.839s.1,1.786.154,2.181c.05.352.109,1.05.174,1.987.225,3.284.513,9.54.76,15.074.123,2.767.236,5.355.326,7.3.045.974.084,1.787.116,2.384.016.3.03.543.042.726.006.092.012.169.017.23s.01.107.016.147c.071.476.3,1.8.5,3.009s.4,2.3.4,2.3l.6-.1-.121-.7c-.11-.636-.278-1.612-.432-2.516s-.293-1.739-.344-2.083c0-.013-.008-.064-.013-.133-.022-.274-.055-.874-.1-1.711-.144-2.933-.391-8.8-.645-14.247-.127-2.724-.256-5.342-.375-7.438-.06-1.048-.117-1.965-.17-2.7s-.1-1.287-.149-1.616c-.049-.345-.1-1.1-.149-2.125-.17-3.6-.319-10.644-.425-16.782-.053-3.069-.1-5.913-.124-7.989-.014-1.038-.026-1.885-.033-2.471s-.011-.913-.011-.914l-.609.008Z" transform="translate(-1791.381 -1200.179)" fill="#5478ff"/>
        <path id="Trazado_32325" data-name="Trazado 32325" d="M1817.006,1280.147a21.3,21.3,0,0,1-15.867,1.534c-9.307-2.521-8.316-8-8.316-8s9.013,6.159,22.84,2.327Z" transform="translate(-1780.797 -1182.366)" fill="#5478ff"/>
        <path id="Trazado_32326" data-name="Trazado 32326" d="M1823.791,1666.248l-.239,2.515-5.932-.128-.412-2Z" transform="translate(-1801.151 -1509.637)" fill="#8fa7ff"/>
        <path id="Trazado_32327" data-name="Trazado 32327" d="M1824.839,1720.845a2.719,2.719,0,0,1,0,1.048c-.121.466-5.325,1.514-8.35,0l-.042-1.705S1820.725,1722.126,1824.839,1720.845Z" transform="translate(-1800.518 -1554.605)" fill="#fff"/>
        <path id="Trazado_32328" data-name="Trazado 32328" d="M1824.595,1690.753s-2.3-3.028-2.42-5.823l-4.76.166s-1.209,4.984-.928,6.123C1816.8,1692.484,1825.206,1691.075,1824.595,1690.753Z" transform="translate(-1800.516 -1525.211)" fill="#434f97"/>
        <path id="Trazado_32329" data-name="Trazado 32329" d="M1825.05,1714.179s0-1.863-3.751-1.98-4.478,1.165-4.6,1.98C1816.7,1714.179,1821.782,1715.693,1825.05,1714.179Z" transform="translate(-1800.729 -1547.938)" fill="#434f97"/>
        <path id="Trazado_32330" data-name="Trazado 32330" d="M1827.865,1690.718l-3.509,1.048a.2.2,0,0,0,.116.389l3.51-1.048a.2.2,0,1,0-.116-.389Z" transform="translate(-1806.99 -1530.029)" fill="#fff"/>
        <path id="Trazado_32331" data-name="Trazado 32331" d="M1828.153,1698.413l-3.751.233a.2.2,0,0,0,.025.405l3.752-.233a.2.2,0,1,0-.025-.4Z" transform="translate(-1806.99 -1536.451)" fill="#fff"/>
        <path id="Trazado_32332" data-name="Trazado 32332" d="M1828.771,1704.014h-3.631a.2.2,0,1,0,0,.406h3.631a.2.2,0,1,0,0-.406Z" transform="translate(-1807.596 -1541.121)" fill="#fff"/>
        <path id="Trazado_32333" data-name="Trazado 32333" d="M1805.236,1036.631a3.209,3.209,0,0,1,2.485-3.23c2.609-.621,12.3-2.236,14.66,0s.621,6.46.621,6.46-15.157.5-16.151,1.864S1805.236,1036.631,1805.236,1036.631Z" transform="translate(-1791.171 -981.095)" fill="#434f97"/>
        <path id="Trazado_32334" data-name="Trazado 32334" d="M1804.641,1065.506s-2.07,32.316-1.444,36.09c0,0,9.827,6.1,20.719,1.664l-3.25-39.085a22.068,22.068,0,0,0-7.8-1.237A23.578,23.578,0,0,0,1804.641,1065.506Z" transform="translate(-1789.373 -1006.655)" fill="#fff"/>
        <path id="Trazado_32335" data-name="Trazado 32335" d="M1823.417,1064.976a17.98,17.98,0,0,1,3.893-1.381,18.586,18.586,0,0,1,7.032,0s-.48,3.842-5.251,4.344S1823.417,1064.976,1823.417,1064.976Z" transform="translate(-1806.328 -1006.936)" fill="#ffbdb3"/>
        <path id="Trazado_32336" data-name="Trazado 32336" d="M1837.5,1036.637h0a3.835,3.835,0,0,1-3.962-3.675l-.046-3.479a3.918,3.918,0,0,1,7.826-.1l.046,3.479A3.835,3.835,0,0,1,1837.5,1036.637Z" transform="translate(-1814.723 -975.635)" fill="#ffbdb3"/>
        <path id="Trazado_32337" data-name="Trazado 32337" d="M1832.877,1051.847s.373,2.733,6.709,2.236l.994,1.243,1.739-1.243s.329-.1-1.534-.263l.043-1.974Z" transform="translate(-1814.215 -997.429)" fill="#de666d"/>
        <path id="Trazado_32338" data-name="Trazado 32338" d="M1811.216,947.869s.124,12.3,7.454,12.3,6.088-10.809,5.964-12.672-2.982-4.845-7.33-4.721C1813.357,942.888,1811.464,945.508,1811.216,947.869Z" transform="translate(-1796.157 -906.496)" fill="#ffbdb3"/>
        <path id="Trazado_32339" data-name="Trazado 32339" d="M1804.322,993.734a1.084,1.084,0,0,0-1.615.248,2.652,2.652,0,0,0,2.787,3.55Z" transform="translate(-1788.89 -948.759)" fill="#ffbdb3"/>
        <path id="Trazado_32340" data-name="Trazado 32340" d="M1891.417,985.693s-.03-.994.716-1.118,1.491.994,1.118,2.236-.87,2.227-2.112,2.232Z" transform="translate(-1862.786 -941.338)" fill="#ffbdb3"/>
        <path id="Trazado_32341" data-name="Trazado 32341" d="M1818.5,1004.427s-.373,5.094,1.242,6.957,6.585,1.739,9.318.621c0,0,2.857-1.242,2.733-2.733s-1.15-5.961-1.15-5.961-.216,1.985-1.956,1.985-2.112-.746-3.479-.621-2.733,1.615-4.1,1.491A4.733,4.733,0,0,1,1818.5,1004.427Z" transform="translate(-1802.198 -956.966)" fill="#5e1212"/>
        <path id="Trazado_32342" data-name="Trazado 32342" d="M1815.518,960.584s2-2.821,2-3.691l.456-.169a2.739,2.739,0,0,1-.332,2.281l-.621.87s2.931-1.739,3.354-2.112l.745-.373a3.658,3.658,0,0,1-1.739,1.681s3.727-1.681,4.348-4.042c0,0,.373,2.485,2.236,3.106l-.5-.5-.621-1.615,1.739.621a7.422,7.422,0,0,0,1.322,2.846l-.8-4.461s-4.618-1.367-8.345-.249S1815.518,960.584,1815.518,960.584Z" transform="translate(-1799.726 -916.141)" fill="#de666d"/>
        <path id="Trazado_32343" data-name="Trazado 32343" d="M1828.4,988.534a2.287,2.287,0,0,1,1.739-.994,1.83,1.83,0,0,1,1.739.621A5.261,5.261,0,0,0,1828.4,988.534Z" transform="translate(-1810.479 -943.807)" fill="#421212"/>
        <path id="Trazado_32344" data-name="Trazado 32344" d="M1863.5,986.054a2.586,2.586,0,0,1,1.864-.745,2.221,2.221,0,0,1,1.491.87A4.051,4.051,0,0,0,1863.5,986.054Z" transform="translate(-1839.746 -941.948)" fill="#421212"/>
        <path id="Trazado_32345" data-name="Trazado 32345" d="M1839.348,989.725a.621.621,0,1,1-.621-.621A.621.621,0,0,1,1839.348,989.725Z" transform="translate(-1818.574 -945.122)" fill="#421212"/>
        <path id="Trazado_32346" data-name="Trazado 32346" d="M1874.454,988.231a.621.621,0,1,1-.621-.621A.621.621,0,0,1,1874.454,988.231Z" transform="translate(-1847.841 -943.877)" fill="#421212"/>
        <path id="Trazado_32347" data-name="Trazado 32347" d="M1824.139,974.713s-.416-1.307,2.119-2.5c0,0,1.4-.564,1.739-.766,0,0,.484,1.038-.918,1.6S1825.111,973.353,1824.139,974.713Z" transform="translate(-1806.909 -930.4)" fill="#421212"/>
        <path id="Trazado_32348" data-name="Trazado 32348" d="M1864.529,966.7a1.13,1.13,0,0,0,.373,1.366c.745.5,2.485.373,3.23,1.615C1868.132,969.678,1868.256,967.69,1864.529,966.7Z" transform="translate(-1840.524 -926.441)" fill="#421212"/>
        <path id="Trazado_32349" data-name="Trazado 32349" d="M1830.27,959.949a4.5,4.5,0,0,1-.6,1.459,6.355,6.355,0,0,1-.986,1.228,7.1,7.1,0,0,1-.6.518,6.033,6.033,0,0,1-.664.432,4.391,4.391,0,0,1-1.488.535c.374-.389.756-.7,1.114-1.052.186-.163.358-.341.541-.5s.357-.336.528-.512c.352-.341.7-.686,1.053-1.04S1829.875,960.309,1830.27,959.949Z" transform="translate(-1808.424 -920.817)" fill="#fff"/>
        <path id="Trazado_32350" data-name="Trazado 32350" d="M1821.929,1001.371c.239.675-.319,1.488-1.247,1.816a1.6,1.6,0,0,1-2.112-.627c-.239-.674.319-1.488,1.247-1.816A1.6,1.6,0,0,1,1821.929,1001.371Z" transform="translate(-1802.241 -954.712)" fill="#ff8686"/>
        <path id="Trazado_32351" data-name="Trazado 32351" d="M1875.552,999.333c-.067.712-.916,1.215-1.9,1.123s-1.719-.745-1.652-1.457.916-1.215,1.9-1.123S1875.619,998.62,1875.552,999.333Z" transform="translate(-1846.83 -952.425)" fill="#ff8686"/>
        <path id="Trazado_32352" data-name="Trazado 32352" d="M1785.368,1074.212a15.186,15.186,0,0,0-6.492,5.678s.125,36.5,0,38.133c0,0,5.4-2.762,8.288-2.888Z" transform="translate(-1769.196 -1016.074)" fill="#434f97"/>
        <path id="Trazado_32353" data-name="Trazado 32353" d="M1893.389,1067.018a15.182,15.182,0,0,1,6.62,5.528s.66,36.661.822,38.289c0,0-6.055-3.419-8.945-3.479Z" transform="translate(-1863.409 -1010.077)" fill="#434f97"/>
        <path id="Trazado_32354" data-name="Trazado 32354" d="M1733.93,1011.557s-10.5-7.687-11.812-25.9l6.363-1.1,7.9,15.8Z" transform="translate(-1721.879 -941.335)" fill="#434f97"/>
        <path id="Trazado_32355" data-name="Trazado 32355" d="M1920.432,1019.857s9-10.921,11.849-23.867L1925.7,993.8l-7.022,12.507Z" transform="translate(-1885.744 -949.034)" fill="#434f97"/>
        <path id="Trazado_32356" data-name="Trazado 32356" d="M1886.073,1014.506a9.7,9.7,0,0,1,.607,1.579,9.517,9.517,0,0,1,.335,1.667,4.24,4.24,0,0,1,.008.889,1.575,1.575,0,0,1-.128.483,1.768,1.768,0,0,1-.264.4,2.833,2.833,0,0,1-.687.566,3.214,3.214,0,0,1-.789.346,6.862,6.862,0,0,0,1.073-1.21,1.565,1.565,0,0,0,.152-.317,1.3,1.3,0,0,0,.056-.327,5.787,5.787,0,0,0-.026-.778c-.047-.535-.122-1.08-.188-1.629S1886.093,1015.076,1886.073,1014.506Z" transform="translate(-1857.798 -966.299)" fill="#fff"/>
        <path id="Trazado_32357" data-name="Trazado 32357" d="M1799.1,1053.764s-6.245-3.479-3.223-8.078c2.858-4.348,2.574-.966,2.982.87A38.944,38.944,0,0,1,1799.1,1053.764Z" transform="translate(-1782.677 -990.522)" fill="#5665c2"/>
        <path id="Trazado_32358" data-name="Trazado 32358" d="M1899.317,1047.783s5.832-3.233,3.223-8.078-2.72-1.739-2.844.373C1899.586,1041.954,1899.317,1047.783,1899.317,1047.783Z" transform="translate(-1869.604 -985.163)" fill="#5665c2"/>
        <path id="Trazado_32359" data-name="Trazado 32359" d="M1816.491,936.725a10.105,10.105,0,0,0,.279-3.575c-.227-1.817-.682-3.634-2.044-4.315a1.566,1.566,0,0,0,.681-1.135,13.684,13.684,0,0,1-3.634,1.135s-1.267-3.613-3.861-1.817c-4.461,3.089-6.142,3.306-7.041,2.725,0,0-.227,1.817.908,1.817a11.687,11.687,0,0,0,.454,5.224l.337.843c.026.3.043.513.043.513.621-.452,2.018-4.234,2.345-5.218a.878.878,0,0,1,.31-.4,3.25,3.25,0,0,1,.431,1.377,4.36,4.36,0,0,1-1.157,2.7c1.929-.9,5.272-4.887,5.272-4.887a8.024,8.024,0,0,1-3.472,4.244,8.909,8.909,0,0,0,4.758-4.244s.261-.129,1.168.678a5.757,5.757,0,0,0,2.047,2.794s-1.415-1.929-1.157-3.6c0,0,.714.047,1.476,1.113a12.959,12.959,0,0,0,1.224,3.645l.643.9s-.008-.215-.023-.551Z" transform="translate(-1787.518 -892.945)" fill="#5e1212"/>
        <path id="Trazado_32360" data-name="Trazado 32360" d="M1846.88,1023.345s.055-.726-1.138-.62-1.648.388-2.775-.112-.521.888-.251,1.225S1846.02,1025.826,1846.88,1023.345Z" transform="translate(-1822.078 -972.968)" fill="#ff5475"/>
        <path id="Trazado_32361" data-name="Trazado 32361" d="M1842.967,1022.613c1.127.5,1.583.219,2.775.112a1.178,1.178,0,0,1,.971.221c-.152.521-1.1.993-2.281,1.1a4.388,4.388,0,0,1-1.643-.137.527.527,0,0,1-.073-.07C1842.446,1023.5,1841.84,1022.113,1842.967,1022.613Z" transform="translate(-1822.078 -972.968)" fill="#fff"/>
        <path id="Trazado_32362" data-name="Trazado 32362" d="M1951.657,891.776s.366,14.774,2.267,16.274,4.031,3.109,5.819,1.756-5.673-18.907-5.673-18.907Z" transform="translate(-1913.238 -863.251)" fill="#ffafa1"/>
        <path id="Trazado_32363" data-name="Trazado 32363" d="M1938.337,838.96l-.878-1.536-.877-1.1-.9-.889-2.889-.523c.1.734,2.366,1.3,2.366,1.3l.8,1.759-1.448-1.036s-1.813-1.211-2.257-.908-.158.955-.158.955a2.361,2.361,0,0,0-.024.676,7.469,7.469,0,0,0,1.138,1.06l1.125,1.97-.742-.584-2.336-.431s-.255.221.286.652a5.363,5.363,0,0,0,1.77.675,15.186,15.186,0,0,0,1.155,1.921c-.348,2.248.57,2.617.57,2.617l2.066-1.1.586-4.089A3.075,3.075,0,0,0,1938.337,838.96Z" transform="translate(-1896.188 -816.579)" fill="#ffafa1"/>
        <path id="Trazado_32364" data-name="Trazado 32364" d="M1729.817,878.585s-.366,14.774-2.267,16.274-4.032,3.109-5.819,1.756,5.673-18.907,5.673-18.907Z" transform="translate(-1721.324 -852.254)" fill="#ffafa1"/>
        <path id="Trazado_32365" data-name="Trazado 32365" d="M1749.307,825.767l.878-1.536.878-1.1.9-.889,2.889-.524c-.1.734-2.366,1.3-2.366,1.3l-.8,1.759,1.448-1.036s1.813-1.211,2.257-.908.158.955.158.955a2.358,2.358,0,0,1,.024.676,7.449,7.449,0,0,1-1.138,1.06l-1.125,1.97.742-.584,2.336-.431s.255.221-.286.652a5.364,5.364,0,0,1-1.77.675,15.1,15.1,0,0,1-1.155,1.921c.348,2.248-.569,2.616-.569,2.616l-2.067-1.1-.586-4.088A3.08,3.08,0,0,1,1749.307,825.767Z" transform="translate(-1744.545 -805.58)" fill="#ffafa1"/>
        <path id="Trazado_32366" data-name="Trazado 32366" d="M1958.143,987.2s1.481,1.849,6.775,2.68c0,0,.027,1.05-.411,1.27s-3.95-.439-6.8-2.414C1957.7,988.735,1957.265,988.3,1958.143,987.2Z" transform="translate(-1918.188 -943.534)" fill="#5665c2"/>
        <path id="Trazado_32367" data-name="Trazado 32367" d="M1727.364,975.327s-1.325,1.316-6.394,2.151a.342.342,0,0,0-.289.324c-.013.4.01,1.1.319,1.256.439.22,3.95-.219,6.8-2.194C1727.8,976.863,1728.241,976.424,1727.364,975.327Z" transform="translate(-1720.678 -933.637)" fill="#5665c2"/>
      </g>
      <g id="Grupo_16292" data-name="Grupo 16292" transform="translate(454.05 254.458)">
        <path id="Trazado_32368" data-name="Trazado 32368" d="M2063.958,1305.937a9.888,9.888,0,0,1-9.655,4.827c-6.8-.658-14.921-3.072-15.579-3.511,0,0,.768-2.962,2.139-3.236S2063.958,1305.937,2063.958,1305.937Z" transform="translate(-2030.606 -1241.532)" fill="#2b888f"/>
        <path id="Trazado_32369" data-name="Trazado 32369" d="M2166.655,1623.966l.281,3.851-5.48-.713-.421-4.422Z" transform="translate(-2132.572 -1507.214)" fill="#ffac9e"/>
        <path id="Trazado_32370" data-name="Trazado 32370" d="M2057.443,1646.122l-.281,3.423h-5.34l-.047-3.708Z" transform="translate(-2041.486 -1526.516)" fill="#ffac9e"/>
        <path id="Trazado_32371" data-name="Trazado 32371" d="M2071.037,1284.09s3.091,9.984,3.373,26.388,0,32.236,0,32.236-5.48-.571-6.042-.713l-6.5-42.962s-6.144,37.542-5.583,45.957h-6.323s-.562-57.91,0-63.616Z" transform="translate(-2039.764 -1222.68)" fill="#434f97"/>
        <path id="Trazado_32372" data-name="Trazado 32372" d="M2060.128,1285.9v62.189h-.75v-63Z" transform="translate(-2047.824 -1225.778)" fill="#83dbda"/>
        <path id="Trazado_32373" data-name="Trazado 32373" d="M2052.525,1285.9v62.189h-.749v-63Z" transform="translate(-2041.486 -1225.778)" fill="#83dbda"/>
        <path id="Trazado_32374" data-name="Trazado 32374" d="M2125.891,1363.943l-3.1,3.926,6.5,42.962,1.545.143S2125.61,1393.326,2125.891,1363.943Z" transform="translate(-2100.689 -1291.51)" fill="#272c6a"/>
        <path id="Trazado_32375" data-name="Trazado 32375" d="M2053.747,1312.332s3.653-3.566,3.653-4.279l-.877-1.009A12.192,12.192,0,0,0,2053.747,1312.332Z" transform="translate(-2043.13 -1244.075)" fill="#272c6a"/>
        <path id="Trazado_32376" data-name="Trazado 32376" d="M2161.322,1646.549a8.55,8.55,0,0,0,4.487,6.276l-.562,3h-10.96s-.843.571,1.265-9.985Z" transform="translate(-2126.807 -1526.516)" fill="#ff5475"/>
        <path id="Trazado_32377" data-name="Trazado 32377" d="M2224.856,1690.879a3.938,3.938,0,0,0-3.091-2.853c-2.529-.428-2.67-.285-2.67-.285l-.72,3Z" transform="translate(-2180.375 -1561.432)" fill="#fff"/>
        <path id="Trazado_32378" data-name="Trazado 32378" d="M2152.375,1707.149h16.581a.642.642,0,0,0,0-1.284h-16.581a.642.642,0,0,0,0,1.284Z" transform="translate(-2124.825 -1576.56)" fill="#fff"/>
        <path id="Trazado_32379" data-name="Trazado 32379" d="M2206.481,1681.468h1.405a.2.2,0,0,0,0-.406h-1.405a.2.2,0,0,0,0,.406Z" transform="translate(-2170.29 -1555.883)" fill="#fff"/>
        <path id="Trazado_32380" data-name="Trazado 32380" d="M2202.257,1675.465h1.405a.2.2,0,0,0,0-.406h-1.405a.2.2,0,0,0,0,.406Z" transform="translate(-2166.769 -1550.879)" fill="#fff"/>
        <path id="Trazado_32381" data-name="Trazado 32381" d="M2198.033,1671.177h1.405a.2.2,0,0,0,0-.406h-1.405a.2.2,0,1,0,0,.406Z" transform="translate(-2163.247 -1547.304)" fill="#fff"/>
        <path id="Trazado_32382" data-name="Trazado 32382" d="M2054.749,1706.976a3.517,3.517,0,0,1,0,1.284c-.141.571-6.183,1.854-9.7,0l-.049-2.088S2049.971,1708.545,2054.749,1706.976Z" transform="translate(-2035.841 -1576.816)" fill="#fff"/>
        <path id="Trazado_32383" data-name="Trazado 32383" d="M2054.465,1670.119s-2.669-3.709-2.81-7.132l-5.527.2s-1.4,6.1-1.077,7.5C2045.414,1672.24,2055.175,1670.513,2054.465,1670.119Z" transform="translate(-2035.839 -1540.814)" fill="#ff5475"/>
        <path id="Trazado_32384" data-name="Trazado 32384" d="M2054.994,1698.811s0-2.282-4.356-2.425-5.2,1.426-5.34,2.425C2045.3,1698.811,2051.2,1700.665,2054.994,1698.811Z" transform="translate(-2036.086 -1568.651)" fill="#fff"/>
        <path id="Trazado_32385" data-name="Trazado 32385" d="M2058.433,1670.352l-4.075,1.284a.2.2,0,0,0,.122.387l4.075-1.283a.2.2,0,0,0-.122-.387Z" transform="translate(-2043.521 -1546.946)" fill="#fff"/>
        <path id="Trazado_32386" data-name="Trazado 32386" d="M2058.762,1679.776l-4.356.285a.2.2,0,1,0,.027.4l4.356-.285a.2.2,0,0,0-.027-.405Z" transform="translate(-2043.521 -1554.81)" fill="#fff"/>
        <path id="Trazado_32387" data-name="Trazado 32387" d="M2059.479,1686.636h-4.215a.2.2,0,1,0,0,.406h4.215a.2.2,0,0,0,0-.406Z" transform="translate(-2044.225 -1560.53)" fill="#fff"/>
        <path id="Trazado_32388" data-name="Trazado 32388" d="M2082.254,1063.59a5.656,5.656,0,0,1,3.072.658c1.975.878,4.608,0,5.486-.219s2.853-.219,3.072.878-1.1,5.486-1.975,6.144-2.853,1.975-2.853,1.975S2079.4,1065.785,2082.254,1063.59Z" transform="translate(-2066.456 -1041.095)" fill="#5478ff"/>
        <path id="Trazado_32389" data-name="Trazado 32389" d="M2084.9,1076.807a18.072,18.072,0,0,1,5.705-1.317,15.486,15.486,0,0,1,6.8,1.536s-2.414,4.828-5.047,5.705S2084.9,1076.807,2084.9,1076.807Z" transform="translate(-2069.098 -1051.021)" fill="#ffac9e"/>
        <path id="Trazado_32390" data-name="Trazado 32390" d="M2076.936,1099.551s-3.292,32.694-1.1,35.766a14.456,14.456,0,0,0,16.237,1.1l-1.536-36.863-5.047.439a16.752,16.752,0,0,1-1.975,1.975c-.439,0-2.633-2.633-2.633-2.633Z" transform="translate(-2060.918 -1070.912)" fill="#6d8cff"/>
        <path id="Trazado_32391" data-name="Trazado 32391" d="M2042.015,1081.518l-3.291,38.618s2.853-3.95,6.583-.878c4.072,3.354,3.949,5.047,3.949,5.047l-2.414-44.762Z" transform="translate(-2030.606 -1054.415)" fill="#83dbda"/>
        <path id="Trazado_32392" data-name="Trazado 32392" d="M2065.88,1061.777s-4.827-1.755-2.194,1.536,3.075,2.513,4.061,4.877a14.823,14.823,0,0,1-8.01-3.341c-3.511-3.072,2.633-3.73,3.73-4.169S2065.88,1061.777,2065.88,1061.777Z" transform="translate(-2047.229 -1038.623)" fill="#6d8cff"/>
        <path id="Trazado_32393" data-name="Trazado 32393" d="M2158.327,1127.168l-2.194-40.593,1.755-1.755,3.072,1.1,2.852,36.644S2163.155,1125.632,2158.327,1127.168Z" transform="translate(-2128.486 -1058.813)" fill="#83dbda"/>
        <path id="Trazado_32394" data-name="Trazado 32394" d="M2136.345,1065.431s2.633,0,2.413,1.975-2.194,4.169-2.194,4.169,5.266.439,5.266-2.633S2139.856,1064.773,2136.345,1065.431Z" transform="translate(-2111.989 -1042.497)" fill="#6d8cff"/>
        <path id="Trazado_32395" data-name="Trazado 32395" d="M1996.982,1235.294s5.06,6.655,6.143,8.976a46.978,46.978,0,0,1,1.852,4.332c-.61.721-2.1,2.476-2.1,2.476-.915-.561-10.236-10.626-11.168-12.535l-.721-1.205Z" transform="translate(-1990.809 -1184.26)" fill="#ffac9e"/>
        <path id="Trazado_32396" data-name="Trazado 32396" d="M2003.317,1250.478s-10.971-10.313-10.214-12.571c.063-.187,4.509-1.692,4.509-1.692l-.645-1.115-5.979,2.076s2.462,5.816,11.89,13.741Z" transform="translate(-1990.809 -1184.098)" fill="#e07972"/>
        <path id="Trazado_32397" data-name="Trazado 32397" d="M1989.914,1117.065s3.951-24.057,11.85-26.73c0,0,2.632,1.277,2.413,6.762,0,0-6.8,13.824-6.8,18.432Z" transform="translate(-1989.914 -1063.412)" fill="#83dbda"/>
        <path id="Trazado_32398" data-name="Trazado 32398" d="M2175.24,1101.729s2.414,9.655,9.874,12.946l3.072-5.266-11.849-17.993S2173.266,1094.049,2175.24,1101.729Z" transform="translate(-2143.863 -1064.313)" fill="#83dbda"/>
        <path id="Trazado_32399" data-name="Trazado 32399" d="M2106.437,1043.812h0a3,3,0,0,1-3.072-2.914v-4.613a3.076,3.076,0,0,1,6.144,0v4.613A3,3,0,0,1,2106.437,1043.812Z" transform="translate(-2084.495 -1015.923)" fill="#ffac9e"/>
        <path id="Trazado_32400" data-name="Trazado 32400" d="M2103.365,1054.478s.878,2.414,5.266,2.194l.439,2.633,2.194-.366-1.755-.731v-2.926Z" transform="translate(-2084.495 -1033.519)" fill="#e07972"/>
        <path id="Trazado_32401" data-name="Trazado 32401" d="M2149.24,972.45a3.335,3.335,0,0,1,3.257,3.164c.344,2.255-1.957,3.4-1.957,3.4Z" transform="translate(-2122.739 -965.135)" fill="#443e61"/>
        <path id="Trazado_32402" data-name="Trazado 32402" d="M2088.531,977.595s1.459,4.534,3.388,4.806,4.538.836,6.776-.619.7-10.985-.133-12.085-6.088-4.727-8.231-1.619S2087.162,972.417,2088.531,977.595Z" transform="translate(-2071.61 -960.463)" fill="#ffac9e"/>
        <path id="Trazado_32403" data-name="Trazado 32403" d="M2106.208,981.245a3.891,3.891,0,0,0-.542-.546l-2.528.3-6.057,1.692c.052.28,2.475,2.44,6.521.828a3.5,3.5,0,0,0,2.623.1s1.264,5.42,1.149,7.414C2107.861,987.693,2106.832,982.075,2106.208,981.245Z" transform="translate(-2079.255 -972.012)" fill="#e07972"/>
        <path id="Trazado_32404" data-name="Trazado 32404" d="M2093.307,1016.048s-1.781-2.022-2.129-.079a2.828,2.828,0,0,0,2.032,3.386Z" transform="translate(-2074.29 -1000.712)" fill="#ffac9e"/>
        <path id="Trazado_32405" data-name="Trazado 32405" d="M2114.756,996.033a.225.225,0,0,1,.314.219,1.1,1.1,0,0,1-.328.837c-.421.3-2.77,1.028-3.07,1.35a1.62,1.62,0,0,1,.822-1.226A14.5,14.5,0,0,1,2114.756,996.033Z" transform="translate(-2091.42 -984.78)" fill="#342a5e"/>
        <path id="Trazado_32406" data-name="Trazado 32406" d="M2116.776,1010.146a1.537,1.537,0,0,1,1.09-.85c.893-.259,1.061.377,1.061.377a1.945,1.945,0,0,0-1.106-.013A3.156,3.156,0,0,0,2116.776,1010.146Z" transform="translate(-2095.675 -995.801)" fill="#342a5e"/>
        <path id="Trazado_32407" data-name="Trazado 32407" d="M2145.112,1007.833a1.537,1.537,0,0,1,1.234-.622c.927-.08.968.576.968.576a1.946,1.946,0,0,0-1.082-.228A3.153,3.153,0,0,0,2145.112,1007.833Z" transform="translate(-2119.298 -994.108)" fill="#342a5e"/>
        <path id="Trazado_32408" data-name="Trazado 32408" d="M2146.368,996.809a6.59,6.59,0,0,0-1.745-.171.228.228,0,0,0-.194.339.976.976,0,0,0,.891.651c.438.071.855.114,1.226.145C2146.49,997.435,2146.43,997.112,2146.368,996.809Z" transform="translate(-2118.704 -985.298)" fill="#342a5e"/>
        <path id="Trazado_32409" data-name="Trazado 32409" d="M2124.205,1010.763a.5.5,0,1,1-.536-.472A.5.5,0,0,1,2124.205,1010.763Z" transform="translate(-2101.028 -996.681)" fill="#342a5e"/>
        <path id="Trazado_32410" data-name="Trazado 32410" d="M2152.307,1008.565a.5.5,0,1,1-.536-.472A.5.5,0,0,1,2152.307,1008.565Z" transform="translate(-2124.455 -994.848)" fill="#342a5e"/>
        <path id="Trazado_32411" data-name="Trazado 32411" d="M2067.433,982.906s1.433.873,1.025,4.311a7.061,7.061,0,0,1,.448,3c-.082,1.846-1.746,2.866-3.218,1.343s-.5-2.655-.5-2.655a4.048,4.048,0,0,1-2.436-3.536C2062.79,982.877,2065.715,981.13,2067.433,982.906Z" transform="translate(-2050.632 -973.248)" fill="#443e61"/>
        <path id="Trazado_32412" data-name="Trazado 32412" d="M2079.439,928.485s6.874-.642,6.824,6.4-10.008,4.624-10.008,4.624-2.5-3.117-1.828-5.121c1.022-3.03,4.367-2.523,5.05-1.518,0,0-1.534-2.7.436-3.034s3.789,1.131,4.569,3.139C2084.482,932.974,2084.058,929.415,2079.439,928.485Z" transform="translate(-2060.274 -928.47)" fill="#443e61"/>
        <path id="Trazado_32413" data-name="Trazado 32413" d="M2135.614,952.27s3.344.507,2.737,3.436-3.952,2.423-3.952,2.423Z" transform="translate(-2110.367 -948.311)" fill="#443e61"/>
        <path id="Trazado_32414" data-name="Trazado 32414" d="M2139.712,953.755s2.092,1.982,1.01,3.562a5.784,5.784,0,0,1-2.358,2.082,2.685,2.685,0,0,0,2.725-1.173C2142.314,956.638,2142.2,954.4,2139.712,953.755Z" transform="translate(-2113.672 -949.549)" fill="#342a5e"/>
        <path id="Trazado_32415" data-name="Trazado 32415" d="M2074.929,956.345a3.166,3.166,0,0,0-.081,3.321,13.387,13.387,0,0,0,2.842,3.265s-2.265-.9-2.966-2.277S2073.56,957.915,2074.929,956.345Z" transform="translate(-2060.053 -951.709)" fill="#5b5382"/>
        <path id="Trazado_32416" data-name="Trazado 32416" d="M2085.121,959.759c-3.66-3.541-1.026-5.752-1.026-5.752a4.852,4.852,0,0,0-.038,3.239A19.524,19.524,0,0,0,2085.121,959.759Z" transform="translate(-2067.665 -949.76)" fill="#fff"/>
        <path id="Trazado_32417" data-name="Trazado 32417" d="M2090.032,1019.61s-.938-1.789-1.931-.626.264,3.573,1.618,4.019Z" transform="translate(-2071.472 -1003.601)" fill="#ffac9e"/>
        <path id="Trazado_32418" data-name="Trazado 32418" d="M2115.14,1029.451a.285.285,0,1,1-.331-.229A.285.285,0,0,1,2115.14,1029.451Z" transform="translate(-2093.841 -1012.46)" fill="#e07972"/>
        <path id="Trazado_32419" data-name="Trazado 32419" d="M2122.634,1022.9a.285.285,0,1,1-.29-.28A.285.285,0,0,1,2122.634,1022.9Z" transform="translate(-2100.084 -1006.961)" fill="#e07972"/>
        <path id="Trazado_32420" data-name="Trazado 32420" d="M2132.735,1021.046a.285.285,0,1,1-.29-.28A.285.285,0,0,1,2132.735,1021.046Z" transform="translate(-2108.505 -1005.414)" fill="#e07972"/>
        <path id="Trazado_32421" data-name="Trazado 32421" d="M2143.426,1023.2a.285.285,0,1,1-.289-.28A.284.284,0,0,1,2143.426,1023.2Z" transform="translate(-2117.418 -1007.213)" fill="#e07972"/>
        <path id="Trazado_32422" data-name="Trazado 32422" d="M2151.253,1017.643a.285.285,0,1,1-.289-.28A.284.284,0,0,1,2151.253,1017.643Z" transform="translate(-2123.943 -1002.577)" fill="#e07972"/>
        <path id="Trazado_32423" data-name="Trazado 32423" d="M2119.568,1037.99l4.348.706a2.962,2.962,0,0,1-2.233,1.077C2120.317,1039.731,2119.568,1037.99,2119.568,1037.99Z" transform="translate(-2098.003 -1019.773)" fill="#e07972"/>
        <path id="Trazado_32424" data-name="Trazado 32424" d="M2124.954,1039.447a3.07,3.07,0,0,0,.527-.5l-4.036-.655a2.038,2.038,0,0,0,1.149,1A4.847,4.847,0,0,0,2124.954,1039.447Z" transform="translate(-2099.567 -1020.028)" fill="#fff"/>
        <g id="Grupo_16291" data-name="Grupo 16291" transform="translate(41.234 45.096)">
          <g id="Grupo_16290" data-name="Grupo 16290" clip-path="url(#clip-path)">
            <path id="Trazado_32425" data-name="Trazado 32425" d="M2250.562,1208.586l-12.727-3.73s-.439-4.827,3.072-5.266a93.692,93.692,0,0,1,11.191,5.266,5.175,5.175,0,0,1,3.072-.878h3.73s.878,1.1-1.1,1.536a8.783,8.783,0,0,0-3.4,1.646,11.905,11.905,0,0,1-3.182,1.865Z" transform="translate(-2237.817 -1199.59)" fill="#ffac9e"/>
          </g>
        </g>
        <path id="Trazado_32426" data-name="Trazado 32426" d="M2239.086,1205.292s-.51,3,.149,3.659,8.441,3.518,8.441,3.518l-9.758-2.86S2237.84,1206.24,2239.086,1205.292Z" transform="translate(-2196.667 -1159.248)" fill="#e07972"/>
      </g>
      <g id="Grupo_16293" data-name="Grupo 16293" transform="translate(508.686 253.239)">
        <path id="Trazado_32427" data-name="Trazado 32427" d="M2337.356,1222.016a1,1,0,0,0,.658,1.536c1.317.439,5.267,1.317,5.267,1.317l-1.317-1.755-1.1-.658Z" transform="translate(-2334.065 -1171.972)" fill="#ffbdb3"/>
        <path id="Trazado_32428" data-name="Trazado 32428" d="M2318.393,1233.4a13.3,13.3,0,0,0,3.072,2.194c1.137.568,5.486,0,5.486,0h1.536l1.536-4.388-3.755-2.377s.221.363-.7.776c-.048.022-.1.043-.154.065a13.641,13.641,0,0,0-2.853,1.1C2321.026,1231.648,2320.149,1232.306,2318.393,1233.4Z" transform="translate(-2318.393 -1177.654)" fill="#ffbdb3"/>
        <path id="Trazado_32429" data-name="Trazado 32429" d="M2460.271,1730.04v1.109h-18.029v-1.331Z" transform="translate(-2421.642 -1595.311)" fill="#fff"/>
        <path id="Trazado_32430" data-name="Trazado 32430" d="M2460.271,1687.372s.415-6.877-2.279-7.321-3.109,1.553-3.109,1.553.415-.888-.622-2.219c-1.2-1.544-2.072-.222-2.072-.222a3,3,0,0,1-.829,4.215c-2.487,1.775-5.181,1.331-6.424,1.331a2.726,2.726,0,0,0-2.694,2.44v.222Z" transform="translate(-2421.642 -1552.643)" fill="#34a7b0"/>
        <path id="Trazado_32431" data-name="Trazado 32431" d="M2492.089,1707.242l-2.279.055a.2.2,0,1,0,.01.406l2.28-.055a.2.2,0,1,0-.01-.406Z" transform="translate(-2461.133 -1576.49)" fill="#fff"/>
        <path id="Trazado_32432" data-name="Trazado 32432" d="M2484.614,1712.427l-2.28.056a.2.2,0,1,0,.01.406l2.28-.055a.2.2,0,0,0-.01-.406Z" transform="translate(-2454.901 -1580.813)" fill="#fff"/>
        <path id="Trazado_32433" data-name="Trazado 32433" d="M2492.527,1329.349l1.975,25.014.878,25.453-.185,6.363h5.231s4.608-22.381,1.536-30.719c0,0,3.75-24.205,3.3-30.753Z" transform="translate(-2463.563 -1257.583)" fill="#272c6a"/>
        <path id="Trazado_32434" data-name="Trazado 32434" d="M2526.826,1683.734h4.608l-1.1,2.853-3.511.122Z" transform="translate(-2492.157 -1556.892)" fill="#434f97"/>
        <path id="Trazado_32435" data-name="Trazado 32435" d="M2445.76,1734v1.109h-18.029v-1.331Z" transform="translate(-2409.545 -1598.611)" fill="#fff"/>
        <path id="Trazado_32436" data-name="Trazado 32436" d="M2445.76,1691.328s.415-6.877-2.279-7.321-3.108,1.553-3.108,1.553.414-.887-.622-2.219c-1.2-1.544-2.073-.222-2.073-.222a3,3,0,0,1-.829,4.215c-2.487,1.775-5.181,1.331-6.424,1.331a2.726,2.726,0,0,0-2.694,2.44v.222Z" transform="translate(-2409.545 -1555.941)" fill="#69d1d0"/>
        <path id="Trazado_32437" data-name="Trazado 32437" d="M2477.579,1711.2l-2.28.055a.2.2,0,0,0,.01.406l2.28-.054a.2.2,0,0,0-.01-.406Z" transform="translate(-2449.036 -1579.79)" fill="#fff"/>
        <path id="Trazado_32438" data-name="Trazado 32438" d="M2470.1,1716.385l-2.28.055a.2.2,0,1,0,.01.406l2.28-.055a.2.2,0,0,0-.01-.406Z" transform="translate(-2442.804 -1584.112)" fill="#fff"/>
        <path id="Trazado_32439" data-name="Trazado 32439" d="M2436.669,1318.317l-6.144,33.791,9.655,29.841h6.8l-7.241-31.377,7.9-21.065s2.853-1.975,3.511-3.511,1.536-7.68,1.536-7.68Z" transform="translate(-2411.874 -1252.255)" fill="#434f97"/>
        <path id="Trazado_32440" data-name="Trazado 32440" d="M2544.845,1095.373s7.022,16.018,7.241,18.212-6.363,9.654-6.363,9.654l-3.291-2.414,3.291-8.119-5.705-11.191Z" transform="translate(-2503.155 -1066.394)" fill="#5478ff"/>
        <path id="Rectángulo_3472" data-name="Rectángulo 3472" d="M3.417,0h0A3.417,3.417,0,0,1,6.834,3.417V6.971a3.417,3.417,0,0,1-3.417,3.417h0A3.417,3.417,0,0,1,0,6.971V3.417A3.417,3.417,0,0,1,3.417,0Z" transform="translate(31.631 19.966)" fill="#ffbdb3"/>
        <path id="Trazado_32441" data-name="Trazado 32441" d="M2508.785,1056.084l3.275-2.664-4.512.191.247,5.468Z" transform="translate(-2476.086 -1031.419)" fill="#de666d"/>
        <path id="Trazado_32442" data-name="Trazado 32442" d="M2483.64,959.43s-3.509,7.866-2.389,12.691c1.408,6.066,6.755,4.328,10.394,1.9,3.212-2.144,4.989-9.764,4.989-9.764Z" transform="translate(-2453.979 -953.062)" fill="#ffbdb3"/>
        <path id="Trazado_32443" data-name="Trazado 32443" d="M2475.922,1023.2s-2.262,5.544-.068,6.421,8.083-.527,9.856-2.238-1.957-4.564-1.957-4.564-2.194,2.194-3.73,2.414A5.787,5.787,0,0,0,2475.922,1023.2Z" transform="translate(-2448.865 -1005.906)" fill="#434f97"/>
        <path id="Trazado_32444" data-name="Trazado 32444" d="M2487.287,933.275s-4.363.319-5.949-2.913c-1.878-3.825,2.247-4.187,2.247-4.187a3.286,3.286,0,0,1-2.189-3.865c.336-2.323,4.588-.823,7.054,1.495s9.738,4,9.61,7.318a16.13,16.13,0,0,1-2.381,7.717c-1.14,1.991-2.31,6.437-5.847,3.817S2487.648,936.5,2487.287,933.275Z" transform="translate(-2453.827 -921.146)" fill="#434f97"/>
        <path id="Trazado_32445" data-name="Trazado 32445" d="M2517.187,1007s2.705-1.031,2.244,1.2a3.763,3.763,0,0,1-2.679,2.762Z" transform="translate(-2483.759 -992.519)" fill="#ffbdb3"/>
        <path id="Trazado_32446" data-name="Trazado 32446" d="M2483.806,992.528a3.088,3.088,0,0,1,2.942,1.427s-.026-1.844-2.628-2.655Z" transform="translate(-2456.293 -979.632)" fill="#434f97"/>
        <path id="Trazado_32447" data-name="Trazado 32447" d="M2482.467,1001.434s.547-.3,1.5.532a1.8,1.8,0,0,0-1.351-1.3Z" transform="translate(-2455.177 -987.442)" fill="#434f97"/>
        <path id="Trazado_32448" data-name="Trazado 32448" d="M2483.42,1003.966a.394.394,0,1,1-.458-.318A.394.394,0,0,1,2483.42,1003.966Z" transform="translate(-2455.319 -989.92)" fill="#434f97"/>
        <path id="Trazado_32449" data-name="Trazado 32449" d="M2482.258,1034.5a5.775,5.775,0,0,0,2.648-1.114,1.415,1.415,0,0,1-1.12,1.688A2.042,2.042,0,0,1,2482.258,1034.5Z" transform="translate(-2455.002 -1014.72)" fill="#fff"/>
        <path id="Trazado_32450" data-name="Trazado 32450" d="M2499.334,1015.988c-.061.627-.83,1.065-1.718.979s-1.559-.664-1.5-1.291.83-1.065,1.718-.979S2499.395,1015.361,2499.334,1015.988Z" transform="translate(-2466.554 -999.128)" fill="#ff8686"/>
        <path id="Trazado_32451" data-name="Trazado 32451" d="M2481.306,954.864a4.688,4.688,0,0,0,2.509,5.391l2.8,1.1a6.487,6.487,0,0,1-5.393-2.14C2479.167,956.685,2480.621,955.154,2481.306,954.864Z" transform="translate(-2453.257 -949.256)" fill="#2f3e97"/>
        <path id="Trazado_32452" data-name="Trazado 32452" d="M2484.642,921.32s-1.618,2.977.936,4.921a2.883,2.883,0,0,1-2.074-2.307C2482.993,921.9,2483.8,921.39,2484.642,921.32Z" transform="translate(-2455.908 -921.291)" fill="#2f3e97"/>
        <path id="Trazado_32453" data-name="Trazado 32453" d="M2550.82,956.835s3.246,1.46,4.378,3.974c.61,1.355.465,1.565.465,1.565a2.42,2.42,0,0,0,0-2.015C2555.234,958.971,2554.333,958.035,2550.82,956.835Z" transform="translate(-2512.161 -950.899)" fill="#fff"/>
        <path id="Trazado_32454" data-name="Trazado 32454" d="M2492.6,925.914a4.723,4.723,0,0,0,3.644,3.551S2490.641,929.472,2492.6,925.914Z" transform="translate(-2463.28 -925.108)" fill="#fff"/>
        <path id="Trazado_32455" data-name="Trazado 32455" d="M2471.38,1093.027s4.827,21.723,3.072,35.985c0,0-8.777,3.95-22.82,1.536,0,0,2.633-13.6,2.414-21.5s3.291-17.554,3.291-17.554S2467.869,1087.1,2471.38,1093.027Z" transform="translate(-2429.47 -1061.854)" fill="#6d8cff"/>
        <path id="Trazado_32456" data-name="Trazado 32456" d="M2460.656,1196.161l2.887-.341,4.608-16.018-7.139,13.5Z" transform="translate(-2436.993 -1136.78)" fill="#5478ff"/>
        <path id="Trazado_32457" data-name="Trazado 32457" d="M2377.373,1123.214l-.935,7.021,16.018-2.633,5.7-13.824s4.5-16.13-3.73-13.385c-3.95,1.316-6.583,19.967-6.583,19.967Z" transform="translate(-2366.783 -1070.318)" fill="#6d8cff"/>
        <path id="Trazado_32458" data-name="Trazado 32458" d="M2491.91,1069.271a5.208,5.208,0,0,1,4.052-3.145c3.072-.439,10.313-2.414,10.313-2.414a6.133,6.133,0,0,1,1.317,6.144c-1.1,3.95,0,6.144-3.95,5.047S2497.293,1068.247,2491.91,1069.271Z" transform="translate(-2463.049 -1039.999)" fill="#ff5475"/>
        <path id="Trazado_32459" data-name="Trazado 32459" d="M2476.7,1679.993l.878,3.072,8.667-.878-.549-3.73Z" transform="translate(-2450.366 -1552.493)" fill="#5665c2"/>
      </g>
      <g id="Grupo_16294" data-name="Grupo 16294" transform="translate(364.027 271.25)">
        <path id="Trazado_32460" data-name="Trazado 32460" d="M1603.65,1155.387a12.732,12.732,0,0,1,4.93-.148c2.853.439,3.963.658,3.963.658a5.532,5.532,0,0,1-5.06,4.169C1603.314,1160.286,1601.572,1157.949,1603.65,1155.387Z" transform="translate(-1577.142 -1134.177)" fill="#ffbdb3"/>
        <path id="Trazado_32461" data-name="Trazado 32461" d="M1504.006,1160.014h14.043v6.583s-8.777,1.975-16.237-1.317Z" transform="translate(-1492.975 -1138.294)" fill="#ff5475"/>
        <path id="Trazado_32462" data-name="Trazado 32462" d="M1574.2,1156.714a76.263,76.263,0,0,1-3.775,6.817c-1.491,2.18-.613,5.251,1.8,5.91,0,0,0,7.9,1.536,10.971,0,0,6.363,1.975,10.313-1.317,0,0,2.414-10.532,2.633-12.288s.658-10.094.658-10.094h-2.852s-1.1,3.511-5.924,3.292-1.975-3.95-1.975-3.95Z" transform="translate(-1549.568 -1134.994)" fill="#ff5475"/>
        <path id="Trazado_32463" data-name="Trazado 32463" d="M1660.25,1214.756l-1.026,9.384,2.026-9.44,1.855,2.474-2.2-4.393Z" transform="translate(-1624.205 -1182.284)" fill="#de3354"/>
        <path id="Trazado_32464" data-name="Trazado 32464" d="M1626.533,1226.39s4.191,1.65,5.908-1.789c0,0-.073,2.029-1.282,2.642A4.238,4.238,0,0,1,1626.533,1226.39Z" transform="translate(-1596.951 -1192.138)" fill="#de3354"/>
        <path id="Trazado_32465" data-name="Trazado 32465" d="M1559.452,1385.965s.254,2.039.641,5.014c.768,5.9,2.062,15.49,2.937,20.159,1.316,7.021.878,31.816.878,31.816l3.291-.219s3.291-22.381,1.975-30.719.219-24.575.219-24.575Z" transform="translate(-1541.028 -1326.662)" fill="#ffbdb3"/>
        <path id="Trazado_32466" data-name="Trazado 32466" d="M1571.132,1410.487s-6.79-.1-8.771-1.694l-.3-2.289,9.181,2.228Z" transform="translate(-1543.206 -1343.785)" fill="#e07972"/>
        <path id="Trazado_32467" data-name="Trazado 32467" d="M1629.774,1391.531s4.169,25.892,6.144,28.086,16.018,21.284,16.018,21.284l.658-1.316s-6.583-18.651-11.41-23.917c0,0,.219-18.651-2.194-24.795Z" transform="translate(-1599.654 -1330.754)" fill="#ffbdb3"/>
        <path id="Trazado_32468" data-name="Trazado 32468" d="M1634.812,1413.735s5.966.334,9.207-2.578l-.312-1.815s-4.992,3.088-9.277,2.2Z" transform="translate(-1603.535 -1346.151)" fill="#e07972"/>
        <path id="Trazado_32469" data-name="Trazado 32469" d="M1554.58,1304.766s1.888-11.232,5.99-15.49c0,0,4.542,2.105,8.711.569a14.609,14.609,0,0,0,2.4-1.133c.011-.184.011.036.011.036l5.924,16.457s-2.194,4.389-11.19,3.95v-.439h-.439S1556.774,1308.058,1554.58,1304.766Z" transform="translate(-1536.967 -1245.525)" fill="#87a1fd"/>
        <path id="Trazado_32470" data-name="Trazado 32470" d="M1547.952,1381.879a.482.482,0,0,0-.746.331c-.216.658-1.079,2.194-.432,2.633s7.556,4.608,12.95,3.95v-2.414S1552.151,1385.717,1547.952,1381.879Z" transform="translate(-1530.262 -1323.188)" fill="#c4d0fe"/>
        <path id="Trazado_32471" data-name="Trazado 32471" d="M1615.263,1408.023v2.69l1.755-.057v-2.414Z" transform="translate(-1587.556 -1345.051)" fill="#a8bafe"/>
        <path id="Trazado_32472" data-name="Trazado 32472" d="M1623.381,1388.282s-.2.069-.219.439a5.6,5.6,0,0,0,.439,2.414c.439.658,5.266.658,9.216-1.1s3.072-3.291,3.072-3.291l-.5-2.177a.631.631,0,0,0-.814-.457s.878,1.755-3.511,3.511C1626.1,1389.609,1623.381,1388.282,1623.381,1388.282Z" transform="translate(-1594.138 -1325.091)" fill="#c4d0fe"/>
        <path id="Trazado_32473" data-name="Trazado 32473" d="M1646.924,1320.956a4.46,4.46,0,0,0,3.949,3.511Z" transform="translate(-1613.951 -1272.466)" fill="#5478ff"/>
        <path id="Trazado_32474" data-name="Trazado 32474" d="M1615.7,1373.723l1.317,5.925-1.755-.219Z" transform="translate(-1587.556 -1316.456)" fill="#5478ff"/>
        <path id="Trazado_32475" data-name="Trazado 32475" d="M1606.586,1297.474l.785,7.636.52-7.422Z" transform="translate(-1580.323 -1252.889)" fill="#5478ff"/>
        <path id="Trazado_32476" data-name="Trazado 32476" d="M1619.219,1301.826a.658.658,0,1,1-.658-.658A.658.658,0,0,1,1619.219,1301.826Z" transform="translate(-1589.756 -1255.969)" fill="#5478ff"/>
        <path id="Trazado_32477" data-name="Trazado 32477" d="M1561.09,1292.706l-.2-.079-.3-.117c-3.987,4.147-5.879,14.876-5.979,15.457l3.415,1.671a9.754,9.754,0,0,1-1.883-2.961C1555.919,1305.579,1558.141,1295.411,1561.09,1292.706Z" transform="translate(-1536.989 -1248.751)" fill="#5478ff"/>
        <path id="Trazado_32478" data-name="Trazado 32478" d="M1667.48,1159.838s2.085-.658,3.84,3.73,5.266,13.385,5.266,13.385l-4.608-.439-5.266-7.022Z" transform="translate(-1630.448 -1138.118)" fill="#ff5475"/>
        <path id="Trazado_32479" data-name="Trazado 32479" d="M1642.966,1232.787s7.021,8.777,12.288,5.924c0,0,2.012-.9,1.445-2.427s-3.2-.425-7.369-2.4-4.608-2.633-4.608-2.633Z" transform="translate(-1610.651 -1197.682)" fill="#ffbdb3"/>
        <path id="Trazado_32480" data-name="Trazado 32480" d="M1449.184,1038.861s5.486,17.115,8.777,17.773,2.852-3.73,1.755-5.486-7.021-11.63-7.021-11.63a15.5,15.5,0,0,0,2.414-2.633,5.766,5.766,0,0,1,1.755-1.755,1.285,1.285,0,0,0-1.755-.219c-1.1.658-1.1,1.316-1.1,1.316l-1.1.439a44.314,44.314,0,0,1,.658-5.705c.439-1.755-1.317.22-1.536,3.291,0,0-.219-3.291-.439-4.388s-.658.219-.658.219-.439-.439-.658,0a11.805,11.805,0,0,0-.219,4.169l-.878-2.633c-.219-.658-.658-.439-.439.659s.439,2.414.439,2.414A26.273,26.273,0,0,0,1449.184,1038.861Z" transform="translate(-1448.685 -1029.428)" fill="#ffbdb3"/>
        <path id="Trazado_32481" data-name="Trazado 32481" d="M1537.077,1721.991s1.975,4.388.658,5.266-4.389.878-7.46,1.1-6.583.658-7.021,0-.385-1.778,2.769-2.535S1536.638,1722.869,1537.077,1721.991Z" transform="translate(-1510.686 -1606.796)" fill="#83dbda"/>
        <path id="Trazado_32482" data-name="Trazado 32482" d="M1746.044,1683.954s-2.633,7.46-2.852,10.532,5.047,1.317,5.485-1.975,1.975-7.68-1.536-8.777Z" transform="translate(-1694.201 -1574.903)" fill="#83dbda"/>
        <path id="Trazado_32483" data-name="Trazado 32483" d="M1547.238,1720.672a25.87,25.87,0,0,1-7.9,3.949c-2.372.625,1.961,2.116,6.363.439,4.608-1.755,4.286-4.111,4.286-4.111Z" transform="translate(-1523.699 -1605.697)" fill="#ffbdb3"/>
        <path id="Trazado_32484" data-name="Trazado 32484" d="M1753.948,1683.954s-1.755,7.68-.658,8.777c1.119,1.119,4.169-4.388,1.975-9Z" transform="translate(-1702.324 -1574.903)" fill="#ffbdb3"/>
        <path id="Trazado_32485" data-name="Trazado 32485" d="M1570.234,1220.294s1.785,2.7,4.418,2.261a6.345,6.345,0,0,0-1.867,3.576l-.108-3.138A3.207,3.207,0,0,1,1570.234,1220.294Z" transform="translate(-1550.017 -1188.547)" fill="#de3354"/>
        <path id="Trazado_32486" data-name="Trazado 32486" d="M1584.093,1107.246s-1.1,4.827.219,7.68c1.582,3.427,3.291.658,3.291.658S1583.874,1115.584,1584.093,1107.246Z" transform="translate(-1561.213 -1094.302)" fill="#434f97"/>
        <path id="Trazado_32487" data-name="Trazado 32487" d="M1587.049,1050.52s-9.874-.219-7.68,12.727a7.968,7.968,0,0,1,.658-2.414s.219,8.119,3.73,7.461a7.44,7.44,0,0,1,4.388-.22,37.018,37.018,0,0,0,5.705.878s3.73-2.194,3.291-3.949S1596.484,1051.836,1587.049,1050.52Z" transform="translate(-1557.367 -1047.011)" fill="#272c6a"/>
        <path id="Trazado_32488" data-name="Trazado 32488" d="M1619.3,1205.02s1.269,1.015,2.284.508c0,0,.971,2.66,1.872,3.283l1.755-1.536s.179-3.777-.328-4.285a6.725,6.725,0,0,0-2.538-.761l-1.523.761s0,.508.761.254a4,4,0,0,1,1.015-.254l1.015.508a6.144,6.144,0,0,0-2.284,0,4.637,4.637,0,0,0-2.03,1.522Z" transform="translate(-1590.919 -1173.486)" fill="#ffbdb3"/>
        <path id="Trazado_32489" data-name="Trazado 32489" d="M1621.528,1126.357h0a2.313,2.313,0,0,1-2.307-2.307v-3.944a2.307,2.307,0,1,1,4.613,0v3.944A2.313,2.313,0,0,1,1621.528,1126.357Z" transform="translate(-1590.856 -1103.101)" fill="#ffbdb3"/>
        <path id="Trazado_32490" data-name="Trazado 32490" d="M1613.5,1129.667s3.291-.878,3.511-2.633l-4.388,1.079v3.529l-1.317.219a1.58,1.58,0,0,0,1.4.491Z" transform="translate(-1584.257 -1110.799)" fill="#e07972"/>
        <path id="Trazado_32491" data-name="Trazado 32491" d="M1598.838,1058s-4.189,8.378-1.1,10.582,6.834-.661,7.5-1.543,3.307-4.189,3.087-6.394S1602.586,1052.045,1598.838,1058Z" transform="translate(-1571.998 -1051.186)" fill="#ffbdb3"/>
        <path id="Trazado_32492" data-name="Trazado 32492" d="M1619.089,1057.117a9.975,9.975,0,0,0,4.608,9l1.118,1.1,1.4-1.975Z" transform="translate(-1590.724 -1052.511)" fill="#e07972"/>
        <path id="Trazado_32493" data-name="Trazado 32493" d="M1621.826,1042.016s-7.46-2.194-4.169,3.949,6.583,6.364,7.021,9.874a4.207,4.207,0,0,1-2.414,4.608s5.047-.439,4.827-4.169c0,0,0,2.414-2.852,5.047s1.536,5.7,1.536,5.7-2.417-3.421.878-5.047a4.848,4.848,0,0,0,2.852-4.828,5.505,5.505,0,0,1,.22,2.194s1.536-2.194-.658-7.46C1627.652,1048.495,1628.847,1045.088,1621.826,1042.016Z" transform="translate(-1588.852 -1039.604)" fill="#434f97"/>
        <path id="Trazado_32494" data-name="Trazado 32494" d="M1580.961,1047.735c-1.1-1.536-12.288-.658-7.021,12.726,0,0-.893-5.935,1.1-8.777,3.072-4.388,6.144-1.975,6.144-1.975A5.331,5.331,0,0,0,1580.961,1047.735Z" transform="translate(-1551.937 -1044.227)" fill="#434f97"/>
        <path id="Trazado_32495" data-name="Trazado 32495" d="M1607.677,1116.81s2.476-.793,3.251-.393a1.139,1.139,0,0,1-.486,1.323C1609.653,1118.317,1607.857,1118.18,1607.677,1116.81Z" transform="translate(-1581.232 -1101.854)" fill="#ff8686"/>
        <path id="Trazado_32496" data-name="Trazado 32496" d="M1607.791,1116.807a1.463,1.463,0,0,0,1.267.372,3.261,3.261,0,0,0,1.936-.772C1610.229,1116.058,1608.01,1116.739,1607.791,1116.807Z" transform="translate(-1581.327 -1101.857)" fill="#fff"/>
        <path id="Trazado_32497" data-name="Trazado 32497" d="M1632.921,1094.021a1.467,1.467,0,0,1,1.451.35c.625.635.577.707.577.707s-.185-1.286-1.032-1.437-1,.38-1,.38Z" transform="translate(-1602.277 -1082.937)" fill="#272c6a"/>
        <path id="Trazado_32498" data-name="Trazado 32498" d="M1604.945,1088.276a1.468,1.468,0,0,0-1.384-.56c-.878.152-.88.24-.88.24s.9-.939,1.675-.569.589.889.589.889Z" transform="translate(-1577.066 -1077.675)" fill="#272c6a"/>
        <path id="Trazado_32499" data-name="Trazado 32499" d="M1605.239,1076.923c.276,0,.38-.688.38-.688a3.413,3.413,0,0,0-3.053,1.01A12.653,12.653,0,0,1,1605.239,1076.923Z" transform="translate(-1576.971 -1068.423)" fill="#272c6a"/>
        <path id="Trazado_32500" data-name="Trazado 32500" d="M1634.761,1079.655c-.233-.148.056-.784.056-.784a3.412,3.412,0,0,1,2.012,2.508A12.635,12.635,0,0,0,1634.761,1079.655Z" transform="translate(-1603.735 -1070.647)" fill="#272c6a"/>
        <path id="Trazado_32501" data-name="Trazado 32501" d="M1637.934,1105.918a1.476,1.476,0,1,1-1.168-1.369A1.295,1.295,0,0,1,1637.934,1105.918Z" transform="translate(-1604.115 -1092.021)" fill="#ff8686"/>
        <path id="Trazado_32502" data-name="Trazado 32502" d="M1598.954,1096.911a1.289,1.289,0,0,0-1.147-1.363,16.586,16.586,0,0,0-.49,2.138l.015,0A1.3,1.3,0,0,0,1598.954,1096.911Z" transform="translate(-1572.594 -1084.55)" fill="#ff8686"/>
        <path id="Trazado_32503" data-name="Trazado 32503" d="M1652.2,1051.84s3.291,2.414,3.95,4.828A5.8,5.8,0,0,0,1652.2,1051.84Z" transform="translate(-1618.35 -1048.112)" fill="#fff"/>
        <path id="Trazado_32504" data-name="Trazado 32504" d="M1578.326,1058.208a4.435,4.435,0,0,1,3.072-3.73S1578.984,1056.453,1578.326,1058.208Z" transform="translate(-1556.763 -1050.311)" fill="#272c6a"/>
        <path id="Trazado_32505" data-name="Trazado 32505" d="M1679.306,1113.842s2.046,3.1.584,5.924C1679.891,1119.766,1683.106,1117.792,1679.306,1113.842Z" transform="translate(-1640.947 -1099.801)" fill="#272c6a"/>
      </g>
      <g id="Grupo_16295" data-name="Grupo 16295" transform="translate(300.016 256.985)">
        <path id="Trazado_32506" data-name="Trazado 32506" d="M1080.036,1655.152l-.366,7.607h5.705l1.317-6.363Z" transform="translate(-1077.037 -1536.81)" fill="#ffbdb3"/>
        <path id="Trazado_32507" data-name="Trazado 32507" d="M1239.293,1687.025l.878,5.705,5.047-.878.439-8.119Z" transform="translate(-1210.11 -1560.638)" fill="#ffbdb3"/>
        <path id="Trazado_32508" data-name="Trazado 32508" d="M1084.5,1333.476l-.878,22.82s-3.73,15.14-3.95,25.672l6.583,1.755,7.021-25.234,2.194-18.651,2.194,1.614,9,18.792a63.387,63.387,0,0,0-.658,28.525l6.8-.878,2.853-28.525-5.7-31.158-24.575-.658A43.728,43.728,0,0,0,1084.5,1333.476Z" transform="translate(-1077.037 -1263.7)" fill="#ff5475"/>
        <path id="Trazado_32509" data-name="Trazado 32509" d="M1063.84,1640.2l.439,3.95,10.313,1.975.658-3.511Z" transform="translate(-1063.84 -1524.346)" fill="#ff7d96"/>
        <path id="Trazado_32510" data-name="Trazado 32510" d="M1224.782,1675.152l.658,3.292s7.9-.658,10.532-3.73l-.878-2.852S1229.609,1674.713,1224.782,1675.152Z" transform="translate(-1198.012 -1550.74)" fill="#ff7d96"/>
        <path id="Trazado_32511" data-name="Trazado 32511" d="M1118.386,1724.937a2.417,2.417,0,0,1,2.026-1.385c1.68-.3,3.792.71,3.747,1.89l-.045.506h-5.728Z" transform="translate(-1109.313 -1593.789)" fill="#fff"/>
        <path id="Trazado_32512" data-name="Trazado 32512" d="M1124.676,1726.058h-.1a.2.2,0,1,1-.2-.2.205.205,0,0,1,.2.2h.2a.408.408,0,1,0-.408.407.407.407,0,0,0,.408-.407Z" transform="translate(-1113.962 -1595.583)" fill="#489da2"/>
        <path id="Trazado_32513" data-name="Trazado 32513" d="M1119.154,1720.537h-.1a.2.2,0,1,1-.2-.2.205.205,0,0,1,.2.2h.2a.408.408,0,1,0-.408.407.407.407,0,0,0,.408-.407Z" transform="translate(-1109.358 -1590.98)" fill="#489da2"/>
        <path id="Trazado_32514" data-name="Trazado 32514" d="M1115.473,1713.174h-.1a.2.2,0,1,1-.2-.2.205.205,0,0,1,.2.2h.2a.408.408,0,1,0-.407.407.407.407,0,0,0,.407-.407Z" transform="translate(-1106.29 -1584.841)" fill="#489da2"/>
        <path id="Trazado_32515" data-name="Trazado 32515" d="M1072.109,1694.05l-1.466,9.968a.385.385,0,0,0,.381.441h7.049a2.98,2.98,0,0,0,1.446-.375l4.584-2.547a.3.3,0,0,0,.071-.47,7.985,7.985,0,0,0-4.1-1.507c-.6-.038-1.531-2.143-1.531-2.143l-.612-3.368Z" transform="translate(-1069.508 -1569.238)" fill="#2b888f"/>
        <path id="Trazado_32516" data-name="Trazado 32516" d="M1070.954,1731.8l0-.016a6.9,6.9,0,0,1-.063-.957,4.9,4.9,0,0,1,.491-2.294,2.309,2.309,0,0,1,.829-.883,2.751,2.751,0,0,1,1.454-.359,2.875,2.875,0,0,1,1.989.714,4.684,4.684,0,0,1,1.293,2.476,8.116,8.116,0,0,1,.165,1.071c.012.136.018.246.021.321,0,.038,0,.067,0,.086s0,.028,0,.028h.406a8.034,8.034,0,0,0-.472-2.521,4.4,4.4,0,0,0-1.146-1.764,3.285,3.285,0,0,0-2.259-.817,3.158,3.158,0,0,0-1.664.417,2.961,2.961,0,0,0-1.247,1.666,6.025,6.025,0,0,0-.269,1.859,7.069,7.069,0,0,0,.071,1.039l.4-.066Z" transform="translate(-1069.377 -1596.608)" fill="#489da2"/>
        <rect id="Rectángulo_3473" data-name="Rectángulo 3473" width="5.521" height="0.406" transform="matrix(0.035, -0.999, 0.999, 0.035, 3.887, 130.475)" fill="#489da2"/>
        <path id="Trazado_32517" data-name="Trazado 32517" d="M1070.565,1736.83s-.24,1.664.372,1.664h7.087a2.014,2.014,0,0,0,1.05-.3l5.027-3.072a1.423,1.423,0,0,0,.124-1.536l-4.637,2.776a4.076,4.076,0,0,1-2.16.578Z" transform="translate(-1069.408 -1602.202)" fill="#fff"/>
        <path id="Trazado_32518" data-name="Trazado 32518" d="M1242.89,1711.2a10.786,10.786,0,0,0,5.289,6.813l-.6,3.161h-11.739s-1.018-.937.518-8.617Z" transform="translate(-1206.954 -1583.535)" fill="#2b888f"/>
        <path id="Trazado_32519" data-name="Trazado 32519" d="M1280.73,1718.4h0a5.515,5.515,0,0,1-2.182-1.259,10.5,10.5,0,0,1-3.114-5.95l-.4.083a10.848,10.848,0,0,0,3.3,6.222,5.8,5.8,0,0,0,2.307,1.3l.087-.4Z" transform="translate(-1239.908 -1583.525)" fill="#489da2"/>
        <path id="Trazado_32520" data-name="Trazado 32520" d="M1312.184,1755.348a4.183,4.183,0,0,0-3.311-3.01c-2.709-.451-2.859-.3-2.859-.3l-.771,3.161Z" transform="translate(-1265.089 -1617.56)" fill="#fff"/>
        <path id="Trazado_32521" data-name="Trazado 32521" d="M1241.476,1751.587a5.317,5.317,0,0,0-.7-2.154,4.427,4.427,0,0,0-1.46-1.519,5.29,5.29,0,0,0-2.688-.758l-.014.406a4.885,4.885,0,0,1,2.486.7,4.216,4.216,0,0,1,1.676,2.113,5.172,5.172,0,0,1,.249.888c.021.112.033.2.04.264,0,.031.006.054.007.069v.021l.405-.024Z" transform="translate(-1207.875 -1613.51)" fill="#489da2"/>
        <path id="Trazado_32522" data-name="Trazado 32522" d="M1234.552,1772.514h17.759a.677.677,0,1,0,0-1.354h-17.759a.677.677,0,1,0,0,1.354Z" transform="translate(-1205.593 -1633.522)" fill="#fff"/>
        <path id="Trazado_32523" data-name="Trazado 32523" d="M1292.576,1745.462h1.505a.2.2,0,0,0,0-.406h-1.505a.2.2,0,1,0,0,.406Z" transform="translate(-1254.361 -1611.76)" fill="#fff"/>
        <path id="Trazado_32524" data-name="Trazado 32524" d="M1288.052,1739.129h1.5a.2.2,0,1,0,0-.406h-1.5a.2.2,0,0,0,0,.406Z" transform="translate(-1250.589 -1606.481)" fill="#fff"/>
        <path id="Trazado_32525" data-name="Trazado 32525" d="M1283.528,1732.764h1.505a.2.2,0,0,0,0-.406h-1.505a.2.2,0,1,0,0,.406Z" transform="translate(-1246.818 -1601.175)" fill="#fff"/>
        <path id="Trazado_32526" data-name="Trazado 32526" d="M1098.839,1117.285s-6.9-6.214-7.365-9.9,10.126-17.26,14.269-18.181,4.833,1.841,4.833,1.841l-10.663,14.806,3.069,7.748Z" transform="translate(-1086.865 -1064.843)" fill="#34a7b0"/>
        <path id="Trazado_32527" data-name="Trazado 32527" d="M1132.866,1328.21l-24.575-.658a43.75,43.75,0,0,0-.878,5.924l-.255,6.634c2.77.087,7.806-.394,14.3-3.782,5.432-2.834,9.846-2.045,12.766-.713Z" transform="translate(-1099.953 -1263.7)" fill="#de3354"/>
        <path id="Trazado_32528" data-name="Trazado 32528" d="M1239.93,1051.687h0c-1.913-.638-3.063-2.4-2.556-3.925l1.676-5.028c.507-1.521,2.487-2.244,4.4-1.606s3.063,2.4,2.556,3.925l-1.676,5.028C1243.823,1051.6,1241.843,1052.324,1239.93,1051.687Z" transform="translate(-1208.411 -1024.724)" fill="#ffbdb3"/>
        <path id="Trazado_32529" data-name="Trazado 32529" d="M1252.257,981.061s1.316,5.266,6.8,4.827,2.633-15.14,2.194-15.579-6.8-2.852-9.874.439S1250.5,980.4,1252.257,981.061Z" transform="translate(-1218.905 -964.824)" fill="#ffbdb3"/>
        <path id="Trazado_32530" data-name="Trazado 32530" d="M1278.194,985.233s3.083,1.491,5.716-.264a4.513,4.513,0,0,1-2.853-.658,5.693,5.693,0,0,0,2.8-.325l-.224-1.567-6.308.576-1.1.658Z" transform="translate(-1240.903 -975.973)" fill="#e07972"/>
        <path id="Trazado_32531" data-name="Trazado 32531" d="M1283.836,1057.136s-2.99-1.341-3.648-2.658l.8,4.328.736-1.914A9.941,9.941,0,0,0,1283.836,1057.136Z" transform="translate(-1244.203 -1036.047)" fill="#e07972"/>
        <path id="Trazado_32532" data-name="Trazado 32532" d="M1215.328,950.908s-1.536-3.072,1.1-4.169,7.68-1.536,8.777-3.072a2.726,2.726,0,0,1-1.1,3.072,9.247,9.247,0,0,1,4.388-.439,13.657,13.657,0,0,0,5.925-1.1s0,5.924-5.486,5.7c0,0,.658.878,2.633.22,0,0-1.536,2.633-6.583.658,0,0,1.755.878,1.316,5.705a6.857,6.857,0,0,0-2.852,4.169,4.732,4.732,0,0,1-2.853,3.511h-4.169s1.975-3.072-.439-5.266S1212.037,953.98,1215.328,950.908Z" transform="translate(-1188.559 -943.667)" fill="#87a1fd"/>
        <path id="Trazado_32533" data-name="Trazado 32533" d="M1276.727,1023.438s-1.536-1.536-2.633-.658,0,4.388,2.414,4.608Z" transform="translate(-1238.767 -1009.395)" fill="#ffbdb3"/>
        <path id="Trazado_32534" data-name="Trazado 32534" d="M1107.638,1087.789s-10.532,27.208-13.6,43.226c0,0-.658,4.388,0,5.924,0,0,6.583,1.755,16.676-3.511s16.676,1.975,16.676,1.975a49.639,49.639,0,0,0-.658-16.9c-1.975-9,3.072-17.993,3.072-17.993l2.414-8.338A48.474,48.474,0,0,0,1107.638,1087.789Z" transform="translate(-1088.768 -1063.652)" fill="#83dbda"/>
        <path id="Trazado_32535" data-name="Trazado 32535" d="M1406.389,1071.628l-.878,4.388,3.73,1.536.658-5.047Z" transform="translate(-1348.681 -1050.344)" fill="#ffbdb3"/>
        <path id="Trazado_32536" data-name="Trazado 32536" d="M1400.7,1006.9a32.881,32.881,0,0,0,.439-4.827c0-.439.219-.878.658-.658s0,5.705,0,5.705a40.183,40.183,0,0,0,.439-4.608c.219-1.316.658-.219.658-.219a18.43,18.43,0,0,1,0,5.047,12.332,12.332,0,0,0,.439-2.852c0-1.1.64-.219.658.219.219,5.266-2.853,10.093-2.853,10.093l-2.633-.878c-2.633-.878-1.617-3.008-2.137-4.407s-2.484-2.863-.5-2.614c1.755.219,2.326,3.322,2.326,3.322.722-.465,1.667-3.583,1.4-7.272-.095-1.332.57-.835.658-.658a7.63,7.63,0,0,1,.439,2.853Z" transform="translate(-1339.917 -991.764)" fill="#ffbdb3"/>
        <path id="Trazado_32537" data-name="Trazado 32537" d="M1268.539,1096.661s15.359,3.95,19.309,3.072,5.486-15.359,5.486-15.359-2.194-2.853-4.169-3.511l-3.73,9.435s-9.125-3.84-12.9-4.882S1261.737,1091.834,1268.539,1096.661Z" transform="translate(-1232.115 -1058.043)" fill="#83dbda"/>
        <path id="Trazado_32538" data-name="Trazado 32538" d="M1203.675,1063.7v3.949a65.691,65.691,0,0,1,13.863,1.954,16.493,16.493,0,0,0,.619-2.173C1218.376,1066.335,1211.574,1062.385,1203.675,1063.7Z" transform="translate(-1180.416 -1043.515)" fill="#83dbda"/>
        <path id="Trazado_32539" data-name="Trazado 32539" d="M1280.966,1186.084l-1.676-12.959a15.628,15.628,0,0,0,4,1.278Z" transform="translate(-1243.454 -1134.959)" fill="#34a7b0"/>
        <path id="Trazado_32540" data-name="Trazado 32540" d="M1204.849,1064.078l.362,3.011,3.163,1.422-4.7-.325v-3.949A7.4,7.4,0,0,1,1204.849,1064.078Z" transform="translate(-1180.416 -1044.05)" fill="#34a7b0"/>
        <path id="Trazado_32541" data-name="Trazado 32541" d="M1121.065,1398.788l1.536.658-2.156,18.1-6.481,23.479-1.749-.384,6.436-23.425Z" transform="translate(-1104.169 -1323.088)" fill="#de3354"/>
        <path id="Trazado_32542" data-name="Trazado 32542" d="M1297.845,1003.713a3.123,3.123,0,0,1,1.821-1.457c1.274-.364,2.367-.364,2.549-.546a.961.961,0,0,1-.546,1.275C1300.758,1003.349,1299.3,1002.985,1297.845,1003.713Z" transform="translate(-1258.923 -992.056)" fill="#272c6a"/>
        <path id="Trazado_32543" data-name="Trazado 32543" d="M1306.6,1013.447a2.465,2.465,0,0,1,1.457-.91c1.093-.182,1.093.728,1.093.728s-.546-.728-2.549.182Z" transform="translate(-1266.223 -1001.061)" fill="#272c6a"/>
        <path id="Trazado_32544" data-name="Trazado 32544" d="M1316.27,1015.3a.455.455,0,1,1-.455-.455A.455.455,0,0,1,1316.27,1015.3Z" transform="translate(-1273.525 -1003.008)" fill="#272c6a"/>
        <path id="Trazado_32545" data-name="Trazado 32545" d="M1303.307,1044.178s-.1.944,1.093,1.275c.319.088,1.092.182,1.275-.364Z" transform="translate(-1263.475 -1027.46)" fill="#fff"/>
        <path id="Trazado_32546" data-name="Trazado 32546" d="M1215.328,957.016c-3.291,3.072-1.755,6.8.658,9a4.008,4.008,0,0,1,.634,4.91,4.649,4.649,0,0,0,1.121.137s2.194-1.755,0-5.486-2.633-6.363-1.317-7.46c0,0-1.975-3.511.878-4.389a28.089,28.089,0,0,0,5.77-2.731h0c-2.018.675-4.877,1.116-6.646,1.853C1213.792,953.944,1215.328,957.016,1215.328,957.016Z" transform="translate(-1188.559 -949.775)" fill="#5478ff"/>
        <path id="Trazado_32547" data-name="Trazado 32547" d="M1247.6,995.115s-1.975,3.95.658,7.021C1248.26,1002.137,1247.163,996.87,1247.6,995.115Z" transform="translate(-1216.444 -986.558)" fill="#fff"/>
        <path id="Trazado_32548" data-name="Trazado 32548" d="M1268.315,966.967a8.512,8.512,0,0,1,4.827-1.536c2.853,0,4.608.439,5.486-.658,0,0-.658,1.755-4.388,1.755S1270.729,966.309,1268.315,966.967Z" transform="translate(-1234.305 -961.262)" fill="#fff"/>
      </g>
    </g>
  </g>
</svg>
